<?xml version="1.0" encoding="utf-8" standalone="no"?>
<!DOCTYPE svg PUBLIC "-//W3C//DTD SVG 1.1//EN"
  "http://www.w3.org/Graphics/SVG/1.1/DTD/svg11.dtd">
<svg xmlns:xlink="http://www.w3.org/1999/xlink" width="641.994295pt" height="461.908187pt" viewBox="0 0 641.994295 461.908187" xmlns="http://www.w3.org/2000/svg" version="1.1">
 <metadata>
  <rdf:RDF xmlns:dc="http://purl.org/dc/elements/1.1/" xmlns:cc="http://creativecommons.org/ns#" xmlns:rdf="http://www.w3.org/1999/02/22-rdf-syntax-ns#">
   <cc:Work>
    <dc:type rdf:resource="http://purl.org/dc/dcmitype/StillImage"/>
    <dc:date>2026-03-06T22:34:23.809168</dc:date>
    <dc:format>image/svg+xml</dc:format>
    <dc:creator>
     <cc:Agent>
      <dc:title>Matplotlib v3.10.5, https://matplotlib.org/</dc:title>
     </cc:Agent>
    </dc:creator>
   </cc:Work>
  </rdf:RDF>
 </metadata>
 <defs>
  <style type="text/css">*{stroke-linejoin: round; stroke-linecap: butt}</style>
 </defs>
 <g id="figure_1">
  <g id="patch_1">
   <path d="M 0 461.908187 
L 641.994295 461.908187 
L 641.994295 0 
L 0 0 
z
" style="fill: #ffffff"/>
  </g>
  <g id="axes_1">
   <g id="patch_2">
    <path d="M 42.53875 420.480687 
L 631.84775 420.480687 
L 631.84775 43.736687 
L 42.53875 43.736687 
z
" style="fill: #ffffff"/>
   </g>
   <g id="matplotlib.axis_1">
    <g id="xtick_1">
     <g id="line2d_1">
      <defs>
       <path id="md35b8c0a48" d="M 0 0 
L 0 3.5 
" style="stroke: #000000; stroke-width: 0.8"/>
      </defs>
      <g>
       <use xlink:href="#md35b8c0a48" x="116.202375" y="420.480687" style="stroke: #000000; stroke-width: 0.8"/>
      </g>
     </g>
     <g id="text_1">
      <!-- Ionizable -->
      <g transform="translate(89.298 436.598812) scale(0.12 -0.12)">
       <defs>
        <path id="DejaVuSans-49" d="M 628 4666 
L 1259 4666 
L 1259 0 
L 628 0 
L 628 4666 
z
" transform="scale(0.015625)"/>
        <path id="DejaVuSans-6f" d="M 1959 3097 
Q 1497 3097 1228 2736 
Q 959 2375 959 1747 
Q 959 1119 1226 758 
Q 1494 397 1959 397 
Q 2419 397 2687 759 
Q 2956 1122 2956 1747 
Q 2956 2369 2687 2733 
Q 2419 3097 1959 3097 
z
M 1959 3584 
Q 2709 3584 3137 3096 
Q 3566 2609 3566 1747 
Q 3566 888 3137 398 
Q 2709 -91 1959 -91 
Q 1206 -91 779 398 
Q 353 888 353 1747 
Q 353 2609 779 3096 
Q 1206 3584 1959 3584 
z
" transform="scale(0.015625)"/>
        <path id="DejaVuSans-6e" d="M 3513 2113 
L 3513 0 
L 2938 0 
L 2938 2094 
Q 2938 2591 2744 2837 
Q 2550 3084 2163 3084 
Q 1697 3084 1428 2787 
Q 1159 2491 1159 1978 
L 1159 0 
L 581 0 
L 581 3500 
L 1159 3500 
L 1159 2956 
Q 1366 3272 1645 3428 
Q 1925 3584 2291 3584 
Q 2894 3584 3203 3211 
Q 3513 2838 3513 2113 
z
" transform="scale(0.015625)"/>
        <path id="DejaVuSans-69" d="M 603 3500 
L 1178 3500 
L 1178 0 
L 603 0 
L 603 3500 
z
M 603 4863 
L 1178 4863 
L 1178 4134 
L 603 4134 
L 603 4863 
z
" transform="scale(0.015625)"/>
        <path id="DejaVuSans-7a" d="M 353 3500 
L 3084 3500 
L 3084 2975 
L 922 459 
L 3084 459 
L 3084 0 
L 275 0 
L 275 525 
L 2438 3041 
L 353 3041 
L 353 3500 
z
" transform="scale(0.015625)"/>
        <path id="DejaVuSans-61" d="M 2194 1759 
Q 1497 1759 1228 1600 
Q 959 1441 959 1056 
Q 959 750 1161 570 
Q 1363 391 1709 391 
Q 2188 391 2477 730 
Q 2766 1069 2766 1631 
L 2766 1759 
L 2194 1759 
z
M 3341 1997 
L 3341 0 
L 2766 0 
L 2766 531 
Q 2569 213 2275 61 
Q 1981 -91 1556 -91 
Q 1019 -91 701 211 
Q 384 513 384 1019 
Q 384 1609 779 1909 
Q 1175 2209 1959 2209 
L 2766 2209 
L 2766 2266 
Q 2766 2663 2505 2880 
Q 2244 3097 1772 3097 
Q 1472 3097 1187 3025 
Q 903 2953 641 2809 
L 641 3341 
Q 956 3463 1253 3523 
Q 1550 3584 1831 3584 
Q 2591 3584 2966 3190 
Q 3341 2797 3341 1997 
z
" transform="scale(0.015625)"/>
        <path id="DejaVuSans-62" d="M 3116 1747 
Q 3116 2381 2855 2742 
Q 2594 3103 2138 3103 
Q 1681 3103 1420 2742 
Q 1159 2381 1159 1747 
Q 1159 1113 1420 752 
Q 1681 391 2138 391 
Q 2594 391 2855 752 
Q 3116 1113 3116 1747 
z
M 1159 2969 
Q 1341 3281 1617 3432 
Q 1894 3584 2278 3584 
Q 2916 3584 3314 3078 
Q 3713 2572 3713 1747 
Q 3713 922 3314 415 
Q 2916 -91 2278 -91 
Q 1894 -91 1617 61 
Q 1341 213 1159 525 
L 1159 0 
L 581 0 
L 581 4863 
L 1159 4863 
L 1159 2969 
z
" transform="scale(0.015625)"/>
        <path id="DejaVuSans-6c" d="M 603 4863 
L 1178 4863 
L 1178 0 
L 603 0 
L 603 4863 
z
" transform="scale(0.015625)"/>
        <path id="DejaVuSans-65" d="M 3597 1894 
L 3597 1613 
L 953 1613 
Q 991 1019 1311 708 
Q 1631 397 2203 397 
Q 2534 397 2845 478 
Q 3156 559 3463 722 
L 3463 178 
Q 3153 47 2828 -22 
Q 2503 -91 2169 -91 
Q 1331 -91 842 396 
Q 353 884 353 1716 
Q 353 2575 817 3079 
Q 1281 3584 2069 3584 
Q 2775 3584 3186 3129 
Q 3597 2675 3597 1894 
z
M 3022 2063 
Q 3016 2534 2758 2815 
Q 2500 3097 2075 3097 
Q 1594 3097 1305 2825 
Q 1016 2553 972 2059 
L 3022 2063 
z
" transform="scale(0.015625)"/>
       </defs>
       <use xlink:href="#DejaVuSans-49"/>
       <use xlink:href="#DejaVuSans-6f" transform="translate(29.492188 0)"/>
       <use xlink:href="#DejaVuSans-6e" transform="translate(90.673828 0)"/>
       <use xlink:href="#DejaVuSans-69" transform="translate(154.052734 0)"/>
       <use xlink:href="#DejaVuSans-7a" transform="translate(181.835938 0)"/>
       <use xlink:href="#DejaVuSans-61" transform="translate(234.326172 0)"/>
       <use xlink:href="#DejaVuSans-62" transform="translate(295.605469 0)"/>
       <use xlink:href="#DejaVuSans-6c" transform="translate(359.082031 0)"/>
       <use xlink:href="#DejaVuSans-65" transform="translate(386.865234 0)"/>
      </g>
     </g>
    </g>
    <g id="xtick_2">
     <g id="line2d_2">
      <g>
       <use xlink:href="#md35b8c0a48" x="263.529625" y="420.480687" style="stroke: #000000; stroke-width: 0.8"/>
      </g>
     </g>
     <g id="text_2">
      <!-- Cationic -->
      <g transform="translate(239.204312 436.598812) scale(0.12 -0.12)">
       <defs>
        <path id="DejaVuSans-43" d="M 4122 4306 
L 4122 3641 
Q 3803 3938 3442 4084 
Q 3081 4231 2675 4231 
Q 1875 4231 1450 3742 
Q 1025 3253 1025 2328 
Q 1025 1406 1450 917 
Q 1875 428 2675 428 
Q 3081 428 3442 575 
Q 3803 722 4122 1019 
L 4122 359 
Q 3791 134 3420 21 
Q 3050 -91 2638 -91 
Q 1578 -91 968 557 
Q 359 1206 359 2328 
Q 359 3453 968 4101 
Q 1578 4750 2638 4750 
Q 3056 4750 3426 4639 
Q 3797 4528 4122 4306 
z
" transform="scale(0.015625)"/>
        <path id="DejaVuSans-74" d="M 1172 4494 
L 1172 3500 
L 2356 3500 
L 2356 3053 
L 1172 3053 
L 1172 1153 
Q 1172 725 1289 603 
Q 1406 481 1766 481 
L 2356 481 
L 2356 0 
L 1766 0 
Q 1100 0 847 248 
Q 594 497 594 1153 
L 594 3053 
L 172 3053 
L 172 3500 
L 594 3500 
L 594 4494 
L 1172 4494 
z
" transform="scale(0.015625)"/>
        <path id="DejaVuSans-63" d="M 3122 3366 
L 3122 2828 
Q 2878 2963 2633 3030 
Q 2388 3097 2138 3097 
Q 1578 3097 1268 2742 
Q 959 2388 959 1747 
Q 959 1106 1268 751 
Q 1578 397 2138 397 
Q 2388 397 2633 464 
Q 2878 531 3122 666 
L 3122 134 
Q 2881 22 2623 -34 
Q 2366 -91 2075 -91 
Q 1284 -91 818 406 
Q 353 903 353 1747 
Q 353 2603 823 3093 
Q 1294 3584 2113 3584 
Q 2378 3584 2631 3529 
Q 2884 3475 3122 3366 
z
" transform="scale(0.015625)"/>
       </defs>
       <use xlink:href="#DejaVuSans-43"/>
       <use xlink:href="#DejaVuSans-61" transform="translate(69.824219 0)"/>
       <use xlink:href="#DejaVuSans-74" transform="translate(131.103516 0)"/>
       <use xlink:href="#DejaVuSans-69" transform="translate(170.3125 0)"/>
       <use xlink:href="#DejaVuSans-6f" transform="translate(198.095703 0)"/>
       <use xlink:href="#DejaVuSans-6e" transform="translate(259.277344 0)"/>
       <use xlink:href="#DejaVuSans-69" transform="translate(322.65625 0)"/>
       <use xlink:href="#DejaVuSans-63" transform="translate(350.439453 0)"/>
      </g>
     </g>
    </g>
    <g id="xtick_3">
     <g id="line2d_3">
      <g>
       <use xlink:href="#md35b8c0a48" x="410.856875" y="420.480687" style="stroke: #000000; stroke-width: 0.8"/>
      </g>
     </g>
     <g id="text_3">
      <!-- Neutral -->
      <g transform="translate(388.71125 436.598812) scale(0.12 -0.12)">
       <defs>
        <path id="DejaVuSans-4e" d="M 628 4666 
L 1478 4666 
L 3547 763 
L 3547 4666 
L 4159 4666 
L 4159 0 
L 3309 0 
L 1241 3903 
L 1241 0 
L 628 0 
L 628 4666 
z
" transform="scale(0.015625)"/>
        <path id="DejaVuSans-75" d="M 544 1381 
L 544 3500 
L 1119 3500 
L 1119 1403 
Q 1119 906 1312 657 
Q 1506 409 1894 409 
Q 2359 409 2629 706 
Q 2900 1003 2900 1516 
L 2900 3500 
L 3475 3500 
L 3475 0 
L 2900 0 
L 2900 538 
Q 2691 219 2414 64 
Q 2138 -91 1772 -91 
Q 1169 -91 856 284 
Q 544 659 544 1381 
z
M 1991 3584 
L 1991 3584 
z
" transform="scale(0.015625)"/>
        <path id="DejaVuSans-72" d="M 2631 2963 
Q 2534 3019 2420 3045 
Q 2306 3072 2169 3072 
Q 1681 3072 1420 2755 
Q 1159 2438 1159 1844 
L 1159 0 
L 581 0 
L 581 3500 
L 1159 3500 
L 1159 2956 
Q 1341 3275 1631 3429 
Q 1922 3584 2338 3584 
Q 2397 3584 2469 3576 
Q 2541 3569 2628 3553 
L 2631 2963 
z
" transform="scale(0.015625)"/>
       </defs>
       <use xlink:href="#DejaVuSans-4e"/>
       <use xlink:href="#DejaVuSans-65" transform="translate(74.804688 0)"/>
       <use xlink:href="#DejaVuSans-75" transform="translate(136.328125 0)"/>
       <use xlink:href="#DejaVuSans-74" transform="translate(199.707031 0)"/>
       <use xlink:href="#DejaVuSans-72" transform="translate(238.916016 0)"/>
       <use xlink:href="#DejaVuSans-61" transform="translate(280.029297 0)"/>
       <use xlink:href="#DejaVuSans-6c" transform="translate(341.308594 0)"/>
      </g>
     </g>
    </g>
    <g id="xtick_4">
     <g id="line2d_4">
      <g>
       <use xlink:href="#md35b8c0a48" x="558.184125" y="420.480687" style="stroke: #000000; stroke-width: 0.8"/>
      </g>
     </g>
     <g id="text_4">
      <!-- Anionic -->
      <g transform="translate(536.170687 436.598812) scale(0.12 -0.12)">
       <defs>
        <path id="DejaVuSans-41" d="M 2188 4044 
L 1331 1722 
L 3047 1722 
L 2188 4044 
z
M 1831 4666 
L 2547 4666 
L 4325 0 
L 3669 0 
L 3244 1197 
L 1141 1197 
L 716 0 
L 50 0 
L 1831 4666 
z
" transform="scale(0.015625)"/>
       </defs>
       <use xlink:href="#DejaVuSans-41"/>
       <use xlink:href="#DejaVuSans-6e" transform="translate(68.408203 0)"/>
       <use xlink:href="#DejaVuSans-69" transform="translate(131.787109 0)"/>
       <use xlink:href="#DejaVuSans-6f" transform="translate(159.570312 0)"/>
       <use xlink:href="#DejaVuSans-6e" transform="translate(220.751953 0)"/>
       <use xlink:href="#DejaVuSans-69" transform="translate(284.130859 0)"/>
       <use xlink:href="#DejaVuSans-63" transform="translate(311.914062 0)"/>
      </g>
     </g>
    </g>
    <g id="text_5">
     <!-- Lipid Charge Type -->
     <g transform="translate(283.773562 452.212562) scale(0.12 -0.12)">
      <defs>
       <path id="DejaVuSans-4c" d="M 628 4666 
L 1259 4666 
L 1259 531 
L 3531 531 
L 3531 0 
L 628 0 
L 628 4666 
z
" transform="scale(0.015625)"/>
       <path id="DejaVuSans-70" d="M 1159 525 
L 1159 -1331 
L 581 -1331 
L 581 3500 
L 1159 3500 
L 1159 2969 
Q 1341 3281 1617 3432 
Q 1894 3584 2278 3584 
Q 2916 3584 3314 3078 
Q 3713 2572 3713 1747 
Q 3713 922 3314 415 
Q 2916 -91 2278 -91 
Q 1894 -91 1617 61 
Q 1341 213 1159 525 
z
M 3116 1747 
Q 3116 2381 2855 2742 
Q 2594 3103 2138 3103 
Q 1681 3103 1420 2742 
Q 1159 2381 1159 1747 
Q 1159 1113 1420 752 
Q 1681 391 2138 391 
Q 2594 391 2855 752 
Q 3116 1113 3116 1747 
z
" transform="scale(0.015625)"/>
       <path id="DejaVuSans-64" d="M 2906 2969 
L 2906 4863 
L 3481 4863 
L 3481 0 
L 2906 0 
L 2906 525 
Q 2725 213 2448 61 
Q 2172 -91 1784 -91 
Q 1150 -91 751 415 
Q 353 922 353 1747 
Q 353 2572 751 3078 
Q 1150 3584 1784 3584 
Q 2172 3584 2448 3432 
Q 2725 3281 2906 2969 
z
M 947 1747 
Q 947 1113 1208 752 
Q 1469 391 1925 391 
Q 2381 391 2643 752 
Q 2906 1113 2906 1747 
Q 2906 2381 2643 2742 
Q 2381 3103 1925 3103 
Q 1469 3103 1208 2742 
Q 947 2381 947 1747 
z
" transform="scale(0.015625)"/>
       <path id="DejaVuSans-20" transform="scale(0.015625)"/>
       <path id="DejaVuSans-68" d="M 3513 2113 
L 3513 0 
L 2938 0 
L 2938 2094 
Q 2938 2591 2744 2837 
Q 2550 3084 2163 3084 
Q 1697 3084 1428 2787 
Q 1159 2491 1159 1978 
L 1159 0 
L 581 0 
L 581 4863 
L 1159 4863 
L 1159 2956 
Q 1366 3272 1645 3428 
Q 1925 3584 2291 3584 
Q 2894 3584 3203 3211 
Q 3513 2838 3513 2113 
z
" transform="scale(0.015625)"/>
       <path id="DejaVuSans-67" d="M 2906 1791 
Q 2906 2416 2648 2759 
Q 2391 3103 1925 3103 
Q 1463 3103 1205 2759 
Q 947 2416 947 1791 
Q 947 1169 1205 825 
Q 1463 481 1925 481 
Q 2391 481 2648 825 
Q 2906 1169 2906 1791 
z
M 3481 434 
Q 3481 -459 3084 -895 
Q 2688 -1331 1869 -1331 
Q 1566 -1331 1297 -1286 
Q 1028 -1241 775 -1147 
L 775 -588 
Q 1028 -725 1275 -790 
Q 1522 -856 1778 -856 
Q 2344 -856 2625 -561 
Q 2906 -266 2906 331 
L 2906 616 
Q 2728 306 2450 153 
Q 2172 0 1784 0 
Q 1141 0 747 490 
Q 353 981 353 1791 
Q 353 2603 747 3093 
Q 1141 3584 1784 3584 
Q 2172 3584 2450 3431 
Q 2728 3278 2906 2969 
L 2906 3500 
L 3481 3500 
L 3481 434 
z
" transform="scale(0.015625)"/>
       <path id="DejaVuSans-54" d="M -19 4666 
L 3928 4666 
L 3928 4134 
L 2272 4134 
L 2272 0 
L 1638 0 
L 1638 4134 
L -19 4134 
L -19 4666 
z
" transform="scale(0.015625)"/>
       <path id="DejaVuSans-79" d="M 2059 -325 
Q 1816 -950 1584 -1140 
Q 1353 -1331 966 -1331 
L 506 -1331 
L 506 -850 
L 844 -850 
Q 1081 -850 1212 -737 
Q 1344 -625 1503 -206 
L 1606 56 
L 191 3500 
L 800 3500 
L 1894 763 
L 2988 3500 
L 3597 3500 
L 2059 -325 
z
" transform="scale(0.015625)"/>
      </defs>
      <use xlink:href="#DejaVuSans-4c"/>
      <use xlink:href="#DejaVuSans-69" transform="translate(55.712891 0)"/>
      <use xlink:href="#DejaVuSans-70" transform="translate(83.496094 0)"/>
      <use xlink:href="#DejaVuSans-69" transform="translate(146.972656 0)"/>
      <use xlink:href="#DejaVuSans-64" transform="translate(174.755859 0)"/>
      <use xlink:href="#DejaVuSans-20" transform="translate(238.232422 0)"/>
      <use xlink:href="#DejaVuSans-43" transform="translate(270.019531 0)"/>
      <use xlink:href="#DejaVuSans-68" transform="translate(339.84375 0)"/>
      <use xlink:href="#DejaVuSans-61" transform="translate(403.222656 0)"/>
      <use xlink:href="#DejaVuSans-72" transform="translate(464.501953 0)"/>
      <use xlink:href="#DejaVuSans-67" transform="translate(503.865234 0)"/>
      <use xlink:href="#DejaVuSans-65" transform="translate(567.341797 0)"/>
      <use xlink:href="#DejaVuSans-20" transform="translate(628.865234 0)"/>
      <use xlink:href="#DejaVuSans-54" transform="translate(660.652344 0)"/>
      <use xlink:href="#DejaVuSans-79" transform="translate(706.111328 0)"/>
      <use xlink:href="#DejaVuSans-70" transform="translate(765.291016 0)"/>
      <use xlink:href="#DejaVuSans-65" transform="translate(828.767578 0)"/>
     </g>
    </g>
   </g>
   <g id="matplotlib.axis_2">
    <g id="ytick_1">
     <g id="line2d_5">
      <path d="M 42.53875 410.820585 
L 631.84775 410.820585 
" clip-path="url(#pd350c3350f)" style="fill: none; stroke-dasharray: 0.8,1.32; stroke-dashoffset: 0; stroke: #cccccc; stroke-opacity: 0.8; stroke-width: 0.8"/>
     </g>
     <g id="line2d_6">
      <defs>
       <path id="m0bb036898d" d="M 0 0 
L -3.5 0 
" style="stroke: #000000; stroke-width: 0.8"/>
      </defs>
      <g>
       <use xlink:href="#m0bb036898d" x="42.53875" y="410.820585" style="stroke: #000000; stroke-width: 0.8"/>
      </g>
     </g>
     <g id="text_6">
      <!-- 0 -->
      <g transform="translate(29.17625 414.619804) scale(0.1 -0.1)">
       <defs>
        <path id="DejaVuSans-30" d="M 2034 4250 
Q 1547 4250 1301 3770 
Q 1056 3291 1056 2328 
Q 1056 1369 1301 889 
Q 1547 409 2034 409 
Q 2525 409 2770 889 
Q 3016 1369 3016 2328 
Q 3016 3291 2770 3770 
Q 2525 4250 2034 4250 
z
M 2034 4750 
Q 2819 4750 3233 4129 
Q 3647 3509 3647 2328 
Q 3647 1150 3233 529 
Q 2819 -91 2034 -91 
Q 1250 -91 836 529 
Q 422 1150 422 2328 
Q 422 3509 836 4129 
Q 1250 4750 2034 4750 
z
" transform="scale(0.015625)"/>
       </defs>
       <use xlink:href="#DejaVuSans-30"/>
      </g>
     </g>
    </g>
    <g id="ytick_2">
     <g id="line2d_7">
      <path d="M 42.53875 362.520072 
L 631.84775 362.520072 
" clip-path="url(#pd350c3350f)" style="fill: none; stroke-dasharray: 0.8,1.32; stroke-dashoffset: 0; stroke: #cccccc; stroke-opacity: 0.8; stroke-width: 0.8"/>
     </g>
     <g id="line2d_8">
      <g>
       <use xlink:href="#m0bb036898d" x="42.53875" y="362.520072" style="stroke: #000000; stroke-width: 0.8"/>
      </g>
     </g>
     <g id="text_7">
      <!-- 5 -->
      <g transform="translate(29.17625 366.319291) scale(0.1 -0.1)">
       <defs>
        <path id="DejaVuSans-35" d="M 691 4666 
L 3169 4666 
L 3169 4134 
L 1269 4134 
L 1269 2991 
Q 1406 3038 1543 3061 
Q 1681 3084 1819 3084 
Q 2600 3084 3056 2656 
Q 3513 2228 3513 1497 
Q 3513 744 3044 326 
Q 2575 -91 1722 -91 
Q 1428 -91 1123 -41 
Q 819 9 494 109 
L 494 744 
Q 775 591 1075 516 
Q 1375 441 1709 441 
Q 2250 441 2565 725 
Q 2881 1009 2881 1497 
Q 2881 1984 2565 2268 
Q 2250 2553 1709 2553 
Q 1456 2553 1204 2497 
Q 953 2441 691 2322 
L 691 4666 
z
" transform="scale(0.015625)"/>
       </defs>
       <use xlink:href="#DejaVuSans-35"/>
      </g>
     </g>
    </g>
    <g id="ytick_3">
     <g id="line2d_9">
      <path d="M 42.53875 314.219559 
L 631.84775 314.219559 
" clip-path="url(#pd350c3350f)" style="fill: none; stroke-dasharray: 0.8,1.32; stroke-dashoffset: 0; stroke: #cccccc; stroke-opacity: 0.8; stroke-width: 0.8"/>
     </g>
     <g id="line2d_10">
      <g>
       <use xlink:href="#m0bb036898d" x="42.53875" y="314.219559" style="stroke: #000000; stroke-width: 0.8"/>
      </g>
     </g>
     <g id="text_8">
      <!-- 10 -->
      <g transform="translate(22.81375 318.018778) scale(0.1 -0.1)">
       <defs>
        <path id="DejaVuSans-31" d="M 794 531 
L 1825 531 
L 1825 4091 
L 703 3866 
L 703 4441 
L 1819 4666 
L 2450 4666 
L 2450 531 
L 3481 531 
L 3481 0 
L 794 0 
L 794 531 
z
" transform="scale(0.015625)"/>
       </defs>
       <use xlink:href="#DejaVuSans-31"/>
       <use xlink:href="#DejaVuSans-30" transform="translate(63.623047 0)"/>
      </g>
     </g>
    </g>
    <g id="ytick_4">
     <g id="line2d_11">
      <path d="M 42.53875 265.919046 
L 631.84775 265.919046 
" clip-path="url(#pd350c3350f)" style="fill: none; stroke-dasharray: 0.8,1.32; stroke-dashoffset: 0; stroke: #cccccc; stroke-opacity: 0.8; stroke-width: 0.8"/>
     </g>
     <g id="line2d_12">
      <g>
       <use xlink:href="#m0bb036898d" x="42.53875" y="265.919046" style="stroke: #000000; stroke-width: 0.8"/>
      </g>
     </g>
     <g id="text_9">
      <!-- 15 -->
      <g transform="translate(22.81375 269.718265) scale(0.1 -0.1)">
       <use xlink:href="#DejaVuSans-31"/>
       <use xlink:href="#DejaVuSans-35" transform="translate(63.623047 0)"/>
      </g>
     </g>
    </g>
    <g id="ytick_5">
     <g id="line2d_13">
      <path d="M 42.53875 217.618534 
L 631.84775 217.618534 
" clip-path="url(#pd350c3350f)" style="fill: none; stroke-dasharray: 0.8,1.32; stroke-dashoffset: 0; stroke: #cccccc; stroke-opacity: 0.8; stroke-width: 0.8"/>
     </g>
     <g id="line2d_14">
      <g>
       <use xlink:href="#m0bb036898d" x="42.53875" y="217.618534" style="stroke: #000000; stroke-width: 0.8"/>
      </g>
     </g>
     <g id="text_10">
      <!-- 20 -->
      <g transform="translate(22.81375 221.417752) scale(0.1 -0.1)">
       <defs>
        <path id="DejaVuSans-32" d="M 1228 531 
L 3431 531 
L 3431 0 
L 469 0 
L 469 531 
Q 828 903 1448 1529 
Q 2069 2156 2228 2338 
Q 2531 2678 2651 2914 
Q 2772 3150 2772 3378 
Q 2772 3750 2511 3984 
Q 2250 4219 1831 4219 
Q 1534 4219 1204 4116 
Q 875 4013 500 3803 
L 500 4441 
Q 881 4594 1212 4672 
Q 1544 4750 1819 4750 
Q 2544 4750 2975 4387 
Q 3406 4025 3406 3419 
Q 3406 3131 3298 2873 
Q 3191 2616 2906 2266 
Q 2828 2175 2409 1742 
Q 1991 1309 1228 531 
z
" transform="scale(0.015625)"/>
       </defs>
       <use xlink:href="#DejaVuSans-32"/>
       <use xlink:href="#DejaVuSans-30" transform="translate(63.623047 0)"/>
      </g>
     </g>
    </g>
    <g id="ytick_6">
     <g id="line2d_15">
      <path d="M 42.53875 169.318021 
L 631.84775 169.318021 
" clip-path="url(#pd350c3350f)" style="fill: none; stroke-dasharray: 0.8,1.32; stroke-dashoffset: 0; stroke: #cccccc; stroke-opacity: 0.8; stroke-width: 0.8"/>
     </g>
     <g id="line2d_16">
      <g>
       <use xlink:href="#m0bb036898d" x="42.53875" y="169.318021" style="stroke: #000000; stroke-width: 0.8"/>
      </g>
     </g>
     <g id="text_11">
      <!-- 25 -->
      <g transform="translate(22.81375 173.11724) scale(0.1 -0.1)">
       <use xlink:href="#DejaVuSans-32"/>
       <use xlink:href="#DejaVuSans-35" transform="translate(63.623047 0)"/>
      </g>
     </g>
    </g>
    <g id="ytick_7">
     <g id="line2d_17">
      <path d="M 42.53875 121.017508 
L 631.84775 121.017508 
" clip-path="url(#pd350c3350f)" style="fill: none; stroke-dasharray: 0.8,1.32; stroke-dashoffset: 0; stroke: #cccccc; stroke-opacity: 0.8; stroke-width: 0.8"/>
     </g>
     <g id="line2d_18">
      <g>
       <use xlink:href="#m0bb036898d" x="42.53875" y="121.017508" style="stroke: #000000; stroke-width: 0.8"/>
      </g>
     </g>
     <g id="text_12">
      <!-- 30 -->
      <g transform="translate(22.81375 124.816727) scale(0.1 -0.1)">
       <defs>
        <path id="DejaVuSans-33" d="M 2597 2516 
Q 3050 2419 3304 2112 
Q 3559 1806 3559 1356 
Q 3559 666 3084 287 
Q 2609 -91 1734 -91 
Q 1441 -91 1130 -33 
Q 819 25 488 141 
L 488 750 
Q 750 597 1062 519 
Q 1375 441 1716 441 
Q 2309 441 2620 675 
Q 2931 909 2931 1356 
Q 2931 1769 2642 2001 
Q 2353 2234 1838 2234 
L 1294 2234 
L 1294 2753 
L 1863 2753 
Q 2328 2753 2575 2939 
Q 2822 3125 2822 3475 
Q 2822 3834 2567 4026 
Q 2313 4219 1838 4219 
Q 1578 4219 1281 4162 
Q 984 4106 628 3988 
L 628 4550 
Q 988 4650 1302 4700 
Q 1616 4750 1894 4750 
Q 2613 4750 3031 4423 
Q 3450 4097 3450 3541 
Q 3450 3153 3228 2886 
Q 3006 2619 2597 2516 
z
" transform="scale(0.015625)"/>
       </defs>
       <use xlink:href="#DejaVuSans-33"/>
       <use xlink:href="#DejaVuSans-30" transform="translate(63.623047 0)"/>
      </g>
     </g>
    </g>
    <g id="ytick_8">
     <g id="line2d_19">
      <path d="M 42.53875 72.716995 
L 631.84775 72.716995 
" clip-path="url(#pd350c3350f)" style="fill: none; stroke-dasharray: 0.8,1.32; stroke-dashoffset: 0; stroke: #cccccc; stroke-opacity: 0.8; stroke-width: 0.8"/>
     </g>
     <g id="line2d_20">
      <g>
       <use xlink:href="#m0bb036898d" x="42.53875" y="72.716995" style="stroke: #000000; stroke-width: 0.8"/>
      </g>
     </g>
     <g id="text_13">
      <!-- 35 -->
      <g transform="translate(22.81375 76.516214) scale(0.1 -0.1)">
       <use xlink:href="#DejaVuSans-33"/>
       <use xlink:href="#DejaVuSans-35" transform="translate(63.623047 0)"/>
      </g>
     </g>
    </g>
    <g id="text_14">
     <!-- ApoE in Protein Corona (%) -->
     <g transform="translate(16.318125 313.3365) rotate(-90) scale(0.12 -0.12)">
      <defs>
       <path id="DejaVuSans-45" d="M 628 4666 
L 3578 4666 
L 3578 4134 
L 1259 4134 
L 1259 2753 
L 3481 2753 
L 3481 2222 
L 1259 2222 
L 1259 531 
L 3634 531 
L 3634 0 
L 628 0 
L 628 4666 
z
" transform="scale(0.015625)"/>
       <path id="DejaVuSans-50" d="M 1259 4147 
L 1259 2394 
L 2053 2394 
Q 2494 2394 2734 2622 
Q 2975 2850 2975 3272 
Q 2975 3691 2734 3919 
Q 2494 4147 2053 4147 
L 1259 4147 
z
M 628 4666 
L 2053 4666 
Q 2838 4666 3239 4311 
Q 3641 3956 3641 3272 
Q 3641 2581 3239 2228 
Q 2838 1875 2053 1875 
L 1259 1875 
L 1259 0 
L 628 0 
L 628 4666 
z
" transform="scale(0.015625)"/>
       <path id="DejaVuSans-28" d="M 1984 4856 
Q 1566 4138 1362 3434 
Q 1159 2731 1159 2009 
Q 1159 1288 1364 580 
Q 1569 -128 1984 -844 
L 1484 -844 
Q 1016 -109 783 600 
Q 550 1309 550 2009 
Q 550 2706 781 3412 
Q 1013 4119 1484 4856 
L 1984 4856 
z
" transform="scale(0.015625)"/>
       <path id="DejaVuSans-25" d="M 4653 2053 
Q 4381 2053 4226 1822 
Q 4072 1591 4072 1178 
Q 4072 772 4226 539 
Q 4381 306 4653 306 
Q 4919 306 5073 539 
Q 5228 772 5228 1178 
Q 5228 1588 5073 1820 
Q 4919 2053 4653 2053 
z
M 4653 2450 
Q 5147 2450 5437 2106 
Q 5728 1763 5728 1178 
Q 5728 594 5436 251 
Q 5144 -91 4653 -91 
Q 4153 -91 3862 251 
Q 3572 594 3572 1178 
Q 3572 1766 3864 2108 
Q 4156 2450 4653 2450 
z
M 1428 4353 
Q 1159 4353 1004 4120 
Q 850 3888 850 3481 
Q 850 3069 1003 2837 
Q 1156 2606 1428 2606 
Q 1700 2606 1854 2837 
Q 2009 3069 2009 3481 
Q 2009 3884 1853 4118 
Q 1697 4353 1428 4353 
z
M 4250 4750 
L 4750 4750 
L 1831 -91 
L 1331 -91 
L 4250 4750 
z
M 1428 4750 
Q 1922 4750 2215 4408 
Q 2509 4066 2509 3481 
Q 2509 2891 2217 2550 
Q 1925 2209 1428 2209 
Q 931 2209 642 2551 
Q 353 2894 353 3481 
Q 353 4063 643 4406 
Q 934 4750 1428 4750 
z
" transform="scale(0.015625)"/>
       <path id="DejaVuSans-29" d="M 513 4856 
L 1013 4856 
Q 1481 4119 1714 3412 
Q 1947 2706 1947 2009 
Q 1947 1309 1714 600 
Q 1481 -109 1013 -844 
L 513 -844 
Q 928 -128 1133 580 
Q 1338 1288 1338 2009 
Q 1338 2731 1133 3434 
Q 928 4138 513 4856 
z
" transform="scale(0.015625)"/>
      </defs>
      <use xlink:href="#DejaVuSans-41"/>
      <use xlink:href="#DejaVuSans-70" transform="translate(68.408203 0)"/>
      <use xlink:href="#DejaVuSans-6f" transform="translate(131.884766 0)"/>
      <use xlink:href="#DejaVuSans-45" transform="translate(193.066406 0)"/>
      <use xlink:href="#DejaVuSans-20" transform="translate(256.25 0)"/>
      <use xlink:href="#DejaVuSans-69" transform="translate(288.037109 0)"/>
      <use xlink:href="#DejaVuSans-6e" transform="translate(315.820312 0)"/>
      <use xlink:href="#DejaVuSans-20" transform="translate(379.199219 0)"/>
      <use xlink:href="#DejaVuSans-50" transform="translate(410.986328 0)"/>
      <use xlink:href="#DejaVuSans-72" transform="translate(469.539062 0)"/>
      <use xlink:href="#DejaVuSans-6f" transform="translate(508.402344 0)"/>
      <use xlink:href="#DejaVuSans-74" transform="translate(569.583984 0)"/>
      <use xlink:href="#DejaVuSans-65" transform="translate(608.792969 0)"/>
      <use xlink:href="#DejaVuSans-69" transform="translate(670.316406 0)"/>
      <use xlink:href="#DejaVuSans-6e" transform="translate(698.099609 0)"/>
      <use xlink:href="#DejaVuSans-20" transform="translate(761.478516 0)"/>
      <use xlink:href="#DejaVuSans-43" transform="translate(793.265625 0)"/>
      <use xlink:href="#DejaVuSans-6f" transform="translate(863.089844 0)"/>
      <use xlink:href="#DejaVuSans-72" transform="translate(924.271484 0)"/>
      <use xlink:href="#DejaVuSans-6f" transform="translate(963.134766 0)"/>
      <use xlink:href="#DejaVuSans-6e" transform="translate(1024.316406 0)"/>
      <use xlink:href="#DejaVuSans-61" transform="translate(1087.695312 0)"/>
      <use xlink:href="#DejaVuSans-20" transform="translate(1148.974609 0)"/>
      <use xlink:href="#DejaVuSans-28" transform="translate(1180.761719 0)"/>
      <use xlink:href="#DejaVuSans-25" transform="translate(1219.775391 0)"/>
      <use xlink:href="#DejaVuSans-29" transform="translate(1314.794922 0)"/>
     </g>
    </g>
   </g>
   <g id="FillBetweenPolyCollection_1">
    <defs>
     <path id="m826f5061a2" d="M 129.235775 -189.227069 
L 103.168975 -189.227069 
L 102.861367 -190.876117 
L 102.562125 -192.525165 
L 102.271475 -194.174213 
L 101.98955 -195.82326 
L 101.716385 -197.472308 
L 101.451919 -199.121356 
L 101.195989 -200.770404 
L 100.948336 -202.419452 
L 100.708603 -204.0685 
L 100.476336 -205.717547 
L 100.250987 -207.366595 
L 100.031921 -209.015643 
L 99.818417 -210.664691 
L 99.609672 -212.313739 
L 99.404812 -213.962786 
L 99.202894 -215.611834 
L 99.002917 -217.260882 
L 98.803825 -218.90993 
L 98.604521 -220.558978 
L 98.403871 -222.208025 
L 98.200715 -223.857073 
L 97.993878 -225.506121 
L 97.782175 -227.155169 
L 97.564427 -228.804217 
L 97.339465 -230.453265 
L 97.106141 -232.102312 
L 96.863341 -233.75136 
L 96.60999 -235.400408 
L 96.345063 -237.049456 
L 96.067595 -238.698504 
L 95.77669 -240.347551 
L 95.471525 -241.996599 
L 95.151364 -243.645647 
L 94.815561 -245.294695 
L 94.463569 -246.943743 
L 94.094947 -248.59279 
L 93.709363 -250.241838 
L 93.306605 -251.890886 
L 92.886581 -253.539934 
L 92.449325 -255.188982 
L 91.995001 -256.83803 
L 91.523906 -258.487077 
L 91.036475 -260.136125 
L 90.533278 -261.785173 
L 90.015025 -263.434221 
L 89.482565 -265.083269 
L 88.936889 -266.732316 
L 88.379123 -268.381364 
L 87.810532 -270.030412 
L 87.232516 -271.67946 
L 86.646606 -273.328508 
L 86.05446 -274.977555 
L 85.45786 -276.626603 
L 84.858703 -278.275651 
L 84.258996 -279.924699 
L 83.660852 -281.573747 
L 83.066473 -283.222794 
L 82.478149 -284.871842 
L 81.898244 -286.52089 
L 81.329184 -288.169938 
L 80.773446 -289.818986 
L 80.233545 -291.468034 
L 79.712021 -293.117081 
L 79.211421 -294.766129 
L 78.73429 -296.415177 
L 78.283149 -298.064225 
L 77.860485 -299.713273 
L 77.468728 -301.36232 
L 77.110242 -303.011368 
L 76.7873 -304.660416 
L 76.502074 -306.309464 
L 76.256617 -307.958512 
L 76.052845 -309.607559 
L 75.892526 -311.256607 
L 75.777259 -312.905655 
L 75.708468 -314.554703 
L 75.687381 -316.203751 
L 75.715028 -317.852799 
L 75.792223 -319.501846 
L 75.919558 -321.150894 
L 76.097397 -322.799942 
L 76.325872 -324.44899 
L 76.604875 -326.098038 
L 76.934059 -327.747085 
L 77.312838 -329.396133 
L 77.740389 -331.045181 
L 78.215656 -332.694229 
L 78.737354 -334.343277 
L 79.30398 -335.992324 
L 79.91382 -337.641372 
L 80.564958 -339.29042 
L 81.255296 -340.939468 
L 81.982557 -342.588516 
L 82.744313 -344.237564 
L 83.537989 -345.886611 
L 84.360892 -347.535659 
L 85.21022 -349.184707 
L 86.083088 -350.833755 
L 86.976542 -352.482803 
L 145.428208 -352.482803 
L 145.428208 -352.482803 
L 146.321662 -350.833755 
L 147.19453 -349.184707 
L 148.043858 -347.535659 
L 148.866761 -345.886611 
L 149.660437 -344.237564 
L 150.422193 -342.588516 
L 151.149454 -340.939468 
L 151.839792 -339.29042 
L 152.49093 -337.641372 
L 153.10077 -335.992324 
L 153.667396 -334.343277 
L 154.189094 -332.694229 
L 154.664361 -331.045181 
L 155.091912 -329.396133 
L 155.470691 -327.747085 
L 155.799875 -326.098038 
L 156.078878 -324.44899 
L 156.307353 -322.799942 
L 156.485192 -321.150894 
L 156.612527 -319.501846 
L 156.689722 -317.852799 
L 156.717369 -316.203751 
L 156.696282 -314.554703 
L 156.627491 -312.905655 
L 156.512224 -311.256607 
L 156.351905 -309.607559 
L 156.148133 -307.958512 
L 155.902676 -306.309464 
L 155.61745 -304.660416 
L 155.294508 -303.011368 
L 154.936022 -301.36232 
L 154.544265 -299.713273 
L 154.121601 -298.064225 
L 153.67046 -296.415177 
L 153.193329 -294.766129 
L 152.692729 -293.117081 
L 152.171205 -291.468034 
L 151.631304 -289.818986 
L 151.075566 -288.169938 
L 150.506506 -286.52089 
L 149.926601 -284.871842 
L 149.338277 -283.222794 
L 148.743898 -281.573747 
L 148.145754 -279.924699 
L 147.546047 -278.275651 
L 146.94689 -276.626603 
L 146.35029 -274.977555 
L 145.758144 -273.328508 
L 145.172234 -271.67946 
L 144.594218 -270.030412 
L 144.025627 -268.381364 
L 143.467861 -266.732316 
L 142.922185 -265.083269 
L 142.389725 -263.434221 
L 141.871472 -261.785173 
L 141.368275 -260.136125 
L 140.880844 -258.487077 
L 140.409749 -256.83803 
L 139.955425 -255.188982 
L 139.518169 -253.539934 
L 139.098145 -251.890886 
L 138.695387 -250.241838 
L 138.309803 -248.59279 
L 137.941181 -246.943743 
L 137.589189 -245.294695 
L 137.253386 -243.645647 
L 136.933225 -241.996599 
L 136.62806 -240.347551 
L 136.337155 -238.698504 
L 136.059687 -237.049456 
L 135.79476 -235.400408 
L 135.541409 -233.75136 
L 135.298609 -232.102312 
L 135.065285 -230.453265 
L 134.840323 -228.804217 
L 134.622575 -227.155169 
L 134.410872 -225.506121 
L 134.204035 -223.857073 
L 134.000879 -222.208025 
L 133.800229 -220.558978 
L 133.600925 -218.90993 
L 133.401833 -217.260882 
L 133.201856 -215.611834 
L 132.999938 -213.962786 
L 132.795078 -212.313739 
L 132.586333 -210.664691 
L 132.372829 -209.015643 
L 132.153763 -207.366595 
L 131.928414 -205.717547 
L 131.696147 -204.0685 
L 131.456414 -202.419452 
L 131.208761 -200.770404 
L 130.952831 -199.121356 
L 130.688365 -197.472308 
L 130.4152 -195.82326 
L 130.133275 -194.174213 
L 129.842625 -192.525165 
L 129.543383 -190.876117 
L 129.235775 -189.227069 
z
" style="stroke: #333333; stroke-opacity: 0.45; stroke-width: 1.2"/>
    </defs>
    <g clip-path="url(#pd350c3350f)">
     <use xlink:href="#m826f5061a2" x="0" y="461.908187" style="fill: #e41a1c; fill-opacity: 0.45; stroke: #333333; stroke-opacity: 0.45; stroke-width: 1.2"/>
    </g>
   </g>
   <g id="FillBetweenPolyCollection_2">
    <defs>
     <path id="mb5b08bd3d0" d="M 292.962557 -100.354126 
L 234.096693 -100.354126 
L 233.555689 -100.968859 
L 233.026453 -101.583593 
L 232.509544 -102.198327 
L 232.005476 -102.813061 
L 231.514716 -103.427795 
L 231.037684 -104.042528 
L 230.574753 -104.657262 
L 230.126244 -105.271996 
L 229.692431 -105.88673 
L 229.273539 -106.501464 
L 228.869742 -107.116197 
L 228.481166 -107.730931 
L 228.107893 -108.345665 
L 227.749954 -108.960399 
L 227.407337 -109.575133 
L 227.079987 -110.189866 
L 226.767808 -110.8046 
L 226.470662 -111.419334 
L 226.188378 -112.034068 
L 225.920746 -112.648802 
L 225.667528 -113.263535 
L 225.428454 -113.878269 
L 225.203228 -114.493003 
L 224.991533 -115.107737 
L 224.793029 -115.722471 
L 224.607358 -116.337204 
L 224.434152 -116.951938 
L 224.273028 -117.566672 
L 224.123597 -118.181406 
L 223.985465 -118.79614 
L 223.858235 -119.410873 
L 223.741512 -120.025607 
L 223.634907 -120.640341 
L 223.538033 -121.255075 
L 223.450518 -121.869809 
L 223.371999 -122.484542 
L 223.302127 -123.099276 
L 223.24057 -123.71401 
L 223.187016 -124.328744 
L 223.141173 -124.943478 
L 223.102769 -125.558211 
L 223.071559 -126.172945 
L 223.047322 -126.787679 
L 223.029862 -127.402413 
L 223.019011 -128.017147 
L 223.014631 -128.63188 
L 223.01661 -129.246614 
L 223.024865 -129.861348 
L 223.039343 -130.476082 
L 223.060021 -131.090816 
L 223.086903 -131.705549 
L 223.120023 -132.320283 
L 223.159442 -132.935017 
L 223.205249 -133.549751 
L 223.25756 -134.164485 
L 223.316515 -134.779218 
L 223.382278 -135.393952 
L 223.455039 -136.008686 
L 223.535005 -136.62342 
L 223.622407 -137.238154 
L 223.717491 -137.852887 
L 223.820522 -138.467621 
L 223.931777 -139.082355 
L 224.051547 -139.697089 
L 224.180132 -140.311823 
L 224.317842 -140.926556 
L 224.464991 -141.54129 
L 224.621898 -142.156024 
L 224.788882 -142.770758 
L 224.96626 -143.385492 
L 225.154349 -144.000225 
L 225.353456 -144.614959 
L 225.563882 -145.229693 
L 225.785915 -145.844427 
L 226.019831 -146.459161 
L 226.265891 -147.073894 
L 226.524336 -147.688628 
L 226.795388 -148.303362 
L 227.079245 -148.918096 
L 227.376081 -149.53283 
L 227.686044 -150.147563 
L 228.009252 -150.762297 
L 228.345793 -151.377031 
L 228.695722 -151.991765 
L 229.05906 -152.606499 
L 229.435794 -153.221232 
L 229.825872 -153.835966 
L 230.229208 -154.4507 
L 230.645674 -155.065434 
L 231.075105 -155.680168 
L 231.517293 -156.294901 
L 231.971995 -156.909635 
L 232.438924 -157.524369 
L 232.917753 -158.139103 
L 233.408118 -158.753837 
L 233.909614 -159.36857 
L 234.421797 -159.983304 
L 234.944187 -160.598038 
L 235.476269 -161.212772 
L 291.582981 -161.212772 
L 291.582981 -161.212772 
L 292.115063 -160.598038 
L 292.637453 -159.983304 
L 293.149636 -159.36857 
L 293.651132 -158.753837 
L 294.141497 -158.139103 
L 294.620326 -157.524369 
L 295.087255 -156.909635 
L 295.541957 -156.294901 
L 295.984145 -155.680168 
L 296.413576 -155.065434 
L 296.830042 -154.4507 
L 297.233378 -153.835966 
L 297.623456 -153.221232 
L 298.00019 -152.606499 
L 298.363528 -151.991765 
L 298.713457 -151.377031 
L 299.049998 -150.762297 
L 299.373206 -150.147563 
L 299.683169 -149.53283 
L 299.980005 -148.918096 
L 300.263862 -148.303362 
L 300.534914 -147.688628 
L 300.793359 -147.073894 
L 301.039419 -146.459161 
L 301.273335 -145.844427 
L 301.495368 -145.229693 
L 301.705794 -144.614959 
L 301.904901 -144.000225 
L 302.09299 -143.385492 
L 302.270368 -142.770758 
L 302.437352 -142.156024 
L 302.594259 -141.54129 
L 302.741408 -140.926556 
L 302.879118 -140.311823 
L 303.007703 -139.697089 
L 303.127473 -139.082355 
L 303.238728 -138.467621 
L 303.341759 -137.852887 
L 303.436843 -137.238154 
L 303.524245 -136.62342 
L 303.604211 -136.008686 
L 303.676972 -135.393952 
L 303.742735 -134.779218 
L 303.80169 -134.164485 
L 303.854001 -133.549751 
L 303.899808 -132.935017 
L 303.939227 -132.320283 
L 303.972347 -131.705549 
L 303.999229 -131.090816 
L 304.019907 -130.476082 
L 304.034385 -129.861348 
L 304.04264 -129.246614 
L 304.044619 -128.63188 
L 304.040239 -128.017147 
L 304.029388 -127.402413 
L 304.011928 -126.787679 
L 303.987691 -126.172945 
L 303.956481 -125.558211 
L 303.918077 -124.943478 
L 303.872234 -124.328744 
L 303.81868 -123.71401 
L 303.757123 -123.099276 
L 303.687251 -122.484542 
L 303.608732 -121.869809 
L 303.521217 -121.255075 
L 303.424343 -120.640341 
L 303.317738 -120.025607 
L 303.201015 -119.410873 
L 303.073785 -118.79614 
L 302.935653 -118.181406 
L 302.786222 -117.566672 
L 302.625098 -116.951938 
L 302.451892 -116.337204 
L 302.266221 -115.722471 
L 302.067717 -115.107737 
L 301.856022 -114.493003 
L 301.630796 -113.878269 
L 301.391722 -113.263535 
L 301.138504 -112.648802 
L 300.870872 -112.034068 
L 300.588588 -111.419334 
L 300.291442 -110.8046 
L 299.979263 -110.189866 
L 299.651913 -109.575133 
L 299.309296 -108.960399 
L 298.951357 -108.345665 
L 298.578084 -107.730931 
L 298.189508 -107.116197 
L 297.785711 -106.501464 
L 297.366819 -105.88673 
L 296.933006 -105.271996 
L 296.484497 -104.657262 
L 296.021566 -104.042528 
L 295.544534 -103.427795 
L 295.053774 -102.813061 
L 294.549706 -102.198327 
L 294.032797 -101.583593 
L 293.503561 -100.968859 
L 292.962557 -100.354126 
z
" style="stroke: #333333; stroke-opacity: 0.45; stroke-width: 1.2"/>
    </defs>
    <g clip-path="url(#pd350c3350f)">
     <use xlink:href="#mb5b08bd3d0" x="0" y="461.908187" style="fill: #377eb8; fill-opacity: 0.45; stroke: #333333; stroke-opacity: 0.45; stroke-width: 1.2"/>
    </g>
   </g>
   <g id="FillBetweenPolyCollection_3">
    <defs>
     <path id="m39d57b78a5" d="M 431.259201 -148.654638 
L 390.454549 -148.654638 
L 390.031398 -149.27913 
L 389.60846 -149.903621 
L 389.185628 -150.528113 
L 388.762788 -151.152604 
L 388.339816 -151.777096 
L 387.916587 -152.401587 
L 387.492973 -153.026079 
L 387.068856 -153.65057 
L 386.644124 -154.275062 
L 386.218678 -154.899553 
L 385.792438 -155.524045 
L 385.365343 -156.148536 
L 384.937358 -156.773028 
L 384.508478 -157.397519 
L 384.078725 -158.022011 
L 383.648161 -158.646502 
L 383.216881 -159.270994 
L 382.785022 -159.895485 
L 382.352759 -160.519977 
L 381.920311 -161.144468 
L 381.487941 -161.76896 
L 381.055954 -162.393451 
L 380.624698 -163.017942 
L 380.194564 -163.642434 
L 379.765985 -164.266925 
L 379.339433 -164.891417 
L 378.915417 -165.515908 
L 378.494482 -166.1404 
L 378.077207 -166.764891 
L 377.664196 -167.389383 
L 377.256081 -168.013874 
L 376.853515 -168.638366 
L 376.457169 -169.262857 
L 376.067725 -169.887349 
L 375.685876 -170.51184 
L 375.312317 -171.136332 
L 374.947745 -171.760823 
L 374.592849 -172.385315 
L 374.248313 -173.009806 
L 373.914802 -173.634298 
L 373.592969 -174.258789 
L 373.283443 -174.883281 
L 372.986827 -175.507772 
L 372.703699 -176.132264 
L 372.434604 -176.756755 
L 372.180055 -177.381246 
L 371.940529 -178.005738 
L 371.716466 -178.630229 
L 371.50827 -179.254721 
L 371.316303 -179.879212 
L 371.14089 -180.503704 
L 370.982316 -181.128195 
L 370.840828 -181.752687 
L 370.716635 -182.377178 
L 370.60991 -183.00167 
L 370.52079 -183.626161 
L 370.449379 -184.250653 
L 370.395752 -184.875144 
L 370.359951 -185.499636 
L 370.341996 -186.124127 
L 370.341881 -186.748619 
L 370.359578 -187.37311 
L 370.395042 -187.997602 
L 370.448211 -188.622093 
L 370.519008 -189.246585 
L 370.607347 -189.871076 
L 370.713132 -190.495568 
L 370.83626 -191.120059 
L 370.976623 -191.744551 
L 371.134109 -192.369042 
L 371.308602 -192.993533 
L 371.499988 -193.618025 
L 371.70815 -194.242516 
L 371.93297 -194.867008 
L 372.174331 -195.491499 
L 372.432115 -196.115991 
L 372.7062 -196.740482 
L 372.996466 -197.364974 
L 373.302785 -197.989465 
L 373.625029 -198.613957 
L 373.963058 -199.238448 
L 374.316727 -199.86294 
L 374.68588 -200.487431 
L 375.070346 -201.111923 
L 375.469942 -201.736414 
L 375.884465 -202.360906 
L 376.313693 -202.985397 
L 376.757384 -203.609889 
L 377.215269 -204.23438 
L 377.687054 -204.858872 
L 378.172415 -205.483363 
L 378.671001 -206.107855 
L 379.182425 -206.732346 
L 379.70627 -207.356837 
L 380.242083 -207.981329 
L 380.789378 -208.60582 
L 381.347631 -209.230312 
L 381.916284 -209.854803 
L 382.494743 -210.479295 
L 439.219007 -210.479295 
L 439.219007 -210.479295 
L 439.797466 -209.854803 
L 440.366119 -209.230312 
L 440.924372 -208.60582 
L 441.471667 -207.981329 
L 442.00748 -207.356837 
L 442.531325 -206.732346 
L 443.042749 -206.107855 
L 443.541335 -205.483363 
L 444.026696 -204.858872 
L 444.498481 -204.23438 
L 444.956366 -203.609889 
L 445.400057 -202.985397 
L 445.829285 -202.360906 
L 446.243808 -201.736414 
L 446.643404 -201.111923 
L 447.02787 -200.487431 
L 447.397023 -199.86294 
L 447.750692 -199.238448 
L 448.088721 -198.613957 
L 448.410965 -197.989465 
L 448.717284 -197.364974 
L 449.00755 -196.740482 
L 449.281635 -196.115991 
L 449.539419 -195.491499 
L 449.78078 -194.867008 
L 450.0056 -194.242516 
L 450.213762 -193.618025 
L 450.405148 -192.993533 
L 450.579641 -192.369042 
L 450.737127 -191.744551 
L 450.87749 -191.120059 
L 451.000618 -190.495568 
L 451.106403 -189.871076 
L 451.194742 -189.246585 
L 451.265539 -188.622093 
L 451.318708 -187.997602 
L 451.354172 -187.37311 
L 451.371869 -186.748619 
L 451.371754 -186.124127 
L 451.353799 -185.499636 
L 451.317998 -184.875144 
L 451.264371 -184.250653 
L 451.19296 -183.626161 
L 451.10384 -183.00167 
L 450.997115 -182.377178 
L 450.872922 -181.752687 
L 450.731434 -181.128195 
L 450.57286 -180.503704 
L 450.397447 -179.879212 
L 450.20548 -179.254721 
L 449.997284 -178.630229 
L 449.773221 -178.005738 
L 449.533695 -177.381246 
L 449.279146 -176.756755 
L 449.010051 -176.132264 
L 448.726923 -175.507772 
L 448.430307 -174.883281 
L 448.120781 -174.258789 
L 447.798948 -173.634298 
L 447.465437 -173.009806 
L 447.120901 -172.385315 
L 446.766005 -171.760823 
L 446.401433 -171.136332 
L 446.027874 -170.51184 
L 445.646025 -169.887349 
L 445.256581 -169.262857 
L 444.860235 -168.638366 
L 444.457669 -168.013874 
L 444.049554 -167.389383 
L 443.636543 -166.764891 
L 443.219268 -166.1404 
L 442.798333 -165.515908 
L 442.374317 -164.891417 
L 441.947765 -164.266925 
L 441.519186 -163.642434 
L 441.089052 -163.017942 
L 440.657796 -162.393451 
L 440.225809 -161.76896 
L 439.793439 -161.144468 
L 439.360991 -160.519977 
L 438.928728 -159.895485 
L 438.496869 -159.270994 
L 438.065589 -158.646502 
L 437.635025 -158.022011 
L 437.205272 -157.397519 
L 436.776392 -156.773028 
L 436.348407 -156.148536 
L 435.921312 -155.524045 
L 435.495072 -154.899553 
L 435.069626 -154.275062 
L 434.644894 -153.65057 
L 434.220777 -153.026079 
L 433.797163 -152.401587 
L 433.373934 -151.777096 
L 432.950962 -151.152604 
L 432.528122 -150.528113 
L 432.10529 -149.903621 
L 431.682352 -149.27913 
L 431.259201 -148.654638 
z
" style="stroke: #333333; stroke-opacity: 0.45; stroke-width: 1.2"/>
    </defs>
    <g clip-path="url(#pd350c3350f)">
     <use xlink:href="#m39d57b78a5" x="0" y="461.908187" style="fill: #4daf4a; fill-opacity: 0.45; stroke: #333333; stroke-opacity: 0.45; stroke-width: 1.2"/>
    </g>
   </g>
   <g id="FillBetweenPolyCollection_4">
    <defs>
     <path id="m5e68c09132" d="M 586.996183 -81.999931 
L 529.372067 -81.999931 
L 529.054802 -82.263388 
L 528.742337 -82.526845 
L 528.434676 -82.790303 
L 528.131811 -83.05376 
L 527.833726 -83.317217 
L 527.540395 -83.580675 
L 527.251784 -83.844132 
L 526.967851 -84.10759 
L 526.688546 -84.371047 
L 526.413812 -84.634504 
L 526.143589 -84.897962 
L 525.877809 -85.161419 
L 525.616401 -85.424876 
L 525.359293 -85.688334 
L 525.106406 -85.951791 
L 524.857664 -86.215248 
L 524.612987 -86.478706 
L 524.372298 -86.742163 
L 524.135518 -87.00562 
L 523.902573 -87.269078 
L 523.67339 -87.532535 
L 523.447899 -87.795992 
L 523.226037 -88.05945 
L 523.007744 -88.322907 
L 522.792968 -88.586364 
L 522.58166 -88.849822 
L 522.373783 -89.113279 
L 522.169306 -89.376736 
L 521.968206 -89.640194 
L 521.77047 -89.903651 
L 521.576096 -90.167108 
L 521.385089 -90.430566 
L 521.197469 -90.694023 
L 521.013265 -90.95748 
L 520.832515 -91.220938 
L 520.655272 -91.484395 
L 520.481601 -91.747852 
L 520.311575 -92.01131 
L 520.145284 -92.274767 
L 519.982825 -92.538224 
L 519.824312 -92.801682 
L 519.669866 -93.065139 
L 519.519622 -93.328597 
L 519.373728 -93.592054 
L 519.232339 -93.855511 
L 519.095625 -94.118969 
L 518.963763 -94.382426 
L 518.836941 -94.645883 
L 518.715356 -94.909341 
L 518.599216 -95.172798 
L 518.488734 -95.436255 
L 518.384131 -95.699713 
L 518.285637 -95.96317 
L 518.193486 -96.226627 
L 518.107918 -96.490085 
L 518.029177 -96.753542 
L 517.957511 -97.016999 
L 517.893171 -97.280457 
L 517.836409 -97.543914 
L 517.787479 -97.807371 
L 517.746634 -98.070829 
L 517.714127 -98.334286 
L 517.69021 -98.597743 
L 517.67513 -98.861201 
L 517.669131 -99.124658 
L 517.672455 -99.388115 
L 517.685335 -99.651573 
L 517.707999 -99.91503 
L 517.740668 -100.178487 
L 517.783554 -100.441945 
L 517.83686 -100.705402 
L 517.900781 -100.968859 
L 517.975498 -101.232317 
L 518.061182 -101.495774 
L 518.157992 -101.759231 
L 518.266075 -102.022689 
L 518.385561 -102.286146 
L 518.516568 -102.549603 
L 518.659199 -102.813061 
L 518.81354 -103.076518 
L 518.979664 -103.339976 
L 519.157624 -103.603433 
L 519.347458 -103.86689 
L 519.549185 -104.130348 
L 519.762809 -104.393805 
L 519.988314 -104.657262 
L 520.225666 -104.92072 
L 520.474814 -105.184177 
L 520.735686 -105.447634 
L 521.008195 -105.711092 
L 521.292233 -105.974549 
L 521.587674 -106.238006 
L 521.894373 -106.501464 
L 522.21217 -106.764921 
L 522.540882 -107.028378 
L 522.880312 -107.291836 
L 523.230245 -107.555293 
L 523.590447 -107.81875 
L 523.96067 -108.082208 
L 592.40758 -108.082208 
L 592.40758 -108.082208 
L 592.777803 -107.81875 
L 593.138005 -107.555293 
L 593.487938 -107.291836 
L 593.827368 -107.028378 
L 594.15608 -106.764921 
L 594.473877 -106.501464 
L 594.780576 -106.238006 
L 595.076017 -105.974549 
L 595.360055 -105.711092 
L 595.632564 -105.447634 
L 595.893436 -105.184177 
L 596.142584 -104.92072 
L 596.379936 -104.657262 
L 596.605441 -104.393805 
L 596.819065 -104.130348 
L 597.020792 -103.86689 
L 597.210626 -103.603433 
L 597.388586 -103.339976 
L 597.55471 -103.076518 
L 597.709051 -102.813061 
L 597.851682 -102.549603 
L 597.982689 -102.286146 
L 598.102175 -102.022689 
L 598.210258 -101.759231 
L 598.307068 -101.495774 
L 598.392752 -101.232317 
L 598.467469 -100.968859 
L 598.53139 -100.705402 
L 598.584696 -100.441945 
L 598.627582 -100.178487 
L 598.660251 -99.91503 
L 598.682915 -99.651573 
L 598.695795 -99.388115 
L 598.699119 -99.124658 
L 598.69312 -98.861201 
L 598.67804 -98.597743 
L 598.654123 -98.334286 
L 598.621616 -98.070829 
L 598.580771 -97.807371 
L 598.531841 -97.543914 
L 598.475079 -97.280457 
L 598.410739 -97.016999 
L 598.339073 -96.753542 
L 598.260332 -96.490085 
L 598.174764 -96.226627 
L 598.082613 -95.96317 
L 597.984119 -95.699713 
L 597.879516 -95.436255 
L 597.769034 -95.172798 
L 597.652894 -94.909341 
L 597.531309 -94.645883 
L 597.404487 -94.382426 
L 597.272625 -94.118969 
L 597.135911 -93.855511 
L 596.994522 -93.592054 
L 596.848628 -93.328597 
L 596.698384 -93.065139 
L 596.543938 -92.801682 
L 596.385425 -92.538224 
L 596.222966 -92.274767 
L 596.056675 -92.01131 
L 595.886649 -91.747852 
L 595.712978 -91.484395 
L 595.535735 -91.220938 
L 595.354985 -90.95748 
L 595.170781 -90.694023 
L 594.983161 -90.430566 
L 594.792154 -90.167108 
L 594.59778 -89.903651 
L 594.400044 -89.640194 
L 594.198944 -89.376736 
L 593.994467 -89.113279 
L 593.78659 -88.849822 
L 593.575282 -88.586364 
L 593.360506 -88.322907 
L 593.142213 -88.05945 
L 592.920351 -87.795992 
L 592.69486 -87.532535 
L 592.465677 -87.269078 
L 592.232732 -87.00562 
L 591.995952 -86.742163 
L 591.755263 -86.478706 
L 591.510586 -86.215248 
L 591.261844 -85.951791 
L 591.008957 -85.688334 
L 590.751849 -85.424876 
L 590.490441 -85.161419 
L 590.224661 -84.897962 
L 589.954438 -84.634504 
L 589.679704 -84.371047 
L 589.400399 -84.10759 
L 589.116466 -83.844132 
L 588.827855 -83.580675 
L 588.534524 -83.317217 
L 588.236439 -83.05376 
L 587.933574 -82.790303 
L 587.625913 -82.526845 
L 587.313448 -82.263388 
L 586.996183 -81.999931 
z
" style="stroke: #333333; stroke-opacity: 0.45; stroke-width: 1.2"/>
    </defs>
    <g clip-path="url(#pd350c3350f)">
     <use xlink:href="#m5e68c09132" x="0" y="461.908187" style="fill: #984ea3; fill-opacity: 0.45; stroke: #333333; stroke-opacity: 0.45; stroke-width: 1.2"/>
    </g>
   </g>
   <g id="patch_3">
    <path d="M 102.942922 197.332318 
L 129.461827 197.332318 
L 129.461827 136.473672 
L 102.942922 136.473672 
L 102.942922 197.332318 
z
" clip-path="url(#pd350c3350f)" style="fill: #e41a1c; opacity: 0.85; stroke: #000000; stroke-width: 1.2; stroke-linejoin: miter"/>
   </g>
   <g id="line2d_21">
    <path d="M 116.202375 197.332318 
L 116.202375 272.681118 
" clip-path="url(#pd350c3350f)" style="fill: none; stroke: #444444; stroke-width: 1.2; stroke-linecap: square"/>
   </g>
   <g id="line2d_22">
    <path d="M 116.202375 136.473672 
L 116.202375 109.425385 
" clip-path="url(#pd350c3350f)" style="fill: none; stroke: #444444; stroke-width: 1.2; stroke-linecap: square"/>
   </g>
   <g id="line2d_23">
    <path d="M 109.572649 272.681118 
L 122.832101 272.681118 
" clip-path="url(#pd350c3350f)" style="fill: none; stroke: #444444; stroke-width: 1.2; stroke-linecap: square"/>
   </g>
   <g id="line2d_24">
    <path d="M 109.572649 109.425385 
L 122.832101 109.425385 
" clip-path="url(#pd350c3350f)" style="fill: none; stroke: #444444; stroke-width: 1.2; stroke-linecap: square"/>
   </g>
   <g id="patch_4">
    <path d="M 250.270172 348.029918 
L 276.789077 348.029918 
L 276.789077 316.15158 
L 250.270172 316.15158 
L 250.270172 348.029918 
z
" clip-path="url(#pd350c3350f)" style="fill: #377eb8; opacity: 0.85; stroke: #000000; stroke-width: 1.2; stroke-linejoin: miter"/>
   </g>
   <g id="line2d_25">
    <path d="M 263.529625 348.029918 
L 263.529625 361.554062 
" clip-path="url(#pd350c3350f)" style="fill: none; stroke: #444444; stroke-width: 1.2; stroke-linecap: square"/>
   </g>
   <g id="line2d_26">
    <path d="M 263.529625 316.15158 
L 263.529625 300.695416 
" clip-path="url(#pd350c3350f)" style="fill: none; stroke: #444444; stroke-width: 1.2; stroke-linecap: square"/>
   </g>
   <g id="line2d_27">
    <path d="M 256.899899 361.554062 
L 270.159351 361.554062 
" clip-path="url(#pd350c3350f)" style="fill: none; stroke: #444444; stroke-width: 1.2; stroke-linecap: square"/>
   </g>
   <g id="line2d_28">
    <path d="M 256.899899 300.695416 
L 270.159351 300.695416 
" clip-path="url(#pd350c3350f)" style="fill: none; stroke: #444444; stroke-width: 1.2; stroke-linecap: square"/>
   </g>
   <g id="patch_5">
    <path d="M 397.597422 287.171272 
L 424.116327 287.171272 
L 424.116327 263.987026 
L 397.597422 263.987026 
L 397.597422 287.171272 
z
" clip-path="url(#pd350c3350f)" style="fill: #4daf4a; opacity: 0.85; stroke: #000000; stroke-width: 1.2; stroke-linejoin: miter"/>
   </g>
   <g id="line2d_29">
    <path d="M 410.856875 287.171272 
L 410.856875 313.253549 
" clip-path="url(#pd350c3350f)" style="fill: none; stroke: #444444; stroke-width: 1.2; stroke-linecap: square"/>
   </g>
   <g id="line2d_30">
    <path d="M 410.856875 263.987026 
L 410.856875 251.428893 
" clip-path="url(#pd350c3350f)" style="fill: none; stroke: #444444; stroke-width: 1.2; stroke-linecap: square"/>
   </g>
   <g id="line2d_31">
    <path d="M 404.227149 313.253549 
L 417.486601 313.253549 
" clip-path="url(#pd350c3350f)" style="fill: none; stroke: #444444; stroke-width: 1.2; stroke-linecap: square"/>
   </g>
   <g id="line2d_32">
    <path d="M 404.227149 251.428893 
L 417.486601 251.428893 
" clip-path="url(#pd350c3350f)" style="fill: none; stroke: #444444; stroke-width: 1.2; stroke-linecap: square"/>
   </g>
   <g id="patch_6">
    <path d="M 544.924672 372.180175 
L 571.443577 372.180175 
L 571.443577 359.139036 
L 544.924672 359.139036 
L 544.924672 372.180175 
z
" clip-path="url(#pd350c3350f)" style="fill: #984ea3; opacity: 0.85; stroke: #000000; stroke-width: 1.2; stroke-linejoin: miter"/>
   </g>
   <g id="line2d_33">
    <path d="M 558.184125 372.180175 
L 558.184125 379.908257 
" clip-path="url(#pd350c3350f)" style="fill: none; stroke: #444444; stroke-width: 1.2; stroke-linecap: square"/>
   </g>
   <g id="line2d_34">
    <path d="M 558.184125 359.139036 
L 558.184125 353.82598 
" clip-path="url(#pd350c3350f)" style="fill: none; stroke: #444444; stroke-width: 1.2; stroke-linecap: square"/>
   </g>
   <g id="line2d_35">
    <path d="M 551.554399 379.908257 
L 564.813851 379.908257 
" clip-path="url(#pd350c3350f)" style="fill: none; stroke: #444444; stroke-width: 1.2; stroke-linecap: square"/>
   </g>
   <g id="line2d_36">
    <path d="M 551.554399 353.82598 
L 564.813851 353.82598 
" clip-path="url(#pd350c3350f)" style="fill: none; stroke: #444444; stroke-width: 1.2; stroke-linecap: square"/>
   </g>
   <g id="line2d_37">
    <path d="M 102.942922 151.929836 
L 129.461827 151.929836 
" clip-path="url(#pd350c3350f)" style="fill: none; stroke: #000000; stroke-width: 2.2"/>
   </g>
   <g id="line2d_38">
    <path d="M 250.270172 331.607744 
L 276.789077 331.607744 
" clip-path="url(#pd350c3350f)" style="fill: none; stroke: #000000; stroke-width: 2.2"/>
   </g>
   <g id="line2d_39">
    <path d="M 397.597422 281.375211 
L 424.116327 281.375211 
" clip-path="url(#pd350c3350f)" style="fill: none; stroke: #000000; stroke-width: 2.2"/>
   </g>
   <g id="line2d_40">
    <path d="M 544.924672 364.452093 
L 571.443577 364.452093 
" clip-path="url(#pd350c3350f)" style="fill: none; stroke: #000000; stroke-width: 2.2"/>
   </g>
   <g id="patch_7">
    <path d="M 42.53875 420.480687 
L 42.53875 43.736687 
" style="fill: none; stroke: #000000; stroke-width: 0.8; stroke-linejoin: miter; stroke-linecap: square"/>
   </g>
   <g id="patch_8">
    <path d="M 42.53875 420.480687 
L 631.84775 420.480687 
" style="fill: none; stroke: #000000; stroke-width: 0.8; stroke-linejoin: miter; stroke-linecap: square"/>
   </g>
   <g id="line2d_41">
    <path d="M 42.53875 217.618534 
L 631.84775 217.618534 
" clip-path="url(#pd350c3350f)" style="fill: none; stroke-dasharray: 6.66,2.88; stroke-dashoffset: 0; stroke: #ff7f00; stroke-width: 1.8"/>
   </g>
   <g id="text_15">
    <!-- BBB threshold -->
    <g style="fill: #ff7f00" transform="translate(574.571795 200.536597) scale(0.085 -0.085)">
     <defs>
      <path id="DejaVuSans-42" d="M 1259 2228 
L 1259 519 
L 2272 519 
Q 2781 519 3026 730 
Q 3272 941 3272 1375 
Q 3272 1813 3026 2020 
Q 2781 2228 2272 2228 
L 1259 2228 
z
M 1259 4147 
L 1259 2741 
L 2194 2741 
Q 2656 2741 2882 2914 
Q 3109 3088 3109 3444 
Q 3109 3797 2882 3972 
Q 2656 4147 2194 4147 
L 1259 4147 
z
M 628 4666 
L 2241 4666 
Q 2963 4666 3353 4366 
Q 3744 4066 3744 3513 
Q 3744 3084 3544 2831 
Q 3344 2578 2956 2516 
Q 3422 2416 3680 2098 
Q 3938 1781 3938 1306 
Q 3938 681 3513 340 
Q 3088 0 2303 0 
L 628 0 
L 628 4666 
z
" transform="scale(0.015625)"/>
      <path id="DejaVuSans-73" d="M 2834 3397 
L 2834 2853 
Q 2591 2978 2328 3040 
Q 2066 3103 1784 3103 
Q 1356 3103 1142 2972 
Q 928 2841 928 2578 
Q 928 2378 1081 2264 
Q 1234 2150 1697 2047 
L 1894 2003 
Q 2506 1872 2764 1633 
Q 3022 1394 3022 966 
Q 3022 478 2636 193 
Q 2250 -91 1575 -91 
Q 1294 -91 989 -36 
Q 684 19 347 128 
L 347 722 
Q 666 556 975 473 
Q 1284 391 1588 391 
Q 1994 391 2212 530 
Q 2431 669 2431 922 
Q 2431 1156 2273 1281 
Q 2116 1406 1581 1522 
L 1381 1569 
Q 847 1681 609 1914 
Q 372 2147 372 2553 
Q 372 3047 722 3315 
Q 1072 3584 1716 3584 
Q 2034 3584 2315 3537 
Q 2597 3491 2834 3397 
z
" transform="scale(0.015625)"/>
     </defs>
     <use xlink:href="#DejaVuSans-42"/>
     <use xlink:href="#DejaVuSans-42" transform="translate(68.603516 0)"/>
     <use xlink:href="#DejaVuSans-42" transform="translate(137.207031 0)"/>
     <use xlink:href="#DejaVuSans-20" transform="translate(205.810547 0)"/>
     <use xlink:href="#DejaVuSans-74" transform="translate(237.597656 0)"/>
     <use xlink:href="#DejaVuSans-68" transform="translate(276.806641 0)"/>
     <use xlink:href="#DejaVuSans-72" transform="translate(340.185547 0)"/>
     <use xlink:href="#DejaVuSans-65" transform="translate(379.048828 0)"/>
     <use xlink:href="#DejaVuSans-73" transform="translate(440.572266 0)"/>
     <use xlink:href="#DejaVuSans-68" transform="translate(492.671875 0)"/>
     <use xlink:href="#DejaVuSans-6f" transform="translate(556.050781 0)"/>
     <use xlink:href="#DejaVuSans-6c" transform="translate(617.232422 0)"/>
     <use xlink:href="#DejaVuSans-64" transform="translate(645.015625 0)"/>
    </g>
    <!-- (ApoE &gt;20%) -->
    <g style="fill: #ff7f00" transform="translate(577.662342 210.054738) scale(0.085 -0.085)">
     <defs>
      <path id="DejaVuSans-3e" d="M 678 3150 
L 678 3719 
L 4684 2266 
L 4684 1747 
L 678 294 
L 678 863 
L 3897 2003 
L 678 3150 
z
" transform="scale(0.015625)"/>
     </defs>
     <use xlink:href="#DejaVuSans-28"/>
     <use xlink:href="#DejaVuSans-41" transform="translate(39.013672 0)"/>
     <use xlink:href="#DejaVuSans-70" transform="translate(107.421875 0)"/>
     <use xlink:href="#DejaVuSans-6f" transform="translate(170.898438 0)"/>
     <use xlink:href="#DejaVuSans-45" transform="translate(232.080078 0)"/>
     <use xlink:href="#DejaVuSans-20" transform="translate(295.263672 0)"/>
     <use xlink:href="#DejaVuSans-3e" transform="translate(327.050781 0)"/>
     <use xlink:href="#DejaVuSans-32" transform="translate(410.839844 0)"/>
     <use xlink:href="#DejaVuSans-30" transform="translate(474.462891 0)"/>
     <use xlink:href="#DejaVuSans-25" transform="translate(538.085938 0)"/>
     <use xlink:href="#DejaVuSans-29" transform="translate(633.105469 0)"/>
    </g>
   </g>
   <g id="text_16">
    <!-- N=9 -->
    <g style="fill: #444444" transform="translate(106.201828 414.761148) scale(0.09 -0.09)">
     <defs>
      <path id="DejaVuSans-3d" d="M 678 2906 
L 4684 2906 
L 4684 2381 
L 678 2381 
L 678 2906 
z
M 678 1631 
L 4684 1631 
L 4684 1100 
L 678 1100 
L 678 1631 
z
" transform="scale(0.015625)"/>
      <path id="DejaVuSans-39" d="M 703 97 
L 703 672 
Q 941 559 1184 500 
Q 1428 441 1663 441 
Q 2288 441 2617 861 
Q 2947 1281 2994 2138 
Q 2813 1869 2534 1725 
Q 2256 1581 1919 1581 
Q 1219 1581 811 2004 
Q 403 2428 403 3163 
Q 403 3881 828 4315 
Q 1253 4750 1959 4750 
Q 2769 4750 3195 4129 
Q 3622 3509 3622 2328 
Q 3622 1225 3098 567 
Q 2575 -91 1691 -91 
Q 1453 -91 1209 -44 
Q 966 3 703 97 
z
M 1959 2075 
Q 2384 2075 2632 2365 
Q 2881 2656 2881 3163 
Q 2881 3666 2632 3958 
Q 2384 4250 1959 4250 
Q 1534 4250 1286 3958 
Q 1038 3666 1038 3163 
Q 1038 2656 1286 2365 
Q 1534 2075 1959 2075 
z
" transform="scale(0.015625)"/>
     </defs>
     <use xlink:href="#DejaVuSans-4e"/>
     <use xlink:href="#DejaVuSans-3d" transform="translate(74.804688 0)"/>
     <use xlink:href="#DejaVuSans-39" transform="translate(158.59375 0)"/>
    </g>
   </g>
   <g id="text_17">
    <!-- N=5 -->
    <g style="fill: #444444" transform="translate(253.529078 414.761148) scale(0.09 -0.09)">
     <use xlink:href="#DejaVuSans-4e"/>
     <use xlink:href="#DejaVuSans-3d" transform="translate(74.804688 0)"/>
     <use xlink:href="#DejaVuSans-35" transform="translate(158.59375 0)"/>
    </g>
   </g>
   <g id="text_18">
    <!-- N=5 -->
    <g style="fill: #444444" transform="translate(400.856328 414.761148) scale(0.09 -0.09)">
     <use xlink:href="#DejaVuSans-4e"/>
     <use xlink:href="#DejaVuSans-3d" transform="translate(74.804688 0)"/>
     <use xlink:href="#DejaVuSans-35" transform="translate(158.59375 0)"/>
    </g>
   </g>
   <g id="text_19">
    <!-- N=3 -->
    <g style="fill: #444444" transform="translate(548.183578 414.761148) scale(0.09 -0.09)">
     <use xlink:href="#DejaVuSans-4e"/>
     <use xlink:href="#DejaVuSans-3d" transform="translate(74.804688 0)"/>
     <use xlink:href="#DejaVuSans-33" transform="translate(158.59375 0)"/>
    </g>
   </g>
   <g id="text_20">
    <!-- ApoE Corona Composition by Lipid Charge Type -->
    <g transform="translate(163.649344 17.077969) scale(0.13 -0.13)">
     <defs>
      <path id="DejaVuSans-Bold-41" d="M 3419 850 
L 1538 850 
L 1241 0 
L 31 0 
L 1759 4666 
L 3194 4666 
L 4922 0 
L 3713 0 
L 3419 850 
z
M 1838 1716 
L 3116 1716 
L 2478 3572 
L 1838 1716 
z
" transform="scale(0.015625)"/>
      <path id="DejaVuSans-Bold-70" d="M 1656 506 
L 1656 -1331 
L 538 -1331 
L 538 3500 
L 1656 3500 
L 1656 2988 
Q 1888 3294 2169 3439 
Q 2450 3584 2816 3584 
Q 3463 3584 3878 3070 
Q 4294 2556 4294 1747 
Q 4294 938 3878 423 
Q 3463 -91 2816 -91 
Q 2450 -91 2169 54 
Q 1888 200 1656 506 
z
M 2400 2772 
Q 2041 2772 1848 2508 
Q 1656 2244 1656 1747 
Q 1656 1250 1848 986 
Q 2041 722 2400 722 
Q 2759 722 2948 984 
Q 3138 1247 3138 1747 
Q 3138 2247 2948 2509 
Q 2759 2772 2400 2772 
z
" transform="scale(0.015625)"/>
      <path id="DejaVuSans-Bold-6f" d="M 2203 2784 
Q 1831 2784 1636 2517 
Q 1441 2250 1441 1747 
Q 1441 1244 1636 976 
Q 1831 709 2203 709 
Q 2569 709 2762 976 
Q 2956 1244 2956 1747 
Q 2956 2250 2762 2517 
Q 2569 2784 2203 2784 
z
M 2203 3584 
Q 3106 3584 3614 3096 
Q 4122 2609 4122 1747 
Q 4122 884 3614 396 
Q 3106 -91 2203 -91 
Q 1297 -91 786 396 
Q 275 884 275 1747 
Q 275 2609 786 3096 
Q 1297 3584 2203 3584 
z
" transform="scale(0.015625)"/>
      <path id="DejaVuSans-Bold-45" d="M 588 4666 
L 3834 4666 
L 3834 3756 
L 1791 3756 
L 1791 2888 
L 3713 2888 
L 3713 1978 
L 1791 1978 
L 1791 909 
L 3903 909 
L 3903 0 
L 588 0 
L 588 4666 
z
" transform="scale(0.015625)"/>
      <path id="DejaVuSans-Bold-20" transform="scale(0.015625)"/>
      <path id="DejaVuSans-Bold-43" d="M 4288 256 
Q 3956 84 3597 -3 
Q 3238 -91 2847 -91 
Q 1681 -91 1000 561 
Q 319 1213 319 2328 
Q 319 3447 1000 4098 
Q 1681 4750 2847 4750 
Q 3238 4750 3597 4662 
Q 3956 4575 4288 4403 
L 4288 3438 
Q 3953 3666 3628 3772 
Q 3303 3878 2944 3878 
Q 2300 3878 1931 3465 
Q 1563 3053 1563 2328 
Q 1563 1606 1931 1193 
Q 2300 781 2944 781 
Q 3303 781 3628 887 
Q 3953 994 4288 1222 
L 4288 256 
z
" transform="scale(0.015625)"/>
      <path id="DejaVuSans-Bold-72" d="M 3138 2547 
Q 2991 2616 2845 2648 
Q 2700 2681 2553 2681 
Q 2122 2681 1889 2404 
Q 1656 2128 1656 1613 
L 1656 0 
L 538 0 
L 538 3500 
L 1656 3500 
L 1656 2925 
Q 1872 3269 2151 3426 
Q 2431 3584 2822 3584 
Q 2878 3584 2943 3579 
Q 3009 3575 3134 3559 
L 3138 2547 
z
" transform="scale(0.015625)"/>
      <path id="DejaVuSans-Bold-6e" d="M 4056 2131 
L 4056 0 
L 2931 0 
L 2931 347 
L 2931 1631 
Q 2931 2084 2911 2256 
Q 2891 2428 2841 2509 
Q 2775 2619 2662 2680 
Q 2550 2741 2406 2741 
Q 2056 2741 1856 2470 
Q 1656 2200 1656 1722 
L 1656 0 
L 538 0 
L 538 3500 
L 1656 3500 
L 1656 2988 
Q 1909 3294 2193 3439 
Q 2478 3584 2822 3584 
Q 3428 3584 3742 3212 
Q 4056 2841 4056 2131 
z
" transform="scale(0.015625)"/>
      <path id="DejaVuSans-Bold-61" d="M 2106 1575 
Q 1756 1575 1579 1456 
Q 1403 1338 1403 1106 
Q 1403 894 1545 773 
Q 1688 653 1941 653 
Q 2256 653 2472 879 
Q 2688 1106 2688 1447 
L 2688 1575 
L 2106 1575 
z
M 3816 1997 
L 3816 0 
L 2688 0 
L 2688 519 
Q 2463 200 2181 54 
Q 1900 -91 1497 -91 
Q 953 -91 614 226 
Q 275 544 275 1050 
Q 275 1666 698 1953 
Q 1122 2241 2028 2241 
L 2688 2241 
L 2688 2328 
Q 2688 2594 2478 2717 
Q 2269 2841 1825 2841 
Q 1466 2841 1156 2769 
Q 847 2697 581 2553 
L 581 3406 
Q 941 3494 1303 3539 
Q 1666 3584 2028 3584 
Q 2975 3584 3395 3211 
Q 3816 2838 3816 1997 
z
" transform="scale(0.015625)"/>
      <path id="DejaVuSans-Bold-6d" d="M 3781 2919 
Q 3994 3244 4286 3414 
Q 4578 3584 4928 3584 
Q 5531 3584 5847 3212 
Q 6163 2841 6163 2131 
L 6163 0 
L 5038 0 
L 5038 1825 
Q 5041 1866 5042 1909 
Q 5044 1953 5044 2034 
Q 5044 2406 4934 2573 
Q 4825 2741 4581 2741 
Q 4263 2741 4089 2478 
Q 3916 2216 3909 1719 
L 3909 0 
L 2784 0 
L 2784 1825 
Q 2784 2406 2684 2573 
Q 2584 2741 2328 2741 
Q 2006 2741 1831 2477 
Q 1656 2213 1656 1722 
L 1656 0 
L 531 0 
L 531 3500 
L 1656 3500 
L 1656 2988 
Q 1863 3284 2130 3434 
Q 2397 3584 2719 3584 
Q 3081 3584 3359 3409 
Q 3638 3234 3781 2919 
z
" transform="scale(0.015625)"/>
      <path id="DejaVuSans-Bold-73" d="M 3272 3391 
L 3272 2541 
Q 2913 2691 2578 2766 
Q 2244 2841 1947 2841 
Q 1628 2841 1473 2761 
Q 1319 2681 1319 2516 
Q 1319 2381 1436 2309 
Q 1553 2238 1856 2203 
L 2053 2175 
Q 2913 2066 3209 1816 
Q 3506 1566 3506 1031 
Q 3506 472 3093 190 
Q 2681 -91 1863 -91 
Q 1516 -91 1145 -36 
Q 775 19 384 128 
L 384 978 
Q 719 816 1070 734 
Q 1422 653 1784 653 
Q 2113 653 2278 743 
Q 2444 834 2444 1013 
Q 2444 1163 2330 1236 
Q 2216 1309 1875 1350 
L 1678 1375 
Q 931 1469 631 1722 
Q 331 1975 331 2491 
Q 331 3047 712 3315 
Q 1094 3584 1881 3584 
Q 2191 3584 2531 3537 
Q 2872 3491 3272 3391 
z
" transform="scale(0.015625)"/>
      <path id="DejaVuSans-Bold-69" d="M 538 3500 
L 1656 3500 
L 1656 0 
L 538 0 
L 538 3500 
z
M 538 4863 
L 1656 4863 
L 1656 3950 
L 538 3950 
L 538 4863 
z
" transform="scale(0.015625)"/>
      <path id="DejaVuSans-Bold-74" d="M 1759 4494 
L 1759 3500 
L 2913 3500 
L 2913 2700 
L 1759 2700 
L 1759 1216 
Q 1759 972 1856 886 
Q 1953 800 2241 800 
L 2816 800 
L 2816 0 
L 1856 0 
Q 1194 0 917 276 
Q 641 553 641 1216 
L 641 2700 
L 84 2700 
L 84 3500 
L 641 3500 
L 641 4494 
L 1759 4494 
z
" transform="scale(0.015625)"/>
      <path id="DejaVuSans-Bold-62" d="M 2400 722 
Q 2759 722 2948 984 
Q 3138 1247 3138 1747 
Q 3138 2247 2948 2509 
Q 2759 2772 2400 2772 
Q 2041 2772 1848 2508 
Q 1656 2244 1656 1747 
Q 1656 1250 1848 986 
Q 2041 722 2400 722 
z
M 1656 2988 
Q 1888 3294 2169 3439 
Q 2450 3584 2816 3584 
Q 3463 3584 3878 3070 
Q 4294 2556 4294 1747 
Q 4294 938 3878 423 
Q 3463 -91 2816 -91 
Q 2450 -91 2169 54 
Q 1888 200 1656 506 
L 1656 0 
L 538 0 
L 538 4863 
L 1656 4863 
L 1656 2988 
z
" transform="scale(0.015625)"/>
      <path id="DejaVuSans-Bold-79" d="M 78 3500 
L 1197 3500 
L 2138 1125 
L 2938 3500 
L 4056 3500 
L 2584 -331 
Q 2363 -916 2067 -1148 
Q 1772 -1381 1288 -1381 
L 641 -1381 
L 641 -647 
L 991 -647 
Q 1275 -647 1404 -556 
Q 1534 -466 1606 -231 
L 1638 -134 
L 78 3500 
z
" transform="scale(0.015625)"/>
      <path id="DejaVuSans-Bold-4c" d="M 588 4666 
L 1791 4666 
L 1791 909 
L 3903 909 
L 3903 0 
L 588 0 
L 588 4666 
z
" transform="scale(0.015625)"/>
      <path id="DejaVuSans-Bold-64" d="M 2919 2988 
L 2919 4863 
L 4044 4863 
L 4044 0 
L 2919 0 
L 2919 506 
Q 2688 197 2409 53 
Q 2131 -91 1766 -91 
Q 1119 -91 703 423 
Q 288 938 288 1747 
Q 288 2556 703 3070 
Q 1119 3584 1766 3584 
Q 2128 3584 2408 3439 
Q 2688 3294 2919 2988 
z
M 2181 722 
Q 2541 722 2730 984 
Q 2919 1247 2919 1747 
Q 2919 2247 2730 2509 
Q 2541 2772 2181 2772 
Q 1825 2772 1636 2509 
Q 1447 2247 1447 1747 
Q 1447 1247 1636 984 
Q 1825 722 2181 722 
z
" transform="scale(0.015625)"/>
      <path id="DejaVuSans-Bold-68" d="M 4056 2131 
L 4056 0 
L 2931 0 
L 2931 347 
L 2931 1625 
Q 2931 2084 2911 2256 
Q 2891 2428 2841 2509 
Q 2775 2619 2662 2680 
Q 2550 2741 2406 2741 
Q 2056 2741 1856 2470 
Q 1656 2200 1656 1722 
L 1656 0 
L 538 0 
L 538 4863 
L 1656 4863 
L 1656 2988 
Q 1909 3294 2193 3439 
Q 2478 3584 2822 3584 
Q 3428 3584 3742 3212 
Q 4056 2841 4056 2131 
z
" transform="scale(0.015625)"/>
      <path id="DejaVuSans-Bold-67" d="M 2919 594 
Q 2688 288 2409 144 
Q 2131 0 1766 0 
Q 1125 0 706 504 
Q 288 1009 288 1791 
Q 288 2575 706 3076 
Q 1125 3578 1766 3578 
Q 2131 3578 2409 3434 
Q 2688 3291 2919 2981 
L 2919 3500 
L 4044 3500 
L 4044 353 
Q 4044 -491 3511 -936 
Q 2978 -1381 1966 -1381 
Q 1638 -1381 1331 -1331 
Q 1025 -1281 716 -1178 
L 716 -306 
Q 1009 -475 1290 -558 
Q 1572 -641 1856 -641 
Q 2406 -641 2662 -400 
Q 2919 -159 2919 353 
L 2919 594 
z
M 2181 2772 
Q 1834 2772 1640 2515 
Q 1447 2259 1447 1791 
Q 1447 1309 1634 1061 
Q 1822 813 2181 813 
Q 2531 813 2725 1069 
Q 2919 1325 2919 1791 
Q 2919 2259 2725 2515 
Q 2531 2772 2181 2772 
z
" transform="scale(0.015625)"/>
      <path id="DejaVuSans-Bold-65" d="M 4031 1759 
L 4031 1441 
L 1416 1441 
Q 1456 1047 1700 850 
Q 1944 653 2381 653 
Q 2734 653 3104 758 
Q 3475 863 3866 1075 
L 3866 213 
Q 3469 63 3072 -14 
Q 2675 -91 2278 -91 
Q 1328 -91 801 392 
Q 275 875 275 1747 
Q 275 2603 792 3093 
Q 1309 3584 2216 3584 
Q 3041 3584 3536 3087 
Q 4031 2591 4031 1759 
z
M 2881 2131 
Q 2881 2450 2695 2645 
Q 2509 2841 2209 2841 
Q 1884 2841 1681 2658 
Q 1478 2475 1428 2131 
L 2881 2131 
z
" transform="scale(0.015625)"/>
      <path id="DejaVuSans-Bold-54" d="M 31 4666 
L 4331 4666 
L 4331 3756 
L 2784 3756 
L 2784 0 
L 1581 0 
L 1581 3756 
L 31 3756 
L 31 4666 
z
" transform="scale(0.015625)"/>
     </defs>
     <use xlink:href="#DejaVuSans-Bold-41"/>
     <use xlink:href="#DejaVuSans-Bold-70" transform="translate(77.392578 0)"/>
     <use xlink:href="#DejaVuSans-Bold-6f" transform="translate(148.974609 0)"/>
     <use xlink:href="#DejaVuSans-Bold-45" transform="translate(217.675781 0)"/>
     <use xlink:href="#DejaVuSans-Bold-20" transform="translate(285.986328 0)"/>
     <use xlink:href="#DejaVuSans-Bold-43" transform="translate(320.800781 0)"/>
     <use xlink:href="#DejaVuSans-Bold-6f" transform="translate(394.189453 0)"/>
     <use xlink:href="#DejaVuSans-Bold-72" transform="translate(462.890625 0)"/>
     <use xlink:href="#DejaVuSans-Bold-6f" transform="translate(512.207031 0)"/>
     <use xlink:href="#DejaVuSans-Bold-6e" transform="translate(580.908203 0)"/>
     <use xlink:href="#DejaVuSans-Bold-61" transform="translate(652.099609 0)"/>
     <use xlink:href="#DejaVuSans-Bold-20" transform="translate(719.580078 0)"/>
     <use xlink:href="#DejaVuSans-Bold-43" transform="translate(754.394531 0)"/>
     <use xlink:href="#DejaVuSans-Bold-6f" transform="translate(827.783203 0)"/>
     <use xlink:href="#DejaVuSans-Bold-6d" transform="translate(896.484375 0)"/>
     <use xlink:href="#DejaVuSans-Bold-70" transform="translate(1000.683594 0)"/>
     <use xlink:href="#DejaVuSans-Bold-6f" transform="translate(1072.265625 0)"/>
     <use xlink:href="#DejaVuSans-Bold-73" transform="translate(1140.966797 0)"/>
     <use xlink:href="#DejaVuSans-Bold-69" transform="translate(1200.488281 0)"/>
     <use xlink:href="#DejaVuSans-Bold-74" transform="translate(1234.765625 0)"/>
     <use xlink:href="#DejaVuSans-Bold-69" transform="translate(1282.568359 0)"/>
     <use xlink:href="#DejaVuSans-Bold-6f" transform="translate(1316.845703 0)"/>
     <use xlink:href="#DejaVuSans-Bold-6e" transform="translate(1385.546875 0)"/>
     <use xlink:href="#DejaVuSans-Bold-20" transform="translate(1456.738281 0)"/>
     <use xlink:href="#DejaVuSans-Bold-62" transform="translate(1491.552734 0)"/>
     <use xlink:href="#DejaVuSans-Bold-79" transform="translate(1563.134766 0)"/>
     <use xlink:href="#DejaVuSans-Bold-20" transform="translate(1628.320312 0)"/>
     <use xlink:href="#DejaVuSans-Bold-4c" transform="translate(1663.134766 0)"/>
     <use xlink:href="#DejaVuSans-Bold-69" transform="translate(1726.855469 0)"/>
     <use xlink:href="#DejaVuSans-Bold-70" transform="translate(1761.132812 0)"/>
     <use xlink:href="#DejaVuSans-Bold-69" transform="translate(1832.714844 0)"/>
     <use xlink:href="#DejaVuSans-Bold-64" transform="translate(1866.992188 0)"/>
     <use xlink:href="#DejaVuSans-Bold-20" transform="translate(1938.574219 0)"/>
     <use xlink:href="#DejaVuSans-Bold-43" transform="translate(1973.388672 0)"/>
     <use xlink:href="#DejaVuSans-Bold-68" transform="translate(2046.777344 0)"/>
     <use xlink:href="#DejaVuSans-Bold-61" transform="translate(2117.96875 0)"/>
     <use xlink:href="#DejaVuSans-Bold-72" transform="translate(2185.449219 0)"/>
     <use xlink:href="#DejaVuSans-Bold-67" transform="translate(2234.765625 0)"/>
     <use xlink:href="#DejaVuSans-Bold-65" transform="translate(2306.347656 0)"/>
     <use xlink:href="#DejaVuSans-Bold-20" transform="translate(2374.169922 0)"/>
     <use xlink:href="#DejaVuSans-Bold-54" transform="translate(2408.984375 0)"/>
     <use xlink:href="#DejaVuSans-Bold-79" transform="translate(2465.322266 0)"/>
     <use xlink:href="#DejaVuSans-Bold-70" transform="translate(2530.507812 0)"/>
     <use xlink:href="#DejaVuSans-Bold-65" transform="translate(2602.089844 0)"/>
    </g>
    <!-- (SIMULATED data — literature-grounded ranges, N=22) -->
    <g transform="translate(134.6695 31.736687) scale(0.13 -0.13)">
     <defs>
      <path id="DejaVuSans-Bold-28" d="M 2413 -844 
L 1484 -844 
Q 1006 -72 778 623 
Q 550 1319 550 2003 
Q 550 2688 779 3389 
Q 1009 4091 1484 4856 
L 2413 4856 
Q 2013 4116 1813 3408 
Q 1613 2700 1613 2009 
Q 1613 1319 1811 609 
Q 2009 -100 2413 -844 
z
" transform="scale(0.015625)"/>
      <path id="DejaVuSans-Bold-53" d="M 3834 4519 
L 3834 3531 
Q 3450 3703 3084 3790 
Q 2719 3878 2394 3878 
Q 1963 3878 1756 3759 
Q 1550 3641 1550 3391 
Q 1550 3203 1689 3098 
Q 1828 2994 2194 2919 
L 2706 2816 
Q 3484 2659 3812 2340 
Q 4141 2022 4141 1434 
Q 4141 663 3683 286 
Q 3225 -91 2284 -91 
Q 1841 -91 1394 -6 
Q 947 78 500 244 
L 500 1259 
Q 947 1022 1364 901 
Q 1781 781 2169 781 
Q 2563 781 2772 912 
Q 2981 1044 2981 1288 
Q 2981 1506 2839 1625 
Q 2697 1744 2272 1838 
L 1806 1941 
Q 1106 2091 782 2419 
Q 459 2747 459 3303 
Q 459 4000 909 4375 
Q 1359 4750 2203 4750 
Q 2588 4750 2994 4692 
Q 3400 4634 3834 4519 
z
" transform="scale(0.015625)"/>
      <path id="DejaVuSans-Bold-49" d="M 588 4666 
L 1791 4666 
L 1791 0 
L 588 0 
L 588 4666 
z
" transform="scale(0.015625)"/>
      <path id="DejaVuSans-Bold-4d" d="M 588 4666 
L 2119 4666 
L 3181 2169 
L 4250 4666 
L 5778 4666 
L 5778 0 
L 4641 0 
L 4641 3413 
L 3566 897 
L 2803 897 
L 1728 3413 
L 1728 0 
L 588 0 
L 588 4666 
z
" transform="scale(0.015625)"/>
      <path id="DejaVuSans-Bold-55" d="M 588 4666 
L 1791 4666 
L 1791 1869 
Q 1791 1291 1980 1042 
Q 2169 794 2597 794 
Q 3028 794 3217 1042 
Q 3406 1291 3406 1869 
L 3406 4666 
L 4609 4666 
L 4609 1869 
Q 4609 878 4112 393 
Q 3616 -91 2597 -91 
Q 1581 -91 1084 393 
Q 588 878 588 1869 
L 588 4666 
z
" transform="scale(0.015625)"/>
      <path id="DejaVuSans-Bold-44" d="M 1791 3756 
L 1791 909 
L 2222 909 
Q 2959 909 3348 1275 
Q 3738 1641 3738 2338 
Q 3738 3031 3350 3393 
Q 2963 3756 2222 3756 
L 1791 3756 
z
M 588 4666 
L 1856 4666 
Q 2919 4666 3439 4514 
Q 3959 4363 4331 4000 
Q 4659 3684 4818 3271 
Q 4978 2859 4978 2338 
Q 4978 1809 4818 1395 
Q 4659 981 4331 666 
Q 3956 303 3431 151 
Q 2906 0 1856 0 
L 588 0 
L 588 4666 
z
" transform="scale(0.015625)"/>
      <path id="DejaVuSans-Bold-2014" d="M 344 2156 
L 6056 2156 
L 6056 1350 
L 344 1350 
L 344 2156 
z
" transform="scale(0.015625)"/>
      <path id="DejaVuSans-Bold-6c" d="M 538 4863 
L 1656 4863 
L 1656 0 
L 538 0 
L 538 4863 
z
" transform="scale(0.015625)"/>
      <path id="DejaVuSans-Bold-75" d="M 500 1363 
L 500 3500 
L 1625 3500 
L 1625 3150 
Q 1625 2866 1622 2436 
Q 1619 2006 1619 1863 
Q 1619 1441 1641 1255 
Q 1663 1069 1716 984 
Q 1784 875 1895 815 
Q 2006 756 2150 756 
Q 2500 756 2700 1025 
Q 2900 1294 2900 1772 
L 2900 3500 
L 4019 3500 
L 4019 0 
L 2900 0 
L 2900 506 
Q 2647 200 2364 54 
Q 2081 -91 1741 -91 
Q 1134 -91 817 281 
Q 500 653 500 1363 
z
" transform="scale(0.015625)"/>
      <path id="DejaVuSans-Bold-2d" d="M 347 2297 
L 2309 2297 
L 2309 1388 
L 347 1388 
L 347 2297 
z
" transform="scale(0.015625)"/>
      <path id="DejaVuSans-Bold-2c" d="M 653 1209 
L 1778 1209 
L 1778 256 
L 1006 -909 
L 341 -909 
L 653 256 
L 653 1209 
z
" transform="scale(0.015625)"/>
      <path id="DejaVuSans-Bold-4e" d="M 588 4666 
L 1931 4666 
L 3628 1466 
L 3628 4666 
L 4769 4666 
L 4769 0 
L 3425 0 
L 1728 3200 
L 1728 0 
L 588 0 
L 588 4666 
z
" transform="scale(0.015625)"/>
      <path id="DejaVuSans-Bold-3d" d="M 678 3084 
L 4684 3084 
L 4684 2350 
L 678 2350 
L 678 3084 
z
M 678 1663 
L 4684 1663 
L 4684 922 
L 678 922 
L 678 1663 
z
" transform="scale(0.015625)"/>
      <path id="DejaVuSans-Bold-32" d="M 1844 884 
L 3897 884 
L 3897 0 
L 506 0 
L 506 884 
L 2209 2388 
Q 2438 2594 2547 2791 
Q 2656 2988 2656 3200 
Q 2656 3528 2436 3728 
Q 2216 3928 1850 3928 
Q 1569 3928 1234 3808 
Q 900 3688 519 3450 
L 519 4475 
Q 925 4609 1322 4679 
Q 1719 4750 2100 4750 
Q 2938 4750 3402 4381 
Q 3866 4013 3866 3353 
Q 3866 2972 3669 2642 
Q 3472 2313 2841 1759 
L 1844 884 
z
" transform="scale(0.015625)"/>
      <path id="DejaVuSans-Bold-29" d="M 513 -844 
Q 913 -100 1113 609 
Q 1313 1319 1313 2009 
Q 1313 2700 1113 3408 
Q 913 4116 513 4856 
L 1441 4856 
Q 1916 4091 2145 3389 
Q 2375 2688 2375 2003 
Q 2375 1319 2147 623 
Q 1919 -72 1441 -844 
L 513 -844 
z
" transform="scale(0.015625)"/>
     </defs>
     <use xlink:href="#DejaVuSans-Bold-28"/>
     <use xlink:href="#DejaVuSans-Bold-53" transform="translate(45.703125 0)"/>
     <use xlink:href="#DejaVuSans-Bold-49" transform="translate(117.724609 0)"/>
     <use xlink:href="#DejaVuSans-Bold-4d" transform="translate(154.931641 0)"/>
     <use xlink:href="#DejaVuSans-Bold-55" transform="translate(254.443359 0)"/>
     <use xlink:href="#DejaVuSans-Bold-4c" transform="translate(335.644531 0)"/>
     <use xlink:href="#DejaVuSans-Bold-41" transform="translate(399.365234 0)"/>
     <use xlink:href="#DejaVuSans-Bold-54" transform="translate(469.007812 0)"/>
     <use xlink:href="#DejaVuSans-Bold-45" transform="translate(537.220703 0)"/>
     <use xlink:href="#DejaVuSans-Bold-44" transform="translate(605.53125 0)"/>
     <use xlink:href="#DejaVuSans-Bold-20" transform="translate(688.539062 0)"/>
     <use xlink:href="#DejaVuSans-Bold-64" transform="translate(723.353516 0)"/>
     <use xlink:href="#DejaVuSans-Bold-61" transform="translate(794.935547 0)"/>
     <use xlink:href="#DejaVuSans-Bold-74" transform="translate(862.416016 0)"/>
     <use xlink:href="#DejaVuSans-Bold-61" transform="translate(910.21875 0)"/>
     <use xlink:href="#DejaVuSans-Bold-20" transform="translate(977.699219 0)"/>
     <use xlink:href="#DejaVuSans-Bold-2014" transform="translate(1012.513672 0)"/>
     <use xlink:href="#DejaVuSans-Bold-20" transform="translate(1112.513672 0)"/>
     <use xlink:href="#DejaVuSans-Bold-6c" transform="translate(1147.328125 0)"/>
     <use xlink:href="#DejaVuSans-Bold-69" transform="translate(1181.605469 0)"/>
     <use xlink:href="#DejaVuSans-Bold-74" transform="translate(1215.882812 0)"/>
     <use xlink:href="#DejaVuSans-Bold-65" transform="translate(1263.685547 0)"/>
     <use xlink:href="#DejaVuSans-Bold-72" transform="translate(1331.507812 0)"/>
     <use xlink:href="#DejaVuSans-Bold-61" transform="translate(1380.824219 0)"/>
     <use xlink:href="#DejaVuSans-Bold-74" transform="translate(1448.304688 0)"/>
     <use xlink:href="#DejaVuSans-Bold-75" transform="translate(1496.107422 0)"/>
     <use xlink:href="#DejaVuSans-Bold-72" transform="translate(1567.298828 0)"/>
     <use xlink:href="#DejaVuSans-Bold-65" transform="translate(1616.615234 0)"/>
     <use xlink:href="#DejaVuSans-Bold-2d" transform="translate(1684.4375 0)"/>
     <use xlink:href="#DejaVuSans-Bold-67" transform="translate(1725.941406 0)"/>
     <use xlink:href="#DejaVuSans-Bold-72" transform="translate(1797.523438 0)"/>
     <use xlink:href="#DejaVuSans-Bold-6f" transform="translate(1846.839844 0)"/>
     <use xlink:href="#DejaVuSans-Bold-75" transform="translate(1915.541016 0)"/>
     <use xlink:href="#DejaVuSans-Bold-6e" transform="translate(1986.732422 0)"/>
     <use xlink:href="#DejaVuSans-Bold-64" transform="translate(2057.923828 0)"/>
     <use xlink:href="#DejaVuSans-Bold-65" transform="translate(2129.505859 0)"/>
     <use xlink:href="#DejaVuSans-Bold-64" transform="translate(2197.328125 0)"/>
     <use xlink:href="#DejaVuSans-Bold-20" transform="translate(2268.910156 0)"/>
     <use xlink:href="#DejaVuSans-Bold-72" transform="translate(2303.724609 0)"/>
     <use xlink:href="#DejaVuSans-Bold-61" transform="translate(2353.041016 0)"/>
     <use xlink:href="#DejaVuSans-Bold-6e" transform="translate(2420.521484 0)"/>
     <use xlink:href="#DejaVuSans-Bold-67" transform="translate(2491.712891 0)"/>
     <use xlink:href="#DejaVuSans-Bold-65" transform="translate(2563.294922 0)"/>
     <use xlink:href="#DejaVuSans-Bold-73" transform="translate(2631.117188 0)"/>
     <use xlink:href="#DejaVuSans-Bold-2c" transform="translate(2690.638672 0)"/>
     <use xlink:href="#DejaVuSans-Bold-20" transform="translate(2728.626953 0)"/>
     <use xlink:href="#DejaVuSans-Bold-4e" transform="translate(2763.441406 0)"/>
     <use xlink:href="#DejaVuSans-Bold-3d" transform="translate(2847.132812 0)"/>
     <use xlink:href="#DejaVuSans-Bold-32" transform="translate(2930.921875 0)"/>
     <use xlink:href="#DejaVuSans-Bold-32" transform="translate(3000.501953 0)"/>
     <use xlink:href="#DejaVuSans-Bold-29" transform="translate(3070.082031 0)"/>
    </g>
   </g>
   <g id="PathCollection_1">
    <defs>
     <path id="mf7c7700f91" d="M 0 3.708099 
C 0.983399 3.708099 1.926654 3.317391 2.622022 2.622022 
C 3.317391 1.926654 3.708099 0.983399 3.708099 0 
C 3.708099 -0.983399 3.317391 -1.926654 2.622022 -2.622022 
C 1.926654 -3.317391 0.983399 -3.708099 0 -3.708099 
C -0.983399 -3.708099 -1.926654 -3.317391 -2.622022 -2.622022 
C -3.317391 -1.926654 -3.708099 -0.983399 -3.708099 0 
C -3.708099 0.983399 -3.317391 1.926654 -2.622022 2.622022 
C -1.926654 3.317391 -0.983399 3.708099 0 3.708099 
z
" style="stroke: #222222; stroke-opacity: 0.9; stroke-width: 0.7"/>
    </defs>
    <g clip-path="url(#pd350c3350f)">
     <use xlink:href="#mf7c7700f91" x="101.221255" y="136.473672" style="fill: #e41a1c; fill-opacity: 0.9; stroke: #222222; stroke-opacity: 0.9; stroke-width: 0.7"/>
     <use xlink:href="#mf7c7700f91" x="126.099895" y="109.425385" style="fill: #e41a1c; fill-opacity: 0.9; stroke: #222222; stroke-opacity: 0.9; stroke-width: 0.7"/>
     <use xlink:href="#mf7c7700f91" x="114.024615" y="151.929836" style="fill: #e41a1c; fill-opacity: 0.9; stroke: #222222; stroke-opacity: 0.9; stroke-width: 0.7"/>
     <use xlink:href="#mf7c7700f91" x="124.103777" y="197.332318" style="fill: #e41a1c; fill-opacity: 0.9; stroke: #222222; stroke-opacity: 0.9; stroke-width: 0.7"/>
     <use xlink:href="#mf7c7700f91" x="133.103386" y="174.148072" style="fill: #e41a1c; fill-opacity: 0.9; stroke: #222222; stroke-opacity: 0.9; stroke-width: 0.7"/>
     <use xlink:href="#mf7c7700f91" x="117.563533" y="123.915539" style="fill: #e41a1c; fill-opacity: 0.9; stroke: #222222; stroke-opacity: 0.9; stroke-width: 0.7"/>
     <use xlink:href="#mf7c7700f91" x="116.241993" y="272.681118" style="fill: #e41a1c; fill-opacity: 0.9; stroke: #222222; stroke-opacity: 0.9; stroke-width: 0.7"/>
     <use xlink:href="#mf7c7700f91" x="101.070728" y="238.870759" style="fill: #e41a1c; fill-opacity: 0.9; stroke: #222222; stroke-opacity: 0.9; stroke-width: 0.7"/>
     <use xlink:href="#mf7c7700f91" x="108.014715" y="147.099785" style="fill: #e41a1c; fill-opacity: 0.9; stroke: #222222; stroke-opacity: 0.9; stroke-width: 0.7"/>
    </g>
   </g>
   <g id="PathCollection_2">
    <defs>
     <path id="m1b6cd19de5" d="M 0 3.708099 
C 0.983399 3.708099 1.926654 3.317391 2.622022 2.622022 
C 3.317391 1.926654 3.708099 0.983399 3.708099 0 
C 3.708099 -0.983399 3.317391 -1.926654 2.622022 -2.622022 
C 1.926654 -3.317391 0.983399 -3.708099 0 -3.708099 
C -0.983399 -3.708099 -1.926654 -3.317391 -2.622022 -2.622022 
C -3.317391 -1.926654 -3.708099 -0.983399 -3.708099 0 
C -3.708099 0.983399 -3.317391 1.926654 -2.622022 2.622022 
C -1.926654 3.317391 -0.983399 3.708099 0 3.708099 
z
" style="stroke: #222222; stroke-opacity: 0.9; stroke-width: 0.7"/>
    </defs>
    <g clip-path="url(#pd350c3350f)">
     <use xlink:href="#m1b6cd19de5" x="263.52547" y="331.607744" style="fill: #377eb8; fill-opacity: 0.9; stroke: #222222; stroke-opacity: 0.9; stroke-width: 0.7"/>
     <use xlink:href="#m1b6cd19de5" x="269.866936" y="348.029918" style="fill: #377eb8; fill-opacity: 0.9; stroke: #222222; stroke-opacity: 0.9; stroke-width: 0.7"/>
     <use xlink:href="#m1b6cd19de5" x="274.269394" y="316.15158" style="fill: #377eb8; fill-opacity: 0.9; stroke: #222222; stroke-opacity: 0.9; stroke-width: 0.7"/>
     <use xlink:href="#m1b6cd19de5" x="259.319877" y="300.695416" style="fill: #377eb8; fill-opacity: 0.9; stroke: #222222; stroke-opacity: 0.9; stroke-width: 0.7"/>
     <use xlink:href="#m1b6cd19de5" x="248.181768" y="361.554062" style="fill: #377eb8; fill-opacity: 0.9; stroke: #222222; stroke-opacity: 0.9; stroke-width: 0.7"/>
    </g>
   </g>
   <g id="PathCollection_3">
    <defs>
     <path id="m1f29ac0fd9" d="M 0 3.708099 
C 0.983399 3.708099 1.926654 3.317391 2.622022 2.622022 
C 3.317391 1.926654 3.708099 0.983399 3.708099 0 
C 3.708099 -0.983399 3.317391 -1.926654 2.622022 -2.622022 
C 1.926654 -3.317391 0.983399 -3.708099 0 -3.708099 
C -0.983399 -3.708099 -1.926654 -3.317391 -2.622022 -2.622022 
C -3.317391 -1.926654 -3.708099 -0.983399 -3.708099 0 
C -3.708099 0.983399 -3.317391 1.926654 -2.622022 2.622022 
C -1.926654 3.317391 -0.983399 3.708099 0 3.708099 
z
" style="stroke: #222222; stroke-opacity: 0.9; stroke-width: 0.7"/>
    </defs>
    <g clip-path="url(#pd350c3350f)">
     <use xlink:href="#m1f29ac0fd9" x="403.366013" y="263.987026" style="fill: #4daf4a; fill-opacity: 0.9; stroke: #222222; stroke-opacity: 0.9; stroke-width: 0.7"/>
     <use xlink:href="#m1f29ac0fd9" x="425.339504" y="287.171272" style="fill: #4daf4a; fill-opacity: 0.9; stroke: #222222; stroke-opacity: 0.9; stroke-width: 0.7"/>
     <use xlink:href="#m1f29ac0fd9" x="400.7226" y="251.428893" style="fill: #4daf4a; fill-opacity: 0.9; stroke: #222222; stroke-opacity: 0.9; stroke-width: 0.7"/>
     <use xlink:href="#m1f29ac0fd9" x="409.164048" y="313.253549" style="fill: #4daf4a; fill-opacity: 0.9; stroke: #222222; stroke-opacity: 0.9; stroke-width: 0.7"/>
     <use xlink:href="#m1f29ac0fd9" x="426.10369" y="281.375211" style="fill: #4daf4a; fill-opacity: 0.9; stroke: #222222; stroke-opacity: 0.9; stroke-width: 0.7"/>
    </g>
   </g>
   <g id="PathCollection_4">
    <defs>
     <path id="mee7f9a9cc4" d="M 0 3.708099 
C 0.983399 3.708099 1.926654 3.317391 2.622022 2.622022 
C 3.317391 1.926654 3.708099 0.983399 3.708099 0 
C 3.708099 -0.983399 3.317391 -1.926654 2.622022 -2.622022 
C 1.926654 -3.317391 0.983399 -3.708099 0 -3.708099 
C -0.983399 -3.708099 -1.926654 -3.317391 -2.622022 -2.622022 
C -3.317391 -1.926654 -3.708099 -0.983399 -3.708099 0 
C -3.708099 0.983399 -3.317391 1.926654 -2.622022 2.622022 
C -1.926654 3.317391 -0.983399 3.708099 0 3.708099 
z
" style="stroke: #222222; stroke-opacity: 0.9; stroke-width: 0.7"/>
    </defs>
    <g clip-path="url(#pd350c3350f)">
     <use xlink:href="#mee7f9a9cc4" x="541.385255" y="364.452093" style="fill: #984ea3; fill-opacity: 0.9; stroke: #222222; stroke-opacity: 0.9; stroke-width: 0.7"/>
     <use xlink:href="#mee7f9a9cc4" x="561.739388" y="379.908257" style="fill: #984ea3; fill-opacity: 0.9; stroke: #222222; stroke-opacity: 0.9; stroke-width: 0.7"/>
     <use xlink:href="#mee7f9a9cc4" x="574.100047" y="353.82598" style="fill: #984ea3; fill-opacity: 0.9; stroke: #222222; stroke-opacity: 0.9; stroke-width: 0.7"/>
    </g>
   </g>
   <g id="legend_1">
    <g id="patch_9">
     <path d="M 503.095719 116.98825 
L 625.54775 116.98825 
Q 627.34775 116.98825 627.34775 115.18825 
L 627.34775 50.036687 
Q 627.34775 48.236687 625.54775 48.236687 
L 503.095719 48.236687 
Q 501.295719 48.236687 501.295719 50.036687 
L 501.295719 115.18825 
Q 501.295719 116.98825 503.095719 116.98825 
z
" style="fill: #ffffff; opacity: 0.9; stroke: #cccccc; stroke-linejoin: miter"/>
    </g>
    <g id="patch_10">
     <path d="M 504.895719 58.675281 
L 522.895719 58.675281 
L 522.895719 52.375281 
L 504.895719 52.375281 
z
" style="fill: #e41a1c; opacity: 0.8; stroke: #333333; stroke-linejoin: miter"/>
    </g>
    <g id="text_21">
     <!-- Ionizable -->
     <g transform="translate(530.095719 58.675281) scale(0.09 -0.09)">
      <use xlink:href="#DejaVuSans-49"/>
      <use xlink:href="#DejaVuSans-6f" transform="translate(29.492188 0)"/>
      <use xlink:href="#DejaVuSans-6e" transform="translate(90.673828 0)"/>
      <use xlink:href="#DejaVuSans-69" transform="translate(154.052734 0)"/>
      <use xlink:href="#DejaVuSans-7a" transform="translate(181.835938 0)"/>
      <use xlink:href="#DejaVuSans-61" transform="translate(234.326172 0)"/>
      <use xlink:href="#DejaVuSans-62" transform="translate(295.605469 0)"/>
      <use xlink:href="#DejaVuSans-6c" transform="translate(359.082031 0)"/>
      <use xlink:href="#DejaVuSans-65" transform="translate(386.865234 0)"/>
     </g>
    </g>
    <g id="patch_11">
     <path d="M 504.895719 71.885594 
L 522.895719 71.885594 
L 522.895719 65.585594 
L 504.895719 65.585594 
z
" style="fill: #377eb8; opacity: 0.8; stroke: #333333; stroke-linejoin: miter"/>
    </g>
    <g id="text_22">
     <!-- Cationic -->
     <g transform="translate(530.095719 71.885594) scale(0.09 -0.09)">
      <use xlink:href="#DejaVuSans-43"/>
      <use xlink:href="#DejaVuSans-61" transform="translate(69.824219 0)"/>
      <use xlink:href="#DejaVuSans-74" transform="translate(131.103516 0)"/>
      <use xlink:href="#DejaVuSans-69" transform="translate(170.3125 0)"/>
      <use xlink:href="#DejaVuSans-6f" transform="translate(198.095703 0)"/>
      <use xlink:href="#DejaVuSans-6e" transform="translate(259.277344 0)"/>
      <use xlink:href="#DejaVuSans-69" transform="translate(322.65625 0)"/>
      <use xlink:href="#DejaVuSans-63" transform="translate(350.439453 0)"/>
     </g>
    </g>
    <g id="patch_12">
     <path d="M 504.895719 85.095906 
L 522.895719 85.095906 
L 522.895719 78.795906 
L 504.895719 78.795906 
z
" style="fill: #4daf4a; opacity: 0.8; stroke: #333333; stroke-linejoin: miter"/>
    </g>
    <g id="text_23">
     <!-- Neutral -->
     <g transform="translate(530.095719 85.095906) scale(0.09 -0.09)">
      <use xlink:href="#DejaVuSans-4e"/>
      <use xlink:href="#DejaVuSans-65" transform="translate(74.804688 0)"/>
      <use xlink:href="#DejaVuSans-75" transform="translate(136.328125 0)"/>
      <use xlink:href="#DejaVuSans-74" transform="translate(199.707031 0)"/>
      <use xlink:href="#DejaVuSans-72" transform="translate(238.916016 0)"/>
      <use xlink:href="#DejaVuSans-61" transform="translate(280.029297 0)"/>
      <use xlink:href="#DejaVuSans-6c" transform="translate(341.308594 0)"/>
     </g>
    </g>
    <g id="patch_13">
     <path d="M 504.895719 98.306219 
L 522.895719 98.306219 
L 522.895719 92.006219 
L 504.895719 92.006219 
z
" style="fill: #984ea3; opacity: 0.8; stroke: #333333; stroke-linejoin: miter"/>
    </g>
    <g id="text_24">
     <!-- Anionic -->
     <g transform="translate(530.095719 98.306219) scale(0.09 -0.09)">
      <use xlink:href="#DejaVuSans-41"/>
      <use xlink:href="#DejaVuSans-6e" transform="translate(68.408203 0)"/>
      <use xlink:href="#DejaVuSans-69" transform="translate(131.787109 0)"/>
      <use xlink:href="#DejaVuSans-6f" transform="translate(159.570312 0)"/>
      <use xlink:href="#DejaVuSans-6e" transform="translate(220.751953 0)"/>
      <use xlink:href="#DejaVuSans-69" transform="translate(284.130859 0)"/>
      <use xlink:href="#DejaVuSans-63" transform="translate(311.914062 0)"/>
     </g>
    </g>
    <g id="line2d_42">
     <path d="M 504.895719 108.366531 
L 513.895719 108.366531 
L 522.895719 108.366531 
" style="fill: none; stroke-dasharray: 6.66,2.88; stroke-dashoffset: 0; stroke: #ff7f00; stroke-width: 1.8"/>
    </g>
    <g id="text_25">
     <!-- BBB threshold (20%) -->
     <g transform="translate(530.095719 111.516531) scale(0.09 -0.09)">
      <use xlink:href="#DejaVuSans-42"/>
      <use xlink:href="#DejaVuSans-42" transform="translate(68.603516 0)"/>
      <use xlink:href="#DejaVuSans-42" transform="translate(137.207031 0)"/>
      <use xlink:href="#DejaVuSans-20" transform="translate(205.810547 0)"/>
      <use xlink:href="#DejaVuSans-74" transform="translate(237.597656 0)"/>
      <use xlink:href="#DejaVuSans-68" transform="translate(276.806641 0)"/>
      <use xlink:href="#DejaVuSans-72" transform="translate(340.185547 0)"/>
      <use xlink:href="#DejaVuSans-65" transform="translate(379.048828 0)"/>
      <use xlink:href="#DejaVuSans-73" transform="translate(440.572266 0)"/>
      <use xlink:href="#DejaVuSans-68" transform="translate(492.671875 0)"/>
      <use xlink:href="#DejaVuSans-6f" transform="translate(556.050781 0)"/>
      <use xlink:href="#DejaVuSans-6c" transform="translate(617.232422 0)"/>
      <use xlink:href="#DejaVuSans-64" transform="translate(645.015625 0)"/>
      <use xlink:href="#DejaVuSans-20" transform="translate(708.492188 0)"/>
      <use xlink:href="#DejaVuSans-28" transform="translate(740.279297 0)"/>
      <use xlink:href="#DejaVuSans-32" transform="translate(779.292969 0)"/>
      <use xlink:href="#DejaVuSans-30" transform="translate(842.916016 0)"/>
      <use xlink:href="#DejaVuSans-25" transform="translate(906.539062 0)"/>
      <use xlink:href="#DejaVuSans-29" transform="translate(1001.558594 0)"/>
     </g>
    </g>
   </g>
  </g>
 </g>
 <defs>
  <clipPath id="pd350c3350f">
   <rect x="42.53875" y="43.736687" width="589.309" height="376.744"/>
  </clipPath>
 </defs>
</svg>
