<?xml version="1.0" encoding="utf-8" standalone="no"?>
<!DOCTYPE svg PUBLIC "-//W3C//DTD SVG 1.1//EN"
  "http://www.w3.org/Graphics/SVG/1.1/DTD/svg11.dtd">
<svg xmlns:xlink="http://www.w3.org/1999/xlink" width="1000.380312pt" height="495.148562pt" viewBox="0 0 1000.380312 495.148562" xmlns="http://www.w3.org/2000/svg" version="1.1">
 <metadata>
  <rdf:RDF xmlns:dc="http://purl.org/dc/elements/1.1/" xmlns:cc="http://creativecommons.org/ns#" xmlns:rdf="http://www.w3.org/1999/02/22-rdf-syntax-ns#">
   <cc:Work>
    <dc:type rdf:resource="http://purl.org/dc/dcmitype/StillImage"/>
    <dc:date>2026-03-07T15:43:35.998840</dc:date>
    <dc:format>image/svg+xml</dc:format>
    <dc:creator>
     <cc:Agent>
      <dc:title>Matplotlib v3.10.5, https://matplotlib.org/</dc:title>
     </cc:Agent>
    </dc:creator>
   </cc:Work>
  </rdf:RDF>
 </metadata>
 <defs>
  <style type="text/css">*{stroke-linejoin: round; stroke-linecap: butt}</style>
 </defs>
 <g id="figure_1">
  <g id="patch_1">
   <path d="M 0 495.148562 
L 1000.380312 495.148562 
L 1000.380312 0 
L 0 0 
z
" style="fill: #ffffff"/>
  </g>
  <g id="axes_1">
   <g id="patch_2">
    <path d="M 42.620313 457.314187 
L 993.180312 457.314187 
L 993.180312 47.524687 
L 42.620313 47.524687 
z
" style="fill: #ffffff"/>
   </g>
   <g id="line2d_1">
    <path d="M 62.287071 402.675587 
L 960.402381 402.675587 
" clip-path="url(#p2202467a3e)" style="fill: none; stroke: #555555; stroke-width: 1.8; stroke-linecap: square"/>
   </g>
   <g id="matplotlib.axis_1">
    <g id="xtick_1">
     <g id="line2d_2">
      <defs>
       <path id="m62646d1cb8" d="M 0 0 
L 0 3.5 
" style="stroke: #000000; stroke-width: 0.8"/>
      </defs>
      <g>
       <use xlink:href="#m62646d1cb8" x="59.009278" y="457.314187" style="stroke: #000000; stroke-width: 0.8"/>
      </g>
     </g>
     <g id="text_1">
      <!-- 0 -->
      <g transform="translate(55.828028 471.912625) scale(0.1 -0.1)">
       <defs>
        <path id="DejaVuSans-30" d="M 2034 4250 
Q 1547 4250 1301 3770 
Q 1056 3291 1056 2328 
Q 1056 1369 1301 889 
Q 1547 409 2034 409 
Q 2525 409 2770 889 
Q 3016 1369 3016 2328 
Q 3016 3291 2770 3770 
Q 2525 4250 2034 4250 
z
M 2034 4750 
Q 2819 4750 3233 4129 
Q 3647 3509 3647 2328 
Q 3647 1150 3233 529 
Q 2819 -91 2034 -91 
Q 1250 -91 836 529 
Q 422 1150 422 2328 
Q 422 3509 836 4129 
Q 1250 4750 2034 4750 
z
" transform="scale(0.015625)"/>
       </defs>
       <use xlink:href="#DejaVuSans-30"/>
      </g>
     </g>
    </g>
    <g id="xtick_2">
     <g id="line2d_3">
      <g>
       <use xlink:href="#m62646d1cb8" x="222.898933" y="457.314187" style="stroke: #000000; stroke-width: 0.8"/>
      </g>
     </g>
     <g id="text_2">
      <!-- 50 -->
      <g transform="translate(216.536433 471.912625) scale(0.1 -0.1)">
       <defs>
        <path id="DejaVuSans-35" d="M 691 4666 
L 3169 4666 
L 3169 4134 
L 1269 4134 
L 1269 2991 
Q 1406 3038 1543 3061 
Q 1681 3084 1819 3084 
Q 2600 3084 3056 2656 
Q 3513 2228 3513 1497 
Q 3513 744 3044 326 
Q 2575 -91 1722 -91 
Q 1428 -91 1123 -41 
Q 819 9 494 109 
L 494 744 
Q 775 591 1075 516 
Q 1375 441 1709 441 
Q 2250 441 2565 725 
Q 2881 1009 2881 1497 
Q 2881 1984 2565 2268 
Q 2250 2553 1709 2553 
Q 1456 2553 1204 2497 
Q 953 2441 691 2322 
L 691 4666 
z
" transform="scale(0.015625)"/>
       </defs>
       <use xlink:href="#DejaVuSans-35"/>
       <use xlink:href="#DejaVuSans-30" transform="translate(63.623047 0)"/>
      </g>
     </g>
    </g>
    <g id="xtick_3">
     <g id="line2d_4">
      <g>
       <use xlink:href="#m62646d1cb8" x="386.788588" y="457.314187" style="stroke: #000000; stroke-width: 0.8"/>
      </g>
     </g>
     <g id="text_3">
      <!-- 100 -->
      <g transform="translate(377.244838 471.912625) scale(0.1 -0.1)">
       <defs>
        <path id="DejaVuSans-31" d="M 794 531 
L 1825 531 
L 1825 4091 
L 703 3866 
L 703 4441 
L 1819 4666 
L 2450 4666 
L 2450 531 
L 3481 531 
L 3481 0 
L 794 0 
L 794 531 
z
" transform="scale(0.015625)"/>
       </defs>
       <use xlink:href="#DejaVuSans-31"/>
       <use xlink:href="#DejaVuSans-30" transform="translate(63.623047 0)"/>
       <use xlink:href="#DejaVuSans-30" transform="translate(127.246094 0)"/>
      </g>
     </g>
    </g>
    <g id="xtick_4">
     <g id="line2d_5">
      <g>
       <use xlink:href="#m62646d1cb8" x="550.678244" y="457.314187" style="stroke: #000000; stroke-width: 0.8"/>
      </g>
     </g>
     <g id="text_4">
      <!-- 150 -->
      <g transform="translate(541.134494 471.912625) scale(0.1 -0.1)">
       <use xlink:href="#DejaVuSans-31"/>
       <use xlink:href="#DejaVuSans-35" transform="translate(63.623047 0)"/>
       <use xlink:href="#DejaVuSans-30" transform="translate(127.246094 0)"/>
      </g>
     </g>
    </g>
    <g id="xtick_5">
     <g id="line2d_6">
      <g>
       <use xlink:href="#m62646d1cb8" x="714.567899" y="457.314187" style="stroke: #000000; stroke-width: 0.8"/>
      </g>
     </g>
     <g id="text_5">
      <!-- 200 -->
      <g transform="translate(705.024149 471.912625) scale(0.1 -0.1)">
       <defs>
        <path id="DejaVuSans-32" d="M 1228 531 
L 3431 531 
L 3431 0 
L 469 0 
L 469 531 
Q 828 903 1448 1529 
Q 2069 2156 2228 2338 
Q 2531 2678 2651 2914 
Q 2772 3150 2772 3378 
Q 2772 3750 2511 3984 
Q 2250 4219 1831 4219 
Q 1534 4219 1204 4116 
Q 875 4013 500 3803 
L 500 4441 
Q 881 4594 1212 4672 
Q 1544 4750 1819 4750 
Q 2544 4750 2975 4387 
Q 3406 4025 3406 3419 
Q 3406 3131 3298 2873 
Q 3191 2616 2906 2266 
Q 2828 2175 2409 1742 
Q 1991 1309 1228 531 
z
" transform="scale(0.015625)"/>
       </defs>
       <use xlink:href="#DejaVuSans-32"/>
       <use xlink:href="#DejaVuSans-30" transform="translate(63.623047 0)"/>
       <use xlink:href="#DejaVuSans-30" transform="translate(127.246094 0)"/>
      </g>
     </g>
    </g>
    <g id="xtick_6">
     <g id="line2d_7">
      <g>
       <use xlink:href="#m62646d1cb8" x="878.457554" y="457.314187" style="stroke: #000000; stroke-width: 0.8"/>
      </g>
     </g>
     <g id="text_6">
      <!-- 250 -->
      <g transform="translate(868.913804 471.912625) scale(0.1 -0.1)">
       <use xlink:href="#DejaVuSans-32"/>
       <use xlink:href="#DejaVuSans-35" transform="translate(63.623047 0)"/>
       <use xlink:href="#DejaVuSans-30" transform="translate(127.246094 0)"/>
      </g>
     </g>
    </g>
    <g id="text_7">
     <!-- Nucleotide position (NM_000142.5, 5′UTR = 275 nt verified) -->
     <g transform="translate(368.038594 485.59075) scale(0.1 -0.1)">
      <defs>
       <path id="DejaVuSans-4e" d="M 628 4666 
L 1478 4666 
L 3547 763 
L 3547 4666 
L 4159 4666 
L 4159 0 
L 3309 0 
L 1241 3903 
L 1241 0 
L 628 0 
L 628 4666 
z
" transform="scale(0.015625)"/>
       <path id="DejaVuSans-75" d="M 544 1381 
L 544 3500 
L 1119 3500 
L 1119 1403 
Q 1119 906 1312 657 
Q 1506 409 1894 409 
Q 2359 409 2629 706 
Q 2900 1003 2900 1516 
L 2900 3500 
L 3475 3500 
L 3475 0 
L 2900 0 
L 2900 538 
Q 2691 219 2414 64 
Q 2138 -91 1772 -91 
Q 1169 -91 856 284 
Q 544 659 544 1381 
z
M 1991 3584 
L 1991 3584 
z
" transform="scale(0.015625)"/>
       <path id="DejaVuSans-63" d="M 3122 3366 
L 3122 2828 
Q 2878 2963 2633 3030 
Q 2388 3097 2138 3097 
Q 1578 3097 1268 2742 
Q 959 2388 959 1747 
Q 959 1106 1268 751 
Q 1578 397 2138 397 
Q 2388 397 2633 464 
Q 2878 531 3122 666 
L 3122 134 
Q 2881 22 2623 -34 
Q 2366 -91 2075 -91 
Q 1284 -91 818 406 
Q 353 903 353 1747 
Q 353 2603 823 3093 
Q 1294 3584 2113 3584 
Q 2378 3584 2631 3529 
Q 2884 3475 3122 3366 
z
" transform="scale(0.015625)"/>
       <path id="DejaVuSans-6c" d="M 603 4863 
L 1178 4863 
L 1178 0 
L 603 0 
L 603 4863 
z
" transform="scale(0.015625)"/>
       <path id="DejaVuSans-65" d="M 3597 1894 
L 3597 1613 
L 953 1613 
Q 991 1019 1311 708 
Q 1631 397 2203 397 
Q 2534 397 2845 478 
Q 3156 559 3463 722 
L 3463 178 
Q 3153 47 2828 -22 
Q 2503 -91 2169 -91 
Q 1331 -91 842 396 
Q 353 884 353 1716 
Q 353 2575 817 3079 
Q 1281 3584 2069 3584 
Q 2775 3584 3186 3129 
Q 3597 2675 3597 1894 
z
M 3022 2063 
Q 3016 2534 2758 2815 
Q 2500 3097 2075 3097 
Q 1594 3097 1305 2825 
Q 1016 2553 972 2059 
L 3022 2063 
z
" transform="scale(0.015625)"/>
       <path id="DejaVuSans-6f" d="M 1959 3097 
Q 1497 3097 1228 2736 
Q 959 2375 959 1747 
Q 959 1119 1226 758 
Q 1494 397 1959 397 
Q 2419 397 2687 759 
Q 2956 1122 2956 1747 
Q 2956 2369 2687 2733 
Q 2419 3097 1959 3097 
z
M 1959 3584 
Q 2709 3584 3137 3096 
Q 3566 2609 3566 1747 
Q 3566 888 3137 398 
Q 2709 -91 1959 -91 
Q 1206 -91 779 398 
Q 353 888 353 1747 
Q 353 2609 779 3096 
Q 1206 3584 1959 3584 
z
" transform="scale(0.015625)"/>
       <path id="DejaVuSans-74" d="M 1172 4494 
L 1172 3500 
L 2356 3500 
L 2356 3053 
L 1172 3053 
L 1172 1153 
Q 1172 725 1289 603 
Q 1406 481 1766 481 
L 2356 481 
L 2356 0 
L 1766 0 
Q 1100 0 847 248 
Q 594 497 594 1153 
L 594 3053 
L 172 3053 
L 172 3500 
L 594 3500 
L 594 4494 
L 1172 4494 
z
" transform="scale(0.015625)"/>
       <path id="DejaVuSans-69" d="M 603 3500 
L 1178 3500 
L 1178 0 
L 603 0 
L 603 3500 
z
M 603 4863 
L 1178 4863 
L 1178 4134 
L 603 4134 
L 603 4863 
z
" transform="scale(0.015625)"/>
       <path id="DejaVuSans-64" d="M 2906 2969 
L 2906 4863 
L 3481 4863 
L 3481 0 
L 2906 0 
L 2906 525 
Q 2725 213 2448 61 
Q 2172 -91 1784 -91 
Q 1150 -91 751 415 
Q 353 922 353 1747 
Q 353 2572 751 3078 
Q 1150 3584 1784 3584 
Q 2172 3584 2448 3432 
Q 2725 3281 2906 2969 
z
M 947 1747 
Q 947 1113 1208 752 
Q 1469 391 1925 391 
Q 2381 391 2643 752 
Q 2906 1113 2906 1747 
Q 2906 2381 2643 2742 
Q 2381 3103 1925 3103 
Q 1469 3103 1208 2742 
Q 947 2381 947 1747 
z
" transform="scale(0.015625)"/>
       <path id="DejaVuSans-20" transform="scale(0.015625)"/>
       <path id="DejaVuSans-70" d="M 1159 525 
L 1159 -1331 
L 581 -1331 
L 581 3500 
L 1159 3500 
L 1159 2969 
Q 1341 3281 1617 3432 
Q 1894 3584 2278 3584 
Q 2916 3584 3314 3078 
Q 3713 2572 3713 1747 
Q 3713 922 3314 415 
Q 2916 -91 2278 -91 
Q 1894 -91 1617 61 
Q 1341 213 1159 525 
z
M 3116 1747 
Q 3116 2381 2855 2742 
Q 2594 3103 2138 3103 
Q 1681 3103 1420 2742 
Q 1159 2381 1159 1747 
Q 1159 1113 1420 752 
Q 1681 391 2138 391 
Q 2594 391 2855 752 
Q 3116 1113 3116 1747 
z
" transform="scale(0.015625)"/>
       <path id="DejaVuSans-73" d="M 2834 3397 
L 2834 2853 
Q 2591 2978 2328 3040 
Q 2066 3103 1784 3103 
Q 1356 3103 1142 2972 
Q 928 2841 928 2578 
Q 928 2378 1081 2264 
Q 1234 2150 1697 2047 
L 1894 2003 
Q 2506 1872 2764 1633 
Q 3022 1394 3022 966 
Q 3022 478 2636 193 
Q 2250 -91 1575 -91 
Q 1294 -91 989 -36 
Q 684 19 347 128 
L 347 722 
Q 666 556 975 473 
Q 1284 391 1588 391 
Q 1994 391 2212 530 
Q 2431 669 2431 922 
Q 2431 1156 2273 1281 
Q 2116 1406 1581 1522 
L 1381 1569 
Q 847 1681 609 1914 
Q 372 2147 372 2553 
Q 372 3047 722 3315 
Q 1072 3584 1716 3584 
Q 2034 3584 2315 3537 
Q 2597 3491 2834 3397 
z
" transform="scale(0.015625)"/>
       <path id="DejaVuSans-6e" d="M 3513 2113 
L 3513 0 
L 2938 0 
L 2938 2094 
Q 2938 2591 2744 2837 
Q 2550 3084 2163 3084 
Q 1697 3084 1428 2787 
Q 1159 2491 1159 1978 
L 1159 0 
L 581 0 
L 581 3500 
L 1159 3500 
L 1159 2956 
Q 1366 3272 1645 3428 
Q 1925 3584 2291 3584 
Q 2894 3584 3203 3211 
Q 3513 2838 3513 2113 
z
" transform="scale(0.015625)"/>
       <path id="DejaVuSans-28" d="M 1984 4856 
Q 1566 4138 1362 3434 
Q 1159 2731 1159 2009 
Q 1159 1288 1364 580 
Q 1569 -128 1984 -844 
L 1484 -844 
Q 1016 -109 783 600 
Q 550 1309 550 2009 
Q 550 2706 781 3412 
Q 1013 4119 1484 4856 
L 1984 4856 
z
" transform="scale(0.015625)"/>
       <path id="DejaVuSans-4d" d="M 628 4666 
L 1569 4666 
L 2759 1491 
L 3956 4666 
L 4897 4666 
L 4897 0 
L 4281 0 
L 4281 4097 
L 3078 897 
L 2444 897 
L 1241 4097 
L 1241 0 
L 628 0 
L 628 4666 
z
" transform="scale(0.015625)"/>
       <path id="DejaVuSans-5f" d="M 3263 -1063 
L 3263 -1509 
L -63 -1509 
L -63 -1063 
L 3263 -1063 
z
" transform="scale(0.015625)"/>
       <path id="DejaVuSans-34" d="M 2419 4116 
L 825 1625 
L 2419 1625 
L 2419 4116 
z
M 2253 4666 
L 3047 4666 
L 3047 1625 
L 3713 1625 
L 3713 1100 
L 3047 1100 
L 3047 0 
L 2419 0 
L 2419 1100 
L 313 1100 
L 313 1709 
L 2253 4666 
z
" transform="scale(0.015625)"/>
       <path id="DejaVuSans-2e" d="M 684 794 
L 1344 794 
L 1344 0 
L 684 0 
L 684 794 
z
" transform="scale(0.015625)"/>
       <path id="DejaVuSans-2c" d="M 750 794 
L 1409 794 
L 1409 256 
L 897 -744 
L 494 -744 
L 750 256 
L 750 794 
z
" transform="scale(0.015625)"/>
       <path id="DejaVuSans-2032" d="M 125 3500 
L 666 4666 
L 1300 4666 
L 397 3500 
L 125 3500 
z
" transform="scale(0.015625)"/>
       <path id="DejaVuSans-55" d="M 556 4666 
L 1191 4666 
L 1191 1831 
Q 1191 1081 1462 751 
Q 1734 422 2344 422 
Q 2950 422 3222 751 
Q 3494 1081 3494 1831 
L 3494 4666 
L 4128 4666 
L 4128 1753 
Q 4128 841 3676 375 
Q 3225 -91 2344 -91 
Q 1459 -91 1007 375 
Q 556 841 556 1753 
L 556 4666 
z
" transform="scale(0.015625)"/>
       <path id="DejaVuSans-54" d="M -19 4666 
L 3928 4666 
L 3928 4134 
L 2272 4134 
L 2272 0 
L 1638 0 
L 1638 4134 
L -19 4134 
L -19 4666 
z
" transform="scale(0.015625)"/>
       <path id="DejaVuSans-52" d="M 2841 2188 
Q 3044 2119 3236 1894 
Q 3428 1669 3622 1275 
L 4263 0 
L 3584 0 
L 2988 1197 
Q 2756 1666 2539 1819 
Q 2322 1972 1947 1972 
L 1259 1972 
L 1259 0 
L 628 0 
L 628 4666 
L 2053 4666 
Q 2853 4666 3247 4331 
Q 3641 3997 3641 3322 
Q 3641 2881 3436 2590 
Q 3231 2300 2841 2188 
z
M 1259 4147 
L 1259 2491 
L 2053 2491 
Q 2509 2491 2742 2702 
Q 2975 2913 2975 3322 
Q 2975 3731 2742 3939 
Q 2509 4147 2053 4147 
L 1259 4147 
z
" transform="scale(0.015625)"/>
       <path id="DejaVuSans-3d" d="M 678 2906 
L 4684 2906 
L 4684 2381 
L 678 2381 
L 678 2906 
z
M 678 1631 
L 4684 1631 
L 4684 1100 
L 678 1100 
L 678 1631 
z
" transform="scale(0.015625)"/>
       <path id="DejaVuSans-37" d="M 525 4666 
L 3525 4666 
L 3525 4397 
L 1831 0 
L 1172 0 
L 2766 4134 
L 525 4134 
L 525 4666 
z
" transform="scale(0.015625)"/>
       <path id="DejaVuSans-76" d="M 191 3500 
L 800 3500 
L 1894 563 
L 2988 3500 
L 3597 3500 
L 2284 0 
L 1503 0 
L 191 3500 
z
" transform="scale(0.015625)"/>
       <path id="DejaVuSans-72" d="M 2631 2963 
Q 2534 3019 2420 3045 
Q 2306 3072 2169 3072 
Q 1681 3072 1420 2755 
Q 1159 2438 1159 1844 
L 1159 0 
L 581 0 
L 581 3500 
L 1159 3500 
L 1159 2956 
Q 1341 3275 1631 3429 
Q 1922 3584 2338 3584 
Q 2397 3584 2469 3576 
Q 2541 3569 2628 3553 
L 2631 2963 
z
" transform="scale(0.015625)"/>
       <path id="DejaVuSans-66" d="M 2375 4863 
L 2375 4384 
L 1825 4384 
Q 1516 4384 1395 4259 
Q 1275 4134 1275 3809 
L 1275 3500 
L 2222 3500 
L 2222 3053 
L 1275 3053 
L 1275 0 
L 697 0 
L 697 3053 
L 147 3053 
L 147 3500 
L 697 3500 
L 697 3744 
Q 697 4328 969 4595 
Q 1241 4863 1831 4863 
L 2375 4863 
z
" transform="scale(0.015625)"/>
       <path id="DejaVuSans-29" d="M 513 4856 
L 1013 4856 
Q 1481 4119 1714 3412 
Q 1947 2706 1947 2009 
Q 1947 1309 1714 600 
Q 1481 -109 1013 -844 
L 513 -844 
Q 928 -128 1133 580 
Q 1338 1288 1338 2009 
Q 1338 2731 1133 3434 
Q 928 4138 513 4856 
z
" transform="scale(0.015625)"/>
      </defs>
      <use xlink:href="#DejaVuSans-4e"/>
      <use xlink:href="#DejaVuSans-75" transform="translate(74.804688 0)"/>
      <use xlink:href="#DejaVuSans-63" transform="translate(138.183594 0)"/>
      <use xlink:href="#DejaVuSans-6c" transform="translate(193.164062 0)"/>
      <use xlink:href="#DejaVuSans-65" transform="translate(220.947266 0)"/>
      <use xlink:href="#DejaVuSans-6f" transform="translate(282.470703 0)"/>
      <use xlink:href="#DejaVuSans-74" transform="translate(343.652344 0)"/>
      <use xlink:href="#DejaVuSans-69" transform="translate(382.861328 0)"/>
      <use xlink:href="#DejaVuSans-64" transform="translate(410.644531 0)"/>
      <use xlink:href="#DejaVuSans-65" transform="translate(474.121094 0)"/>
      <use xlink:href="#DejaVuSans-20" transform="translate(535.644531 0)"/>
      <use xlink:href="#DejaVuSans-70" transform="translate(567.431641 0)"/>
      <use xlink:href="#DejaVuSans-6f" transform="translate(630.908203 0)"/>
      <use xlink:href="#DejaVuSans-73" transform="translate(692.089844 0)"/>
      <use xlink:href="#DejaVuSans-69" transform="translate(744.189453 0)"/>
      <use xlink:href="#DejaVuSans-74" transform="translate(771.972656 0)"/>
      <use xlink:href="#DejaVuSans-69" transform="translate(811.181641 0)"/>
      <use xlink:href="#DejaVuSans-6f" transform="translate(838.964844 0)"/>
      <use xlink:href="#DejaVuSans-6e" transform="translate(900.146484 0)"/>
      <use xlink:href="#DejaVuSans-20" transform="translate(963.525391 0)"/>
      <use xlink:href="#DejaVuSans-28" transform="translate(995.3125 0)"/>
      <use xlink:href="#DejaVuSans-4e" transform="translate(1034.326172 0)"/>
      <use xlink:href="#DejaVuSans-4d" transform="translate(1109.130859 0)"/>
      <use xlink:href="#DejaVuSans-5f" transform="translate(1195.410156 0)"/>
      <use xlink:href="#DejaVuSans-30" transform="translate(1245.410156 0)"/>
      <use xlink:href="#DejaVuSans-30" transform="translate(1309.033203 0)"/>
      <use xlink:href="#DejaVuSans-30" transform="translate(1372.65625 0)"/>
      <use xlink:href="#DejaVuSans-31" transform="translate(1436.279297 0)"/>
      <use xlink:href="#DejaVuSans-34" transform="translate(1499.902344 0)"/>
      <use xlink:href="#DejaVuSans-32" transform="translate(1563.525391 0)"/>
      <use xlink:href="#DejaVuSans-2e" transform="translate(1627.148438 0)"/>
      <use xlink:href="#DejaVuSans-35" transform="translate(1658.935547 0)"/>
      <use xlink:href="#DejaVuSans-2c" transform="translate(1722.558594 0)"/>
      <use xlink:href="#DejaVuSans-20" transform="translate(1754.345703 0)"/>
      <use xlink:href="#DejaVuSans-35" transform="translate(1786.132812 0)"/>
      <use xlink:href="#DejaVuSans-2032" transform="translate(1849.755859 0)"/>
      <use xlink:href="#DejaVuSans-55" transform="translate(1872.460938 0)"/>
      <use xlink:href="#DejaVuSans-54" transform="translate(1945.654297 0)"/>
      <use xlink:href="#DejaVuSans-52" transform="translate(2006.738281 0)"/>
      <use xlink:href="#DejaVuSans-20" transform="translate(2076.220703 0)"/>
      <use xlink:href="#DejaVuSans-3d" transform="translate(2108.007812 0)"/>
      <use xlink:href="#DejaVuSans-20" transform="translate(2191.796875 0)"/>
      <use xlink:href="#DejaVuSans-32" transform="translate(2223.583984 0)"/>
      <use xlink:href="#DejaVuSans-37" transform="translate(2287.207031 0)"/>
      <use xlink:href="#DejaVuSans-35" transform="translate(2350.830078 0)"/>
      <use xlink:href="#DejaVuSans-20" transform="translate(2414.453125 0)"/>
      <use xlink:href="#DejaVuSans-6e" transform="translate(2446.240234 0)"/>
      <use xlink:href="#DejaVuSans-74" transform="translate(2509.619141 0)"/>
      <use xlink:href="#DejaVuSans-20" transform="translate(2548.828125 0)"/>
      <use xlink:href="#DejaVuSans-76" transform="translate(2580.615234 0)"/>
      <use xlink:href="#DejaVuSans-65" transform="translate(2639.794922 0)"/>
      <use xlink:href="#DejaVuSans-72" transform="translate(2701.318359 0)"/>
      <use xlink:href="#DejaVuSans-69" transform="translate(2742.431641 0)"/>
      <use xlink:href="#DejaVuSans-66" transform="translate(2770.214844 0)"/>
      <use xlink:href="#DejaVuSans-69" transform="translate(2805.419922 0)"/>
      <use xlink:href="#DejaVuSans-65" transform="translate(2833.203125 0)"/>
      <use xlink:href="#DejaVuSans-64" transform="translate(2894.726562 0)"/>
      <use xlink:href="#DejaVuSans-29" transform="translate(2958.203125 0)"/>
     </g>
    </g>
   </g>
   <g id="matplotlib.axis_2">
    <g id="ytick_1">
     <g id="line2d_8">
      <defs>
       <path id="m6e37ad0da0" d="M 0 0 
L -3.5 0 
" style="stroke: #000000; stroke-width: 0.8"/>
      </defs>
      <g>
       <use xlink:href="#m6e37ad0da0" x="42.620313" y="457.314187" style="stroke: #000000; stroke-width: 0.8"/>
      </g>
     </g>
     <g id="text_8">
      <!-- −1 -->
      <g transform="translate(20.878125 461.113406) scale(0.1 -0.1)">
       <defs>
        <path id="DejaVuSans-2212" d="M 678 2272 
L 4684 2272 
L 4684 1741 
L 678 1741 
L 678 2272 
z
" transform="scale(0.015625)"/>
       </defs>
       <use xlink:href="#DejaVuSans-2212"/>
       <use xlink:href="#DejaVuSans-31" transform="translate(83.789062 0)"/>
      </g>
     </g>
    </g>
    <g id="ytick_2">
     <g id="line2d_9">
      <g>
       <use xlink:href="#m6e37ad0da0" x="42.620313" y="402.675587" style="stroke: #000000; stroke-width: 0.8"/>
      </g>
     </g>
     <g id="text_9">
      <!-- 0 -->
      <g transform="translate(29.257813 406.474806) scale(0.1 -0.1)">
       <use xlink:href="#DejaVuSans-30"/>
      </g>
     </g>
    </g>
    <g id="ytick_3">
     <g id="line2d_10">
      <g>
       <use xlink:href="#m6e37ad0da0" x="42.620313" y="348.036987" style="stroke: #000000; stroke-width: 0.8"/>
      </g>
     </g>
     <g id="text_10">
      <!-- 1 -->
      <g transform="translate(29.257813 351.836206) scale(0.1 -0.1)">
       <use xlink:href="#DejaVuSans-31"/>
      </g>
     </g>
    </g>
    <g id="ytick_4">
     <g id="line2d_11">
      <g>
       <use xlink:href="#m6e37ad0da0" x="42.620313" y="293.398387" style="stroke: #000000; stroke-width: 0.8"/>
      </g>
     </g>
     <g id="text_11">
      <!-- 2 -->
      <g transform="translate(29.257813 297.197606) scale(0.1 -0.1)">
       <use xlink:href="#DejaVuSans-32"/>
      </g>
     </g>
    </g>
    <g id="ytick_5">
     <g id="line2d_12">
      <g>
       <use xlink:href="#m6e37ad0da0" x="42.620313" y="238.759787" style="stroke: #000000; stroke-width: 0.8"/>
      </g>
     </g>
     <g id="text_12">
      <!-- 3 -->
      <g transform="translate(29.257813 242.559006) scale(0.1 -0.1)">
       <defs>
        <path id="DejaVuSans-33" d="M 2597 2516 
Q 3050 2419 3304 2112 
Q 3559 1806 3559 1356 
Q 3559 666 3084 287 
Q 2609 -91 1734 -91 
Q 1441 -91 1130 -33 
Q 819 25 488 141 
L 488 750 
Q 750 597 1062 519 
Q 1375 441 1716 441 
Q 2309 441 2620 675 
Q 2931 909 2931 1356 
Q 2931 1769 2642 2001 
Q 2353 2234 1838 2234 
L 1294 2234 
L 1294 2753 
L 1863 2753 
Q 2328 2753 2575 2939 
Q 2822 3125 2822 3475 
Q 2822 3834 2567 4026 
Q 2313 4219 1838 4219 
Q 1578 4219 1281 4162 
Q 984 4106 628 3988 
L 628 4550 
Q 988 4650 1302 4700 
Q 1616 4750 1894 4750 
Q 2613 4750 3031 4423 
Q 3450 4097 3450 3541 
Q 3450 3153 3228 2886 
Q 3006 2619 2597 2516 
z
" transform="scale(0.015625)"/>
       </defs>
       <use xlink:href="#DejaVuSans-33"/>
      </g>
     </g>
    </g>
    <g id="ytick_6">
     <g id="line2d_13">
      <g>
       <use xlink:href="#m6e37ad0da0" x="42.620313" y="184.121187" style="stroke: #000000; stroke-width: 0.8"/>
      </g>
     </g>
     <g id="text_13">
      <!-- 4 -->
      <g transform="translate(29.257813 187.920406) scale(0.1 -0.1)">
       <use xlink:href="#DejaVuSans-34"/>
      </g>
     </g>
    </g>
    <g id="ytick_7">
     <g id="line2d_14">
      <g>
       <use xlink:href="#m6e37ad0da0" x="42.620313" y="129.482587" style="stroke: #000000; stroke-width: 0.8"/>
      </g>
     </g>
     <g id="text_14">
      <!-- 5 -->
      <g transform="translate(29.257813 133.281806) scale(0.1 -0.1)">
       <use xlink:href="#DejaVuSans-35"/>
      </g>
     </g>
    </g>
    <g id="ytick_8">
     <g id="line2d_15">
      <g>
       <use xlink:href="#m6e37ad0da0" x="42.620313" y="74.843987" style="stroke: #000000; stroke-width: 0.8"/>
      </g>
     </g>
     <g id="text_15">
      <!-- 6 -->
      <g transform="translate(29.257813 78.643206) scale(0.1 -0.1)">
       <defs>
        <path id="DejaVuSans-36" d="M 2113 2584 
Q 1688 2584 1439 2293 
Q 1191 2003 1191 1497 
Q 1191 994 1439 701 
Q 1688 409 2113 409 
Q 2538 409 2786 701 
Q 3034 994 3034 1497 
Q 3034 2003 2786 2293 
Q 2538 2584 2113 2584 
z
M 3366 4563 
L 3366 3988 
Q 3128 4100 2886 4159 
Q 2644 4219 2406 4219 
Q 1781 4219 1451 3797 
Q 1122 3375 1075 2522 
Q 1259 2794 1537 2939 
Q 1816 3084 2150 3084 
Q 2853 3084 3261 2657 
Q 3669 2231 3669 1497 
Q 3669 778 3244 343 
Q 2819 -91 2113 -91 
Q 1303 -91 875 529 
Q 447 1150 447 2328 
Q 447 3434 972 4092 
Q 1497 4750 2381 4750 
Q 2619 4750 2861 4703 
Q 3103 4656 3366 4563 
z
" transform="scale(0.015625)"/>
       </defs>
       <use xlink:href="#DejaVuSans-36"/>
      </g>
     </g>
    </g>
    <g id="text_16">
     <!-- Arc height (structural weight) -->
     <g transform="translate(14.798438 326.171781) rotate(-90) scale(0.1 -0.1)">
      <defs>
       <path id="DejaVuSans-41" d="M 2188 4044 
L 1331 1722 
L 3047 1722 
L 2188 4044 
z
M 1831 4666 
L 2547 4666 
L 4325 0 
L 3669 0 
L 3244 1197 
L 1141 1197 
L 716 0 
L 50 0 
L 1831 4666 
z
" transform="scale(0.015625)"/>
       <path id="DejaVuSans-68" d="M 3513 2113 
L 3513 0 
L 2938 0 
L 2938 2094 
Q 2938 2591 2744 2837 
Q 2550 3084 2163 3084 
Q 1697 3084 1428 2787 
Q 1159 2491 1159 1978 
L 1159 0 
L 581 0 
L 581 4863 
L 1159 4863 
L 1159 2956 
Q 1366 3272 1645 3428 
Q 1925 3584 2291 3584 
Q 2894 3584 3203 3211 
Q 3513 2838 3513 2113 
z
" transform="scale(0.015625)"/>
       <path id="DejaVuSans-67" d="M 2906 1791 
Q 2906 2416 2648 2759 
Q 2391 3103 1925 3103 
Q 1463 3103 1205 2759 
Q 947 2416 947 1791 
Q 947 1169 1205 825 
Q 1463 481 1925 481 
Q 2391 481 2648 825 
Q 2906 1169 2906 1791 
z
M 3481 434 
Q 3481 -459 3084 -895 
Q 2688 -1331 1869 -1331 
Q 1566 -1331 1297 -1286 
Q 1028 -1241 775 -1147 
L 775 -588 
Q 1028 -725 1275 -790 
Q 1522 -856 1778 -856 
Q 2344 -856 2625 -561 
Q 2906 -266 2906 331 
L 2906 616 
Q 2728 306 2450 153 
Q 2172 0 1784 0 
Q 1141 0 747 490 
Q 353 981 353 1791 
Q 353 2603 747 3093 
Q 1141 3584 1784 3584 
Q 2172 3584 2450 3431 
Q 2728 3278 2906 2969 
L 2906 3500 
L 3481 3500 
L 3481 434 
z
" transform="scale(0.015625)"/>
       <path id="DejaVuSans-61" d="M 2194 1759 
Q 1497 1759 1228 1600 
Q 959 1441 959 1056 
Q 959 750 1161 570 
Q 1363 391 1709 391 
Q 2188 391 2477 730 
Q 2766 1069 2766 1631 
L 2766 1759 
L 2194 1759 
z
M 3341 1997 
L 3341 0 
L 2766 0 
L 2766 531 
Q 2569 213 2275 61 
Q 1981 -91 1556 -91 
Q 1019 -91 701 211 
Q 384 513 384 1019 
Q 384 1609 779 1909 
Q 1175 2209 1959 2209 
L 2766 2209 
L 2766 2266 
Q 2766 2663 2505 2880 
Q 2244 3097 1772 3097 
Q 1472 3097 1187 3025 
Q 903 2953 641 2809 
L 641 3341 
Q 956 3463 1253 3523 
Q 1550 3584 1831 3584 
Q 2591 3584 2966 3190 
Q 3341 2797 3341 1997 
z
" transform="scale(0.015625)"/>
       <path id="DejaVuSans-77" d="M 269 3500 
L 844 3500 
L 1563 769 
L 2278 3500 
L 2956 3500 
L 3675 769 
L 4391 3500 
L 4966 3500 
L 4050 0 
L 3372 0 
L 2619 2869 
L 1863 0 
L 1184 0 
L 269 3500 
z
" transform="scale(0.015625)"/>
      </defs>
      <use xlink:href="#DejaVuSans-41"/>
      <use xlink:href="#DejaVuSans-72" transform="translate(68.408203 0)"/>
      <use xlink:href="#DejaVuSans-63" transform="translate(107.271484 0)"/>
      <use xlink:href="#DejaVuSans-20" transform="translate(162.251953 0)"/>
      <use xlink:href="#DejaVuSans-68" transform="translate(194.039062 0)"/>
      <use xlink:href="#DejaVuSans-65" transform="translate(257.417969 0)"/>
      <use xlink:href="#DejaVuSans-69" transform="translate(318.941406 0)"/>
      <use xlink:href="#DejaVuSans-67" transform="translate(346.724609 0)"/>
      <use xlink:href="#DejaVuSans-68" transform="translate(410.201172 0)"/>
      <use xlink:href="#DejaVuSans-74" transform="translate(473.580078 0)"/>
      <use xlink:href="#DejaVuSans-20" transform="translate(512.789062 0)"/>
      <use xlink:href="#DejaVuSans-28" transform="translate(544.576172 0)"/>
      <use xlink:href="#DejaVuSans-73" transform="translate(583.589844 0)"/>
      <use xlink:href="#DejaVuSans-74" transform="translate(635.689453 0)"/>
      <use xlink:href="#DejaVuSans-72" transform="translate(674.898438 0)"/>
      <use xlink:href="#DejaVuSans-75" transform="translate(716.011719 0)"/>
      <use xlink:href="#DejaVuSans-63" transform="translate(779.390625 0)"/>
      <use xlink:href="#DejaVuSans-74" transform="translate(834.371094 0)"/>
      <use xlink:href="#DejaVuSans-75" transform="translate(873.580078 0)"/>
      <use xlink:href="#DejaVuSans-72" transform="translate(936.958984 0)"/>
      <use xlink:href="#DejaVuSans-61" transform="translate(978.072266 0)"/>
      <use xlink:href="#DejaVuSans-6c" transform="translate(1039.351562 0)"/>
      <use xlink:href="#DejaVuSans-20" transform="translate(1067.134766 0)"/>
      <use xlink:href="#DejaVuSans-77" transform="translate(1098.921875 0)"/>
      <use xlink:href="#DejaVuSans-65" transform="translate(1180.708984 0)"/>
      <use xlink:href="#DejaVuSans-69" transform="translate(1242.232422 0)"/>
      <use xlink:href="#DejaVuSans-67" transform="translate(1270.015625 0)"/>
      <use xlink:href="#DejaVuSans-68" transform="translate(1333.492188 0)"/>
      <use xlink:href="#DejaVuSans-74" transform="translate(1396.871094 0)"/>
      <use xlink:href="#DejaVuSans-29" transform="translate(1436.080078 0)"/>
     </g>
    </g>
   </g>
   <g id="patch_3">
    <path d="M 960.402381 402.675587 
C 960.402381 380.947337 913.058788 360.086794 828.876439 344.722601 
C 744.694091 329.358408 630.396545 320.717688 511.344726 320.717687 
C 392.292908 320.717687 277.995361 329.358408 193.813013 344.722601 
C 109.630665 360.086794 62.287071 380.947337 62.287071 402.675587 
" clip-path="url(#p2202467a3e)" style="fill: none; stroke: #4daf4a; stroke-width: 2.2; stroke-linejoin: miter"/>
   </g>
   <g id="patch_4">
    <path d="M 213.065554 402.675587 
C 213.065554 359.219087 206.326867 317.498 194.344708 286.769614 
C 182.362549 256.041228 166.09392 238.759787 149.148588 238.759787 
C 132.203257 238.759787 115.934628 256.041228 103.952469 286.769614 
C 91.97031 317.498 85.231623 359.219087 85.231623 402.675587 
" clip-path="url(#p2202467a3e)" style="fill: none; stroke: #e41a1c; stroke-width: 2.2; stroke-linejoin: miter"/>
   </g>
   <g id="patch_5">
    <path d="M 321.232726 402.675587 
C 321.232726 373.704587 316.394695 345.890529 307.792119 325.404938 
C 299.189543 304.919348 287.509502 293.398387 275.343623 293.398387 
C 263.177744 293.398387 251.497702 304.919348 242.895127 325.404938 
C 234.292551 345.890529 229.454519 373.704587 229.454519 402.675587 
" clip-path="url(#p2202467a3e)" style="fill: none; stroke: #377eb8; stroke-width: 2.2; stroke-linejoin: miter"/>
   </g>
   <g id="patch_6">
    <path d="M 494.955761 402.675587 
C 494.955761 344.733587 487.525927 289.10547 474.314828 248.134289 
C 461.10373 207.163108 443.166524 184.121187 424.483209 184.121187 
C 405.799894 184.121187 387.862688 207.163108 374.65159 248.134289 
C 361.440491 289.10547 354.010657 344.733587 354.010657 402.675587 
" clip-path="url(#p2202467a3e)" style="fill: none; stroke: #ff7f00; stroke-width: 2.2; stroke-linejoin: miter"/>
   </g>
   <g id="patch_7">
    <path d="M 42.620313 457.314187 
L 42.620313 47.524687 
" style="fill: none; stroke: #000000; stroke-width: 0.8; stroke-linejoin: miter; stroke-linecap: square"/>
   </g>
   <g id="patch_8">
    <path d="M 42.620313 457.314187 
L 993.180313 457.314187 
" style="fill: none; stroke: #000000; stroke-width: 0.8; stroke-linejoin: miter; stroke-linecap: square"/>
   </g>
   <g id="line2d_16">
    <path d="M 62.287071 410.871377 
L 62.287071 394.479797 
" clip-path="url(#p2202467a3e)" style="fill: none; stroke: #333333; stroke-linecap: square"/>
   </g>
   <g id="text_17">
    <!-- 1 -->
    <g style="fill: #333333" transform="translate(59.742071 433.341707) scale(0.08 -0.08)">
     <use xlink:href="#DejaVuSans-31"/>
    </g>
   </g>
   <g id="line2d_17">
    <path d="M 222.898933 410.871377 
L 222.898933 394.479797 
" clip-path="url(#p2202467a3e)" style="fill: none; stroke: #333333; stroke-linecap: square"/>
   </g>
   <g id="text_18">
    <!-- 50 -->
    <g style="fill: #333333" transform="translate(217.808933 433.341707) scale(0.08 -0.08)">
     <use xlink:href="#DejaVuSans-35"/>
     <use xlink:href="#DejaVuSans-30" transform="translate(63.623047 0)"/>
    </g>
   </g>
   <g id="line2d_18">
    <path d="M 386.788588 410.871377 
L 386.788588 394.479797 
" clip-path="url(#p2202467a3e)" style="fill: none; stroke: #333333; stroke-linecap: square"/>
   </g>
   <g id="text_19">
    <!-- 100 -->
    <g style="fill: #333333" transform="translate(379.153588 433.341707) scale(0.08 -0.08)">
     <use xlink:href="#DejaVuSans-31"/>
     <use xlink:href="#DejaVuSans-30" transform="translate(63.623047 0)"/>
     <use xlink:href="#DejaVuSans-30" transform="translate(127.246094 0)"/>
    </g>
   </g>
   <g id="line2d_19">
    <path d="M 550.678244 410.871377 
L 550.678244 394.479797 
" clip-path="url(#p2202467a3e)" style="fill: none; stroke: #333333; stroke-linecap: square"/>
   </g>
   <g id="text_20">
    <!-- 150 -->
    <g style="fill: #333333" transform="translate(543.043244 433.341707) scale(0.08 -0.08)">
     <use xlink:href="#DejaVuSans-31"/>
     <use xlink:href="#DejaVuSans-35" transform="translate(63.623047 0)"/>
     <use xlink:href="#DejaVuSans-30" transform="translate(127.246094 0)"/>
    </g>
   </g>
   <g id="line2d_20">
    <path d="M 714.567899 410.871377 
L 714.567899 394.479797 
" clip-path="url(#p2202467a3e)" style="fill: none; stroke: #333333; stroke-linecap: square"/>
   </g>
   <g id="text_21">
    <!-- 200 -->
    <g style="fill: #333333" transform="translate(706.932899 433.341707) scale(0.08 -0.08)">
     <use xlink:href="#DejaVuSans-32"/>
     <use xlink:href="#DejaVuSans-30" transform="translate(63.623047 0)"/>
     <use xlink:href="#DejaVuSans-30" transform="translate(127.246094 0)"/>
    </g>
   </g>
   <g id="line2d_21">
    <path d="M 878.457554 410.871377 
L 878.457554 394.479797 
" clip-path="url(#p2202467a3e)" style="fill: none; stroke: #333333; stroke-linecap: square"/>
   </g>
   <g id="text_22">
    <!-- 250 -->
    <g style="fill: #333333" transform="translate(870.822554 433.341707) scale(0.08 -0.08)">
     <use xlink:href="#DejaVuSans-32"/>
     <use xlink:href="#DejaVuSans-35" transform="translate(63.623047 0)"/>
     <use xlink:href="#DejaVuSans-30" transform="translate(127.246094 0)"/>
    </g>
   </g>
   <g id="line2d_22">
    <path d="M 960.402381 410.871377 
L 960.402381 394.479797 
" clip-path="url(#p2202467a3e)" style="fill: none; stroke: #333333; stroke-linecap: square"/>
   </g>
   <g id="text_23">
    <!-- 275 -->
    <g style="fill: #333333" transform="translate(952.767381 433.341707) scale(0.08 -0.08)">
     <use xlink:href="#DejaVuSans-32"/>
     <use xlink:href="#DejaVuSans-37" transform="translate(63.623047 0)"/>
     <use xlink:href="#DejaVuSans-35" transform="translate(127.246094 0)"/>
    </g>
   </g>
   <g id="patch_9">
    <path d="M 147.509692 232.682758 
Q 147.509692 316.67923 147.509692 398.998651 
" style="fill: none; stroke: #e41a1c; stroke-width: 1.5; stroke-linecap: round"/>
    <path d="M 149.009692 395.998651 
L 147.509692 398.998651 
L 146.009692 395.998651 
" style="fill: none; stroke: #e41a1c; stroke-width: 1.5; stroke-linecap: round"/>
   </g>
   <g id="text_24">
    <g id="patch_10">
     <path d="M 111.67727 230.082067 
L 183.342114 230.082067 
Q 185.592114 230.082067 185.592114 227.832067 
L 185.592114 203.776755 
Q 185.592114 201.526755 183.342114 201.526755 
L 111.67727 201.526755 
Q 109.42727 201.526755 109.42727 203.776755 
L 109.42727 227.832067 
Q 109.42727 230.082067 111.67727 230.082067 
z
" style="fill: #ffffff; stroke: #e41a1c; stroke-width: 1.2; stroke-linejoin: miter"/>
    </g>
    <!-- P1 Hairpin [est.] -->
    <g style="fill: #e41a1c" transform="translate(117.129418 209.475583) scale(0.075 -0.075)">
     <defs>
      <path id="DejaVuSans-50" d="M 1259 4147 
L 1259 2394 
L 2053 2394 
Q 2494 2394 2734 2622 
Q 2975 2850 2975 3272 
Q 2975 3691 2734 3919 
Q 2494 4147 2053 4147 
L 1259 4147 
z
M 628 4666 
L 2053 4666 
Q 2838 4666 3239 4311 
Q 3641 3956 3641 3272 
Q 3641 2581 3239 2228 
Q 2838 1875 2053 1875 
L 1259 1875 
L 1259 0 
L 628 0 
L 628 4666 
z
" transform="scale(0.015625)"/>
      <path id="DejaVuSans-48" d="M 628 4666 
L 1259 4666 
L 1259 2753 
L 3553 2753 
L 3553 4666 
L 4184 4666 
L 4184 0 
L 3553 0 
L 3553 2222 
L 1259 2222 
L 1259 0 
L 628 0 
L 628 4666 
z
" transform="scale(0.015625)"/>
      <path id="DejaVuSans-5b" d="M 550 4863 
L 1875 4863 
L 1875 4416 
L 1125 4416 
L 1125 -397 
L 1875 -397 
L 1875 -844 
L 550 -844 
L 550 4863 
z
" transform="scale(0.015625)"/>
      <path id="DejaVuSans-5d" d="M 1947 4863 
L 1947 -844 
L 622 -844 
L 622 -397 
L 1369 -397 
L 1369 4416 
L 622 4416 
L 622 4863 
L 1947 4863 
z
" transform="scale(0.015625)"/>
     </defs>
     <use xlink:href="#DejaVuSans-50"/>
     <use xlink:href="#DejaVuSans-31" transform="translate(60.302734 0)"/>
     <use xlink:href="#DejaVuSans-20" transform="translate(123.925781 0)"/>
     <use xlink:href="#DejaVuSans-48" transform="translate(155.712891 0)"/>
     <use xlink:href="#DejaVuSans-61" transform="translate(230.908203 0)"/>
     <use xlink:href="#DejaVuSans-69" transform="translate(292.1875 0)"/>
     <use xlink:href="#DejaVuSans-72" transform="translate(319.970703 0)"/>
     <use xlink:href="#DejaVuSans-70" transform="translate(361.083984 0)"/>
     <use xlink:href="#DejaVuSans-69" transform="translate(424.560547 0)"/>
     <use xlink:href="#DejaVuSans-6e" transform="translate(452.34375 0)"/>
     <use xlink:href="#DejaVuSans-20" transform="translate(515.722656 0)"/>
     <use xlink:href="#DejaVuSans-5b" transform="translate(547.509766 0)"/>
     <use xlink:href="#DejaVuSans-65" transform="translate(586.523438 0)"/>
     <use xlink:href="#DejaVuSans-73" transform="translate(648.046875 0)"/>
     <use xlink:href="#DejaVuSans-74" transform="translate(700.146484 0)"/>
     <use xlink:href="#DejaVuSans-2e" transform="translate(739.355469 0)"/>
     <use xlink:href="#DejaVuSans-5d" transform="translate(771.142578 0)"/>
    </g>
    <!-- nt ~8–47 -->
    <g style="fill: #e41a1c" transform="translate(130.29602 217.873942) scale(0.075 -0.075)">
     <defs>
      <path id="DejaVuSans-7e" d="M 4684 2553 
L 4684 1997 
Q 4356 1750 4076 1644 
Q 3797 1538 3494 1538 
Q 3150 1538 2694 1722 
Q 2659 1734 2644 1741 
Q 2622 1750 2575 1766 
Q 2091 1959 1797 1959 
Q 1522 1959 1253 1839 
Q 984 1719 678 1459 
L 678 2016 
Q 1006 2263 1286 2370 
Q 1566 2478 1869 2478 
Q 2213 2478 2672 2291 
Q 2703 2278 2719 2272 
Q 2744 2263 2788 2247 
Q 3272 2053 3566 2053 
Q 3834 2053 4098 2172 
Q 4363 2291 4684 2553 
z
" transform="scale(0.015625)"/>
      <path id="DejaVuSans-38" d="M 2034 2216 
Q 1584 2216 1326 1975 
Q 1069 1734 1069 1313 
Q 1069 891 1326 650 
Q 1584 409 2034 409 
Q 2484 409 2743 651 
Q 3003 894 3003 1313 
Q 3003 1734 2745 1975 
Q 2488 2216 2034 2216 
z
M 1403 2484 
Q 997 2584 770 2862 
Q 544 3141 544 3541 
Q 544 4100 942 4425 
Q 1341 4750 2034 4750 
Q 2731 4750 3128 4425 
Q 3525 4100 3525 3541 
Q 3525 3141 3298 2862 
Q 3072 2584 2669 2484 
Q 3125 2378 3379 2068 
Q 3634 1759 3634 1313 
Q 3634 634 3220 271 
Q 2806 -91 2034 -91 
Q 1263 -91 848 271 
Q 434 634 434 1313 
Q 434 1759 690 2068 
Q 947 2378 1403 2484 
z
M 1172 3481 
Q 1172 3119 1398 2916 
Q 1625 2713 2034 2713 
Q 2441 2713 2670 2916 
Q 2900 3119 2900 3481 
Q 2900 3844 2670 4047 
Q 2441 4250 2034 4250 
Q 1625 4250 1398 4047 
Q 1172 3844 1172 3481 
z
" transform="scale(0.015625)"/>
      <path id="DejaVuSans-2013" d="M 313 1978 
L 2888 1978 
L 2888 1528 
L 313 1528 
L 313 1978 
z
" transform="scale(0.015625)"/>
     </defs>
     <use xlink:href="#DejaVuSans-6e"/>
     <use xlink:href="#DejaVuSans-74" transform="translate(63.378906 0)"/>
     <use xlink:href="#DejaVuSans-20" transform="translate(102.587891 0)"/>
     <use xlink:href="#DejaVuSans-7e" transform="translate(134.375 0)"/>
     <use xlink:href="#DejaVuSans-38" transform="translate(218.164062 0)"/>
     <use xlink:href="#DejaVuSans-2013" transform="translate(281.787109 0)"/>
     <use xlink:href="#DejaVuSans-34" transform="translate(331.787109 0)"/>
     <use xlink:href="#DejaVuSans-37" transform="translate(395.410156 0)"/>
    </g>
    <!-- acc=0.817 [ILLUS.] -->
    <g style="fill: #e41a1c" transform="translate(111.67727 226.272302) scale(0.075 -0.075)">
     <defs>
      <path id="DejaVuSans-49" d="M 628 4666 
L 1259 4666 
L 1259 0 
L 628 0 
L 628 4666 
z
" transform="scale(0.015625)"/>
      <path id="DejaVuSans-4c" d="M 628 4666 
L 1259 4666 
L 1259 531 
L 3531 531 
L 3531 0 
L 628 0 
L 628 4666 
z
" transform="scale(0.015625)"/>
      <path id="DejaVuSans-53" d="M 3425 4513 
L 3425 3897 
Q 3066 4069 2747 4153 
Q 2428 4238 2131 4238 
Q 1616 4238 1336 4038 
Q 1056 3838 1056 3469 
Q 1056 3159 1242 3001 
Q 1428 2844 1947 2747 
L 2328 2669 
Q 3034 2534 3370 2195 
Q 3706 1856 3706 1288 
Q 3706 609 3251 259 
Q 2797 -91 1919 -91 
Q 1588 -91 1214 -16 
Q 841 59 441 206 
L 441 856 
Q 825 641 1194 531 
Q 1563 422 1919 422 
Q 2459 422 2753 634 
Q 3047 847 3047 1241 
Q 3047 1584 2836 1778 
Q 2625 1972 2144 2069 
L 1759 2144 
Q 1053 2284 737 2584 
Q 422 2884 422 3419 
Q 422 4038 858 4394 
Q 1294 4750 2059 4750 
Q 2388 4750 2728 4690 
Q 3069 4631 3425 4513 
z
" transform="scale(0.015625)"/>
     </defs>
     <use xlink:href="#DejaVuSans-61"/>
     <use xlink:href="#DejaVuSans-63" transform="translate(61.279297 0)"/>
     <use xlink:href="#DejaVuSans-63" transform="translate(116.259766 0)"/>
     <use xlink:href="#DejaVuSans-3d" transform="translate(171.240234 0)"/>
     <use xlink:href="#DejaVuSans-30" transform="translate(255.029297 0)"/>
     <use xlink:href="#DejaVuSans-2e" transform="translate(318.652344 0)"/>
     <use xlink:href="#DejaVuSans-38" transform="translate(350.439453 0)"/>
     <use xlink:href="#DejaVuSans-31" transform="translate(414.0625 0)"/>
     <use xlink:href="#DejaVuSans-37" transform="translate(477.685547 0)"/>
     <use xlink:href="#DejaVuSans-20" transform="translate(541.308594 0)"/>
     <use xlink:href="#DejaVuSans-5b" transform="translate(573.095703 0)"/>
     <use xlink:href="#DejaVuSans-49" transform="translate(612.109375 0)"/>
     <use xlink:href="#DejaVuSans-4c" transform="translate(641.601562 0)"/>
     <use xlink:href="#DejaVuSans-4c" transform="translate(697.314453 0)"/>
     <use xlink:href="#DejaVuSans-55" transform="translate(748.027344 0)"/>
     <use xlink:href="#DejaVuSans-53" transform="translate(821.220703 0)"/>
     <use xlink:href="#DejaVuSans-2e" transform="translate(884.697266 0)"/>
     <use xlink:href="#DejaVuSans-5d" transform="translate(916.484375 0)"/>
    </g>
   </g>
   <g id="patch_11">
    <path d="M 422.844313 178.04844 
Q 422.844313 289.362887 422.844313 399.000282 
" style="fill: none; stroke: #ff7f00; stroke-width: 1.5; stroke-linecap: round"/>
    <path d="M 424.344313 396.000282 
L 422.844313 399.000282 
L 421.344313 396.000282 
" style="fill: none; stroke: #ff7f00; stroke-width: 1.5; stroke-linecap: round"/>
   </g>
   <g id="text_25">
    <g id="patch_12">
     <path d="M 378.082203 175.443467 
L 467.606422 175.443467 
Q 469.856422 175.443467 469.856422 173.193467 
L 469.856422 139.908702 
Q 469.856422 137.658702 467.606422 137.658702 
L 378.082203 137.658702 
Q 375.832203 137.658702 375.832203 139.908702 
L 375.832203 173.193467 
Q 375.832203 175.443467 378.082203 175.443467 
z
" style="fill: #ffffff; stroke: #ff7f00; stroke-width: 1.2; stroke-linejoin: miter"/>
    </g>
    <!-- P10 G-quadruplex [est.] -->
    <g style="fill: #ff7f00" transform="translate(378.082203 145.60753) scale(0.075 -0.075)">
     <defs>
      <path id="DejaVuSans-47" d="M 3809 666 
L 3809 1919 
L 2778 1919 
L 2778 2438 
L 4434 2438 
L 4434 434 
Q 4069 175 3628 42 
Q 3188 -91 2688 -91 
Q 1594 -91 976 548 
Q 359 1188 359 2328 
Q 359 3472 976 4111 
Q 1594 4750 2688 4750 
Q 3144 4750 3555 4637 
Q 3966 4525 4313 4306 
L 4313 3634 
Q 3963 3931 3569 4081 
Q 3175 4231 2741 4231 
Q 1884 4231 1454 3753 
Q 1025 3275 1025 2328 
Q 1025 1384 1454 906 
Q 1884 428 2741 428 
Q 3075 428 3337 486 
Q 3600 544 3809 666 
z
" transform="scale(0.015625)"/>
      <path id="DejaVuSans-2d" d="M 313 2009 
L 1997 2009 
L 1997 1497 
L 313 1497 
L 313 2009 
z
" transform="scale(0.015625)"/>
      <path id="DejaVuSans-71" d="M 947 1747 
Q 947 1113 1208 752 
Q 1469 391 1925 391 
Q 2381 391 2643 752 
Q 2906 1113 2906 1747 
Q 2906 2381 2643 2742 
Q 2381 3103 1925 3103 
Q 1469 3103 1208 2742 
Q 947 2381 947 1747 
z
M 2906 525 
Q 2725 213 2448 61 
Q 2172 -91 1784 -91 
Q 1150 -91 751 415 
Q 353 922 353 1747 
Q 353 2572 751 3078 
Q 1150 3584 1784 3584 
Q 2172 3584 2448 3432 
Q 2725 3281 2906 2969 
L 2906 3500 
L 3481 3500 
L 3481 -1331 
L 2906 -1331 
L 2906 525 
z
" transform="scale(0.015625)"/>
      <path id="DejaVuSans-78" d="M 3513 3500 
L 2247 1797 
L 3578 0 
L 2900 0 
L 1881 1375 
L 863 0 
L 184 0 
L 1544 1831 
L 300 3500 
L 978 3500 
L 1906 2253 
L 2834 3500 
L 3513 3500 
z
" transform="scale(0.015625)"/>
     </defs>
     <use xlink:href="#DejaVuSans-50"/>
     <use xlink:href="#DejaVuSans-31" transform="translate(60.302734 0)"/>
     <use xlink:href="#DejaVuSans-30" transform="translate(123.925781 0)"/>
     <use xlink:href="#DejaVuSans-20" transform="translate(187.548828 0)"/>
     <use xlink:href="#DejaVuSans-47" transform="translate(219.335938 0)"/>
     <use xlink:href="#DejaVuSans-2d" transform="translate(296.826172 0)"/>
     <use xlink:href="#DejaVuSans-71" transform="translate(332.910156 0)"/>
     <use xlink:href="#DejaVuSans-75" transform="translate(396.386719 0)"/>
     <use xlink:href="#DejaVuSans-61" transform="translate(459.765625 0)"/>
     <use xlink:href="#DejaVuSans-64" transform="translate(521.044922 0)"/>
     <use xlink:href="#DejaVuSans-72" transform="translate(584.521484 0)"/>
     <use xlink:href="#DejaVuSans-75" transform="translate(625.634766 0)"/>
     <use xlink:href="#DejaVuSans-70" transform="translate(689.013672 0)"/>
     <use xlink:href="#DejaVuSans-6c" transform="translate(752.490234 0)"/>
     <use xlink:href="#DejaVuSans-65" transform="translate(780.273438 0)"/>
     <use xlink:href="#DejaVuSans-78" transform="translate(840.046875 0)"/>
     <use xlink:href="#DejaVuSans-20" transform="translate(899.226562 0)"/>
     <use xlink:href="#DejaVuSans-5b" transform="translate(931.013672 0)"/>
     <use xlink:href="#DejaVuSans-65" transform="translate(970.027344 0)"/>
     <use xlink:href="#DejaVuSans-73" transform="translate(1031.550781 0)"/>
     <use xlink:href="#DejaVuSans-74" transform="translate(1083.650391 0)"/>
     <use xlink:href="#DejaVuSans-2e" transform="translate(1122.859375 0)"/>
     <use xlink:href="#DejaVuSans-5d" transform="translate(1154.646484 0)"/>
    </g>
    <!-- nt ~90–133 -->
    <g style="fill: #ff7f00" transform="translate(400.858766 154.005889) scale(0.075 -0.075)">
     <defs>
      <path id="DejaVuSans-39" d="M 703 97 
L 703 672 
Q 941 559 1184 500 
Q 1428 441 1663 441 
Q 2288 441 2617 861 
Q 2947 1281 2994 2138 
Q 2813 1869 2534 1725 
Q 2256 1581 1919 1581 
Q 1219 1581 811 2004 
Q 403 2428 403 3163 
Q 403 3881 828 4315 
Q 1253 4750 1959 4750 
Q 2769 4750 3195 4129 
Q 3622 3509 3622 2328 
Q 3622 1225 3098 567 
Q 2575 -91 1691 -91 
Q 1453 -91 1209 -44 
Q 966 3 703 97 
z
M 1959 2075 
Q 2384 2075 2632 2365 
Q 2881 2656 2881 3163 
Q 2881 3666 2632 3958 
Q 2384 4250 1959 4250 
Q 1534 4250 1286 3958 
Q 1038 3666 1038 3163 
Q 1038 2656 1286 2365 
Q 1534 2075 1959 2075 
z
" transform="scale(0.015625)"/>
     </defs>
     <use xlink:href="#DejaVuSans-6e"/>
     <use xlink:href="#DejaVuSans-74" transform="translate(63.378906 0)"/>
     <use xlink:href="#DejaVuSans-20" transform="translate(102.587891 0)"/>
     <use xlink:href="#DejaVuSans-7e" transform="translate(134.375 0)"/>
     <use xlink:href="#DejaVuSans-39" transform="translate(218.164062 0)"/>
     <use xlink:href="#DejaVuSans-30" transform="translate(281.787109 0)"/>
     <use xlink:href="#DejaVuSans-2013" transform="translate(345.410156 0)"/>
     <use xlink:href="#DejaVuSans-31" transform="translate(395.410156 0)"/>
     <use xlink:href="#DejaVuSans-33" transform="translate(459.033203 0)"/>
     <use xlink:href="#DejaVuSans-33" transform="translate(522.65625 0)"/>
    </g>
    <!-- Vol=750 Å³ [ILLUS.] -->
    <g style="fill: #ff7f00" transform="translate(386.140016 163.235342) scale(0.075 -0.075)">
     <defs>
      <path id="DejaVuSans-56" d="M 1831 0 
L 50 4666 
L 709 4666 
L 2188 738 
L 3669 4666 
L 4325 4666 
L 2547 0 
L 1831 0 
z
" transform="scale(0.015625)"/>
      <path id="DejaVuSans-c5" d="M 2663 5081 
Q 2663 5278 2523 5417 
Q 2384 5556 2188 5556 
Q 1988 5556 1852 5420 
Q 1716 5284 1716 5081 
Q 1716 4884 1853 4746 
Q 1991 4609 2188 4609 
Q 2384 4609 2523 4746 
Q 2663 4884 2663 5081 
z
M 2188 4044 
L 1338 1722 
L 3041 1722 
L 2188 4044 
z
M 1716 4366 
Q 1525 4494 1428 4673 
Q 1331 4853 1331 5081 
Q 1331 5441 1579 5691 
Q 1828 5941 2188 5941 
Q 2544 5941 2795 5689 
Q 3047 5438 3047 5081 
Q 3047 4863 2948 4678 
Q 2850 4494 2663 4366 
L 4325 0 
L 3669 0 
L 3244 1197 
L 1141 1197 
L 716 0 
L 50 0 
L 1716 4366 
z
" transform="scale(0.015625)"/>
      <path id="DejaVuSans-b3" d="M 1638 3500 
Q 1925 3444 2083 3273 
Q 2241 3103 2241 2847 
Q 2241 2459 1944 2250 
Q 1647 2041 1094 2041 
Q 916 2041 720 2073 
Q 525 2106 306 2169 
L 306 2547 
Q 469 2463 655 2422 
Q 841 2381 1050 2381 
Q 1391 2381 1578 2504 
Q 1766 2628 1766 2847 
Q 1766 3078 1592 3197 
Q 1419 3316 1081 3316 
L 813 3316 
L 813 3653 
L 1106 3653 
Q 1400 3653 1551 3751 
Q 1703 3850 1703 4038 
Q 1703 4219 1547 4314 
Q 1391 4409 1094 4409 
Q 969 4409 809 4381 
Q 650 4353 397 4281 
L 397 4641 
Q 625 4694 825 4722 
Q 1025 4750 1197 4750 
Q 1647 4750 1911 4565 
Q 2175 4381 2175 4072 
Q 2175 3856 2034 3706 
Q 1894 3556 1638 3500 
z
" transform="scale(0.015625)"/>
     </defs>
     <use xlink:href="#DejaVuSans-56"/>
     <use xlink:href="#DejaVuSans-6f" transform="translate(60.658203 0)"/>
     <use xlink:href="#DejaVuSans-6c" transform="translate(121.839844 0)"/>
     <use xlink:href="#DejaVuSans-3d" transform="translate(149.623047 0)"/>
     <use xlink:href="#DejaVuSans-37" transform="translate(233.412109 0)"/>
     <use xlink:href="#DejaVuSans-35" transform="translate(297.035156 0)"/>
     <use xlink:href="#DejaVuSans-30" transform="translate(360.658203 0)"/>
     <use xlink:href="#DejaVuSans-20" transform="translate(424.28125 0)"/>
     <use xlink:href="#DejaVuSans-c5" transform="translate(456.068359 0)"/>
     <use xlink:href="#DejaVuSans-b3" transform="translate(524.476562 0)"/>
     <use xlink:href="#DejaVuSans-20" transform="translate(564.564453 0)"/>
     <use xlink:href="#DejaVuSans-5b" transform="translate(596.351562 0)"/>
     <use xlink:href="#DejaVuSans-49" transform="translate(635.365234 0)"/>
     <use xlink:href="#DejaVuSans-4c" transform="translate(664.857422 0)"/>
     <use xlink:href="#DejaVuSans-4c" transform="translate(720.570312 0)"/>
     <use xlink:href="#DejaVuSans-55" transform="translate(771.283203 0)"/>
     <use xlink:href="#DejaVuSans-53" transform="translate(844.476562 0)"/>
     <use xlink:href="#DejaVuSans-2e" transform="translate(907.953125 0)"/>
     <use xlink:href="#DejaVuSans-5d" transform="translate(939.740234 0)"/>
    </g>
    <!-- G4H=1.72 [ILLUS.] -->
    <g style="fill: #ff7f00" transform="translate(387.707984 171.633702) scale(0.075 -0.075)">
     <use xlink:href="#DejaVuSans-47"/>
     <use xlink:href="#DejaVuSans-34" transform="translate(77.490234 0)"/>
     <use xlink:href="#DejaVuSans-48" transform="translate(141.113281 0)"/>
     <use xlink:href="#DejaVuSans-3d" transform="translate(216.308594 0)"/>
     <use xlink:href="#DejaVuSans-31" transform="translate(300.097656 0)"/>
     <use xlink:href="#DejaVuSans-2e" transform="translate(363.720703 0)"/>
     <use xlink:href="#DejaVuSans-37" transform="translate(395.507812 0)"/>
     <use xlink:href="#DejaVuSans-32" transform="translate(459.130859 0)"/>
     <use xlink:href="#DejaVuSans-20" transform="translate(522.753906 0)"/>
     <use xlink:href="#DejaVuSans-5b" transform="translate(554.541016 0)"/>
     <use xlink:href="#DejaVuSans-49" transform="translate(593.554688 0)"/>
     <use xlink:href="#DejaVuSans-4c" transform="translate(623.046875 0)"/>
     <use xlink:href="#DejaVuSans-4c" transform="translate(678.759766 0)"/>
     <use xlink:href="#DejaVuSans-55" transform="translate(729.472656 0)"/>
     <use xlink:href="#DejaVuSans-53" transform="translate(802.666016 0)"/>
     <use xlink:href="#DejaVuSans-2e" transform="translate(866.142578 0)"/>
     <use xlink:href="#DejaVuSans-5d" transform="translate(897.929688 0)"/>
    </g>
   </g>
   <g id="text_26">
    <g id="patch_13">
     <path d="M 752.024322 101.359583 
L 983.674712 101.359583 
Q 987.424712 101.359583 987.424712 97.609583 
L 987.424712 59.818372 
Q 987.424712 56.068372 983.674712 56.068372 
L 752.024322 56.068372 
Q 748.274322 56.068372 748.274322 59.818372 
L 748.274322 97.609583 
Q 748.274322 101.359583 752.024322 101.359583 
z
" style="fill: #fff3cd; stroke: #ffc107; stroke-width: 1.5; stroke-linejoin: miter"/>
    </g>
    <!-- ⚠  ILLUSTRATIVE SEED DATA -->
    <g style="fill: #5a4000" transform="translate(876.928619 65.517201) scale(0.075 -0.075)">
     <defs>
      <path id="DejaVuSans-26a0" d="M 2897 4663 
L 2919 4663 
L 5425 28 
L 5425 0 
L 366 0 
L 341 28 
L 313 28 
Q 2797 4559 2897 4663 
z
M 2869 4075 
L 794 322 
L 794 269 
L 4972 269 
L 4972 297 
Q 2959 3988 2869 4075 
z
M 2897 3381 
Q 3138 3381 3138 3169 
Q 2975 1253 2897 1253 
Q 2825 1253 2656 3197 
Q 2734 3381 2897 3381 
z
M 2894 1022 
Q 2953 1022 3011 990 
Q 3069 959 3101 903 
Q 3134 847 3134 781 
Q 3134 719 3103 662 
Q 3072 606 3012 575 
Q 2953 544 2894 544 
Q 2831 544 2775 575 
Q 2719 606 2686 662 
Q 2653 719 2653 781 
Q 2653 847 2686 903 
Q 2719 959 2775 990 
Q 2831 1022 2894 1022 
z
" transform="scale(0.015625)"/>
      <path id="DejaVuSans-45" d="M 628 4666 
L 3578 4666 
L 3578 4134 
L 1259 4134 
L 1259 2753 
L 3481 2753 
L 3481 2222 
L 1259 2222 
L 1259 531 
L 3634 531 
L 3634 0 
L 628 0 
L 628 4666 
z
" transform="scale(0.015625)"/>
      <path id="DejaVuSans-44" d="M 1259 4147 
L 1259 519 
L 2022 519 
Q 2988 519 3436 956 
Q 3884 1394 3884 2338 
Q 3884 3275 3436 3711 
Q 2988 4147 2022 4147 
L 1259 4147 
z
M 628 4666 
L 1925 4666 
Q 3281 4666 3915 4102 
Q 4550 3538 4550 2338 
Q 4550 1131 3912 565 
Q 3275 0 1925 0 
L 628 0 
L 628 4666 
z
" transform="scale(0.015625)"/>
     </defs>
     <use xlink:href="#DejaVuSans-26a0"/>
     <use xlink:href="#DejaVuSans-20" transform="translate(89.648438 0)"/>
     <use xlink:href="#DejaVuSans-20" transform="translate(121.435547 0)"/>
     <use xlink:href="#DejaVuSans-49" transform="translate(153.222656 0)"/>
     <use xlink:href="#DejaVuSans-4c" transform="translate(182.714844 0)"/>
     <use xlink:href="#DejaVuSans-4c" transform="translate(238.427734 0)"/>
     <use xlink:href="#DejaVuSans-55" transform="translate(289.140625 0)"/>
     <use xlink:href="#DejaVuSans-53" transform="translate(362.333984 0)"/>
     <use xlink:href="#DejaVuSans-54" transform="translate(425.810547 0)"/>
     <use xlink:href="#DejaVuSans-52" transform="translate(486.894531 0)"/>
     <use xlink:href="#DejaVuSans-41" transform="translate(552.376953 0)"/>
     <use xlink:href="#DejaVuSans-54" transform="translate(613.035156 0)"/>
     <use xlink:href="#DejaVuSans-49" transform="translate(674.119141 0)"/>
     <use xlink:href="#DejaVuSans-56" transform="translate(703.611328 0)"/>
     <use xlink:href="#DejaVuSans-45" transform="translate(772.019531 0)"/>
     <use xlink:href="#DejaVuSans-20" transform="translate(835.203125 0)"/>
     <use xlink:href="#DejaVuSans-53" transform="translate(866.990234 0)"/>
     <use xlink:href="#DejaVuSans-45" transform="translate(930.466797 0)"/>
     <use xlink:href="#DejaVuSans-45" transform="translate(993.650391 0)"/>
     <use xlink:href="#DejaVuSans-44" transform="translate(1056.833984 0)"/>
     <use xlink:href="#DejaVuSans-20" transform="translate(1133.835938 0)"/>
     <use xlink:href="#DejaVuSans-44" transform="translate(1165.623047 0)"/>
     <use xlink:href="#DejaVuSans-41" transform="translate(1240.875 0)"/>
     <use xlink:href="#DejaVuSans-54" transform="translate(1301.533203 0)"/>
     <use xlink:href="#DejaVuSans-41" transform="translate(1354.867188 0)"/>
    </g>
    <!-- All structural values (MFE, pocket volumes, G4Hunter score, -->
    <g style="fill: #5a4000" transform="translate(758.123931 75.625208) scale(0.075 -0.075)">
     <defs>
      <path id="DejaVuSans-46" d="M 628 4666 
L 3309 4666 
L 3309 4134 
L 1259 4134 
L 1259 2759 
L 3109 2759 
L 3109 2228 
L 1259 2228 
L 1259 0 
L 628 0 
L 628 4666 
z
" transform="scale(0.015625)"/>
      <path id="DejaVuSans-6b" d="M 581 4863 
L 1159 4863 
L 1159 1991 
L 2875 3500 
L 3609 3500 
L 1753 1863 
L 3688 0 
L 2938 0 
L 1159 1709 
L 1159 0 
L 581 0 
L 581 4863 
z
" transform="scale(0.015625)"/>
      <path id="DejaVuSans-6d" d="M 3328 2828 
Q 3544 3216 3844 3400 
Q 4144 3584 4550 3584 
Q 5097 3584 5394 3201 
Q 5691 2819 5691 2113 
L 5691 0 
L 5113 0 
L 5113 2094 
Q 5113 2597 4934 2840 
Q 4756 3084 4391 3084 
Q 3944 3084 3684 2787 
Q 3425 2491 3425 1978 
L 3425 0 
L 2847 0 
L 2847 2094 
Q 2847 2600 2669 2842 
Q 2491 3084 2119 3084 
Q 1678 3084 1418 2786 
Q 1159 2488 1159 1978 
L 1159 0 
L 581 0 
L 581 3500 
L 1159 3500 
L 1159 2956 
Q 1356 3278 1631 3431 
Q 1906 3584 2284 3584 
Q 2666 3584 2933 3390 
Q 3200 3197 3328 2828 
z
" transform="scale(0.015625)"/>
     </defs>
     <use xlink:href="#DejaVuSans-41"/>
     <use xlink:href="#DejaVuSans-6c" transform="translate(68.408203 0)"/>
     <use xlink:href="#DejaVuSans-6c" transform="translate(96.191406 0)"/>
     <use xlink:href="#DejaVuSans-20" transform="translate(123.974609 0)"/>
     <use xlink:href="#DejaVuSans-73" transform="translate(155.761719 0)"/>
     <use xlink:href="#DejaVuSans-74" transform="translate(207.861328 0)"/>
     <use xlink:href="#DejaVuSans-72" transform="translate(247.070312 0)"/>
     <use xlink:href="#DejaVuSans-75" transform="translate(288.183594 0)"/>
     <use xlink:href="#DejaVuSans-63" transform="translate(351.5625 0)"/>
     <use xlink:href="#DejaVuSans-74" transform="translate(406.542969 0)"/>
     <use xlink:href="#DejaVuSans-75" transform="translate(445.751953 0)"/>
     <use xlink:href="#DejaVuSans-72" transform="translate(509.130859 0)"/>
     <use xlink:href="#DejaVuSans-61" transform="translate(550.244141 0)"/>
     <use xlink:href="#DejaVuSans-6c" transform="translate(611.523438 0)"/>
     <use xlink:href="#DejaVuSans-20" transform="translate(639.306641 0)"/>
     <use xlink:href="#DejaVuSans-76" transform="translate(671.09375 0)"/>
     <use xlink:href="#DejaVuSans-61" transform="translate(730.273438 0)"/>
     <use xlink:href="#DejaVuSans-6c" transform="translate(791.552734 0)"/>
     <use xlink:href="#DejaVuSans-75" transform="translate(819.335938 0)"/>
     <use xlink:href="#DejaVuSans-65" transform="translate(882.714844 0)"/>
     <use xlink:href="#DejaVuSans-73" transform="translate(944.238281 0)"/>
     <use xlink:href="#DejaVuSans-20" transform="translate(996.337891 0)"/>
     <use xlink:href="#DejaVuSans-28" transform="translate(1028.125 0)"/>
     <use xlink:href="#DejaVuSans-4d" transform="translate(1067.138672 0)"/>
     <use xlink:href="#DejaVuSans-46" transform="translate(1153.417969 0)"/>
     <use xlink:href="#DejaVuSans-45" transform="translate(1210.9375 0)"/>
     <use xlink:href="#DejaVuSans-2c" transform="translate(1274.121094 0)"/>
     <use xlink:href="#DejaVuSans-20" transform="translate(1305.908203 0)"/>
     <use xlink:href="#DejaVuSans-70" transform="translate(1337.695312 0)"/>
     <use xlink:href="#DejaVuSans-6f" transform="translate(1401.171875 0)"/>
     <use xlink:href="#DejaVuSans-63" transform="translate(1462.353516 0)"/>
     <use xlink:href="#DejaVuSans-6b" transform="translate(1517.333984 0)"/>
     <use xlink:href="#DejaVuSans-65" transform="translate(1571.619141 0)"/>
     <use xlink:href="#DejaVuSans-74" transform="translate(1633.142578 0)"/>
     <use xlink:href="#DejaVuSans-20" transform="translate(1672.351562 0)"/>
     <use xlink:href="#DejaVuSans-76" transform="translate(1704.138672 0)"/>
     <use xlink:href="#DejaVuSans-6f" transform="translate(1763.318359 0)"/>
     <use xlink:href="#DejaVuSans-6c" transform="translate(1824.5 0)"/>
     <use xlink:href="#DejaVuSans-75" transform="translate(1852.283203 0)"/>
     <use xlink:href="#DejaVuSans-6d" transform="translate(1915.662109 0)"/>
     <use xlink:href="#DejaVuSans-65" transform="translate(2013.074219 0)"/>
     <use xlink:href="#DejaVuSans-73" transform="translate(2074.597656 0)"/>
     <use xlink:href="#DejaVuSans-2c" transform="translate(2126.697266 0)"/>
     <use xlink:href="#DejaVuSans-20" transform="translate(2158.484375 0)"/>
     <use xlink:href="#DejaVuSans-47" transform="translate(2190.271484 0)"/>
     <use xlink:href="#DejaVuSans-34" transform="translate(2267.761719 0)"/>
     <use xlink:href="#DejaVuSans-48" transform="translate(2331.384766 0)"/>
     <use xlink:href="#DejaVuSans-75" transform="translate(2406.580078 0)"/>
     <use xlink:href="#DejaVuSans-6e" transform="translate(2469.958984 0)"/>
     <use xlink:href="#DejaVuSans-74" transform="translate(2533.337891 0)"/>
     <use xlink:href="#DejaVuSans-65" transform="translate(2572.546875 0)"/>
     <use xlink:href="#DejaVuSans-72" transform="translate(2634.070312 0)"/>
     <use xlink:href="#DejaVuSans-20" transform="translate(2675.183594 0)"/>
     <use xlink:href="#DejaVuSans-73" transform="translate(2706.970703 0)"/>
     <use xlink:href="#DejaVuSans-63" transform="translate(2759.070312 0)"/>
     <use xlink:href="#DejaVuSans-6f" transform="translate(2814.050781 0)"/>
     <use xlink:href="#DejaVuSans-72" transform="translate(2875.232422 0)"/>
     <use xlink:href="#DejaVuSans-65" transform="translate(2914.095703 0)"/>
     <use xlink:href="#DejaVuSans-2c" transform="translate(2975.619141 0)"/>
    </g>
    <!-- nucleotide positions) are NOT computed from NM_000142.5. -->
    <g style="fill: #5a4000" transform="translate(755.993462 85.733216) scale(0.075 -0.075)">
     <defs>
      <path id="DejaVuSans-4f" d="M 2522 4238 
Q 1834 4238 1429 3725 
Q 1025 3213 1025 2328 
Q 1025 1447 1429 934 
Q 1834 422 2522 422 
Q 3209 422 3611 934 
Q 4013 1447 4013 2328 
Q 4013 3213 3611 3725 
Q 3209 4238 2522 4238 
z
M 2522 4750 
Q 3503 4750 4090 4092 
Q 4678 3434 4678 2328 
Q 4678 1225 4090 567 
Q 3503 -91 2522 -91 
Q 1538 -91 948 565 
Q 359 1222 359 2328 
Q 359 3434 948 4092 
Q 1538 4750 2522 4750 
z
" transform="scale(0.015625)"/>
     </defs>
     <use xlink:href="#DejaVuSans-6e"/>
     <use xlink:href="#DejaVuSans-75" transform="translate(63.378906 0)"/>
     <use xlink:href="#DejaVuSans-63" transform="translate(126.757812 0)"/>
     <use xlink:href="#DejaVuSans-6c" transform="translate(181.738281 0)"/>
     <use xlink:href="#DejaVuSans-65" transform="translate(209.521484 0)"/>
     <use xlink:href="#DejaVuSans-6f" transform="translate(271.044922 0)"/>
     <use xlink:href="#DejaVuSans-74" transform="translate(332.226562 0)"/>
     <use xlink:href="#DejaVuSans-69" transform="translate(371.435547 0)"/>
     <use xlink:href="#DejaVuSans-64" transform="translate(399.21875 0)"/>
     <use xlink:href="#DejaVuSans-65" transform="translate(462.695312 0)"/>
     <use xlink:href="#DejaVuSans-20" transform="translate(524.21875 0)"/>
     <use xlink:href="#DejaVuSans-70" transform="translate(556.005859 0)"/>
     <use xlink:href="#DejaVuSans-6f" transform="translate(619.482422 0)"/>
     <use xlink:href="#DejaVuSans-73" transform="translate(680.664062 0)"/>
     <use xlink:href="#DejaVuSans-69" transform="translate(732.763672 0)"/>
     <use xlink:href="#DejaVuSans-74" transform="translate(760.546875 0)"/>
     <use xlink:href="#DejaVuSans-69" transform="translate(799.755859 0)"/>
     <use xlink:href="#DejaVuSans-6f" transform="translate(827.539062 0)"/>
     <use xlink:href="#DejaVuSans-6e" transform="translate(888.720703 0)"/>
     <use xlink:href="#DejaVuSans-73" transform="translate(952.099609 0)"/>
     <use xlink:href="#DejaVuSans-29" transform="translate(1004.199219 0)"/>
     <use xlink:href="#DejaVuSans-20" transform="translate(1043.212891 0)"/>
     <use xlink:href="#DejaVuSans-61" transform="translate(1075 0)"/>
     <use xlink:href="#DejaVuSans-72" transform="translate(1136.279297 0)"/>
     <use xlink:href="#DejaVuSans-65" transform="translate(1175.142578 0)"/>
     <use xlink:href="#DejaVuSans-20" transform="translate(1236.666016 0)"/>
     <use xlink:href="#DejaVuSans-4e" transform="translate(1268.453125 0)"/>
     <use xlink:href="#DejaVuSans-4f" transform="translate(1343.257812 0)"/>
     <use xlink:href="#DejaVuSans-54" transform="translate(1421.96875 0)"/>
     <use xlink:href="#DejaVuSans-20" transform="translate(1483.052734 0)"/>
     <use xlink:href="#DejaVuSans-63" transform="translate(1514.839844 0)"/>
     <use xlink:href="#DejaVuSans-6f" transform="translate(1569.820312 0)"/>
     <use xlink:href="#DejaVuSans-6d" transform="translate(1631.001953 0)"/>
     <use xlink:href="#DejaVuSans-70" transform="translate(1728.414062 0)"/>
     <use xlink:href="#DejaVuSans-75" transform="translate(1791.890625 0)"/>
     <use xlink:href="#DejaVuSans-74" transform="translate(1855.269531 0)"/>
     <use xlink:href="#DejaVuSans-65" transform="translate(1894.478516 0)"/>
     <use xlink:href="#DejaVuSans-64" transform="translate(1956.001953 0)"/>
     <use xlink:href="#DejaVuSans-20" transform="translate(2019.478516 0)"/>
     <use xlink:href="#DejaVuSans-66" transform="translate(2051.265625 0)"/>
     <use xlink:href="#DejaVuSans-72" transform="translate(2086.470703 0)"/>
     <use xlink:href="#DejaVuSans-6f" transform="translate(2125.333984 0)"/>
     <use xlink:href="#DejaVuSans-6d" transform="translate(2186.515625 0)"/>
     <use xlink:href="#DejaVuSans-20" transform="translate(2283.927734 0)"/>
     <use xlink:href="#DejaVuSans-4e" transform="translate(2315.714844 0)"/>
     <use xlink:href="#DejaVuSans-4d" transform="translate(2390.519531 0)"/>
     <use xlink:href="#DejaVuSans-5f" transform="translate(2476.798828 0)"/>
     <use xlink:href="#DejaVuSans-30" transform="translate(2526.798828 0)"/>
     <use xlink:href="#DejaVuSans-30" transform="translate(2590.421875 0)"/>
     <use xlink:href="#DejaVuSans-30" transform="translate(2654.044922 0)"/>
     <use xlink:href="#DejaVuSans-31" transform="translate(2717.667969 0)"/>
     <use xlink:href="#DejaVuSans-34" transform="translate(2781.291016 0)"/>
     <use xlink:href="#DejaVuSans-32" transform="translate(2844.914062 0)"/>
     <use xlink:href="#DejaVuSans-2e" transform="translate(2908.537109 0)"/>
     <use xlink:href="#DejaVuSans-35" transform="translate(2940.324219 0)"/>
     <use xlink:href="#DejaVuSans-2e" transform="translate(3003.947266 0)"/>
    </g>
    <!-- Real values require RNAfold + fpocket + G4Hunter execution. -->
    <g style="fill: #5a4000" transform="translate(752.024322 96.049818) scale(0.075 -0.075)">
     <defs>
      <path id="DejaVuSans-2b" d="M 2944 4013 
L 2944 2272 
L 4684 2272 
L 4684 1741 
L 2944 1741 
L 2944 0 
L 2419 0 
L 2419 1741 
L 678 1741 
L 678 2272 
L 2419 2272 
L 2419 4013 
L 2944 4013 
z
" transform="scale(0.015625)"/>
     </defs>
     <use xlink:href="#DejaVuSans-52"/>
     <use xlink:href="#DejaVuSans-65" transform="translate(64.982422 0)"/>
     <use xlink:href="#DejaVuSans-61" transform="translate(126.505859 0)"/>
     <use xlink:href="#DejaVuSans-6c" transform="translate(187.785156 0)"/>
     <use xlink:href="#DejaVuSans-20" transform="translate(215.568359 0)"/>
     <use xlink:href="#DejaVuSans-76" transform="translate(247.355469 0)"/>
     <use xlink:href="#DejaVuSans-61" transform="translate(306.535156 0)"/>
     <use xlink:href="#DejaVuSans-6c" transform="translate(367.814453 0)"/>
     <use xlink:href="#DejaVuSans-75" transform="translate(395.597656 0)"/>
     <use xlink:href="#DejaVuSans-65" transform="translate(458.976562 0)"/>
     <use xlink:href="#DejaVuSans-73" transform="translate(520.5 0)"/>
     <use xlink:href="#DejaVuSans-20" transform="translate(572.599609 0)"/>
     <use xlink:href="#DejaVuSans-72" transform="translate(604.386719 0)"/>
     <use xlink:href="#DejaVuSans-65" transform="translate(643.25 0)"/>
     <use xlink:href="#DejaVuSans-71" transform="translate(704.773438 0)"/>
     <use xlink:href="#DejaVuSans-75" transform="translate(768.25 0)"/>
     <use xlink:href="#DejaVuSans-69" transform="translate(831.628906 0)"/>
     <use xlink:href="#DejaVuSans-72" transform="translate(859.412109 0)"/>
     <use xlink:href="#DejaVuSans-65" transform="translate(898.275391 0)"/>
     <use xlink:href="#DejaVuSans-20" transform="translate(959.798828 0)"/>
     <use xlink:href="#DejaVuSans-52" transform="translate(991.585938 0)"/>
     <use xlink:href="#DejaVuSans-4e" transform="translate(1061.068359 0)"/>
     <use xlink:href="#DejaVuSans-41" transform="translate(1135.873047 0)"/>
     <use xlink:href="#DejaVuSans-66" transform="translate(1200.65625 0)"/>
     <use xlink:href="#DejaVuSans-6f" transform="translate(1235.861328 0)"/>
     <use xlink:href="#DejaVuSans-6c" transform="translate(1297.042969 0)"/>
     <use xlink:href="#DejaVuSans-64" transform="translate(1324.826172 0)"/>
     <use xlink:href="#DejaVuSans-20" transform="translate(1388.302734 0)"/>
     <use xlink:href="#DejaVuSans-2b" transform="translate(1420.089844 0)"/>
     <use xlink:href="#DejaVuSans-20" transform="translate(1503.878906 0)"/>
     <use xlink:href="#DejaVuSans-66" transform="translate(1535.666016 0)"/>
     <use xlink:href="#DejaVuSans-70" transform="translate(1570.871094 0)"/>
     <use xlink:href="#DejaVuSans-6f" transform="translate(1634.347656 0)"/>
     <use xlink:href="#DejaVuSans-63" transform="translate(1695.529297 0)"/>
     <use xlink:href="#DejaVuSans-6b" transform="translate(1750.509766 0)"/>
     <use xlink:href="#DejaVuSans-65" transform="translate(1804.794922 0)"/>
     <use xlink:href="#DejaVuSans-74" transform="translate(1866.318359 0)"/>
     <use xlink:href="#DejaVuSans-20" transform="translate(1905.527344 0)"/>
     <use xlink:href="#DejaVuSans-2b" transform="translate(1937.314453 0)"/>
     <use xlink:href="#DejaVuSans-20" transform="translate(2021.103516 0)"/>
     <use xlink:href="#DejaVuSans-47" transform="translate(2052.890625 0)"/>
     <use xlink:href="#DejaVuSans-34" transform="translate(2130.380859 0)"/>
     <use xlink:href="#DejaVuSans-48" transform="translate(2194.003906 0)"/>
     <use xlink:href="#DejaVuSans-75" transform="translate(2269.199219 0)"/>
     <use xlink:href="#DejaVuSans-6e" transform="translate(2332.578125 0)"/>
     <use xlink:href="#DejaVuSans-74" transform="translate(2395.957031 0)"/>
     <use xlink:href="#DejaVuSans-65" transform="translate(2435.166016 0)"/>
     <use xlink:href="#DejaVuSans-72" transform="translate(2496.689453 0)"/>
     <use xlink:href="#DejaVuSans-20" transform="translate(2537.802734 0)"/>
     <use xlink:href="#DejaVuSans-65" transform="translate(2569.589844 0)"/>
     <use xlink:href="#DejaVuSans-78" transform="translate(2629.363281 0)"/>
     <use xlink:href="#DejaVuSans-65" transform="translate(2685.417969 0)"/>
     <use xlink:href="#DejaVuSans-63" transform="translate(2746.941406 0)"/>
     <use xlink:href="#DejaVuSans-75" transform="translate(2801.921875 0)"/>
     <use xlink:href="#DejaVuSans-74" transform="translate(2865.300781 0)"/>
     <use xlink:href="#DejaVuSans-69" transform="translate(2904.509766 0)"/>
     <use xlink:href="#DejaVuSans-6f" transform="translate(2932.292969 0)"/>
     <use xlink:href="#DejaVuSans-6e" transform="translate(2993.474609 0)"/>
     <use xlink:href="#DejaVuSans-2e" transform="translate(3056.853516 0)"/>
    </g>
   </g>
   <g id="text_27">
    <!-- FGFR3 5′UTR Structural Model [ILLUSTRATIVE] -->
    <g transform="translate(402.99875 14.798437) scale(0.1 -0.1)">
     <use xlink:href="#DejaVuSans-46"/>
     <use xlink:href="#DejaVuSans-47" transform="translate(57.519531 0)"/>
     <use xlink:href="#DejaVuSans-46" transform="translate(135.009766 0)"/>
     <use xlink:href="#DejaVuSans-52" transform="translate(192.529297 0)"/>
     <use xlink:href="#DejaVuSans-33" transform="translate(262.011719 0)"/>
     <use xlink:href="#DejaVuSans-20" transform="translate(325.634766 0)"/>
     <use xlink:href="#DejaVuSans-35" transform="translate(357.421875 0)"/>
     <use xlink:href="#DejaVuSans-2032" transform="translate(421.044922 0)"/>
     <use xlink:href="#DejaVuSans-55" transform="translate(443.75 0)"/>
     <use xlink:href="#DejaVuSans-54" transform="translate(516.943359 0)"/>
     <use xlink:href="#DejaVuSans-52" transform="translate(578.027344 0)"/>
     <use xlink:href="#DejaVuSans-20" transform="translate(647.509766 0)"/>
     <use xlink:href="#DejaVuSans-53" transform="translate(679.296875 0)"/>
     <use xlink:href="#DejaVuSans-74" transform="translate(742.773438 0)"/>
     <use xlink:href="#DejaVuSans-72" transform="translate(781.982422 0)"/>
     <use xlink:href="#DejaVuSans-75" transform="translate(823.095703 0)"/>
     <use xlink:href="#DejaVuSans-63" transform="translate(886.474609 0)"/>
     <use xlink:href="#DejaVuSans-74" transform="translate(941.455078 0)"/>
     <use xlink:href="#DejaVuSans-75" transform="translate(980.664062 0)"/>
     <use xlink:href="#DejaVuSans-72" transform="translate(1044.042969 0)"/>
     <use xlink:href="#DejaVuSans-61" transform="translate(1085.15625 0)"/>
     <use xlink:href="#DejaVuSans-6c" transform="translate(1146.435547 0)"/>
     <use xlink:href="#DejaVuSans-20" transform="translate(1174.21875 0)"/>
     <use xlink:href="#DejaVuSans-4d" transform="translate(1206.005859 0)"/>
     <use xlink:href="#DejaVuSans-6f" transform="translate(1292.285156 0)"/>
     <use xlink:href="#DejaVuSans-64" transform="translate(1353.466797 0)"/>
     <use xlink:href="#DejaVuSans-65" transform="translate(1416.943359 0)"/>
     <use xlink:href="#DejaVuSans-6c" transform="translate(1478.466797 0)"/>
     <use xlink:href="#DejaVuSans-20" transform="translate(1506.25 0)"/>
     <use xlink:href="#DejaVuSans-5b" transform="translate(1538.037109 0)"/>
     <use xlink:href="#DejaVuSans-49" transform="translate(1577.050781 0)"/>
     <use xlink:href="#DejaVuSans-4c" transform="translate(1606.542969 0)"/>
     <use xlink:href="#DejaVuSans-4c" transform="translate(1662.255859 0)"/>
     <use xlink:href="#DejaVuSans-55" transform="translate(1712.96875 0)"/>
     <use xlink:href="#DejaVuSans-53" transform="translate(1786.162109 0)"/>
     <use xlink:href="#DejaVuSans-54" transform="translate(1849.638672 0)"/>
     <use xlink:href="#DejaVuSans-52" transform="translate(1910.722656 0)"/>
     <use xlink:href="#DejaVuSans-41" transform="translate(1976.205078 0)"/>
     <use xlink:href="#DejaVuSans-54" transform="translate(2036.863281 0)"/>
     <use xlink:href="#DejaVuSans-49" transform="translate(2097.947266 0)"/>
     <use xlink:href="#DejaVuSans-56" transform="translate(2127.439453 0)"/>
     <use xlink:href="#DejaVuSans-45" transform="translate(2195.847656 0)"/>
     <use xlink:href="#DejaVuSans-5d" transform="translate(2259.03125 0)"/>
    </g>
    <!-- Positions not computed from NM_000142.5 — see Methods §2.1 -->
    <g transform="translate(358.085469 25.99625) scale(0.1 -0.1)">
     <defs>
      <path id="DejaVuSans-2014" d="M 313 1978 
L 6088 1978 
L 6088 1528 
L 313 1528 
L 313 1978 
z
" transform="scale(0.015625)"/>
      <path id="DejaVuSans-a7" d="M 1184 2925 
Q 988 2781 891 2640 
Q 794 2500 794 2356 
Q 794 2119 1011 1911 
Q 1228 1703 2009 1281 
Q 2206 1422 2303 1564 
Q 2400 1706 2400 1850 
Q 2400 2084 2176 2296 
Q 1953 2509 1184 2925 
z
M 2591 4569 
L 2591 4056 
Q 2331 4178 2107 4239 
Q 1884 4300 1709 4300 
Q 1406 4300 1237 4175 
Q 1069 4050 1069 3828 
Q 1069 3547 1713 3188 
Q 1794 3141 1838 3116 
Q 2497 2744 2701 2503 
Q 2906 2263 2906 1947 
Q 2906 1666 2762 1447 
Q 2619 1228 2328 1063 
Q 2522 900 2611 729 
Q 2700 559 2700 359 
Q 2700 -84 2381 -346 
Q 2063 -609 1522 -609 
Q 1294 -609 1053 -564 
Q 813 -519 538 -428 
L 538 84 
Q 809 -38 1040 -98 
Q 1272 -159 1453 -159 
Q 1772 -159 1948 -28 
Q 2125 103 2125 341 
Q 2125 659 1434 1044 
L 1356 1088 
Q 688 1463 488 1702 
Q 288 1941 288 2259 
Q 288 2544 433 2767 
Q 578 2991 863 3144 
Q 678 3281 586 3456 
Q 494 3631 494 3847 
Q 494 4253 806 4501 
Q 1119 4750 1638 4750 
Q 1866 4750 2105 4704 
Q 2344 4659 2591 4569 
z
" transform="scale(0.015625)"/>
     </defs>
     <use xlink:href="#DejaVuSans-50"/>
     <use xlink:href="#DejaVuSans-6f" transform="translate(56.677734 0)"/>
     <use xlink:href="#DejaVuSans-73" transform="translate(117.859375 0)"/>
     <use xlink:href="#DejaVuSans-69" transform="translate(169.958984 0)"/>
     <use xlink:href="#DejaVuSans-74" transform="translate(197.742188 0)"/>
     <use xlink:href="#DejaVuSans-69" transform="translate(236.951172 0)"/>
     <use xlink:href="#DejaVuSans-6f" transform="translate(264.734375 0)"/>
     <use xlink:href="#DejaVuSans-6e" transform="translate(325.916016 0)"/>
     <use xlink:href="#DejaVuSans-73" transform="translate(389.294922 0)"/>
     <use xlink:href="#DejaVuSans-20" transform="translate(441.394531 0)"/>
     <use xlink:href="#DejaVuSans-6e" transform="translate(473.181641 0)"/>
     <use xlink:href="#DejaVuSans-6f" transform="translate(536.560547 0)"/>
     <use xlink:href="#DejaVuSans-74" transform="translate(597.742188 0)"/>
     <use xlink:href="#DejaVuSans-20" transform="translate(636.951172 0)"/>
     <use xlink:href="#DejaVuSans-63" transform="translate(668.738281 0)"/>
     <use xlink:href="#DejaVuSans-6f" transform="translate(723.71875 0)"/>
     <use xlink:href="#DejaVuSans-6d" transform="translate(784.900391 0)"/>
     <use xlink:href="#DejaVuSans-70" transform="translate(882.3125 0)"/>
     <use xlink:href="#DejaVuSans-75" transform="translate(945.789062 0)"/>
     <use xlink:href="#DejaVuSans-74" transform="translate(1009.167969 0)"/>
     <use xlink:href="#DejaVuSans-65" transform="translate(1048.376953 0)"/>
     <use xlink:href="#DejaVuSans-64" transform="translate(1109.900391 0)"/>
     <use xlink:href="#DejaVuSans-20" transform="translate(1173.376953 0)"/>
     <use xlink:href="#DejaVuSans-66" transform="translate(1205.164062 0)"/>
     <use xlink:href="#DejaVuSans-72" transform="translate(1240.369141 0)"/>
     <use xlink:href="#DejaVuSans-6f" transform="translate(1279.232422 0)"/>
     <use xlink:href="#DejaVuSans-6d" transform="translate(1340.414062 0)"/>
     <use xlink:href="#DejaVuSans-20" transform="translate(1437.826172 0)"/>
     <use xlink:href="#DejaVuSans-4e" transform="translate(1469.613281 0)"/>
     <use xlink:href="#DejaVuSans-4d" transform="translate(1544.417969 0)"/>
     <use xlink:href="#DejaVuSans-5f" transform="translate(1630.697266 0)"/>
     <use xlink:href="#DejaVuSans-30" transform="translate(1680.697266 0)"/>
     <use xlink:href="#DejaVuSans-30" transform="translate(1744.320312 0)"/>
     <use xlink:href="#DejaVuSans-30" transform="translate(1807.943359 0)"/>
     <use xlink:href="#DejaVuSans-31" transform="translate(1871.566406 0)"/>
     <use xlink:href="#DejaVuSans-34" transform="translate(1935.189453 0)"/>
     <use xlink:href="#DejaVuSans-32" transform="translate(1998.8125 0)"/>
     <use xlink:href="#DejaVuSans-2e" transform="translate(2062.435547 0)"/>
     <use xlink:href="#DejaVuSans-35" transform="translate(2094.222656 0)"/>
     <use xlink:href="#DejaVuSans-20" transform="translate(2157.845703 0)"/>
     <use xlink:href="#DejaVuSans-2014" transform="translate(2189.632812 0)"/>
     <use xlink:href="#DejaVuSans-20" transform="translate(2289.632812 0)"/>
     <use xlink:href="#DejaVuSans-73" transform="translate(2321.419922 0)"/>
     <use xlink:href="#DejaVuSans-65" transform="translate(2373.519531 0)"/>
     <use xlink:href="#DejaVuSans-65" transform="translate(2435.042969 0)"/>
     <use xlink:href="#DejaVuSans-20" transform="translate(2496.566406 0)"/>
     <use xlink:href="#DejaVuSans-4d" transform="translate(2528.353516 0)"/>
     <use xlink:href="#DejaVuSans-65" transform="translate(2614.632812 0)"/>
     <use xlink:href="#DejaVuSans-74" transform="translate(2676.15625 0)"/>
     <use xlink:href="#DejaVuSans-68" transform="translate(2715.365234 0)"/>
     <use xlink:href="#DejaVuSans-6f" transform="translate(2778.744141 0)"/>
     <use xlink:href="#DejaVuSans-64" transform="translate(2839.925781 0)"/>
     <use xlink:href="#DejaVuSans-73" transform="translate(2903.402344 0)"/>
     <use xlink:href="#DejaVuSans-20" transform="translate(2955.501953 0)"/>
     <use xlink:href="#DejaVuSans-a7" transform="translate(2987.289062 0)"/>
     <use xlink:href="#DejaVuSans-32" transform="translate(3037.289062 0)"/>
     <use xlink:href="#DejaVuSans-2e" transform="translate(3100.912109 0)"/>
     <use xlink:href="#DejaVuSans-31" transform="translate(3132.699219 0)"/>
    </g>
    <!-- MFE = −83.70 kcal/mol [ILLUSTRATIVE SEED]  |  NM_000142.5  |  275 nt (verified) -->
    <g transform="translate(313.340156 37.524687) scale(0.1 -0.1)">
     <defs>
      <path id="DejaVuSans-2f" d="M 1625 4666 
L 2156 4666 
L 531 -594 
L 0 -594 
L 1625 4666 
z
" transform="scale(0.015625)"/>
      <path id="DejaVuSans-7c" d="M 1344 4891 
L 1344 -1509 
L 813 -1509 
L 813 4891 
L 1344 4891 
z
" transform="scale(0.015625)"/>
     </defs>
     <use xlink:href="#DejaVuSans-4d"/>
     <use xlink:href="#DejaVuSans-46" transform="translate(86.279297 0)"/>
     <use xlink:href="#DejaVuSans-45" transform="translate(143.798828 0)"/>
     <use xlink:href="#DejaVuSans-20" transform="translate(206.982422 0)"/>
     <use xlink:href="#DejaVuSans-3d" transform="translate(238.769531 0)"/>
     <use xlink:href="#DejaVuSans-20" transform="translate(322.558594 0)"/>
     <use xlink:href="#DejaVuSans-2212" transform="translate(354.345703 0)"/>
     <use xlink:href="#DejaVuSans-38" transform="translate(438.134766 0)"/>
     <use xlink:href="#DejaVuSans-33" transform="translate(501.757812 0)"/>
     <use xlink:href="#DejaVuSans-2e" transform="translate(565.380859 0)"/>
     <use xlink:href="#DejaVuSans-37" transform="translate(597.167969 0)"/>
     <use xlink:href="#DejaVuSans-30" transform="translate(660.791016 0)"/>
     <use xlink:href="#DejaVuSans-20" transform="translate(724.414062 0)"/>
     <use xlink:href="#DejaVuSans-6b" transform="translate(756.201172 0)"/>
     <use xlink:href="#DejaVuSans-63" transform="translate(814.111328 0)"/>
     <use xlink:href="#DejaVuSans-61" transform="translate(869.091797 0)"/>
     <use xlink:href="#DejaVuSans-6c" transform="translate(930.371094 0)"/>
     <use xlink:href="#DejaVuSans-2f" transform="translate(958.154297 0)"/>
     <use xlink:href="#DejaVuSans-6d" transform="translate(991.845703 0)"/>
     <use xlink:href="#DejaVuSans-6f" transform="translate(1089.257812 0)"/>
     <use xlink:href="#DejaVuSans-6c" transform="translate(1150.439453 0)"/>
     <use xlink:href="#DejaVuSans-20" transform="translate(1178.222656 0)"/>
     <use xlink:href="#DejaVuSans-5b" transform="translate(1210.009766 0)"/>
     <use xlink:href="#DejaVuSans-49" transform="translate(1249.023438 0)"/>
     <use xlink:href="#DejaVuSans-4c" transform="translate(1278.515625 0)"/>
     <use xlink:href="#DejaVuSans-4c" transform="translate(1334.228516 0)"/>
     <use xlink:href="#DejaVuSans-55" transform="translate(1384.941406 0)"/>
     <use xlink:href="#DejaVuSans-53" transform="translate(1458.134766 0)"/>
     <use xlink:href="#DejaVuSans-54" transform="translate(1521.611328 0)"/>
     <use xlink:href="#DejaVuSans-52" transform="translate(1582.695312 0)"/>
     <use xlink:href="#DejaVuSans-41" transform="translate(1648.177734 0)"/>
     <use xlink:href="#DejaVuSans-54" transform="translate(1708.835938 0)"/>
     <use xlink:href="#DejaVuSans-49" transform="translate(1769.919922 0)"/>
     <use xlink:href="#DejaVuSans-56" transform="translate(1799.412109 0)"/>
     <use xlink:href="#DejaVuSans-45" transform="translate(1867.820312 0)"/>
     <use xlink:href="#DejaVuSans-20" transform="translate(1931.003906 0)"/>
     <use xlink:href="#DejaVuSans-53" transform="translate(1962.791016 0)"/>
     <use xlink:href="#DejaVuSans-45" transform="translate(2026.267578 0)"/>
     <use xlink:href="#DejaVuSans-45" transform="translate(2089.451172 0)"/>
     <use xlink:href="#DejaVuSans-44" transform="translate(2152.634766 0)"/>
     <use xlink:href="#DejaVuSans-5d" transform="translate(2229.636719 0)"/>
     <use xlink:href="#DejaVuSans-20" transform="translate(2268.650391 0)"/>
     <use xlink:href="#DejaVuSans-20" transform="translate(2300.4375 0)"/>
     <use xlink:href="#DejaVuSans-7c" transform="translate(2332.224609 0)"/>
     <use xlink:href="#DejaVuSans-20" transform="translate(2365.916016 0)"/>
     <use xlink:href="#DejaVuSans-20" transform="translate(2397.703125 0)"/>
     <use xlink:href="#DejaVuSans-4e" transform="translate(2429.490234 0)"/>
     <use xlink:href="#DejaVuSans-4d" transform="translate(2504.294922 0)"/>
     <use xlink:href="#DejaVuSans-5f" transform="translate(2590.574219 0)"/>
     <use xlink:href="#DejaVuSans-30" transform="translate(2640.574219 0)"/>
     <use xlink:href="#DejaVuSans-30" transform="translate(2704.197266 0)"/>
     <use xlink:href="#DejaVuSans-30" transform="translate(2767.820312 0)"/>
     <use xlink:href="#DejaVuSans-31" transform="translate(2831.443359 0)"/>
     <use xlink:href="#DejaVuSans-34" transform="translate(2895.066406 0)"/>
     <use xlink:href="#DejaVuSans-32" transform="translate(2958.689453 0)"/>
     <use xlink:href="#DejaVuSans-2e" transform="translate(3022.3125 0)"/>
     <use xlink:href="#DejaVuSans-35" transform="translate(3054.099609 0)"/>
     <use xlink:href="#DejaVuSans-20" transform="translate(3117.722656 0)"/>
     <use xlink:href="#DejaVuSans-20" transform="translate(3149.509766 0)"/>
     <use xlink:href="#DejaVuSans-7c" transform="translate(3181.296875 0)"/>
     <use xlink:href="#DejaVuSans-20" transform="translate(3214.988281 0)"/>
     <use xlink:href="#DejaVuSans-20" transform="translate(3246.775391 0)"/>
     <use xlink:href="#DejaVuSans-32" transform="translate(3278.5625 0)"/>
     <use xlink:href="#DejaVuSans-37" transform="translate(3342.185547 0)"/>
     <use xlink:href="#DejaVuSans-35" transform="translate(3405.808594 0)"/>
     <use xlink:href="#DejaVuSans-20" transform="translate(3469.431641 0)"/>
     <use xlink:href="#DejaVuSans-6e" transform="translate(3501.21875 0)"/>
     <use xlink:href="#DejaVuSans-74" transform="translate(3564.597656 0)"/>
     <use xlink:href="#DejaVuSans-20" transform="translate(3603.806641 0)"/>
     <use xlink:href="#DejaVuSans-28" transform="translate(3635.59375 0)"/>
     <use xlink:href="#DejaVuSans-76" transform="translate(3674.607422 0)"/>
     <use xlink:href="#DejaVuSans-65" transform="translate(3733.787109 0)"/>
     <use xlink:href="#DejaVuSans-72" transform="translate(3795.310547 0)"/>
     <use xlink:href="#DejaVuSans-69" transform="translate(3836.423828 0)"/>
     <use xlink:href="#DejaVuSans-66" transform="translate(3864.207031 0)"/>
     <use xlink:href="#DejaVuSans-69" transform="translate(3899.412109 0)"/>
     <use xlink:href="#DejaVuSans-65" transform="translate(3927.195312 0)"/>
     <use xlink:href="#DejaVuSans-64" transform="translate(3988.71875 0)"/>
     <use xlink:href="#DejaVuSans-29" transform="translate(4052.195312 0)"/>
    </g>
   </g>
   <g id="legend_1">
    <g id="patch_14">
     <path d="M 48.220313 100.894687 
L 169.312813 100.894687 
Q 170.912813 100.894687 170.912813 99.294687 
L 170.912813 53.124687 
Q 170.912813 51.524687 169.312813 51.524687 
L 48.220313 51.524687 
Q 46.620313 51.524687 46.620313 53.124687 
L 46.620313 99.294687 
Q 46.620313 100.894687 48.220313 100.894687 
z
" style="fill: #ffffff; opacity: 0.9; stroke: #cccccc; stroke-linejoin: miter"/>
    </g>
    <g id="patch_15">
     <path d="M 49.820313 60.803437 
L 65.820313 60.803437 
L 65.820313 55.203437 
L 49.820313 55.203437 
z
" style="fill: #4daf4a; stroke: #4daf4a; stroke-linejoin: miter"/>
    </g>
    <g id="text_28">
     <!-- 5'/3' end stem [est.] -->
     <g transform="translate(72.220313 60.803437) scale(0.08 -0.08)">
      <defs>
       <path id="DejaVuSans-27" d="M 1147 4666 
L 1147 2931 
L 616 2931 
L 616 4666 
L 1147 4666 
z
" transform="scale(0.015625)"/>
      </defs>
      <use xlink:href="#DejaVuSans-35"/>
      <use xlink:href="#DejaVuSans-27" transform="translate(63.623047 0)"/>
      <use xlink:href="#DejaVuSans-2f" transform="translate(91.113281 0)"/>
      <use xlink:href="#DejaVuSans-33" transform="translate(124.804688 0)"/>
      <use xlink:href="#DejaVuSans-27" transform="translate(188.427734 0)"/>
      <use xlink:href="#DejaVuSans-20" transform="translate(215.917969 0)"/>
      <use xlink:href="#DejaVuSans-65" transform="translate(247.705078 0)"/>
      <use xlink:href="#DejaVuSans-6e" transform="translate(309.228516 0)"/>
      <use xlink:href="#DejaVuSans-64" transform="translate(372.607422 0)"/>
      <use xlink:href="#DejaVuSans-20" transform="translate(436.083984 0)"/>
      <use xlink:href="#DejaVuSans-73" transform="translate(467.871094 0)"/>
      <use xlink:href="#DejaVuSans-74" transform="translate(519.970703 0)"/>
      <use xlink:href="#DejaVuSans-65" transform="translate(559.179688 0)"/>
      <use xlink:href="#DejaVuSans-6d" transform="translate(620.703125 0)"/>
      <use xlink:href="#DejaVuSans-20" transform="translate(718.115234 0)"/>
      <use xlink:href="#DejaVuSans-5b" transform="translate(749.902344 0)"/>
      <use xlink:href="#DejaVuSans-65" transform="translate(788.916016 0)"/>
      <use xlink:href="#DejaVuSans-73" transform="translate(850.439453 0)"/>
      <use xlink:href="#DejaVuSans-74" transform="translate(902.539062 0)"/>
      <use xlink:href="#DejaVuSans-2e" transform="translate(941.748047 0)"/>
      <use xlink:href="#DejaVuSans-5d" transform="translate(973.535156 0)"/>
     </g>
    </g>
    <g id="patch_16">
     <path d="M 49.820313 72.545937 
L 65.820313 72.545937 
L 65.820313 66.945937 
L 49.820313 66.945937 
z
" style="fill: #e41a1c; stroke: #e41a1c; stroke-linejoin: miter"/>
    </g>
    <g id="text_29">
     <!-- P1 hairpin [est.] -->
     <g transform="translate(72.220313 72.545937) scale(0.08 -0.08)">
      <use xlink:href="#DejaVuSans-50"/>
      <use xlink:href="#DejaVuSans-31" transform="translate(60.302734 0)"/>
      <use xlink:href="#DejaVuSans-20" transform="translate(123.925781 0)"/>
      <use xlink:href="#DejaVuSans-68" transform="translate(155.712891 0)"/>
      <use xlink:href="#DejaVuSans-61" transform="translate(219.091797 0)"/>
      <use xlink:href="#DejaVuSans-69" transform="translate(280.371094 0)"/>
      <use xlink:href="#DejaVuSans-72" transform="translate(308.154297 0)"/>
      <use xlink:href="#DejaVuSans-70" transform="translate(349.267578 0)"/>
      <use xlink:href="#DejaVuSans-69" transform="translate(412.744141 0)"/>
      <use xlink:href="#DejaVuSans-6e" transform="translate(440.527344 0)"/>
      <use xlink:href="#DejaVuSans-20" transform="translate(503.90625 0)"/>
      <use xlink:href="#DejaVuSans-5b" transform="translate(535.693359 0)"/>
      <use xlink:href="#DejaVuSans-65" transform="translate(574.707031 0)"/>
      <use xlink:href="#DejaVuSans-73" transform="translate(636.230469 0)"/>
      <use xlink:href="#DejaVuSans-74" transform="translate(688.330078 0)"/>
      <use xlink:href="#DejaVuSans-2e" transform="translate(727.539062 0)"/>
      <use xlink:href="#DejaVuSans-5d" transform="translate(759.326172 0)"/>
     </g>
    </g>
    <g id="patch_17">
     <path d="M 49.820313 84.288437 
L 65.820313 84.288437 
L 65.820313 78.688437 
L 49.820313 78.688437 
z
" style="fill: #377eb8; stroke: #377eb8; stroke-linejoin: miter"/>
    </g>
    <g id="text_30">
     <!-- Internal stem [est.] -->
     <g transform="translate(72.220313 84.288437) scale(0.08 -0.08)">
      <use xlink:href="#DejaVuSans-49"/>
      <use xlink:href="#DejaVuSans-6e" transform="translate(29.492188 0)"/>
      <use xlink:href="#DejaVuSans-74" transform="translate(92.871094 0)"/>
      <use xlink:href="#DejaVuSans-65" transform="translate(132.080078 0)"/>
      <use xlink:href="#DejaVuSans-72" transform="translate(193.603516 0)"/>
      <use xlink:href="#DejaVuSans-6e" transform="translate(232.966797 0)"/>
      <use xlink:href="#DejaVuSans-61" transform="translate(296.345703 0)"/>
      <use xlink:href="#DejaVuSans-6c" transform="translate(357.625 0)"/>
      <use xlink:href="#DejaVuSans-20" transform="translate(385.408203 0)"/>
      <use xlink:href="#DejaVuSans-73" transform="translate(417.195312 0)"/>
      <use xlink:href="#DejaVuSans-74" transform="translate(469.294922 0)"/>
      <use xlink:href="#DejaVuSans-65" transform="translate(508.503906 0)"/>
      <use xlink:href="#DejaVuSans-6d" transform="translate(570.027344 0)"/>
      <use xlink:href="#DejaVuSans-20" transform="translate(667.439453 0)"/>
      <use xlink:href="#DejaVuSans-5b" transform="translate(699.226562 0)"/>
      <use xlink:href="#DejaVuSans-65" transform="translate(738.240234 0)"/>
      <use xlink:href="#DejaVuSans-73" transform="translate(799.763672 0)"/>
      <use xlink:href="#DejaVuSans-74" transform="translate(851.863281 0)"/>
      <use xlink:href="#DejaVuSans-2e" transform="translate(891.072266 0)"/>
      <use xlink:href="#DejaVuSans-5d" transform="translate(922.859375 0)"/>
     </g>
    </g>
    <g id="patch_18">
     <path d="M 49.820313 96.030937 
L 65.820313 96.030937 
L 65.820313 90.430937 
L 49.820313 90.430937 
z
" style="fill: #ff7f00; stroke: #ff7f00; stroke-linejoin: miter"/>
    </g>
    <g id="text_31">
     <!-- P10 G-quadruplex [est.] -->
     <g transform="translate(72.220313 96.030937) scale(0.08 -0.08)">
      <use xlink:href="#DejaVuSans-50"/>
      <use xlink:href="#DejaVuSans-31" transform="translate(60.302734 0)"/>
      <use xlink:href="#DejaVuSans-30" transform="translate(123.925781 0)"/>
      <use xlink:href="#DejaVuSans-20" transform="translate(187.548828 0)"/>
      <use xlink:href="#DejaVuSans-47" transform="translate(219.335938 0)"/>
      <use xlink:href="#DejaVuSans-2d" transform="translate(296.826172 0)"/>
      <use xlink:href="#DejaVuSans-71" transform="translate(332.910156 0)"/>
      <use xlink:href="#DejaVuSans-75" transform="translate(396.386719 0)"/>
      <use xlink:href="#DejaVuSans-61" transform="translate(459.765625 0)"/>
      <use xlink:href="#DejaVuSans-64" transform="translate(521.044922 0)"/>
      <use xlink:href="#DejaVuSans-72" transform="translate(584.521484 0)"/>
      <use xlink:href="#DejaVuSans-75" transform="translate(625.634766 0)"/>
      <use xlink:href="#DejaVuSans-70" transform="translate(689.013672 0)"/>
      <use xlink:href="#DejaVuSans-6c" transform="translate(752.490234 0)"/>
      <use xlink:href="#DejaVuSans-65" transform="translate(780.273438 0)"/>
      <use xlink:href="#DejaVuSans-78" transform="translate(840.046875 0)"/>
      <use xlink:href="#DejaVuSans-20" transform="translate(899.226562 0)"/>
      <use xlink:href="#DejaVuSans-5b" transform="translate(931.013672 0)"/>
      <use xlink:href="#DejaVuSans-65" transform="translate(970.027344 0)"/>
      <use xlink:href="#DejaVuSans-73" transform="translate(1031.550781 0)"/>
      <use xlink:href="#DejaVuSans-74" transform="translate(1083.650391 0)"/>
      <use xlink:href="#DejaVuSans-2e" transform="translate(1122.859375 0)"/>
      <use xlink:href="#DejaVuSans-5d" transform="translate(1154.646484 0)"/>
     </g>
    </g>
   </g>
  </g>
 </g>
 <defs>
  <clipPath id="p2202467a3e">
   <rect x="42.620313" y="47.524687" width="950.56" height="409.7895"/>
  </clipPath>
 </defs>
</svg>
