<?xml version="1.0" encoding="utf-8" standalone="no"?>
<!DOCTYPE svg PUBLIC "-//W3C//DTD SVG 1.1//EN"
  "http://www.w3.org/Graphics/SVG/1.1/DTD/svg11.dtd">
<svg xmlns:xlink="http://www.w3.org/1999/xlink" width="602.0115pt" height="581.5779pt" viewBox="0 0 602.0115 581.5779" xmlns="http://www.w3.org/2000/svg" version="1.1">
 <metadata>
  <rdf:RDF xmlns:dc="http://purl.org/dc/elements/1.1/" xmlns:cc="http://creativecommons.org/ns#" xmlns:rdf="http://www.w3.org/1999/02/22-rdf-syntax-ns#">
   <cc:Work>
    <dc:type rdf:resource="http://purl.org/dc/dcmitype/StillImage"/>
    <dc:date>2026-03-06T22:27:07.623271</dc:date>
    <dc:format>image/svg+xml</dc:format>
    <dc:creator>
     <cc:Agent>
      <dc:title>Matplotlib v3.10.5, https://matplotlib.org/</dc:title>
     </cc:Agent>
    </dc:creator>
   </cc:Work>
  </rdf:RDF>
 </metadata>
 <defs>
  <style type="text/css">*{stroke-linejoin: round; stroke-linecap: butt}</style>
 </defs>
 <g id="figure_1">
  <g id="patch_1">
   <path d="M 0 581.5779 
L 602.0115 581.5779 
L 602.0115 0 
L 0 0 
z
" style="fill: #ffffff"/>
  </g>
  <g id="axes_1">
   <g id="patch_2">
    <path d="M 205.3914 403.3224 
C 241.119349 403.3224 275.388785 389.127535 300.65226 363.86406 
C 325.915735 338.600585 340.1106 304.331149 340.1106 268.6032 
C 340.1106 232.875251 325.915735 198.605815 300.65226 173.34234 
C 275.388785 148.078865 241.119349 133.884 205.3914 133.884 
C 169.663451 133.884 135.394015 148.078865 110.13054 173.34234 
C 84.867065 198.605815 70.6722 232.875251 70.6722 268.6032 
C 70.6722 304.331149 84.867065 338.600585 110.13054 363.86406 
C 135.394015 389.127535 169.663451 403.3224 205.3914 403.3224 
z
" clip-path="url(#pcc0b8a3975)" style="fill: #66c2a5; opacity: 0.35; stroke: #66c2a5; stroke-linejoin: miter"/>
   </g>
   <g id="patch_3">
    <path d="M 365.0586 403.3224 
C 400.786549 403.3224 435.055985 389.127535 460.31946 363.86406 
C 485.582935 338.600585 499.7778 304.331149 499.7778 268.6032 
C 499.7778 232.875251 485.582935 198.605815 460.31946 173.34234 
C 435.055985 148.078865 400.786549 133.884 365.0586 133.884 
C 329.330651 133.884 295.061215 148.078865 269.79774 173.34234 
C 244.534265 198.605815 230.3394 232.875251 230.3394 268.6032 
C 230.3394 304.331149 244.534265 338.600585 269.79774 363.86406 
C 295.061215 389.127535 329.330651 403.3224 365.0586 403.3224 
z
" clip-path="url(#pcc0b8a3975)" style="fill: #fc8d62; opacity: 0.35; stroke: #fc8d62; stroke-linejoin: miter"/>
   </g>
   <g id="patch_4">
    <path d="M 285.225 513.0936 
C 320.952949 513.0936 355.222385 498.898735 380.48586 473.63526 
C 405.749335 448.371785 419.9442 414.102349 419.9442 378.3744 
C 419.9442 342.646451 405.749335 308.377015 380.48586 283.11354 
C 355.222385 257.850065 320.952949 243.6552 285.225 243.6552 
C 249.497051 243.6552 215.227615 257.850065 189.96414 283.11354 
C 164.700665 308.377015 150.5058 342.646451 150.5058 378.3744 
C 150.5058 414.102349 164.700665 448.371785 189.96414 473.63526 
C 215.227615 498.898735 249.497051 513.0936 285.225 513.0936 
z
" clip-path="url(#pcc0b8a3975)" style="fill: #8da0cb; opacity: 0.35; stroke: #8da0cb; stroke-linejoin: miter"/>
   </g>
   <g id="patch_5">
    <path d="M 205.3914 403.3224 
C 241.119349 403.3224 275.388785 389.127535 300.65226 363.86406 
C 325.915735 338.600585 340.1106 304.331149 340.1106 268.6032 
C 340.1106 232.875251 325.915735 198.605815 300.65226 173.34234 
C 275.388785 148.078865 241.119349 133.884 205.3914 133.884 
C 169.663451 133.884 135.394015 148.078865 110.13054 173.34234 
C 84.867065 198.605815 70.6722 232.875251 70.6722 268.6032 
C 70.6722 304.331149 84.867065 338.600585 110.13054 363.86406 
C 135.394015 389.127535 169.663451 403.3224 205.3914 403.3224 
L 205.3914 403.3224 
z
" clip-path="url(#pcc0b8a3975)" style="fill: none; stroke: #1b9e77; stroke-width: 2; stroke-linejoin: miter"/>
   </g>
   <g id="patch_6">
    <path d="M 365.0586 403.3224 
C 400.786549 403.3224 435.055985 389.127535 460.31946 363.86406 
C 485.582935 338.600585 499.7778 304.331149 499.7778 268.6032 
C 499.7778 232.875251 485.582935 198.605815 460.31946 173.34234 
C 435.055985 148.078865 400.786549 133.884 365.0586 133.884 
C 329.330651 133.884 295.061215 148.078865 269.79774 173.34234 
C 244.534265 198.605815 230.3394 232.875251 230.3394 268.6032 
C 230.3394 304.331149 244.534265 338.600585 269.79774 363.86406 
C 295.061215 389.127535 329.330651 403.3224 365.0586 403.3224 
L 365.0586 403.3224 
z
" clip-path="url(#pcc0b8a3975)" style="fill: none; stroke: #d95f02; stroke-width: 2; stroke-linejoin: miter"/>
   </g>
   <g id="patch_7">
    <path d="M 285.225 513.0936 
C 320.952949 513.0936 355.222385 498.898735 380.48586 473.63526 
C 405.749335 448.371785 419.9442 414.102349 419.9442 378.3744 
C 419.9442 342.646451 405.749335 308.377015 380.48586 283.11354 
C 355.222385 257.850065 320.952949 243.6552 285.225 243.6552 
C 249.497051 243.6552 215.227615 257.850065 189.96414 283.11354 
C 164.700665 308.377015 150.5058 342.646451 150.5058 378.3744 
C 150.5058 414.102349 164.700665 448.371785 189.96414 473.63526 
C 215.227615 498.898735 249.497051 513.0936 285.225 513.0936 
L 285.225 513.0936 
z
" clip-path="url(#pcc0b8a3975)" style="fill: none; stroke: #7570b3; stroke-width: 2; stroke-linejoin: miter"/>
   </g>
   <g id="text_1">
    <!-- SL Candidates -->
    <g style="fill: #1b9e77" transform="translate(53.479927 244.774041) scale(0.105 -0.105)">
     <defs>
      <path id="DejaVuSans-Bold-53" d="M 3834 4519 
L 3834 3531 
Q 3450 3703 3084 3790 
Q 2719 3878 2394 3878 
Q 1963 3878 1756 3759 
Q 1550 3641 1550 3391 
Q 1550 3203 1689 3098 
Q 1828 2994 2194 2919 
L 2706 2816 
Q 3484 2659 3812 2340 
Q 4141 2022 4141 1434 
Q 4141 663 3683 286 
Q 3225 -91 2284 -91 
Q 1841 -91 1394 -6 
Q 947 78 500 244 
L 500 1259 
Q 947 1022 1364 901 
Q 1781 781 2169 781 
Q 2563 781 2772 912 
Q 2981 1044 2981 1288 
Q 2981 1506 2839 1625 
Q 2697 1744 2272 1838 
L 1806 1941 
Q 1106 2091 782 2419 
Q 459 2747 459 3303 
Q 459 4000 909 4375 
Q 1359 4750 2203 4750 
Q 2588 4750 2994 4692 
Q 3400 4634 3834 4519 
z
" transform="scale(0.015625)"/>
      <path id="DejaVuSans-Bold-4c" d="M 588 4666 
L 1791 4666 
L 1791 909 
L 3903 909 
L 3903 0 
L 588 0 
L 588 4666 
z
" transform="scale(0.015625)"/>
      <path id="DejaVuSans-Bold-20" transform="scale(0.015625)"/>
      <path id="DejaVuSans-Bold-43" d="M 4288 256 
Q 3956 84 3597 -3 
Q 3238 -91 2847 -91 
Q 1681 -91 1000 561 
Q 319 1213 319 2328 
Q 319 3447 1000 4098 
Q 1681 4750 2847 4750 
Q 3238 4750 3597 4662 
Q 3956 4575 4288 4403 
L 4288 3438 
Q 3953 3666 3628 3772 
Q 3303 3878 2944 3878 
Q 2300 3878 1931 3465 
Q 1563 3053 1563 2328 
Q 1563 1606 1931 1193 
Q 2300 781 2944 781 
Q 3303 781 3628 887 
Q 3953 994 4288 1222 
L 4288 256 
z
" transform="scale(0.015625)"/>
      <path id="DejaVuSans-Bold-61" d="M 2106 1575 
Q 1756 1575 1579 1456 
Q 1403 1338 1403 1106 
Q 1403 894 1545 773 
Q 1688 653 1941 653 
Q 2256 653 2472 879 
Q 2688 1106 2688 1447 
L 2688 1575 
L 2106 1575 
z
M 3816 1997 
L 3816 0 
L 2688 0 
L 2688 519 
Q 2463 200 2181 54 
Q 1900 -91 1497 -91 
Q 953 -91 614 226 
Q 275 544 275 1050 
Q 275 1666 698 1953 
Q 1122 2241 2028 2241 
L 2688 2241 
L 2688 2328 
Q 2688 2594 2478 2717 
Q 2269 2841 1825 2841 
Q 1466 2841 1156 2769 
Q 847 2697 581 2553 
L 581 3406 
Q 941 3494 1303 3539 
Q 1666 3584 2028 3584 
Q 2975 3584 3395 3211 
Q 3816 2838 3816 1997 
z
" transform="scale(0.015625)"/>
      <path id="DejaVuSans-Bold-6e" d="M 4056 2131 
L 4056 0 
L 2931 0 
L 2931 347 
L 2931 1631 
Q 2931 2084 2911 2256 
Q 2891 2428 2841 2509 
Q 2775 2619 2662 2680 
Q 2550 2741 2406 2741 
Q 2056 2741 1856 2470 
Q 1656 2200 1656 1722 
L 1656 0 
L 538 0 
L 538 3500 
L 1656 3500 
L 1656 2988 
Q 1909 3294 2193 3439 
Q 2478 3584 2822 3584 
Q 3428 3584 3742 3212 
Q 4056 2841 4056 2131 
z
" transform="scale(0.015625)"/>
      <path id="DejaVuSans-Bold-64" d="M 2919 2988 
L 2919 4863 
L 4044 4863 
L 4044 0 
L 2919 0 
L 2919 506 
Q 2688 197 2409 53 
Q 2131 -91 1766 -91 
Q 1119 -91 703 423 
Q 288 938 288 1747 
Q 288 2556 703 3070 
Q 1119 3584 1766 3584 
Q 2128 3584 2408 3439 
Q 2688 3294 2919 2988 
z
M 2181 722 
Q 2541 722 2730 984 
Q 2919 1247 2919 1747 
Q 2919 2247 2730 2509 
Q 2541 2772 2181 2772 
Q 1825 2772 1636 2509 
Q 1447 2247 1447 1747 
Q 1447 1247 1636 984 
Q 1825 722 2181 722 
z
" transform="scale(0.015625)"/>
      <path id="DejaVuSans-Bold-69" d="M 538 3500 
L 1656 3500 
L 1656 0 
L 538 0 
L 538 3500 
z
M 538 4863 
L 1656 4863 
L 1656 3950 
L 538 3950 
L 538 4863 
z
" transform="scale(0.015625)"/>
      <path id="DejaVuSans-Bold-74" d="M 1759 4494 
L 1759 3500 
L 2913 3500 
L 2913 2700 
L 1759 2700 
L 1759 1216 
Q 1759 972 1856 886 
Q 1953 800 2241 800 
L 2816 800 
L 2816 0 
L 1856 0 
Q 1194 0 917 276 
Q 641 553 641 1216 
L 641 2700 
L 84 2700 
L 84 3500 
L 641 3500 
L 641 4494 
L 1759 4494 
z
" transform="scale(0.015625)"/>
      <path id="DejaVuSans-Bold-65" d="M 4031 1759 
L 4031 1441 
L 1416 1441 
Q 1456 1047 1700 850 
Q 1944 653 2381 653 
Q 2734 653 3104 758 
Q 3475 863 3866 1075 
L 3866 213 
Q 3469 63 3072 -14 
Q 2675 -91 2278 -91 
Q 1328 -91 801 392 
Q 275 875 275 1747 
Q 275 2603 792 3093 
Q 1309 3584 2216 3584 
Q 3041 3584 3536 3087 
Q 4031 2591 4031 1759 
z
M 2881 2131 
Q 2881 2450 2695 2645 
Q 2509 2841 2209 2841 
Q 1884 2841 1681 2658 
Q 1478 2475 1428 2131 
L 2881 2131 
z
" transform="scale(0.015625)"/>
      <path id="DejaVuSans-Bold-73" d="M 3272 3391 
L 3272 2541 
Q 2913 2691 2578 2766 
Q 2244 2841 1947 2841 
Q 1628 2841 1473 2761 
Q 1319 2681 1319 2516 
Q 1319 2381 1436 2309 
Q 1553 2238 1856 2203 
L 2053 2175 
Q 2913 2066 3209 1816 
Q 3506 1566 3506 1031 
Q 3506 472 3093 190 
Q 2681 -91 1863 -91 
Q 1516 -91 1145 -36 
Q 775 19 384 128 
L 384 978 
Q 719 816 1070 734 
Q 1422 653 1784 653 
Q 2113 653 2278 743 
Q 2444 834 2444 1013 
Q 2444 1163 2330 1236 
Q 2216 1309 1875 1350 
L 1678 1375 
Q 931 1469 631 1722 
Q 331 1975 331 2491 
Q 331 3047 712 3315 
Q 1094 3584 1881 3584 
Q 2191 3584 2531 3537 
Q 2872 3491 3272 3391 
z
" transform="scale(0.015625)"/>
     </defs>
     <use xlink:href="#DejaVuSans-Bold-53"/>
     <use xlink:href="#DejaVuSans-Bold-4c" transform="translate(72.021484 0)"/>
     <use xlink:href="#DejaVuSans-Bold-20" transform="translate(135.742188 0)"/>
     <use xlink:href="#DejaVuSans-Bold-43" transform="translate(170.556641 0)"/>
     <use xlink:href="#DejaVuSans-Bold-61" transform="translate(243.945312 0)"/>
     <use xlink:href="#DejaVuSans-Bold-6e" transform="translate(311.425781 0)"/>
     <use xlink:href="#DejaVuSans-Bold-64" transform="translate(382.617188 0)"/>
     <use xlink:href="#DejaVuSans-Bold-69" transform="translate(454.199219 0)"/>
     <use xlink:href="#DejaVuSans-Bold-64" transform="translate(488.476562 0)"/>
     <use xlink:href="#DejaVuSans-Bold-61" transform="translate(560.058594 0)"/>
     <use xlink:href="#DejaVuSans-Bold-74" transform="translate(627.539062 0)"/>
     <use xlink:href="#DejaVuSans-Bold-65" transform="translate(675.341797 0)"/>
     <use xlink:href="#DejaVuSans-Bold-73" transform="translate(743.164062 0)"/>
    </g>
    <!-- (dCERES ≤ −0.10) -->
    <g style="fill: #1b9e77" transform="translate(42.807661 256.531744) scale(0.105 -0.105)">
     <defs>
      <path id="DejaVuSans-Bold-28" d="M 2413 -844 
L 1484 -844 
Q 1006 -72 778 623 
Q 550 1319 550 2003 
Q 550 2688 779 3389 
Q 1009 4091 1484 4856 
L 2413 4856 
Q 2013 4116 1813 3408 
Q 1613 2700 1613 2009 
Q 1613 1319 1811 609 
Q 2009 -100 2413 -844 
z
" transform="scale(0.015625)"/>
      <path id="DejaVuSans-Bold-45" d="M 588 4666 
L 3834 4666 
L 3834 3756 
L 1791 3756 
L 1791 2888 
L 3713 2888 
L 3713 1978 
L 1791 1978 
L 1791 909 
L 3903 909 
L 3903 0 
L 588 0 
L 588 4666 
z
" transform="scale(0.015625)"/>
      <path id="DejaVuSans-Bold-52" d="M 2297 2597 
Q 2675 2597 2839 2737 
Q 3003 2878 3003 3200 
Q 3003 3519 2839 3656 
Q 2675 3794 2297 3794 
L 1791 3794 
L 1791 2597 
L 2297 2597 
z
M 1791 1766 
L 1791 0 
L 588 0 
L 588 4666 
L 2425 4666 
Q 3347 4666 3776 4356 
Q 4206 4047 4206 3378 
Q 4206 2916 3982 2619 
Q 3759 2322 3309 2181 
Q 3556 2125 3751 1926 
Q 3947 1728 4147 1325 
L 4800 0 
L 3519 0 
L 2950 1159 
Q 2778 1509 2601 1637 
Q 2425 1766 2131 1766 
L 1791 1766 
z
" transform="scale(0.015625)"/>
      <path id="DejaVuSans-Bold-2264" d="M 4684 744 
L 4684 0 
L 678 0 
L 678 744 
L 4684 744 
z
M 4684 2963 
L 1881 2309 
L 4684 1656 
L 4684 897 
L 678 1947 
L 678 2681 
L 4684 3725 
L 4684 2963 
z
" transform="scale(0.015625)"/>
      <path id="DejaVuSans-Bold-2212" d="M 678 2375 
L 4684 2375 
L 4684 1638 
L 678 1638 
L 678 2375 
z
" transform="scale(0.015625)"/>
      <path id="DejaVuSans-Bold-30" d="M 2944 2338 
Q 2944 3213 2780 3570 
Q 2616 3928 2228 3928 
Q 1841 3928 1675 3570 
Q 1509 3213 1509 2338 
Q 1509 1453 1675 1090 
Q 1841 728 2228 728 
Q 2613 728 2778 1090 
Q 2944 1453 2944 2338 
z
M 4147 2328 
Q 4147 1169 3647 539 
Q 3147 -91 2228 -91 
Q 1306 -91 806 539 
Q 306 1169 306 2328 
Q 306 3491 806 4120 
Q 1306 4750 2228 4750 
Q 3147 4750 3647 4120 
Q 4147 3491 4147 2328 
z
" transform="scale(0.015625)"/>
      <path id="DejaVuSans-Bold-2e" d="M 653 1209 
L 1778 1209 
L 1778 0 
L 653 0 
L 653 1209 
z
" transform="scale(0.015625)"/>
      <path id="DejaVuSans-Bold-31" d="M 750 831 
L 1813 831 
L 1813 3847 
L 722 3622 
L 722 4441 
L 1806 4666 
L 2950 4666 
L 2950 831 
L 4013 831 
L 4013 0 
L 750 0 
L 750 831 
z
" transform="scale(0.015625)"/>
      <path id="DejaVuSans-Bold-29" d="M 513 -844 
Q 913 -100 1113 609 
Q 1313 1319 1313 2009 
Q 1313 2700 1113 3408 
Q 913 4116 513 4856 
L 1441 4856 
Q 1916 4091 2145 3389 
Q 2375 2688 2375 2003 
Q 2375 1319 2147 623 
Q 1919 -72 1441 -844 
L 513 -844 
z
" transform="scale(0.015625)"/>
     </defs>
     <use xlink:href="#DejaVuSans-Bold-28"/>
     <use xlink:href="#DejaVuSans-Bold-64" transform="translate(45.703125 0)"/>
     <use xlink:href="#DejaVuSans-Bold-43" transform="translate(117.285156 0)"/>
     <use xlink:href="#DejaVuSans-Bold-45" transform="translate(190.673828 0)"/>
     <use xlink:href="#DejaVuSans-Bold-52" transform="translate(258.984375 0)"/>
     <use xlink:href="#DejaVuSans-Bold-45" transform="translate(335.986328 0)"/>
     <use xlink:href="#DejaVuSans-Bold-53" transform="translate(404.296875 0)"/>
     <use xlink:href="#DejaVuSans-Bold-20" transform="translate(476.318359 0)"/>
     <use xlink:href="#DejaVuSans-Bold-2264" transform="translate(511.132812 0)"/>
     <use xlink:href="#DejaVuSans-Bold-20" transform="translate(594.921875 0)"/>
     <use xlink:href="#DejaVuSans-Bold-2212" transform="translate(629.736328 0)"/>
     <use xlink:href="#DejaVuSans-Bold-30" transform="translate(713.525391 0)"/>
     <use xlink:href="#DejaVuSans-Bold-2e" transform="translate(783.105469 0)"/>
     <use xlink:href="#DejaVuSans-Bold-31" transform="translate(821.09375 0)"/>
     <use xlink:href="#DejaVuSans-Bold-30" transform="translate(890.673828 0)"/>
     <use xlink:href="#DejaVuSans-Bold-29" transform="translate(960.253906 0)"/>
    </g>
    <!-- n = 48 -->
    <g style="fill: #1b9e77" transform="translate(76.522505 268.289447) scale(0.105 -0.105)">
     <defs>
      <path id="DejaVuSans-Bold-3d" d="M 678 3084 
L 4684 3084 
L 4684 2350 
L 678 2350 
L 678 3084 
z
M 678 1663 
L 4684 1663 
L 4684 922 
L 678 922 
L 678 1663 
z
" transform="scale(0.015625)"/>
      <path id="DejaVuSans-Bold-34" d="M 2356 3675 
L 1038 1722 
L 2356 1722 
L 2356 3675 
z
M 2156 4666 
L 3494 4666 
L 3494 1722 
L 4159 1722 
L 4159 850 
L 3494 850 
L 3494 0 
L 2356 0 
L 2356 850 
L 288 850 
L 288 1881 
L 2156 4666 
z
" transform="scale(0.015625)"/>
      <path id="DejaVuSans-Bold-38" d="M 2228 2088 
Q 1891 2088 1709 1903 
Q 1528 1719 1528 1375 
Q 1528 1031 1709 848 
Q 1891 666 2228 666 
Q 2563 666 2741 848 
Q 2919 1031 2919 1375 
Q 2919 1722 2741 1905 
Q 2563 2088 2228 2088 
z
M 1350 2484 
Q 925 2613 709 2878 
Q 494 3144 494 3541 
Q 494 4131 934 4440 
Q 1375 4750 2228 4750 
Q 3075 4750 3515 4442 
Q 3956 4134 3956 3541 
Q 3956 3144 3739 2878 
Q 3522 2613 3097 2484 
Q 3572 2353 3814 2058 
Q 4056 1763 4056 1313 
Q 4056 619 3595 264 
Q 3134 -91 2228 -91 
Q 1319 -91 855 264 
Q 391 619 391 1313 
Q 391 1763 633 2058 
Q 875 2353 1350 2484 
z
M 1631 3419 
Q 1631 3141 1786 2991 
Q 1941 2841 2228 2841 
Q 2509 2841 2662 2991 
Q 2816 3141 2816 3419 
Q 2816 3697 2662 3845 
Q 2509 3994 2228 3994 
Q 1941 3994 1786 3844 
Q 1631 3694 1631 3419 
z
" transform="scale(0.015625)"/>
     </defs>
     <use xlink:href="#DejaVuSans-Bold-6e"/>
     <use xlink:href="#DejaVuSans-Bold-20" transform="translate(71.191406 0)"/>
     <use xlink:href="#DejaVuSans-Bold-3d" transform="translate(106.005859 0)"/>
     <use xlink:href="#DejaVuSans-Bold-20" transform="translate(189.794922 0)"/>
     <use xlink:href="#DejaVuSans-Bold-34" transform="translate(224.609375 0)"/>
     <use xlink:href="#DejaVuSans-Bold-38" transform="translate(294.189453 0)"/>
    </g>
   </g>
   <g id="text_2">
    <!-- High Expression -->
    <g style="fill: #d95f02" transform="translate(427.040034 244.692009) scale(0.105 -0.105)">
     <defs>
      <path id="DejaVuSans-Bold-48" d="M 588 4666 
L 1791 4666 
L 1791 2888 
L 3566 2888 
L 3566 4666 
L 4769 4666 
L 4769 0 
L 3566 0 
L 3566 1978 
L 1791 1978 
L 1791 0 
L 588 0 
L 588 4666 
z
" transform="scale(0.015625)"/>
      <path id="DejaVuSans-Bold-67" d="M 2919 594 
Q 2688 288 2409 144 
Q 2131 0 1766 0 
Q 1125 0 706 504 
Q 288 1009 288 1791 
Q 288 2575 706 3076 
Q 1125 3578 1766 3578 
Q 2131 3578 2409 3434 
Q 2688 3291 2919 2981 
L 2919 3500 
L 4044 3500 
L 4044 353 
Q 4044 -491 3511 -936 
Q 2978 -1381 1966 -1381 
Q 1638 -1381 1331 -1331 
Q 1025 -1281 716 -1178 
L 716 -306 
Q 1009 -475 1290 -558 
Q 1572 -641 1856 -641 
Q 2406 -641 2662 -400 
Q 2919 -159 2919 353 
L 2919 594 
z
M 2181 2772 
Q 1834 2772 1640 2515 
Q 1447 2259 1447 1791 
Q 1447 1309 1634 1061 
Q 1822 813 2181 813 
Q 2531 813 2725 1069 
Q 2919 1325 2919 1791 
Q 2919 2259 2725 2515 
Q 2531 2772 2181 2772 
z
" transform="scale(0.015625)"/>
      <path id="DejaVuSans-Bold-68" d="M 4056 2131 
L 4056 0 
L 2931 0 
L 2931 347 
L 2931 1625 
Q 2931 2084 2911 2256 
Q 2891 2428 2841 2509 
Q 2775 2619 2662 2680 
Q 2550 2741 2406 2741 
Q 2056 2741 1856 2470 
Q 1656 2200 1656 1722 
L 1656 0 
L 538 0 
L 538 4863 
L 1656 4863 
L 1656 2988 
Q 1909 3294 2193 3439 
Q 2478 3584 2822 3584 
Q 3428 3584 3742 3212 
Q 4056 2841 4056 2131 
z
" transform="scale(0.015625)"/>
      <path id="DejaVuSans-Bold-78" d="M 1422 1791 
L 159 3500 
L 1344 3500 
L 2059 2463 
L 2784 3500 
L 3969 3500 
L 2706 1797 
L 4031 0 
L 2847 0 
L 2059 1106 
L 1281 0 
L 97 0 
L 1422 1791 
z
" transform="scale(0.015625)"/>
      <path id="DejaVuSans-Bold-70" d="M 1656 506 
L 1656 -1331 
L 538 -1331 
L 538 3500 
L 1656 3500 
L 1656 2988 
Q 1888 3294 2169 3439 
Q 2450 3584 2816 3584 
Q 3463 3584 3878 3070 
Q 4294 2556 4294 1747 
Q 4294 938 3878 423 
Q 3463 -91 2816 -91 
Q 2450 -91 2169 54 
Q 1888 200 1656 506 
z
M 2400 2772 
Q 2041 2772 1848 2508 
Q 1656 2244 1656 1747 
Q 1656 1250 1848 986 
Q 2041 722 2400 722 
Q 2759 722 2948 984 
Q 3138 1247 3138 1747 
Q 3138 2247 2948 2509 
Q 2759 2772 2400 2772 
z
" transform="scale(0.015625)"/>
      <path id="DejaVuSans-Bold-72" d="M 3138 2547 
Q 2991 2616 2845 2648 
Q 2700 2681 2553 2681 
Q 2122 2681 1889 2404 
Q 1656 2128 1656 1613 
L 1656 0 
L 538 0 
L 538 3500 
L 1656 3500 
L 1656 2925 
Q 1872 3269 2151 3426 
Q 2431 3584 2822 3584 
Q 2878 3584 2943 3579 
Q 3009 3575 3134 3559 
L 3138 2547 
z
" transform="scale(0.015625)"/>
      <path id="DejaVuSans-Bold-6f" d="M 2203 2784 
Q 1831 2784 1636 2517 
Q 1441 2250 1441 1747 
Q 1441 1244 1636 976 
Q 1831 709 2203 709 
Q 2569 709 2762 976 
Q 2956 1244 2956 1747 
Q 2956 2250 2762 2517 
Q 2569 2784 2203 2784 
z
M 2203 3584 
Q 3106 3584 3614 3096 
Q 4122 2609 4122 1747 
Q 4122 884 3614 396 
Q 3106 -91 2203 -91 
Q 1297 -91 786 396 
Q 275 884 275 1747 
Q 275 2609 786 3096 
Q 1297 3584 2203 3584 
z
" transform="scale(0.015625)"/>
     </defs>
     <use xlink:href="#DejaVuSans-Bold-48"/>
     <use xlink:href="#DejaVuSans-Bold-69" transform="translate(83.691406 0)"/>
     <use xlink:href="#DejaVuSans-Bold-67" transform="translate(117.96875 0)"/>
     <use xlink:href="#DejaVuSans-Bold-68" transform="translate(189.550781 0)"/>
     <use xlink:href="#DejaVuSans-Bold-20" transform="translate(260.742188 0)"/>
     <use xlink:href="#DejaVuSans-Bold-45" transform="translate(295.556641 0)"/>
     <use xlink:href="#DejaVuSans-Bold-78" transform="translate(363.867188 0)"/>
     <use xlink:href="#DejaVuSans-Bold-70" transform="translate(428.369141 0)"/>
     <use xlink:href="#DejaVuSans-Bold-72" transform="translate(499.951172 0)"/>
     <use xlink:href="#DejaVuSans-Bold-65" transform="translate(549.267578 0)"/>
     <use xlink:href="#DejaVuSans-Bold-73" transform="translate(617.089844 0)"/>
     <use xlink:href="#DejaVuSans-Bold-73" transform="translate(676.611328 0)"/>
     <use xlink:href="#DejaVuSans-Bold-69" transform="translate(736.132812 0)"/>
     <use xlink:href="#DejaVuSans-Bold-6f" transform="translate(770.410156 0)"/>
     <use xlink:href="#DejaVuSans-Bold-6e" transform="translate(839.111328 0)"/>
    </g>
    <!-- (log₂FC ≥ 1.0) -->
    <g style="fill: #d95f02" transform="translate(433.773159 256.531744) scale(0.105 -0.105)">
     <defs>
      <path id="DejaVuSans-Bold-6c" d="M 538 4863 
L 1656 4863 
L 1656 0 
L 538 0 
L 538 4863 
z
" transform="scale(0.015625)"/>
      <path id="DejaVuSans-Bold-2082" d="M 1288 525 
L 2444 525 
L 2444 0 
L 341 0 
L 341 478 
L 1319 1309 
Q 1509 1475 1590 1600 
Q 1672 1725 1672 1850 
Q 1672 2006 1558 2103 
Q 1444 2200 1259 2200 
Q 1066 2200 844 2129 
Q 622 2059 359 1912 
L 359 2493 
Q 631 2578 886 2620 
Q 1141 2662 1375 2662 
Q 1869 2662 2150 2460 
Q 2431 2259 2431 1912 
Q 2431 1687 2320 1498 
Q 2209 1309 1894 1040 
L 1288 525 
z
" transform="scale(0.015625)"/>
      <path id="DejaVuSans-Bold-46" d="M 588 4666 
L 3834 4666 
L 3834 3756 
L 1791 3756 
L 1791 2888 
L 3713 2888 
L 3713 1978 
L 1791 1978 
L 1791 0 
L 588 0 
L 588 4666 
z
" transform="scale(0.015625)"/>
      <path id="DejaVuSans-Bold-2265" d="M 678 744 
L 4684 744 
L 4684 0 
L 678 0 
L 678 744 
z
M 678 2963 
L 678 3725 
L 4684 2681 
L 4684 1947 
L 678 897 
L 678 1656 
L 3481 2309 
L 678 2963 
z
" transform="scale(0.015625)"/>
     </defs>
     <use xlink:href="#DejaVuSans-Bold-28"/>
     <use xlink:href="#DejaVuSans-Bold-6c" transform="translate(45.703125 0)"/>
     <use xlink:href="#DejaVuSans-Bold-6f" transform="translate(79.980469 0)"/>
     <use xlink:href="#DejaVuSans-Bold-67" transform="translate(148.681641 0)"/>
     <use xlink:href="#DejaVuSans-Bold-2082" transform="translate(220.263672 0)"/>
     <use xlink:href="#DejaVuSans-Bold-46" transform="translate(264.0625 0)"/>
     <use xlink:href="#DejaVuSans-Bold-43" transform="translate(332.373047 0)"/>
     <use xlink:href="#DejaVuSans-Bold-20" transform="translate(405.761719 0)"/>
     <use xlink:href="#DejaVuSans-Bold-2265" transform="translate(440.576172 0)"/>
     <use xlink:href="#DejaVuSans-Bold-20" transform="translate(524.365234 0)"/>
     <use xlink:href="#DejaVuSans-Bold-31" transform="translate(559.179688 0)"/>
     <use xlink:href="#DejaVuSans-Bold-2e" transform="translate(628.759766 0)"/>
     <use xlink:href="#DejaVuSans-Bold-30" transform="translate(666.748047 0)"/>
     <use xlink:href="#DejaVuSans-Bold-29" transform="translate(736.328125 0)"/>
    </g>
    <!-- n = 10 -->
    <g style="fill: #d95f02" transform="translate(455.732105 268.371478) scale(0.105 -0.105)">
     <use xlink:href="#DejaVuSans-Bold-6e"/>
     <use xlink:href="#DejaVuSans-Bold-20" transform="translate(71.191406 0)"/>
     <use xlink:href="#DejaVuSans-Bold-3d" transform="translate(106.005859 0)"/>
     <use xlink:href="#DejaVuSans-Bold-20" transform="translate(189.794922 0)"/>
     <use xlink:href="#DejaVuSans-Bold-31" transform="translate(224.609375 0)"/>
     <use xlink:href="#DejaVuSans-Bold-30" transform="translate(294.189453 0)"/>
    </g>
   </g>
   <g id="text_3">
    <!-- No Existing Drug -->
    <g style="fill: #7570b3" transform="translate(235.425469 548.514759) scale(0.105 -0.105)">
     <defs>
      <path id="DejaVuSans-Bold-4e" d="M 588 4666 
L 1931 4666 
L 3628 1466 
L 3628 4666 
L 4769 4666 
L 4769 0 
L 3425 0 
L 1728 3200 
L 1728 0 
L 588 0 
L 588 4666 
z
" transform="scale(0.015625)"/>
      <path id="DejaVuSans-Bold-44" d="M 1791 3756 
L 1791 909 
L 2222 909 
Q 2959 909 3348 1275 
Q 3738 1641 3738 2338 
Q 3738 3031 3350 3393 
Q 2963 3756 2222 3756 
L 1791 3756 
z
M 588 4666 
L 1856 4666 
Q 2919 4666 3439 4514 
Q 3959 4363 4331 4000 
Q 4659 3684 4818 3271 
Q 4978 2859 4978 2338 
Q 4978 1809 4818 1395 
Q 4659 981 4331 666 
Q 3956 303 3431 151 
Q 2906 0 1856 0 
L 588 0 
L 588 4666 
z
" transform="scale(0.015625)"/>
      <path id="DejaVuSans-Bold-75" d="M 500 1363 
L 500 3500 
L 1625 3500 
L 1625 3150 
Q 1625 2866 1622 2436 
Q 1619 2006 1619 1863 
Q 1619 1441 1641 1255 
Q 1663 1069 1716 984 
Q 1784 875 1895 815 
Q 2006 756 2150 756 
Q 2500 756 2700 1025 
Q 2900 1294 2900 1772 
L 2900 3500 
L 4019 3500 
L 4019 0 
L 2900 0 
L 2900 506 
Q 2647 200 2364 54 
Q 2081 -91 1741 -91 
Q 1134 -91 817 281 
Q 500 653 500 1363 
z
" transform="scale(0.015625)"/>
     </defs>
     <use xlink:href="#DejaVuSans-Bold-4e"/>
     <use xlink:href="#DejaVuSans-Bold-6f" transform="translate(83.691406 0)"/>
     <use xlink:href="#DejaVuSans-Bold-20" transform="translate(152.392578 0)"/>
     <use xlink:href="#DejaVuSans-Bold-45" transform="translate(187.207031 0)"/>
     <use xlink:href="#DejaVuSans-Bold-78" transform="translate(255.517578 0)"/>
     <use xlink:href="#DejaVuSans-Bold-69" transform="translate(320.019531 0)"/>
     <use xlink:href="#DejaVuSans-Bold-73" transform="translate(354.296875 0)"/>
     <use xlink:href="#DejaVuSans-Bold-74" transform="translate(413.818359 0)"/>
     <use xlink:href="#DejaVuSans-Bold-69" transform="translate(461.621094 0)"/>
     <use xlink:href="#DejaVuSans-Bold-6e" transform="translate(495.898438 0)"/>
     <use xlink:href="#DejaVuSans-Bold-67" transform="translate(567.089844 0)"/>
     <use xlink:href="#DejaVuSans-Bold-20" transform="translate(638.671875 0)"/>
     <use xlink:href="#DejaVuSans-Bold-44" transform="translate(673.486328 0)"/>
     <use xlink:href="#DejaVuSans-Bold-72" transform="translate(756.494141 0)"/>
     <use xlink:href="#DejaVuSans-Bold-75" transform="translate(805.810547 0)"/>
     <use xlink:href="#DejaVuSans-Bold-67" transform="translate(877.001953 0)"/>
    </g>
    <!-- (Novel targets) -->
    <g style="fill: #7570b3" transform="translate(240.221016 560.354494) scale(0.105 -0.105)">
     <defs>
      <path id="DejaVuSans-Bold-76" d="M 97 3500 
L 1216 3500 
L 2088 1081 
L 2956 3500 
L 4078 3500 
L 2700 0 
L 1472 0 
L 97 3500 
z
" transform="scale(0.015625)"/>
     </defs>
     <use xlink:href="#DejaVuSans-Bold-28"/>
     <use xlink:href="#DejaVuSans-Bold-4e" transform="translate(45.703125 0)"/>
     <use xlink:href="#DejaVuSans-Bold-6f" transform="translate(129.394531 0)"/>
     <use xlink:href="#DejaVuSans-Bold-76" transform="translate(198.095703 0)"/>
     <use xlink:href="#DejaVuSans-Bold-65" transform="translate(263.28125 0)"/>
     <use xlink:href="#DejaVuSans-Bold-6c" transform="translate(331.103516 0)"/>
     <use xlink:href="#DejaVuSans-Bold-20" transform="translate(365.380859 0)"/>
     <use xlink:href="#DejaVuSans-Bold-74" transform="translate(400.195312 0)"/>
     <use xlink:href="#DejaVuSans-Bold-61" transform="translate(447.998047 0)"/>
     <use xlink:href="#DejaVuSans-Bold-72" transform="translate(515.478516 0)"/>
     <use xlink:href="#DejaVuSans-Bold-67" transform="translate(564.794922 0)"/>
     <use xlink:href="#DejaVuSans-Bold-65" transform="translate(636.376953 0)"/>
     <use xlink:href="#DejaVuSans-Bold-74" transform="translate(704.199219 0)"/>
     <use xlink:href="#DejaVuSans-Bold-73" transform="translate(752.001953 0)"/>
     <use xlink:href="#DejaVuSans-Bold-29" transform="translate(811.523438 0)"/>
    </g>
    <!-- n = 58 -->
    <g style="fill: #7570b3" transform="translate(266.127305 572.194228) scale(0.105 -0.105)">
     <defs>
      <path id="DejaVuSans-Bold-35" d="M 678 4666 
L 3669 4666 
L 3669 3781 
L 1638 3781 
L 1638 3059 
Q 1775 3097 1914 3117 
Q 2053 3138 2203 3138 
Q 3056 3138 3531 2711 
Q 4006 2284 4006 1522 
Q 4006 766 3489 337 
Q 2972 -91 2053 -91 
Q 1656 -91 1267 -14 
Q 878 63 494 219 
L 494 1166 
Q 875 947 1217 837 
Q 1559 728 1863 728 
Q 2300 728 2551 942 
Q 2803 1156 2803 1522 
Q 2803 1891 2551 2103 
Q 2300 2316 1863 2316 
Q 1603 2316 1309 2248 
Q 1016 2181 678 2041 
L 678 4666 
z
" transform="scale(0.015625)"/>
     </defs>
     <use xlink:href="#DejaVuSans-Bold-6e"/>
     <use xlink:href="#DejaVuSans-Bold-20" transform="translate(71.191406 0)"/>
     <use xlink:href="#DejaVuSans-Bold-3d" transform="translate(106.005859 0)"/>
     <use xlink:href="#DejaVuSans-Bold-20" transform="translate(189.794922 0)"/>
     <use xlink:href="#DejaVuSans-Bold-35" transform="translate(224.609375 0)"/>
     <use xlink:href="#DejaVuSans-Bold-38" transform="translate(294.189453 0)"/>
    </g>
   </g>
   <g id="text_4">
    <!-- 11 -->
    <g style="fill: #1b9e77" transform="translate(112.218825 236.98725) scale(0.12 -0.12)">
     <use xlink:href="#DejaVuSans-Bold-31"/>
     <use xlink:href="#DejaVuSans-Bold-31" transform="translate(69.580078 0)"/>
    </g>
   </g>
   <g id="text_5">
    <!-- 1 -->
    <g style="fill: #d95f02" transform="translate(445.707112 236.98725) scale(0.12 -0.12)">
     <use xlink:href="#DejaVuSans-Bold-31"/>
    </g>
   </g>
   <g id="text_6">
    <!-- 23 -->
    <g style="fill: #7570b3" transform="translate(276.875625 471.49845) scale(0.12 -0.12)">
     <defs>
      <path id="DejaVuSans-Bold-32" d="M 1844 884 
L 3897 884 
L 3897 0 
L 506 0 
L 506 884 
L 2209 2388 
Q 2438 2594 2547 2791 
Q 2656 2988 2656 3200 
Q 2656 3528 2436 3728 
Q 2216 3928 1850 3928 
Q 1569 3928 1234 3808 
Q 900 3688 519 3450 
L 519 4475 
Q 925 4609 1322 4679 
Q 1719 4750 2100 4750 
Q 2938 4750 3402 4381 
Q 3866 4013 3866 3353 
Q 3866 2972 3669 2642 
Q 3472 2313 2841 1759 
L 1844 884 
z
" transform="scale(0.015625)"/>
      <path id="DejaVuSans-Bold-33" d="M 2981 2516 
Q 3453 2394 3698 2092 
Q 3944 1791 3944 1325 
Q 3944 631 3412 270 
Q 2881 -91 1863 -91 
Q 1503 -91 1142 -33 
Q 781 25 428 141 
L 428 1069 
Q 766 900 1098 814 
Q 1431 728 1753 728 
Q 2231 728 2486 893 
Q 2741 1059 2741 1369 
Q 2741 1688 2480 1852 
Q 2219 2016 1709 2016 
L 1228 2016 
L 1228 2791 
L 1734 2791 
Q 2188 2791 2409 2933 
Q 2631 3075 2631 3366 
Q 2631 3634 2415 3781 
Q 2200 3928 1806 3928 
Q 1516 3928 1219 3862 
Q 922 3797 628 3669 
L 628 4550 
Q 984 4650 1334 4700 
Q 1684 4750 2022 4750 
Q 2931 4750 3382 4451 
Q 3834 4153 3834 3553 
Q 3834 3144 3618 2883 
Q 3403 2622 2981 2516 
z
" transform="scale(0.015625)"/>
     </defs>
     <use xlink:href="#DejaVuSans-Bold-32"/>
     <use xlink:href="#DejaVuSans-Bold-33" transform="translate(69.580078 0)"/>
    </g>
   </g>
   <g id="text_7">
    <!-- 3 -->
    <g style="fill: #444444" transform="translate(281.050313 222.01845) scale(0.12 -0.12)">
     <use xlink:href="#DejaVuSans-Bold-33"/>
    </g>
   </g>
   <g id="text_8">
    <!-- 29 -->
    <g style="fill: #444444" transform="translate(177.083625 346.75845) scale(0.12 -0.12)">
     <defs>
      <path id="DejaVuSans-Bold-39" d="M 641 103 
L 641 966 
Q 928 831 1190 764 
Q 1453 697 1709 697 
Q 2247 697 2547 995 
Q 2847 1294 2900 1881 
Q 2688 1725 2447 1647 
Q 2206 1569 1925 1569 
Q 1209 1569 770 1986 
Q 331 2403 331 3084 
Q 331 3838 820 4291 
Q 1309 4744 2131 4744 
Q 3044 4744 3544 4128 
Q 4044 3513 4044 2388 
Q 4044 1231 3459 570 
Q 2875 -91 1856 -91 
Q 1528 -91 1228 -42 
Q 928 6 641 103 
z
M 2125 2350 
Q 2441 2350 2600 2554 
Q 2759 2759 2759 3169 
Q 2759 3575 2600 3781 
Q 2441 3988 2125 3988 
Q 1809 3988 1650 3781 
Q 1491 3575 1491 3169 
Q 1491 2759 1650 2554 
Q 1809 2350 2125 2350 
z
" transform="scale(0.015625)"/>
     </defs>
     <use xlink:href="#DejaVuSans-Bold-32"/>
     <use xlink:href="#DejaVuSans-Bold-39" transform="translate(69.580078 0)"/>
    </g>
   </g>
   <g id="text_9">
    <!-- 1 -->
    <g style="fill: #444444" transform="translate(380.842313 346.75845) scale(0.12 -0.12)">
     <use xlink:href="#DejaVuSans-Bold-31"/>
    </g>
   </g>
   <g id="text_10">
    <path d="M 280.385938 274.5095 
L 289.732813 274.5095 
L 289.732813 277.275125 
L 283.385938 277.275125 
L 283.385938 279.531375 
Q 283.814063 279.412625 284.248438 279.350125 
Q 284.682813 279.2845 285.151563 279.2845 
Q 287.817188 279.2845 289.301563 280.618875 
Q 290.785938 281.95325 290.785938 284.3345 
Q 290.785938 286.697 289.170313 288.037625 
Q 287.554688 289.375125 284.682813 289.375125 
Q 283.442188 289.375125 282.226563 289.1345 
Q 281.010938 288.893875 279.810938 288.406375 
L 279.810938 285.447 
Q 281.001563 286.131375 282.070313 286.475125 
Q 283.139063 286.81575 284.089063 286.81575 
Q 285.454688 286.81575 286.239063 286.147 
Q 287.026563 285.47825 287.026563 284.3345 
Q 287.026563 283.181375 286.239063 282.518875 
Q 285.454688 281.85325 284.089063 281.85325 
Q 283.276563 281.85325 282.357813 282.06575 
Q 281.442188 282.275125 280.385938 282.712625 
L 280.385938 274.5095 
z
" style="fill: #b2182b; stroke: #ffffff; stroke-width: 3"/>
    <path d="M 280.385938 274.5095 
L 289.732813 274.5095 
L 289.732813 277.275125 
L 283.385938 277.275125 
L 283.385938 279.531375 
Q 283.814063 279.412625 284.248438 279.350125 
Q 284.682813 279.2845 285.151563 279.2845 
Q 287.817188 279.2845 289.301563 280.618875 
Q 290.785938 281.95325 290.785938 284.3345 
Q 290.785938 286.697 289.170313 288.037625 
Q 287.554688 289.375125 284.682813 289.375125 
Q 283.442188 289.375125 282.226563 289.1345 
Q 281.010938 288.893875 279.810938 288.406375 
L 279.810938 285.447 
Q 281.001563 286.131375 282.070313 286.475125 
Q 283.139063 286.81575 284.089063 286.81575 
Q 285.454688 286.81575 286.239063 286.147 
Q 287.026563 285.47825 287.026563 284.3345 
Q 287.026563 283.181375 286.239063 282.518875 
Q 285.454688 281.85325 284.089063 281.85325 
Q 283.276563 281.85325 282.357813 282.06575 
Q 281.442188 282.275125 280.385938 282.712625 
L 280.385938 274.5095 
z
" style="fill: #b2182b"/>
   </g>
   <g id="text_11">
    <path d="M 272.870625 311.26105 
L 274.886875 311.26105 
Q 275.706875 311.26105 276.113125 311.56605 
Q 276.519375 311.87105 276.519375 312.48355 
Q 276.519375 313.04605 276.169375 313.4548 
Q 275.820625 313.86355 275.254375 313.94855 
Q 275.738125 314.05855 275.980625 314.3673 
Q 276.223125 314.67605 276.223125 315.19105 
Q 276.223125 316.0698 275.571875 316.5823 
Q 274.921875 317.09355 273.793125 317.09355 
L 271.734375 317.09355 
L 272.870625 311.26105 
z
M 273.061875 314.30855 
L 272.648125 316.4448 
L 273.918125 316.4448 
Q 274.633125 316.4448 275.019375 316.1173 
Q 275.405625 315.78855 275.405625 315.19105 
Q 275.405625 314.7298 275.149375 314.5198 
Q 274.894375 314.30855 274.328125 314.30855 
L 273.061875 314.30855 
z
M 273.526875 311.9098 
L 273.183125 313.6673 
L 274.359375 313.6673 
Q 274.988125 313.6673 275.341875 313.3948 
Q 275.695625 313.12105 275.695625 312.63605 
Q 275.695625 312.2573 275.456875 312.08355 
Q 275.218125 311.9098 274.695625 311.9098 
L 273.526875 311.9098 
z
M 278.246406 311.26105 
L 279.038906 311.26105 
L 278.351406 314.8048 
Q 278.308906 315.0423 278.291406 315.1973 
Q 278.273906 315.35105 278.273906 315.46855 
Q 278.273906 316.0073 278.573906 316.2873 
Q 278.875156 316.56605 279.456406 316.56605 
Q 280.211406 316.56605 280.630156 316.1523 
Q 281.050156 315.73855 281.230156 314.8048 
L 281.917656 311.26105 
L 282.711406 311.26105 
L 282.007656 314.9023 
Q 281.777656 316.0823 281.132656 316.6448 
Q 280.487656 317.2073 279.367656 317.2073 
Q 278.492656 317.2073 277.982656 316.7673 
Q 277.472656 316.3273 277.472656 315.57355 
Q 277.472656 315.4373 277.491406 315.2673 
Q 277.511406 315.0973 277.550156 314.9023 
L 278.246406 311.26105 
z
M 284.214375 311.26105 
L 286.230625 311.26105 
Q 287.050625 311.26105 287.456875 311.56605 
Q 287.863125 311.87105 287.863125 312.48355 
Q 287.863125 313.04605 287.513125 313.4548 
Q 287.164375 313.86355 286.598125 313.94855 
Q 287.081875 314.05855 287.324375 314.3673 
Q 287.566875 314.67605 287.566875 315.19105 
Q 287.566875 316.0698 286.915625 316.5823 
Q 286.265625 317.09355 285.136875 317.09355 
L 283.078125 317.09355 
L 284.214375 311.26105 
z
M 284.405625 314.30855 
L 283.991875 316.4448 
L 285.261875 316.4448 
Q 285.976875 316.4448 286.363125 316.1173 
Q 286.749375 315.78855 286.749375 315.19105 
Q 286.749375 314.7298 286.493125 314.5198 
Q 286.238125 314.30855 285.671875 314.30855 
L 284.405625 314.30855 
z
M 284.870625 311.9098 
L 284.526875 313.6673 
L 285.703125 313.6673 
Q 286.331875 313.6673 286.685625 313.3948 
Q 287.039375 313.12105 287.039375 312.63605 
Q 287.039375 312.2573 286.800625 312.08355 
Q 286.561875 311.9098 286.039375 311.9098 
L 284.870625 311.9098 
z
M 288.871406 316.4298 
L 290.160156 316.4298 
L 291.031406 311.94105 
L 289.573906 312.2223 
L 289.711406 311.5423 
L 291.160156 311.26105 
L 291.952656 311.26105 
L 290.945156 316.4298 
L 292.230156 316.4298 
L 292.105156 317.09355 
L 288.742656 317.09355 
L 288.871406 316.4298 
z
M 294.7925 311.26105 
L 296.80875 311.26105 
Q 297.62875 311.26105 298.035 311.56605 
Q 298.44125 311.87105 298.44125 312.48355 
Q 298.44125 313.04605 298.09125 313.4548 
Q 297.7425 313.86355 297.17625 313.94855 
Q 297.66 314.05855 297.9025 314.3673 
Q 298.145 314.67605 298.145 315.19105 
Q 298.145 316.0698 297.49375 316.5823 
Q 296.84375 317.09355 295.715 317.09355 
L 293.65625 317.09355 
L 294.7925 311.26105 
z
M 294.98375 314.30855 
L 294.57 316.4448 
L 295.84 316.4448 
Q 296.555 316.4448 296.94125 316.1173 
Q 297.3275 315.78855 297.3275 315.19105 
Q 297.3275 314.7298 297.07125 314.5198 
Q 296.81625 314.30855 296.25 314.30855 
L 294.98375 314.30855 
z
M 295.44875 311.9098 
L 295.105 313.6673 
L 296.28125 313.6673 
Q 296.91 313.6673 297.26375 313.3948 
Q 297.6175 313.12105 297.6175 312.63605 
Q 297.6175 312.2573 297.37875 312.08355 
Q 297.14 311.9098 296.6175 311.9098 
L 295.44875 311.9098 
z
" style="fill: #b2182b; stroke: #ffffff; stroke-width: 2"/>
    <path d="M 272.870625 311.26105 
L 274.886875 311.26105 
Q 275.706875 311.26105 276.113125 311.56605 
Q 276.519375 311.87105 276.519375 312.48355 
Q 276.519375 313.04605 276.169375 313.4548 
Q 275.820625 313.86355 275.254375 313.94855 
Q 275.738125 314.05855 275.980625 314.3673 
Q 276.223125 314.67605 276.223125 315.19105 
Q 276.223125 316.0698 275.571875 316.5823 
Q 274.921875 317.09355 273.793125 317.09355 
L 271.734375 317.09355 
L 272.870625 311.26105 
z
M 273.061875 314.30855 
L 272.648125 316.4448 
L 273.918125 316.4448 
Q 274.633125 316.4448 275.019375 316.1173 
Q 275.405625 315.78855 275.405625 315.19105 
Q 275.405625 314.7298 275.149375 314.5198 
Q 274.894375 314.30855 274.328125 314.30855 
L 273.061875 314.30855 
z
M 273.526875 311.9098 
L 273.183125 313.6673 
L 274.359375 313.6673 
Q 274.988125 313.6673 275.341875 313.3948 
Q 275.695625 313.12105 275.695625 312.63605 
Q 275.695625 312.2573 275.456875 312.08355 
Q 275.218125 311.9098 274.695625 311.9098 
L 273.526875 311.9098 
z
M 278.246406 311.26105 
L 279.038906 311.26105 
L 278.351406 314.8048 
Q 278.308906 315.0423 278.291406 315.1973 
Q 278.273906 315.35105 278.273906 315.46855 
Q 278.273906 316.0073 278.573906 316.2873 
Q 278.875156 316.56605 279.456406 316.56605 
Q 280.211406 316.56605 280.630156 316.1523 
Q 281.050156 315.73855 281.230156 314.8048 
L 281.917656 311.26105 
L 282.711406 311.26105 
L 282.007656 314.9023 
Q 281.777656 316.0823 281.132656 316.6448 
Q 280.487656 317.2073 279.367656 317.2073 
Q 278.492656 317.2073 277.982656 316.7673 
Q 277.472656 316.3273 277.472656 315.57355 
Q 277.472656 315.4373 277.491406 315.2673 
Q 277.511406 315.0973 277.550156 314.9023 
L 278.246406 311.26105 
z
M 284.214375 311.26105 
L 286.230625 311.26105 
Q 287.050625 311.26105 287.456875 311.56605 
Q 287.863125 311.87105 287.863125 312.48355 
Q 287.863125 313.04605 287.513125 313.4548 
Q 287.164375 313.86355 286.598125 313.94855 
Q 287.081875 314.05855 287.324375 314.3673 
Q 287.566875 314.67605 287.566875 315.19105 
Q 287.566875 316.0698 286.915625 316.5823 
Q 286.265625 317.09355 285.136875 317.09355 
L 283.078125 317.09355 
L 284.214375 311.26105 
z
M 284.405625 314.30855 
L 283.991875 316.4448 
L 285.261875 316.4448 
Q 285.976875 316.4448 286.363125 316.1173 
Q 286.749375 315.78855 286.749375 315.19105 
Q 286.749375 314.7298 286.493125 314.5198 
Q 286.238125 314.30855 285.671875 314.30855 
L 284.405625 314.30855 
z
M 284.870625 311.9098 
L 284.526875 313.6673 
L 285.703125 313.6673 
Q 286.331875 313.6673 286.685625 313.3948 
Q 287.039375 313.12105 287.039375 312.63605 
Q 287.039375 312.2573 286.800625 312.08355 
Q 286.561875 311.9098 286.039375 311.9098 
L 284.870625 311.9098 
z
M 288.871406 316.4298 
L 290.160156 316.4298 
L 291.031406 311.94105 
L 289.573906 312.2223 
L 289.711406 311.5423 
L 291.160156 311.26105 
L 291.952656 311.26105 
L 290.945156 316.4298 
L 292.230156 316.4298 
L 292.105156 317.09355 
L 288.742656 317.09355 
L 288.871406 316.4298 
z
M 294.7925 311.26105 
L 296.80875 311.26105 
Q 297.62875 311.26105 298.035 311.56605 
Q 298.44125 311.87105 298.44125 312.48355 
Q 298.44125 313.04605 298.09125 313.4548 
Q 297.7425 313.86355 297.17625 313.94855 
Q 297.66 314.05855 297.9025 314.3673 
Q 298.145 314.67605 298.145 315.19105 
Q 298.145 316.0698 297.49375 316.5823 
Q 296.84375 317.09355 295.715 317.09355 
L 293.65625 317.09355 
L 294.7925 311.26105 
z
M 294.98375 314.30855 
L 294.57 316.4448 
L 295.84 316.4448 
Q 296.555 316.4448 296.94125 316.1173 
Q 297.3275 315.78855 297.3275 315.19105 
Q 297.3275 314.7298 297.07125 314.5198 
Q 296.81625 314.30855 296.25 314.30855 
L 294.98375 314.30855 
z
M 295.44875 311.9098 
L 295.105 313.6673 
L 296.28125 313.6673 
Q 296.91 313.6673 297.26375 313.3948 
Q 297.6175 313.12105 297.6175 312.63605 
Q 297.6175 312.2573 297.37875 312.08355 
Q 297.14 311.9098 296.6175 311.9098 
L 295.44875 311.9098 
z
" style="fill: #b2182b"/>
    <path d="M 277.0275 320.6693 
L 276.8675 321.50055 
Q 276.4925 321.1218 276.0725 320.93805 
Q 275.6525 320.7543 275.16375 320.7543 
Q 274.49625 320.7543 273.99 321.07555 
Q 273.485 321.39555 273.1175 322.0518 
Q 272.8825 322.47305 272.75875 322.9443 
Q 272.63625 323.41555 272.63625 323.8918 
Q 272.63625 324.68805 273.04875 325.1068 
Q 273.46125 325.5243 274.24625 325.5243 
Q 274.78875 325.5243 275.28875 325.35055 
Q 275.78875 325.1768 276.26125 324.8293 
L 276.07875 325.76305 
Q 275.61375 325.9618 275.13875 326.06305 
Q 274.66375 326.16555 274.1875 326.16555 
Q 273.06625 326.16555 272.435 325.5568 
Q 271.805 324.9468 271.805 323.86055 
Q 271.805 323.16555 272.045 322.4943 
Q 272.285 321.8218 272.735 321.2668 
Q 273.21125 320.6768 273.8225 320.39555 
Q 274.43375 320.1143 275.24625 320.1143 
Q 275.74625 320.1143 276.19375 320.25305 
Q 276.64125 320.3918 277.0275 320.6693 
z
M 278.405937 320.2193 
L 280.102188 320.2193 
Q 281.453438 320.2193 282.142187 320.7918 
Q 282.832187 321.3643 282.832187 322.49305 
Q 282.832187 323.2393 282.569687 323.9293 
Q 282.308438 324.61805 281.847188 325.09055 
Q 281.383438 325.57555 280.668437 325.8143 
Q 279.953438 326.0518 278.977188 326.0518 
L 277.269687 326.0518 
L 278.405937 320.2193 
z
M 279.070938 320.86805 
L 278.190938 325.40305 
L 279.222188 325.40305 
Q 280.547188 325.40305 281.273438 324.6418 
Q 281.999687 323.8793 281.999687 322.49305 
Q 281.999687 321.65305 281.530937 321.26055 
Q 281.062187 320.86805 280.062187 320.86805 
L 279.070938 320.86805 
z
M 288.773594 320.6693 
L 288.613594 321.50055 
Q 288.238594 321.1218 287.818594 320.93805 
Q 287.398594 320.7543 286.909844 320.7543 
Q 286.242344 320.7543 285.736094 321.07555 
Q 285.231094 321.39555 284.863594 322.0518 
Q 284.628594 322.47305 284.504844 322.9443 
Q 284.382344 323.41555 284.382344 323.8918 
Q 284.382344 324.68805 284.794844 325.1068 
Q 285.207344 325.5243 285.992344 325.5243 
Q 286.534844 325.5243 287.034844 325.35055 
Q 287.534844 325.1768 288.007344 324.8293 
L 287.824844 325.76305 
Q 287.359844 325.9618 286.884844 326.06305 
Q 286.409844 326.16555 285.933594 326.16555 
Q 284.812344 326.16555 284.181094 325.5568 
Q 283.551094 324.9468 283.551094 323.86055 
Q 283.551094 323.16555 283.791094 322.4943 
Q 284.031094 321.8218 284.481094 321.2668 
Q 284.957344 320.6768 285.568594 320.39555 
Q 286.179844 320.1143 286.992344 320.1143 
Q 287.492344 320.1143 287.939844 320.25305 
Q 288.387344 320.3918 288.773594 320.6693 
z
M 292.242031 320.2193 
L 293.234531 320.2193 
L 292.488281 324.02055 
L 293.320781 324.02055 
L 293.192031 324.6768 
L 292.359531 324.6768 
L 292.098281 326.0518 
L 291.312031 326.0518 
L 291.578281 324.6768 
L 288.945781 324.6768 
L 289.098281 323.91555 
L 292.242031 320.2193 
z
M 292.312031 320.9068 
L 289.710781 324.02055 
L 291.703281 324.02055 
L 292.312031 320.9068 
z
M 298.539375 320.2193 
L 298.418125 320.87555 
L 296.004375 320.87555 
L 295.723125 322.3168 
Q 295.901875 322.2593 296.086875 322.2318 
Q 296.273125 322.2043 296.464375 322.2043 
Q 297.273125 322.2043 297.741875 322.63805 
Q 298.210625 323.0718 298.210625 323.81305 
Q 298.210625 324.33305 297.970625 324.8093 
Q 297.730625 325.28555 297.289375 325.64555 
Q 296.976875 325.89555 296.525625 326.03055 
Q 296.074375 326.16555 295.539375 326.16555 
Q 295.188125 326.16555 294.820625 326.10305 
Q 294.453125 326.04055 294.050625 325.91555 
L 294.195625 325.18055 
Q 294.554375 325.3568 294.915625 325.4443 
Q 295.276875 325.5318 295.644375 325.5318 
Q 296.406875 325.5318 296.904375 325.07555 
Q 297.401875 324.61805 297.401875 323.93055 
Q 297.401875 323.42305 297.075625 323.1418 
Q 296.750625 322.86055 296.164375 322.86055 
Q 295.855625 322.86055 295.521875 322.93305 
Q 295.188125 323.0043 294.835625 323.1493 
L 295.401875 320.2193 
L 298.539375 320.2193 
z
" style="fill: #b2182b; stroke: #ffffff; stroke-width: 2"/>
    <path d="M 277.0275 320.6693 
L 276.8675 321.50055 
Q 276.4925 321.1218 276.0725 320.93805 
Q 275.6525 320.7543 275.16375 320.7543 
Q 274.49625 320.7543 273.99 321.07555 
Q 273.485 321.39555 273.1175 322.0518 
Q 272.8825 322.47305 272.75875 322.9443 
Q 272.63625 323.41555 272.63625 323.8918 
Q 272.63625 324.68805 273.04875 325.1068 
Q 273.46125 325.5243 274.24625 325.5243 
Q 274.78875 325.5243 275.28875 325.35055 
Q 275.78875 325.1768 276.26125 324.8293 
L 276.07875 325.76305 
Q 275.61375 325.9618 275.13875 326.06305 
Q 274.66375 326.16555 274.1875 326.16555 
Q 273.06625 326.16555 272.435 325.5568 
Q 271.805 324.9468 271.805 323.86055 
Q 271.805 323.16555 272.045 322.4943 
Q 272.285 321.8218 272.735 321.2668 
Q 273.21125 320.6768 273.8225 320.39555 
Q 274.43375 320.1143 275.24625 320.1143 
Q 275.74625 320.1143 276.19375 320.25305 
Q 276.64125 320.3918 277.0275 320.6693 
z
M 278.405937 320.2193 
L 280.102188 320.2193 
Q 281.453438 320.2193 282.142187 320.7918 
Q 282.832187 321.3643 282.832187 322.49305 
Q 282.832187 323.2393 282.569687 323.9293 
Q 282.308438 324.61805 281.847188 325.09055 
Q 281.383438 325.57555 280.668437 325.8143 
Q 279.953438 326.0518 278.977188 326.0518 
L 277.269687 326.0518 
L 278.405937 320.2193 
z
M 279.070938 320.86805 
L 278.190938 325.40305 
L 279.222188 325.40305 
Q 280.547188 325.40305 281.273438 324.6418 
Q 281.999687 323.8793 281.999687 322.49305 
Q 281.999687 321.65305 281.530937 321.26055 
Q 281.062187 320.86805 280.062187 320.86805 
L 279.070938 320.86805 
z
M 288.773594 320.6693 
L 288.613594 321.50055 
Q 288.238594 321.1218 287.818594 320.93805 
Q 287.398594 320.7543 286.909844 320.7543 
Q 286.242344 320.7543 285.736094 321.07555 
Q 285.231094 321.39555 284.863594 322.0518 
Q 284.628594 322.47305 284.504844 322.9443 
Q 284.382344 323.41555 284.382344 323.8918 
Q 284.382344 324.68805 284.794844 325.1068 
Q 285.207344 325.5243 285.992344 325.5243 
Q 286.534844 325.5243 287.034844 325.35055 
Q 287.534844 325.1768 288.007344 324.8293 
L 287.824844 325.76305 
Q 287.359844 325.9618 286.884844 326.06305 
Q 286.409844 326.16555 285.933594 326.16555 
Q 284.812344 326.16555 284.181094 325.5568 
Q 283.551094 324.9468 283.551094 323.86055 
Q 283.551094 323.16555 283.791094 322.4943 
Q 284.031094 321.8218 284.481094 321.2668 
Q 284.957344 320.6768 285.568594 320.39555 
Q 286.179844 320.1143 286.992344 320.1143 
Q 287.492344 320.1143 287.939844 320.25305 
Q 288.387344 320.3918 288.773594 320.6693 
z
M 292.242031 320.2193 
L 293.234531 320.2193 
L 292.488281 324.02055 
L 293.320781 324.02055 
L 293.192031 324.6768 
L 292.359531 324.6768 
L 292.098281 326.0518 
L 291.312031 326.0518 
L 291.578281 324.6768 
L 288.945781 324.6768 
L 289.098281 323.91555 
L 292.242031 320.2193 
z
M 292.312031 320.9068 
L 289.710781 324.02055 
L 291.703281 324.02055 
L 292.312031 320.9068 
z
M 298.539375 320.2193 
L 298.418125 320.87555 
L 296.004375 320.87555 
L 295.723125 322.3168 
Q 295.901875 322.2593 296.086875 322.2318 
Q 296.273125 322.2043 296.464375 322.2043 
Q 297.273125 322.2043 297.741875 322.63805 
Q 298.210625 323.0718 298.210625 323.81305 
Q 298.210625 324.33305 297.970625 324.8093 
Q 297.730625 325.28555 297.289375 325.64555 
Q 296.976875 325.89555 296.525625 326.03055 
Q 296.074375 326.16555 295.539375 326.16555 
Q 295.188125 326.16555 294.820625 326.10305 
Q 294.453125 326.04055 294.050625 325.91555 
L 294.195625 325.18055 
Q 294.554375 325.3568 294.915625 325.4443 
Q 295.276875 325.5318 295.644375 325.5318 
Q 296.406875 325.5318 296.904375 325.07555 
Q 297.401875 324.61805 297.401875 323.93055 
Q 297.401875 323.42305 297.075625 323.1418 
Q 296.750625 322.86055 296.164375 322.86055 
Q 295.855625 322.86055 295.521875 322.93305 
Q 295.188125 323.0043 294.835625 323.1493 
L 295.401875 320.2193 
L 298.539375 320.2193 
z
" style="fill: #b2182b"/>
    <path d="M 277.06625 329.62755 
L 276.90625 330.4588 
Q 276.53125 330.08005 276.11125 329.8963 
Q 275.69125 329.71255 275.2025 329.71255 
Q 274.535 329.71255 274.02875 330.0338 
Q 273.52375 330.3538 273.15625 331.01005 
Q 272.92125 331.4313 272.7975 331.90255 
Q 272.675 332.3738 272.675 332.85005 
Q 272.675 333.6463 273.0875 334.06505 
Q 273.5 334.48255 274.285 334.48255 
Q 274.8275 334.48255 275.3275 334.3088 
Q 275.8275 334.13505 276.3 333.78755 
L 276.1175 334.7213 
Q 275.6525 334.92005 275.1775 335.0213 
Q 274.7025 335.1238 274.22625 335.1238 
Q 273.105 335.1238 272.47375 334.51505 
Q 271.84375 333.90505 271.84375 332.8188 
Q 271.84375 332.1238 272.08375 331.45255 
Q 272.32375 330.78005 272.77375 330.22505 
Q 273.25 329.63505 273.86125 329.3538 
Q 274.4725 329.07255 275.285 329.07255 
Q 275.785 329.07255 276.2325 329.2113 
Q 276.68 329.35005 277.06625 329.62755 
z
M 278.444688 329.17755 
L 282.132188 329.17755 
L 282.003438 329.84255 
L 279.100938 329.84255 
L 278.765938 331.5688 
L 281.550938 331.5688 
L 281.422188 332.23255 
L 278.635938 332.23255 
L 278.229688 334.3463 
L 281.198438 334.3463 
L 281.069688 335.01005 
L 277.308438 335.01005 
L 278.444688 329.17755 
z
M 283.499375 329.17755 
L 284.561875 329.17755 
L 286.171875 334.17755 
L 287.148125 329.17755 
L 287.918125 329.17755 
L 286.780625 335.01005 
L 285.714375 335.01005 
L 284.109375 329.9788 
L 283.133125 335.01005 
L 282.363125 335.01005 
L 283.499375 329.17755 
z
M 289.48375 329.17755 
L 291.30875 329.17755 
Q 292.105 329.17755 292.5225 329.5488 
Q 292.94125 329.92005 292.94125 330.63505 
Q 292.94125 331.5963 292.32375 332.1313 
Q 291.70625 332.6663 290.59 332.6663 
L 289.5975 332.6663 
L 289.14 335.01005 
L 288.3475 335.01005 
L 289.48375 329.17755 
z
M 290.14875 329.8263 
L 289.72625 332.01755 
L 290.71875 332.01755 
Q 291.39 332.01755 291.74875 331.6738 
Q 292.10875 331.33005 292.10875 330.69005 
Q 292.10875 330.28005 291.865 330.0538 
Q 291.62125 329.8263 291.18 329.8263 
L 290.14875 329.8263 
z
M 294.307969 329.17755 
L 295.370469 329.17755 
L 296.980469 334.17755 
L 297.956719 329.17755 
L 298.726719 329.17755 
L 297.589219 335.01005 
L 296.522969 335.01005 
L 294.917969 329.9788 
L 293.941719 335.01005 
L 293.171719 335.01005 
L 294.307969 329.17755 
z
" style="fill: #b2182b; stroke: #ffffff; stroke-width: 2"/>
    <path d="M 277.06625 329.62755 
L 276.90625 330.4588 
Q 276.53125 330.08005 276.11125 329.8963 
Q 275.69125 329.71255 275.2025 329.71255 
Q 274.535 329.71255 274.02875 330.0338 
Q 273.52375 330.3538 273.15625 331.01005 
Q 272.92125 331.4313 272.7975 331.90255 
Q 272.675 332.3738 272.675 332.85005 
Q 272.675 333.6463 273.0875 334.06505 
Q 273.5 334.48255 274.285 334.48255 
Q 274.8275 334.48255 275.3275 334.3088 
Q 275.8275 334.13505 276.3 333.78755 
L 276.1175 334.7213 
Q 275.6525 334.92005 275.1775 335.0213 
Q 274.7025 335.1238 274.22625 335.1238 
Q 273.105 335.1238 272.47375 334.51505 
Q 271.84375 333.90505 271.84375 332.8188 
Q 271.84375 332.1238 272.08375 331.45255 
Q 272.32375 330.78005 272.77375 330.22505 
Q 273.25 329.63505 273.86125 329.3538 
Q 274.4725 329.07255 275.285 329.07255 
Q 275.785 329.07255 276.2325 329.2113 
Q 276.68 329.35005 277.06625 329.62755 
z
M 278.444688 329.17755 
L 282.132188 329.17755 
L 282.003438 329.84255 
L 279.100938 329.84255 
L 278.765938 331.5688 
L 281.550938 331.5688 
L 281.422188 332.23255 
L 278.635938 332.23255 
L 278.229688 334.3463 
L 281.198438 334.3463 
L 281.069688 335.01005 
L 277.308438 335.01005 
L 278.444688 329.17755 
z
M 283.499375 329.17755 
L 284.561875 329.17755 
L 286.171875 334.17755 
L 287.148125 329.17755 
L 287.918125 329.17755 
L 286.780625 335.01005 
L 285.714375 335.01005 
L 284.109375 329.9788 
L 283.133125 335.01005 
L 282.363125 335.01005 
L 283.499375 329.17755 
z
M 289.48375 329.17755 
L 291.30875 329.17755 
Q 292.105 329.17755 292.5225 329.5488 
Q 292.94125 329.92005 292.94125 330.63505 
Q 292.94125 331.5963 292.32375 332.1313 
Q 291.70625 332.6663 290.59 332.6663 
L 289.5975 332.6663 
L 289.14 335.01005 
L 288.3475 335.01005 
L 289.48375 329.17755 
z
M 290.14875 329.8263 
L 289.72625 332.01755 
L 290.71875 332.01755 
Q 291.39 332.01755 291.74875 331.6738 
Q 292.10875 331.33005 292.10875 330.69005 
Q 292.10875 330.28005 291.865 330.0538 
Q 291.62125 329.8263 291.18 329.8263 
L 290.14875 329.8263 
z
M 294.307969 329.17755 
L 295.370469 329.17755 
L 296.980469 334.17755 
L 297.956719 329.17755 
L 298.726719 329.17755 
L 297.589219 335.01005 
L 296.522969 335.01005 
L 294.917969 329.9788 
L 293.941719 335.01005 
L 293.171719 335.01005 
L 294.307969 329.17755 
z
" style="fill: #b2182b"/>
    <path d="M 273.161875 338.1358 
L 274.986875 338.1358 
Q 275.783125 338.1358 276.200625 338.50705 
Q 276.619375 338.8783 276.619375 339.5933 
Q 276.619375 340.55455 276.001875 341.08955 
Q 275.384375 341.62455 274.268125 341.62455 
L 273.275625 341.62455 
L 272.818125 343.9683 
L 272.025625 343.9683 
L 273.161875 338.1358 
z
M 273.826875 338.78455 
L 273.404375 340.9758 
L 274.396875 340.9758 
Q 275.068125 340.9758 275.426875 340.63205 
Q 275.786875 340.2883 275.786875 339.6483 
Q 275.786875 339.2383 275.543125 339.01205 
Q 275.299375 338.78455 274.858125 338.78455 
L 273.826875 338.78455 
z
M 280.283594 338.6708 
Q 279.634844 338.6708 279.138594 338.9858 
Q 278.642344 339.3008 278.276094 339.94455 
Q 278.041094 340.35455 277.917344 340.8158 
Q 277.794844 341.27705 277.794844 341.7458 
Q 277.794844 342.5583 278.183594 342.99955 
Q 278.572344 343.4408 279.283594 343.4408 
Q 279.923594 343.4408 280.424844 343.1233 
Q 280.927344 342.80455 281.283594 342.1758 
Q 281.521094 341.7533 281.646094 341.2908 
Q 281.771094 340.82705 281.771094 340.36705 
Q 281.771094 339.5583 281.379844 339.11455 
Q 280.989844 338.6708 280.283594 338.6708 
z
M 279.259844 344.08205 
Q 278.186094 344.08205 277.569844 343.4458 
Q 276.954844 342.8083 276.954844 341.70205 
Q 276.954844 341.06955 277.194844 340.40955 
Q 277.436094 339.74955 277.857344 339.2333 
Q 278.353594 338.6283 278.962344 338.32955 
Q 279.572344 338.0308 280.307344 338.0308 
Q 281.377344 338.0308 281.993594 338.66205 
Q 282.611094 339.29205 282.611094 340.38205 
Q 282.611094 341.05455 282.376094 341.7033 
Q 282.142344 342.3508 281.704844 342.8783 
Q 281.204844 343.4883 280.601094 343.7858 
Q 279.998594 344.08205 279.259844 344.08205 
z
M 284.275469 338.1358 
L 285.067969 338.1358 
L 284.067969 343.31205 
L 286.907969 343.31205 
L 286.779219 343.9683 
L 283.146719 343.9683 
L 284.275469 338.1358 
z
M 288.74 338.1358 
L 290.43625 338.1358 
Q 291.7875 338.1358 292.47625 338.7083 
Q 293.16625 339.2808 293.16625 340.40955 
Q 293.16625 341.1558 292.90375 341.8458 
Q 292.6425 342.53455 292.18125 343.00705 
Q 291.7175 343.49205 291.0025 343.7308 
Q 290.2875 343.9683 289.31125 343.9683 
L 287.60375 343.9683 
L 288.74 338.1358 
z
M 289.405 338.78455 
L 288.525 343.31955 
L 289.55625 343.31955 
Q 290.88125 343.31955 291.6075 342.5583 
Q 292.33375 341.7958 292.33375 340.40955 
Q 292.33375 339.56955 291.865 339.17705 
Q 291.39625 338.78455 290.39625 338.78455 
L 289.405 338.78455 
z
M 294.068906 343.30455 
L 295.357656 343.30455 
L 296.228906 338.8158 
L 294.771406 339.09705 
L 294.908906 338.41705 
L 296.357656 338.1358 
L 297.150156 338.1358 
L 296.142656 343.30455 
L 297.427656 343.30455 
L 297.302656 343.9683 
L 293.940156 343.9683 
L 294.068906 343.30455 
z
" style="fill: #b2182b; stroke: #ffffff; stroke-width: 2"/>
    <path d="M 273.161875 338.1358 
L 274.986875 338.1358 
Q 275.783125 338.1358 276.200625 338.50705 
Q 276.619375 338.8783 276.619375 339.5933 
Q 276.619375 340.55455 276.001875 341.08955 
Q 275.384375 341.62455 274.268125 341.62455 
L 273.275625 341.62455 
L 272.818125 343.9683 
L 272.025625 343.9683 
L 273.161875 338.1358 
z
M 273.826875 338.78455 
L 273.404375 340.9758 
L 274.396875 340.9758 
Q 275.068125 340.9758 275.426875 340.63205 
Q 275.786875 340.2883 275.786875 339.6483 
Q 275.786875 339.2383 275.543125 339.01205 
Q 275.299375 338.78455 274.858125 338.78455 
L 273.826875 338.78455 
z
M 280.283594 338.6708 
Q 279.634844 338.6708 279.138594 338.9858 
Q 278.642344 339.3008 278.276094 339.94455 
Q 278.041094 340.35455 277.917344 340.8158 
Q 277.794844 341.27705 277.794844 341.7458 
Q 277.794844 342.5583 278.183594 342.99955 
Q 278.572344 343.4408 279.283594 343.4408 
Q 279.923594 343.4408 280.424844 343.1233 
Q 280.927344 342.80455 281.283594 342.1758 
Q 281.521094 341.7533 281.646094 341.2908 
Q 281.771094 340.82705 281.771094 340.36705 
Q 281.771094 339.5583 281.379844 339.11455 
Q 280.989844 338.6708 280.283594 338.6708 
z
M 279.259844 344.08205 
Q 278.186094 344.08205 277.569844 343.4458 
Q 276.954844 342.8083 276.954844 341.70205 
Q 276.954844 341.06955 277.194844 340.40955 
Q 277.436094 339.74955 277.857344 339.2333 
Q 278.353594 338.6283 278.962344 338.32955 
Q 279.572344 338.0308 280.307344 338.0308 
Q 281.377344 338.0308 281.993594 338.66205 
Q 282.611094 339.29205 282.611094 340.38205 
Q 282.611094 341.05455 282.376094 341.7033 
Q 282.142344 342.3508 281.704844 342.8783 
Q 281.204844 343.4883 280.601094 343.7858 
Q 279.998594 344.08205 279.259844 344.08205 
z
M 284.275469 338.1358 
L 285.067969 338.1358 
L 284.067969 343.31205 
L 286.907969 343.31205 
L 286.779219 343.9683 
L 283.146719 343.9683 
L 284.275469 338.1358 
z
M 288.74 338.1358 
L 290.43625 338.1358 
Q 291.7875 338.1358 292.47625 338.7083 
Q 293.16625 339.2808 293.16625 340.40955 
Q 293.16625 341.1558 292.90375 341.8458 
Q 292.6425 342.53455 292.18125 343.00705 
Q 291.7175 343.49205 291.0025 343.7308 
Q 290.2875 343.9683 289.31125 343.9683 
L 287.60375 343.9683 
L 288.74 338.1358 
z
M 289.405 338.78455 
L 288.525 343.31955 
L 289.55625 343.31955 
Q 290.88125 343.31955 291.6075 342.5583 
Q 292.33375 341.7958 292.33375 340.40955 
Q 292.33375 339.56955 291.865 339.17705 
Q 291.39625 338.78455 290.39625 338.78455 
L 289.405 338.78455 
z
M 294.068906 343.30455 
L 295.357656 343.30455 
L 296.228906 338.8158 
L 294.771406 339.09705 
L 294.908906 338.41705 
L 296.357656 338.1358 
L 297.150156 338.1358 
L 296.142656 343.30455 
L 297.427656 343.30455 
L 297.302656 343.9683 
L 293.940156 343.9683 
L 294.068906 343.30455 
z
" style="fill: #b2182b"/>
    <path d="M 277.214375 347.2853 
L 277.063125 348.0553 
Q 276.668125 347.84405 276.279375 347.73655 
Q 275.890625 347.62905 275.526875 347.62905 
Q 274.820625 347.62905 274.401875 347.9378 
Q 273.984375 348.24655 273.984375 348.75905 
Q 273.984375 349.0403 274.138125 349.1903 
Q 274.293125 349.3403 274.933125 349.5128 
L 275.406875 349.62905 
Q 276.206875 349.83655 276.519375 350.1553 
Q 276.831875 350.4728 276.831875 351.0478 
Q 276.831875 351.9303 276.138125 352.4853 
Q 275.445625 353.0403 274.313125 353.0403 
Q 273.848125 353.0403 273.379375 352.9478 
Q 272.910625 352.85655 272.438125 352.66905 
L 272.598125 351.85655 
Q 273.031875 352.1253 273.466875 352.2628 
Q 273.901875 352.39905 274.335625 352.39905 
Q 275.074375 352.39905 275.519375 352.07155 
Q 275.964375 351.7428 275.964375 351.2153 
Q 275.964375 350.86405 275.786875 350.6828 
Q 275.609375 350.5003 275.023125 350.3528 
L 274.550625 350.23155 
Q 273.741875 350.0203 273.446875 349.7453 
Q 273.151875 349.46905 273.151875 348.9728 
Q 273.151875 348.1028 273.821875 347.54655 
Q 274.491875 346.98905 275.566875 346.98905 
Q 275.984375 346.98905 276.394375 347.06405 
Q 276.804375 347.1378 277.214375 347.2853 
z
M 278.82 347.09405 
L 280.645 347.09405 
Q 281.44125 347.09405 281.85875 347.4653 
Q 282.2775 347.83655 282.2775 348.55155 
Q 282.2775 349.5128 281.66 350.0478 
Q 281.0425 350.5828 279.92625 350.5828 
L 278.93375 350.5828 
L 278.47625 352.92655 
L 277.68375 352.92655 
L 278.82 347.09405 
z
M 279.485 347.7428 
L 279.0625 349.93405 
L 280.055 349.93405 
Q 280.72625 349.93405 281.085 349.5903 
Q 281.445 349.24655 281.445 348.60655 
Q 281.445 348.19655 281.20125 347.9703 
Q 280.9575 347.7428 280.51625 347.7428 
L 279.485 347.7428 
z
M 287.851719 347.54405 
L 287.691719 348.3753 
Q 287.316719 347.99655 286.896719 347.8128 
Q 286.476719 347.62905 285.987969 347.62905 
Q 285.320469 347.62905 284.814219 347.9503 
Q 284.309219 348.2703 283.941719 348.92655 
Q 283.706719 349.3478 283.582969 349.81905 
Q 283.460469 350.2903 283.460469 350.76655 
Q 283.460469 351.5628 283.872969 351.98155 
Q 284.285469 352.39905 285.070469 352.39905 
Q 285.612969 352.39905 286.112969 352.2253 
Q 286.612969 352.05155 287.085469 351.70405 
L 286.902969 352.6378 
Q 286.437969 352.83655 285.962969 352.9378 
Q 285.487969 353.0403 285.011719 353.0403 
Q 283.890469 353.0403 283.259219 352.43155 
Q 282.629219 351.82155 282.629219 350.7353 
Q 282.629219 350.0403 282.869219 349.36905 
Q 283.109219 348.69655 283.559219 348.14155 
Q 284.035469 347.55155 284.646719 347.2703 
Q 285.257969 346.98905 286.070469 346.98905 
Q 286.570469 346.98905 287.017969 347.1278 
Q 287.465469 347.26655 287.851719 347.54405 
z
M 291.566406 350.1103 
L 289.046406 352.2703 
L 291.832656 352.2703 
L 291.695156 352.92655 
L 287.910156 352.92655 
L 288.038906 352.2628 
L 290.671406 350.00405 
Q 291.198906 349.5478 291.418906 349.2028 
Q 291.640156 348.85655 291.640156 348.4928 
Q 291.640156 348.11405 291.373906 347.87655 
Q 291.108906 347.6378 290.680156 347.6378 
Q 290.308906 347.6378 289.855156 347.7703 
Q 289.402656 347.9028 288.886406 348.15655 
L 289.031406 347.3753 
Q 289.515156 347.18405 289.956406 347.08655 
Q 290.398906 346.98905 290.773906 346.98905 
Q 291.538906 346.98905 292.005156 347.3953 
Q 292.472656 347.80155 292.472656 348.46155 
Q 292.472656 348.90655 292.250156 349.31155 
Q 292.027656 349.7153 291.566406 350.1103 
z
M 296.41 347.09405 
L 297.4025 347.09405 
L 296.65625 350.8953 
L 297.48875 350.8953 
L 297.36 351.55155 
L 296.5275 351.55155 
L 296.26625 352.92655 
L 295.48 352.92655 
L 295.74625 351.55155 
L 293.11375 351.55155 
L 293.26625 350.7903 
L 296.41 347.09405 
z
M 296.48 347.78155 
L 293.87875 350.8953 
L 295.87125 350.8953 
L 296.48 347.78155 
z
" style="fill: #b2182b; stroke: #ffffff; stroke-width: 2"/>
    <path d="M 277.214375 347.2853 
L 277.063125 348.0553 
Q 276.668125 347.84405 276.279375 347.73655 
Q 275.890625 347.62905 275.526875 347.62905 
Q 274.820625 347.62905 274.401875 347.9378 
Q 273.984375 348.24655 273.984375 348.75905 
Q 273.984375 349.0403 274.138125 349.1903 
Q 274.293125 349.3403 274.933125 349.5128 
L 275.406875 349.62905 
Q 276.206875 349.83655 276.519375 350.1553 
Q 276.831875 350.4728 276.831875 351.0478 
Q 276.831875 351.9303 276.138125 352.4853 
Q 275.445625 353.0403 274.313125 353.0403 
Q 273.848125 353.0403 273.379375 352.9478 
Q 272.910625 352.85655 272.438125 352.66905 
L 272.598125 351.85655 
Q 273.031875 352.1253 273.466875 352.2628 
Q 273.901875 352.39905 274.335625 352.39905 
Q 275.074375 352.39905 275.519375 352.07155 
Q 275.964375 351.7428 275.964375 351.2153 
Q 275.964375 350.86405 275.786875 350.6828 
Q 275.609375 350.5003 275.023125 350.3528 
L 274.550625 350.23155 
Q 273.741875 350.0203 273.446875 349.7453 
Q 273.151875 349.46905 273.151875 348.9728 
Q 273.151875 348.1028 273.821875 347.54655 
Q 274.491875 346.98905 275.566875 346.98905 
Q 275.984375 346.98905 276.394375 347.06405 
Q 276.804375 347.1378 277.214375 347.2853 
z
M 278.82 347.09405 
L 280.645 347.09405 
Q 281.44125 347.09405 281.85875 347.4653 
Q 282.2775 347.83655 282.2775 348.55155 
Q 282.2775 349.5128 281.66 350.0478 
Q 281.0425 350.5828 279.92625 350.5828 
L 278.93375 350.5828 
L 278.47625 352.92655 
L 277.68375 352.92655 
L 278.82 347.09405 
z
M 279.485 347.7428 
L 279.0625 349.93405 
L 280.055 349.93405 
Q 280.72625 349.93405 281.085 349.5903 
Q 281.445 349.24655 281.445 348.60655 
Q 281.445 348.19655 281.20125 347.9703 
Q 280.9575 347.7428 280.51625 347.7428 
L 279.485 347.7428 
z
M 287.851719 347.54405 
L 287.691719 348.3753 
Q 287.316719 347.99655 286.896719 347.8128 
Q 286.476719 347.62905 285.987969 347.62905 
Q 285.320469 347.62905 284.814219 347.9503 
Q 284.309219 348.2703 283.941719 348.92655 
Q 283.706719 349.3478 283.582969 349.81905 
Q 283.460469 350.2903 283.460469 350.76655 
Q 283.460469 351.5628 283.872969 351.98155 
Q 284.285469 352.39905 285.070469 352.39905 
Q 285.612969 352.39905 286.112969 352.2253 
Q 286.612969 352.05155 287.085469 351.70405 
L 286.902969 352.6378 
Q 286.437969 352.83655 285.962969 352.9378 
Q 285.487969 353.0403 285.011719 353.0403 
Q 283.890469 353.0403 283.259219 352.43155 
Q 282.629219 351.82155 282.629219 350.7353 
Q 282.629219 350.0403 282.869219 349.36905 
Q 283.109219 348.69655 283.559219 348.14155 
Q 284.035469 347.55155 284.646719 347.2703 
Q 285.257969 346.98905 286.070469 346.98905 
Q 286.570469 346.98905 287.017969 347.1278 
Q 287.465469 347.26655 287.851719 347.54405 
z
M 291.566406 350.1103 
L 289.046406 352.2703 
L 291.832656 352.2703 
L 291.695156 352.92655 
L 287.910156 352.92655 
L 288.038906 352.2628 
L 290.671406 350.00405 
Q 291.198906 349.5478 291.418906 349.2028 
Q 291.640156 348.85655 291.640156 348.4928 
Q 291.640156 348.11405 291.373906 347.87655 
Q 291.108906 347.6378 290.680156 347.6378 
Q 290.308906 347.6378 289.855156 347.7703 
Q 289.402656 347.9028 288.886406 348.15655 
L 289.031406 347.3753 
Q 289.515156 347.18405 289.956406 347.08655 
Q 290.398906 346.98905 290.773906 346.98905 
Q 291.538906 346.98905 292.005156 347.3953 
Q 292.472656 347.80155 292.472656 348.46155 
Q 292.472656 348.90655 292.250156 349.31155 
Q 292.027656 349.7153 291.566406 350.1103 
z
M 296.41 347.09405 
L 297.4025 347.09405 
L 296.65625 350.8953 
L 297.48875 350.8953 
L 297.36 351.55155 
L 296.5275 351.55155 
L 296.26625 352.92655 
L 295.48 352.92655 
L 295.74625 351.55155 
L 293.11375 351.55155 
L 293.26625 350.7903 
L 296.41 347.09405 
z
M 296.48 347.78155 
L 293.87875 350.8953 
L 295.87125 350.8953 
L 296.48 347.78155 
z
" style="fill: #b2182b"/>
   </g>
   <g id="patch_8">
    <path d="M 524.72121 141.427753 
Q 433.605907 256.277082 288.828459 285.347557 
" style="fill: none; stroke: #b2182b; stroke-width: 1.5; stroke-linecap: round"/>
    <path d="M 292.712366 286.403619 
L 288.828459 285.347557 
L 292.003653 282.874069 
" style="fill: none; stroke: #b2182b; stroke-width: 1.5; stroke-linecap: round"/>
   </g>
   <g id="text_12">
    <g id="patch_9">
     <path d="M 484.809 139.355719 
L 594.8115 139.355719 
Q 598.4115 139.355719 598.4115 135.755719 
L 598.4115 106.819031 
Q 598.4115 103.219031 594.8115 103.219031 
L 484.809 103.219031 
Q 481.209 103.219031 481.209 106.819031 
L 481.209 135.755719 
Q 481.209 139.355719 484.809 139.355719 
z
" style="fill: #fff0f0; opacity: 0.92; stroke: #b2182b; stroke-linejoin: miter"/>
    </g>
    <!-- Triple intersection -->
    <g style="fill: #b2182b" transform="translate(484.809 113.657625) scale(0.09 -0.09)">
     <defs>
      <path id="DejaVuSans-Bold-54" d="M 31 4666 
L 4331 4666 
L 4331 3756 
L 2784 3756 
L 2784 0 
L 1581 0 
L 1581 3756 
L 31 3756 
L 31 4666 
z
" transform="scale(0.015625)"/>
      <path id="DejaVuSans-Bold-63" d="M 3366 3391 
L 3366 2478 
Q 3138 2634 2908 2709 
Q 2678 2784 2431 2784 
Q 1963 2784 1702 2511 
Q 1441 2238 1441 1747 
Q 1441 1256 1702 982 
Q 1963 709 2431 709 
Q 2694 709 2930 787 
Q 3166 866 3366 1019 
L 3366 103 
Q 3103 6 2833 -42 
Q 2563 -91 2291 -91 
Q 1344 -91 809 395 
Q 275 881 275 1747 
Q 275 2613 809 3098 
Q 1344 3584 2291 3584 
Q 2566 3584 2833 3536 
Q 3100 3488 3366 3391 
z
" transform="scale(0.015625)"/>
     </defs>
     <use xlink:href="#DejaVuSans-Bold-54"/>
     <use xlink:href="#DejaVuSans-Bold-72" transform="translate(57.212891 0)"/>
     <use xlink:href="#DejaVuSans-Bold-69" transform="translate(106.529297 0)"/>
     <use xlink:href="#DejaVuSans-Bold-70" transform="translate(140.806641 0)"/>
     <use xlink:href="#DejaVuSans-Bold-6c" transform="translate(212.388672 0)"/>
     <use xlink:href="#DejaVuSans-Bold-65" transform="translate(246.666016 0)"/>
     <use xlink:href="#DejaVuSans-Bold-20" transform="translate(314.488281 0)"/>
     <use xlink:href="#DejaVuSans-Bold-69" transform="translate(349.302734 0)"/>
     <use xlink:href="#DejaVuSans-Bold-6e" transform="translate(383.580078 0)"/>
     <use xlink:href="#DejaVuSans-Bold-74" transform="translate(454.771484 0)"/>
     <use xlink:href="#DejaVuSans-Bold-65" transform="translate(502.574219 0)"/>
     <use xlink:href="#DejaVuSans-Bold-72" transform="translate(570.396484 0)"/>
     <use xlink:href="#DejaVuSans-Bold-73" transform="translate(619.712891 0)"/>
     <use xlink:href="#DejaVuSans-Bold-65" transform="translate(679.234375 0)"/>
     <use xlink:href="#DejaVuSans-Bold-63" transform="translate(747.056641 0)"/>
     <use xlink:href="#DejaVuSans-Bold-74" transform="translate(806.333984 0)"/>
     <use xlink:href="#DejaVuSans-Bold-69" transform="translate(854.136719 0)"/>
     <use xlink:href="#DejaVuSans-Bold-6f" transform="translate(888.414062 0)"/>
     <use xlink:href="#DejaVuSans-Bold-6e" transform="translate(957.115234 0)"/>
    </g>
    <!-- (highest siRNA value) -->
    <g style="fill: #b2182b" transform="translate(484.809 123.735656) scale(0.09 -0.09)">
     <defs>
      <path id="DejaVuSans-Bold-41" d="M 3419 850 
L 1538 850 
L 1241 0 
L 31 0 
L 1759 4666 
L 3194 4666 
L 4922 0 
L 3713 0 
L 3419 850 
z
M 1838 1716 
L 3116 1716 
L 2478 3572 
L 1838 1716 
z
" transform="scale(0.015625)"/>
     </defs>
     <use xlink:href="#DejaVuSans-Bold-28"/>
     <use xlink:href="#DejaVuSans-Bold-68" transform="translate(45.703125 0)"/>
     <use xlink:href="#DejaVuSans-Bold-69" transform="translate(116.894531 0)"/>
     <use xlink:href="#DejaVuSans-Bold-67" transform="translate(151.171875 0)"/>
     <use xlink:href="#DejaVuSans-Bold-68" transform="translate(222.753906 0)"/>
     <use xlink:href="#DejaVuSans-Bold-65" transform="translate(293.945312 0)"/>
     <use xlink:href="#DejaVuSans-Bold-73" transform="translate(361.767578 0)"/>
     <use xlink:href="#DejaVuSans-Bold-74" transform="translate(421.289062 0)"/>
     <use xlink:href="#DejaVuSans-Bold-20" transform="translate(469.091797 0)"/>
     <use xlink:href="#DejaVuSans-Bold-73" transform="translate(503.90625 0)"/>
     <use xlink:href="#DejaVuSans-Bold-69" transform="translate(563.427734 0)"/>
     <use xlink:href="#DejaVuSans-Bold-52" transform="translate(597.705078 0)"/>
     <use xlink:href="#DejaVuSans-Bold-4e" transform="translate(674.707031 0)"/>
     <use xlink:href="#DejaVuSans-Bold-41" transform="translate(758.398438 0)"/>
     <use xlink:href="#DejaVuSans-Bold-20" transform="translate(835.791016 0)"/>
     <use xlink:href="#DejaVuSans-Bold-76" transform="translate(870.605469 0)"/>
     <use xlink:href="#DejaVuSans-Bold-61" transform="translate(935.791016 0)"/>
     <use xlink:href="#DejaVuSans-Bold-6c" transform="translate(1003.271484 0)"/>
     <use xlink:href="#DejaVuSans-Bold-75" transform="translate(1037.548828 0)"/>
     <use xlink:href="#DejaVuSans-Bold-65" transform="translate(1108.740234 0)"/>
     <use xlink:href="#DejaVuSans-Bold-29" transform="translate(1176.5625 0)"/>
    </g>
    <!-- n = 5 -->
    <g style="fill: #b2182b" transform="translate(484.809 133.884) scale(0.09 -0.09)">
     <use xlink:href="#DejaVuSans-Bold-6e"/>
     <use xlink:href="#DejaVuSans-Bold-20" transform="translate(71.191406 0)"/>
     <use xlink:href="#DejaVuSans-Bold-3d" transform="translate(106.005859 0)"/>
     <use xlink:href="#DejaVuSans-Bold-20" transform="translate(189.794922 0)"/>
     <use xlink:href="#DejaVuSans-Bold-35" transform="translate(224.609375 0)"/>
    </g>
   </g>
  </g>
  <g id="text_13">
   <!-- Figure 5 — Venn Diagram: SL Candidates ∩ High Expression ∩ No Existing Drug -->
   <g transform="translate(7.2 16.318125) scale(0.12 -0.12)">
    <defs>
     <path id="DejaVuSans-Bold-2014" d="M 344 2156 
L 6056 2156 
L 6056 1350 
L 344 1350 
L 344 2156 
z
" transform="scale(0.015625)"/>
     <path id="DejaVuSans-Bold-56" d="M 31 4666 
L 1241 4666 
L 2478 1222 
L 3713 4666 
L 4922 4666 
L 3194 0 
L 1759 0 
L 31 4666 
z
" transform="scale(0.015625)"/>
     <path id="DejaVuSans-Bold-6d" d="M 3781 2919 
Q 3994 3244 4286 3414 
Q 4578 3584 4928 3584 
Q 5531 3584 5847 3212 
Q 6163 2841 6163 2131 
L 6163 0 
L 5038 0 
L 5038 1825 
Q 5041 1866 5042 1909 
Q 5044 1953 5044 2034 
Q 5044 2406 4934 2573 
Q 4825 2741 4581 2741 
Q 4263 2741 4089 2478 
Q 3916 2216 3909 1719 
L 3909 0 
L 2784 0 
L 2784 1825 
Q 2784 2406 2684 2573 
Q 2584 2741 2328 2741 
Q 2006 2741 1831 2477 
Q 1656 2213 1656 1722 
L 1656 0 
L 531 0 
L 531 3500 
L 1656 3500 
L 1656 2988 
Q 1863 3284 2130 3434 
Q 2397 3584 2719 3584 
Q 3081 3584 3359 3409 
Q 3638 3234 3781 2919 
z
" transform="scale(0.015625)"/>
     <path id="DejaVuSans-Bold-3a" d="M 716 3500 
L 1844 3500 
L 1844 2291 
L 716 2291 
L 716 3500 
z
M 716 1209 
L 1844 1209 
L 1844 0 
L 716 0 
L 716 1209 
z
" transform="scale(0.015625)"/>
     <path id="DejaVuSans-Bold-2229" d="M 966 1734 
Q 966 2784 1313 3222 
Q 1697 3706 2597 3706 
Q 3463 3706 3884 3222 
Q 4231 2825 4231 1734 
L 4231 0 
L 3363 0 
L 3363 1734 
Q 3363 2366 3219 2575 
Q 3044 2822 2597 2822 
Q 2169 2822 1981 2575 
Q 1834 2384 1834 1734 
L 1834 0 
L 966 0 
L 966 1734 
z
" transform="scale(0.015625)"/>
    </defs>
    <use xlink:href="#DejaVuSans-Bold-46"/>
    <use xlink:href="#DejaVuSans-Bold-69" transform="translate(68.310547 0)"/>
    <use xlink:href="#DejaVuSans-Bold-67" transform="translate(102.587891 0)"/>
    <use xlink:href="#DejaVuSans-Bold-75" transform="translate(174.169922 0)"/>
    <use xlink:href="#DejaVuSans-Bold-72" transform="translate(245.361328 0)"/>
    <use xlink:href="#DejaVuSans-Bold-65" transform="translate(294.677734 0)"/>
    <use xlink:href="#DejaVuSans-Bold-20" transform="translate(362.5 0)"/>
    <use xlink:href="#DejaVuSans-Bold-35" transform="translate(397.314453 0)"/>
    <use xlink:href="#DejaVuSans-Bold-20" transform="translate(466.894531 0)"/>
    <use xlink:href="#DejaVuSans-Bold-2014" transform="translate(501.708984 0)"/>
    <use xlink:href="#DejaVuSans-Bold-20" transform="translate(601.708984 0)"/>
    <use xlink:href="#DejaVuSans-Bold-56" transform="translate(636.523438 0)"/>
    <use xlink:href="#DejaVuSans-Bold-65" transform="translate(708.416016 0)"/>
    <use xlink:href="#DejaVuSans-Bold-6e" transform="translate(776.238281 0)"/>
    <use xlink:href="#DejaVuSans-Bold-6e" transform="translate(847.429688 0)"/>
    <use xlink:href="#DejaVuSans-Bold-20" transform="translate(918.621094 0)"/>
    <use xlink:href="#DejaVuSans-Bold-44" transform="translate(953.435547 0)"/>
    <use xlink:href="#DejaVuSans-Bold-69" transform="translate(1036.443359 0)"/>
    <use xlink:href="#DejaVuSans-Bold-61" transform="translate(1070.720703 0)"/>
    <use xlink:href="#DejaVuSans-Bold-67" transform="translate(1138.201172 0)"/>
    <use xlink:href="#DejaVuSans-Bold-72" transform="translate(1209.783203 0)"/>
    <use xlink:href="#DejaVuSans-Bold-61" transform="translate(1259.099609 0)"/>
    <use xlink:href="#DejaVuSans-Bold-6d" transform="translate(1326.580078 0)"/>
    <use xlink:href="#DejaVuSans-Bold-3a" transform="translate(1430.779297 0)"/>
    <use xlink:href="#DejaVuSans-Bold-20" transform="translate(1470.769531 0)"/>
    <use xlink:href="#DejaVuSans-Bold-53" transform="translate(1505.583984 0)"/>
    <use xlink:href="#DejaVuSans-Bold-4c" transform="translate(1577.605469 0)"/>
    <use xlink:href="#DejaVuSans-Bold-20" transform="translate(1641.326172 0)"/>
    <use xlink:href="#DejaVuSans-Bold-43" transform="translate(1676.140625 0)"/>
    <use xlink:href="#DejaVuSans-Bold-61" transform="translate(1749.529297 0)"/>
    <use xlink:href="#DejaVuSans-Bold-6e" transform="translate(1817.009766 0)"/>
    <use xlink:href="#DejaVuSans-Bold-64" transform="translate(1888.201172 0)"/>
    <use xlink:href="#DejaVuSans-Bold-69" transform="translate(1959.783203 0)"/>
    <use xlink:href="#DejaVuSans-Bold-64" transform="translate(1994.060547 0)"/>
    <use xlink:href="#DejaVuSans-Bold-61" transform="translate(2065.642578 0)"/>
    <use xlink:href="#DejaVuSans-Bold-74" transform="translate(2133.123047 0)"/>
    <use xlink:href="#DejaVuSans-Bold-65" transform="translate(2180.925781 0)"/>
    <use xlink:href="#DejaVuSans-Bold-73" transform="translate(2248.748047 0)"/>
    <use xlink:href="#DejaVuSans-Bold-20" transform="translate(2308.269531 0)"/>
    <use xlink:href="#DejaVuSans-Bold-2229" transform="translate(2343.083984 0)"/>
    <use xlink:href="#DejaVuSans-Bold-20" transform="translate(2424.285156 0)"/>
    <use xlink:href="#DejaVuSans-Bold-48" transform="translate(2459.099609 0)"/>
    <use xlink:href="#DejaVuSans-Bold-69" transform="translate(2542.791016 0)"/>
    <use xlink:href="#DejaVuSans-Bold-67" transform="translate(2577.068359 0)"/>
    <use xlink:href="#DejaVuSans-Bold-68" transform="translate(2648.650391 0)"/>
    <use xlink:href="#DejaVuSans-Bold-20" transform="translate(2719.841797 0)"/>
    <use xlink:href="#DejaVuSans-Bold-45" transform="translate(2754.65625 0)"/>
    <use xlink:href="#DejaVuSans-Bold-78" transform="translate(2822.966797 0)"/>
    <use xlink:href="#DejaVuSans-Bold-70" transform="translate(2887.46875 0)"/>
    <use xlink:href="#DejaVuSans-Bold-72" transform="translate(2959.050781 0)"/>
    <use xlink:href="#DejaVuSans-Bold-65" transform="translate(3008.367188 0)"/>
    <use xlink:href="#DejaVuSans-Bold-73" transform="translate(3076.189453 0)"/>
    <use xlink:href="#DejaVuSans-Bold-73" transform="translate(3135.710938 0)"/>
    <use xlink:href="#DejaVuSans-Bold-69" transform="translate(3195.232422 0)"/>
    <use xlink:href="#DejaVuSans-Bold-6f" transform="translate(3229.509766 0)"/>
    <use xlink:href="#DejaVuSans-Bold-6e" transform="translate(3298.210938 0)"/>
    <use xlink:href="#DejaVuSans-Bold-20" transform="translate(3369.402344 0)"/>
    <use xlink:href="#DejaVuSans-Bold-2229" transform="translate(3404.216797 0)"/>
    <use xlink:href="#DejaVuSans-Bold-20" transform="translate(3485.417969 0)"/>
    <use xlink:href="#DejaVuSans-Bold-4e" transform="translate(3520.232422 0)"/>
    <use xlink:href="#DejaVuSans-Bold-6f" transform="translate(3603.923828 0)"/>
    <use xlink:href="#DejaVuSans-Bold-20" transform="translate(3672.625 0)"/>
    <use xlink:href="#DejaVuSans-Bold-45" transform="translate(3707.439453 0)"/>
    <use xlink:href="#DejaVuSans-Bold-78" transform="translate(3775.75 0)"/>
    <use xlink:href="#DejaVuSans-Bold-69" transform="translate(3840.251953 0)"/>
    <use xlink:href="#DejaVuSans-Bold-73" transform="translate(3874.529297 0)"/>
    <use xlink:href="#DejaVuSans-Bold-74" transform="translate(3934.050781 0)"/>
    <use xlink:href="#DejaVuSans-Bold-69" transform="translate(3981.853516 0)"/>
    <use xlink:href="#DejaVuSans-Bold-6e" transform="translate(4016.130859 0)"/>
    <use xlink:href="#DejaVuSans-Bold-67" transform="translate(4087.322266 0)"/>
    <use xlink:href="#DejaVuSans-Bold-20" transform="translate(4158.904297 0)"/>
    <use xlink:href="#DejaVuSans-Bold-44" transform="translate(4193.71875 0)"/>
    <use xlink:href="#DejaVuSans-Bold-72" transform="translate(4276.726562 0)"/>
    <use xlink:href="#DejaVuSans-Bold-75" transform="translate(4326.042969 0)"/>
    <use xlink:href="#DejaVuSans-Bold-67" transform="translate(4397.234375 0)"/>
   </g>
  </g>
  <g id="text_14">
   <!-- [SIMULATED DATA]  93 DepMap SL Candidates · TCGA LUAD -->
   <g style="fill: #555555" transform="translate(125.378906 37.478437) scale(0.1 -0.1)">
    <defs>
     <path id="DejaVuSans-Oblique-5b" d="M 1363 4863 
L 2688 4863 
L 2597 4416 
L 1850 4416 
L 916 -397 
L 1663 -397 
L 1581 -844 
L 256 -844 
L 1363 4863 
z
" transform="scale(0.015625)"/>
     <path id="DejaVuSans-Oblique-53" d="M 3859 4513 
L 3738 3897 
Q 3422 4066 3111 4152 
Q 2800 4238 2509 4238 
Q 1944 4238 1609 3991 
Q 1275 3744 1275 3334 
Q 1275 3109 1398 2989 
Q 1522 2869 2034 2731 
L 2413 2638 
Q 3053 2472 3303 2217 
Q 3553 1963 3553 1503 
Q 3553 797 2998 353 
Q 2444 -91 1538 -91 
Q 1166 -91 791 -17 
Q 416 56 38 206 
L 166 856 
Q 513 641 861 531 
Q 1209 422 1556 422 
Q 2147 422 2503 684 
Q 2859 947 2859 1369 
Q 2859 1650 2717 1795 
Q 2575 1941 2106 2059 
L 1728 2156 
Q 1081 2325 845 2545 
Q 609 2766 609 3163 
Q 609 3859 1145 4304 
Q 1681 4750 2541 4750 
Q 2875 4750 3203 4690 
Q 3531 4631 3859 4513 
z
" transform="scale(0.015625)"/>
     <path id="DejaVuSans-Oblique-49" d="M 1081 4666 
L 1716 4666 
L 806 0 
L 172 0 
L 1081 4666 
z
" transform="scale(0.015625)"/>
     <path id="DejaVuSans-Oblique-4d" d="M 1081 4666 
L 2028 4666 
L 2572 1522 
L 4378 4666 
L 5350 4666 
L 4441 0 
L 3828 0 
L 4622 4091 
L 2791 897 
L 2175 897 
L 1581 4103 
L 788 0 
L 172 0 
L 1081 4666 
z
" transform="scale(0.015625)"/>
     <path id="DejaVuSans-Oblique-55" d="M 991 4666 
L 1625 4666 
L 1075 1831 
Q 1041 1641 1027 1517 
Q 1013 1394 1013 1300 
Q 1013 869 1253 645 
Q 1494 422 1959 422 
Q 2563 422 2898 753 
Q 3234 1084 3378 1831 
L 3928 4666 
L 4563 4666 
L 4000 1753 
Q 3816 809 3300 359 
Q 2784 -91 1888 -91 
Q 1188 -91 780 261 
Q 372 613 372 1216 
Q 372 1325 387 1461 
Q 403 1597 434 1753 
L 991 4666 
z
" transform="scale(0.015625)"/>
     <path id="DejaVuSans-Oblique-4c" d="M 1075 4666 
L 1709 4666 
L 909 525 
L 3181 525 
L 3078 0 
L 172 0 
L 1075 4666 
z
" transform="scale(0.015625)"/>
     <path id="DejaVuSans-Oblique-41" d="M 2356 4666 
L 3072 4666 
L 3938 0 
L 3278 0 
L 3084 1197 
L 984 1197 
L 325 0 
L -341 0 
L 2356 4666 
z
M 2584 4044 
L 1275 1722 
L 2988 1722 
L 2584 4044 
z
" transform="scale(0.015625)"/>
     <path id="DejaVuSans-Oblique-54" d="M 378 4666 
L 4325 4666 
L 4225 4134 
L 2559 4134 
L 1759 0 
L 1125 0 
L 1925 4134 
L 275 4134 
L 378 4666 
z
" transform="scale(0.015625)"/>
     <path id="DejaVuSans-Oblique-45" d="M 1081 4666 
L 4031 4666 
L 3928 4134 
L 1606 4134 
L 1338 2753 
L 3566 2753 
L 3463 2222 
L 1234 2222 
L 909 531 
L 3284 531 
L 3181 0 
L 172 0 
L 1081 4666 
z
" transform="scale(0.015625)"/>
     <path id="DejaVuSans-Oblique-44" d="M 1081 4666 
L 2438 4666 
Q 3519 4666 4070 4208 
Q 4622 3750 4622 2847 
Q 4622 2250 4412 1698 
Q 4203 1147 3834 769 
Q 3463 381 2891 190 
Q 2319 0 1538 0 
L 172 0 
L 1081 4666 
z
M 1613 4147 
L 909 519 
L 1734 519 
Q 2794 519 3375 1128 
Q 3956 1738 3956 2847 
Q 3956 3519 3581 3833 
Q 3206 4147 2406 4147 
L 1613 4147 
z
" transform="scale(0.015625)"/>
     <path id="DejaVuSans-Oblique-20" transform="scale(0.015625)"/>
     <path id="DejaVuSans-Oblique-5d" d="M 2188 4863 
L 1081 -844 
L -244 -844 
L -159 -397 
L 588 -397 
L 1522 4416 
L 781 4416 
L 863 4863 
L 2188 4863 
z
" transform="scale(0.015625)"/>
     <path id="DejaVuSans-Oblique-39" d="M 281 103 
L 397 678 
Q 578 559 809 496 
Q 1041 434 1306 434 
Q 1953 434 2348 843 
Q 2744 1253 2938 2119 
Q 2706 1853 2401 1714 
Q 2097 1575 1747 1575 
Q 1178 1575 842 1904 
Q 506 2234 506 2791 
Q 506 3247 672 3639 
Q 838 4031 1159 4325 
Q 1378 4531 1665 4640 
Q 1953 4750 2278 4750 
Q 2925 4750 3300 4339 
Q 3675 3928 3675 3219 
Q 3675 2559 3501 1943 
Q 3328 1328 3022 878 
Q 2697 403 2240 156 
Q 1784 -91 1228 -91 
Q 988 -91 748 -42 
Q 509 6 281 103 
z
M 1131 2938 
Q 1131 2541 1337 2308 
Q 1544 2075 1894 2075 
Q 2378 2075 2706 2447 
Q 3034 2819 3034 3372 
Q 3034 3784 2831 4017 
Q 2628 4250 2272 4250 
Q 1788 4250 1459 3870 
Q 1131 3491 1131 2938 
z
" transform="scale(0.015625)"/>
     <path id="DejaVuSans-Oblique-33" d="M 1013 4550 
Q 1356 4650 1679 4700 
Q 2003 4750 2316 4750 
Q 2934 4750 3296 4475 
Q 3659 4200 3659 3738 
Q 3659 3284 3373 2959 
Q 3088 2634 2584 2516 
Q 2978 2403 3162 2165 
Q 3347 1928 3347 1538 
Q 3347 1163 3167 834 
Q 2988 506 2650 269 
Q 2394 88 2037 -1 
Q 1681 -91 1216 -91 
Q 922 -91 622 -33 
Q 322 25 13 141 
L 128 738 
Q 422 575 720 495 
Q 1019 416 1331 416 
Q 1947 416 2330 733 
Q 2713 1050 2713 1556 
Q 2713 1881 2469 2057 
Q 2225 2234 1772 2234 
L 1228 2234 
L 1325 2747 
L 1900 2747 
Q 2419 2747 2717 2984 
Q 3016 3222 3016 3628 
Q 3016 3922 2797 4083 
Q 2578 4244 2181 4244 
Q 1881 4244 1567 4180 
Q 1253 4116 916 3988 
L 1013 4550 
z
" transform="scale(0.015625)"/>
     <path id="DejaVuSans-Oblique-65" d="M 3078 2063 
Q 3088 2113 3092 2166 
Q 3097 2219 3097 2272 
Q 3097 2653 2873 2875 
Q 2650 3097 2266 3097 
Q 1838 3097 1509 2826 
Q 1181 2556 1013 2059 
L 3078 2063 
z
M 3578 1613 
L 903 1613 
Q 884 1494 878 1425 
Q 872 1356 872 1306 
Q 872 872 1139 634 
Q 1406 397 1894 397 
Q 2269 397 2603 481 
Q 2938 566 3225 728 
L 3116 159 
Q 2806 34 2476 -28 
Q 2147 -91 1806 -91 
Q 1078 -91 686 257 
Q 294 606 294 1247 
Q 294 1794 489 2264 
Q 684 2734 1063 3103 
Q 1306 3334 1642 3459 
Q 1978 3584 2356 3584 
Q 2950 3584 3301 3228 
Q 3653 2872 3653 2272 
Q 3653 2128 3634 1964 
Q 3616 1800 3578 1613 
z
" transform="scale(0.015625)"/>
     <path id="DejaVuSans-Oblique-70" d="M 3175 2156 
Q 3175 2616 2975 2859 
Q 2775 3103 2400 3103 
Q 2144 3103 1911 2972 
Q 1678 2841 1497 2591 
Q 1319 2344 1212 1994 
Q 1106 1644 1106 1300 
Q 1106 863 1306 627 
Q 1506 391 1875 391 
Q 2147 391 2380 519 
Q 2613 647 2778 891 
Q 2956 1147 3065 1494 
Q 3175 1841 3175 2156 
z
M 1394 2969 
Q 1625 3272 1939 3428 
Q 2253 3584 2638 3584 
Q 3175 3584 3472 3232 
Q 3769 2881 3769 2247 
Q 3769 1728 3584 1258 
Q 3400 788 3053 416 
Q 2822 169 2531 39 
Q 2241 -91 1919 -91 
Q 1547 -91 1294 64 
Q 1041 219 916 525 
L 556 -1331 
L -19 -1331 
L 922 3500 
L 1497 3500 
L 1394 2969 
z
" transform="scale(0.015625)"/>
     <path id="DejaVuSans-Oblique-61" d="M 3438 1997 
L 3047 0 
L 2472 0 
L 2578 531 
Q 2325 219 2001 64 
Q 1678 -91 1281 -91 
Q 834 -91 548 182 
Q 263 456 263 884 
Q 263 1497 752 1853 
Q 1241 2209 2100 2209 
L 2900 2209 
L 2931 2363 
Q 2938 2388 2941 2417 
Q 2944 2447 2944 2509 
Q 2944 2788 2717 2942 
Q 2491 3097 2081 3097 
Q 1800 3097 1504 3025 
Q 1209 2953 897 2809 
L 997 3341 
Q 1322 3463 1633 3523 
Q 1944 3584 2234 3584 
Q 2853 3584 3176 3315 
Q 3500 3047 3500 2534 
Q 3500 2431 3484 2292 
Q 3469 2153 3438 1997 
z
M 2816 1759 
L 2241 1759 
Q 1534 1759 1195 1570 
Q 856 1381 856 984 
Q 856 709 1029 553 
Q 1203 397 1509 397 
Q 1978 397 2328 733 
Q 2678 1069 2791 1631 
L 2816 1759 
z
" transform="scale(0.015625)"/>
     <path id="DejaVuSans-Oblique-43" d="M 4447 4306 
L 4319 3641 
Q 4019 3944 3683 4091 
Q 3347 4238 2956 4238 
Q 2422 4238 2017 3981 
Q 1613 3725 1319 3200 
Q 1131 2863 1032 2486 
Q 934 2109 934 1728 
Q 934 1091 1264 756 
Q 1594 422 2222 422 
Q 2656 422 3056 561 
Q 3456 700 3834 978 
L 3688 231 
Q 3316 72 2936 -9 
Q 2556 -91 2175 -91 
Q 1278 -91 773 396 
Q 269 884 269 1753 
Q 269 2309 461 2846 
Q 653 3384 1013 3828 
Q 1394 4300 1883 4525 
Q 2372 4750 3022 4750 
Q 3422 4750 3780 4639 
Q 4138 4528 4447 4306 
z
" transform="scale(0.015625)"/>
     <path id="DejaVuSans-Oblique-6e" d="M 3566 2113 
L 3156 0 
L 2578 0 
L 2988 2091 
Q 3016 2238 3031 2350 
Q 3047 2463 3047 2528 
Q 3047 2791 2881 2937 
Q 2716 3084 2419 3084 
Q 1956 3084 1622 2776 
Q 1288 2469 1184 1941 
L 800 0 
L 225 0 
L 903 3500 
L 1478 3500 
L 1363 2950 
Q 1603 3253 1940 3418 
Q 2278 3584 2650 3584 
Q 3113 3584 3367 3334 
Q 3622 3084 3622 2631 
Q 3622 2519 3608 2391 
Q 3594 2263 3566 2113 
z
" transform="scale(0.015625)"/>
     <path id="DejaVuSans-Oblique-64" d="M 2675 525 
Q 2444 222 2128 65 
Q 1813 -91 1428 -91 
Q 903 -91 598 267 
Q 294 625 294 1247 
Q 294 1766 478 2236 
Q 663 2706 1013 3078 
Q 1244 3325 1534 3454 
Q 1825 3584 2144 3584 
Q 2481 3584 2739 3421 
Q 2997 3259 3138 2956 
L 3513 4863 
L 4091 4863 
L 3144 0 
L 2566 0 
L 2675 525 
z
M 891 1350 
Q 891 897 1095 644 
Q 1300 391 1663 391 
Q 1931 391 2161 520 
Q 2391 650 2566 903 
Q 2750 1166 2856 1509 
Q 2963 1853 2963 2188 
Q 2963 2622 2758 2865 
Q 2553 3109 2194 3109 
Q 1922 3109 1687 2981 
Q 1453 2853 1288 2613 
Q 1106 2353 998 2009 
Q 891 1666 891 1350 
z
" transform="scale(0.015625)"/>
     <path id="DejaVuSans-Oblique-69" d="M 1172 4863 
L 1747 4863 
L 1606 4134 
L 1031 4134 
L 1172 4863 
z
M 909 3500 
L 1484 3500 
L 800 0 
L 225 0 
L 909 3500 
z
" transform="scale(0.015625)"/>
     <path id="DejaVuSans-Oblique-74" d="M 2706 3500 
L 2619 3053 
L 1472 3053 
L 1100 1153 
Q 1081 1047 1072 975 
Q 1063 903 1063 863 
Q 1063 663 1183 572 
Q 1303 481 1569 481 
L 2150 481 
L 2053 0 
L 1503 0 
Q 991 0 739 200 
Q 488 400 488 806 
Q 488 878 497 964 
Q 506 1050 525 1153 
L 897 3053 
L 409 3053 
L 500 3500 
L 978 3500 
L 1172 4494 
L 1747 4494 
L 1556 3500 
L 2706 3500 
z
" transform="scale(0.015625)"/>
     <path id="DejaVuSans-Oblique-73" d="M 3200 3397 
L 3091 2853 
Q 2863 2978 2609 3040 
Q 2356 3103 2088 3103 
Q 1634 3103 1373 2948 
Q 1113 2794 1113 2528 
Q 1113 2219 1719 2053 
Q 1766 2041 1788 2034 
L 1972 1978 
Q 2547 1819 2739 1644 
Q 2931 1469 2931 1166 
Q 2931 609 2489 259 
Q 2047 -91 1331 -91 
Q 1053 -91 747 -37 
Q 441 16 72 128 
L 184 722 
Q 500 559 806 475 
Q 1113 391 1394 391 
Q 1816 391 2080 572 
Q 2344 753 2344 1031 
Q 2344 1331 1650 1516 
L 1591 1531 
L 1394 1581 
Q 956 1697 753 1886 
Q 550 2075 550 2369 
Q 550 2928 970 3256 
Q 1391 3584 2113 3584 
Q 2397 3584 2667 3537 
Q 2938 3491 3200 3397 
z
" transform="scale(0.015625)"/>
     <path id="DejaVuSans-Oblique-b7" d="M 884 2619 
L 1544 2619 
L 1388 1825 
L 728 1825 
L 884 2619 
z
" transform="scale(0.015625)"/>
     <path id="DejaVuSans-Oblique-47" d="M 3494 697 
L 3738 1919 
L 2700 1919 
L 2797 2438 
L 4453 2438 
L 4050 384 
Q 3634 156 3143 32 
Q 2653 -91 2156 -91 
Q 1278 -91 783 396 
Q 288 884 288 1753 
Q 288 2475 589 3126 
Q 891 3778 1422 4213 
Q 1756 4484 2153 4617 
Q 2550 4750 3034 4750 
Q 3472 4750 3873 4639 
Q 4275 4528 4641 4306 
L 4513 3634 
Q 4231 3928 3853 4083 
Q 3475 4238 3047 4238 
Q 2550 4238 2172 4048 
Q 1794 3859 1497 3463 
Q 1244 3125 1098 2667 
Q 953 2209 953 1734 
Q 953 1081 1287 751 
Q 1622 422 2284 422 
Q 2616 422 2925 492 
Q 3234 563 3494 697 
z
" transform="scale(0.015625)"/>
    </defs>
    <use xlink:href="#DejaVuSans-Oblique-5b"/>
    <use xlink:href="#DejaVuSans-Oblique-53" transform="translate(39.013672 0)"/>
    <use xlink:href="#DejaVuSans-Oblique-49" transform="translate(102.490234 0)"/>
    <use xlink:href="#DejaVuSans-Oblique-4d" transform="translate(131.982422 0)"/>
    <use xlink:href="#DejaVuSans-Oblique-55" transform="translate(218.261719 0)"/>
    <use xlink:href="#DejaVuSans-Oblique-4c" transform="translate(291.455078 0)"/>
    <use xlink:href="#DejaVuSans-Oblique-41" transform="translate(347.167969 0)"/>
    <use xlink:href="#DejaVuSans-Oblique-54" transform="translate(408.326172 0)"/>
    <use xlink:href="#DejaVuSans-Oblique-45" transform="translate(469.410156 0)"/>
    <use xlink:href="#DejaVuSans-Oblique-44" transform="translate(532.59375 0)"/>
    <use xlink:href="#DejaVuSans-Oblique-20" transform="translate(609.595703 0)"/>
    <use xlink:href="#DejaVuSans-Oblique-44" transform="translate(641.382812 0)"/>
    <use xlink:href="#DejaVuSans-Oblique-41" transform="translate(718.384766 0)"/>
    <use xlink:href="#DejaVuSans-Oblique-54" transform="translate(779.542969 0)"/>
    <use xlink:href="#DejaVuSans-Oblique-41" transform="translate(831.501953 0)"/>
    <use xlink:href="#DejaVuSans-Oblique-5d" transform="translate(899.910156 0)"/>
    <use xlink:href="#DejaVuSans-Oblique-20" transform="translate(938.923828 0)"/>
    <use xlink:href="#DejaVuSans-Oblique-20" transform="translate(970.710938 0)"/>
    <use xlink:href="#DejaVuSans-Oblique-39" transform="translate(1002.498047 0)"/>
    <use xlink:href="#DejaVuSans-Oblique-33" transform="translate(1066.121094 0)"/>
    <use xlink:href="#DejaVuSans-Oblique-20" transform="translate(1129.744141 0)"/>
    <use xlink:href="#DejaVuSans-Oblique-44" transform="translate(1161.53125 0)"/>
    <use xlink:href="#DejaVuSans-Oblique-65" transform="translate(1238.533203 0)"/>
    <use xlink:href="#DejaVuSans-Oblique-70" transform="translate(1300.056641 0)"/>
    <use xlink:href="#DejaVuSans-Oblique-4d" transform="translate(1363.533203 0)"/>
    <use xlink:href="#DejaVuSans-Oblique-61" transform="translate(1449.8125 0)"/>
    <use xlink:href="#DejaVuSans-Oblique-70" transform="translate(1511.091797 0)"/>
    <use xlink:href="#DejaVuSans-Oblique-20" transform="translate(1574.568359 0)"/>
    <use xlink:href="#DejaVuSans-Oblique-53" transform="translate(1606.355469 0)"/>
    <use xlink:href="#DejaVuSans-Oblique-4c" transform="translate(1669.832031 0)"/>
    <use xlink:href="#DejaVuSans-Oblique-20" transform="translate(1725.544922 0)"/>
    <use xlink:href="#DejaVuSans-Oblique-43" transform="translate(1757.332031 0)"/>
    <use xlink:href="#DejaVuSans-Oblique-61" transform="translate(1827.15625 0)"/>
    <use xlink:href="#DejaVuSans-Oblique-6e" transform="translate(1888.435547 0)"/>
    <use xlink:href="#DejaVuSans-Oblique-64" transform="translate(1951.814453 0)"/>
    <use xlink:href="#DejaVuSans-Oblique-69" transform="translate(2015.291016 0)"/>
    <use xlink:href="#DejaVuSans-Oblique-64" transform="translate(2043.074219 0)"/>
    <use xlink:href="#DejaVuSans-Oblique-61" transform="translate(2106.550781 0)"/>
    <use xlink:href="#DejaVuSans-Oblique-74" transform="translate(2167.830078 0)"/>
    <use xlink:href="#DejaVuSans-Oblique-65" transform="translate(2207.039062 0)"/>
    <use xlink:href="#DejaVuSans-Oblique-73" transform="translate(2268.5625 0)"/>
    <use xlink:href="#DejaVuSans-Oblique-20" transform="translate(2320.662109 0)"/>
    <use xlink:href="#DejaVuSans-Oblique-b7" transform="translate(2352.449219 0)"/>
    <use xlink:href="#DejaVuSans-Oblique-20" transform="translate(2384.236328 0)"/>
    <use xlink:href="#DejaVuSans-Oblique-54" transform="translate(2416.023438 0)"/>
    <use xlink:href="#DejaVuSans-Oblique-43" transform="translate(2477.107422 0)"/>
    <use xlink:href="#DejaVuSans-Oblique-47" transform="translate(2546.931641 0)"/>
    <use xlink:href="#DejaVuSans-Oblique-41" transform="translate(2624.421875 0)"/>
    <use xlink:href="#DejaVuSans-Oblique-20" transform="translate(2692.830078 0)"/>
    <use xlink:href="#DejaVuSans-Oblique-4c" transform="translate(2724.617188 0)"/>
    <use xlink:href="#DejaVuSans-Oblique-55" transform="translate(2780.330078 0)"/>
    <use xlink:href="#DejaVuSans-Oblique-41" transform="translate(2853.523438 0)"/>
    <use xlink:href="#DejaVuSans-Oblique-44" transform="translate(2921.931641 0)"/>
   </g>
  </g>
 </g>
 <defs>
  <clipPath id="pcc0b8a3975">
   <rect x="10.797" y="59.04" width="548.856" height="498.96"/>
  </clipPath>
 </defs>
</svg>
