<?xml version="1.0" encoding="utf-8" standalone="no"?>
<!DOCTYPE svg PUBLIC "-//W3C//DTD SVG 1.1//EN"
  "http://www.w3.org/Graphics/SVG/1.1/DTD/svg11.dtd">
<svg xmlns:xlink="http://www.w3.org/1999/xlink" width="1000.8pt" height="505.485469pt" viewBox="0 0 1000.8 505.485469" xmlns="http://www.w3.org/2000/svg" version="1.1">
 <metadata>
  <rdf:RDF xmlns:dc="http://purl.org/dc/elements/1.1/" xmlns:cc="http://creativecommons.org/ns#" xmlns:rdf="http://www.w3.org/1999/02/22-rdf-syntax-ns#">
   <cc:Work>
    <dc:type rdf:resource="http://purl.org/dc/dcmitype/StillImage"/>
    <dc:date>2026-03-06T22:35:32.873289</dc:date>
    <dc:format>image/svg+xml</dc:format>
    <dc:creator>
     <cc:Agent>
      <dc:title>Matplotlib v3.10.5, https://matplotlib.org/</dc:title>
     </cc:Agent>
    </dc:creator>
   </cc:Work>
  </rdf:RDF>
 </metadata>
 <defs>
  <style type="text/css">*{stroke-linejoin: round; stroke-linecap: butt}</style>
 </defs>
 <g id="figure_1">
  <g id="patch_1">
   <path d="M 0 505.485469 
L 1000.8 505.485469 
L 1000.8 0 
L 0 0 
z
" style="fill: #ffffff"/>
  </g>
  <g id="axes_1">
   <g id="patch_2">
    <path d="M 146.590237 267.39775 
Q 158.683419 267.39775 168.540533 267.39775 
" style="fill: none; stroke: #555555; stroke-width: 2; stroke-linecap: round"/>
    <path d="M 161.340533 263.79775 
L 168.540533 267.39775 
L 161.340533 270.99775 
" style="fill: none; stroke: #555555; stroke-width: 2; stroke-linecap: round"/>
   </g>
   <g id="patch_3">
    <path d="M 294.550237 267.39775 
Q 306.643419 267.39775 316.500533 267.39775 
" style="fill: none; stroke: #555555; stroke-width: 2; stroke-linecap: round"/>
    <path d="M 309.300533 263.79775 
L 316.500533 267.39775 
L 309.300533 270.99775 
" style="fill: none; stroke: #555555; stroke-width: 2; stroke-linecap: round"/>
   </g>
   <g id="patch_4">
    <path d="M 442.510237 267.39775 
Q 454.603419 267.39775 464.460533 267.39775 
" style="fill: none; stroke: #555555; stroke-width: 2; stroke-linecap: round"/>
    <path d="M 457.260533 263.79775 
L 464.460533 267.39775 
L 457.260533 270.99775 
" style="fill: none; stroke: #555555; stroke-width: 2; stroke-linecap: round"/>
   </g>
   <g id="patch_5">
    <path d="M 590.470237 267.39775 
Q 602.563419 267.39775 612.420533 267.39775 
" style="fill: none; stroke: #555555; stroke-width: 2; stroke-linecap: round"/>
    <path d="M 605.220533 263.79775 
L 612.420533 267.39775 
L 605.220533 270.99775 
" style="fill: none; stroke: #555555; stroke-width: 2; stroke-linecap: round"/>
   </g>
   <g id="patch_6">
    <path d="M 738.430237 267.39775 
Q 750.523419 267.39775 760.380533 267.39775 
" style="fill: none; stroke: #555555; stroke-width: 2; stroke-linecap: round"/>
    <path d="M 753.180533 263.79775 
L 760.380533 267.39775 
L 753.180533 270.99775 
" style="fill: none; stroke: #555555; stroke-width: 2; stroke-linecap: round"/>
   </g>
   <g id="patch_7">
    <path d="M 882.39262 267.39775 
Q 877.345663 267.39775 874.534775 267.39775 
" style="fill: none; stroke: #555555; stroke-width: 2; stroke-linecap: round"/>
    <path d="M 881.734775 270.99775 
L 874.534775 267.39775 
L 881.734775 263.79775 
" style="fill: none; stroke: #555555; stroke-width: 2; stroke-linecap: round"/>
   </g>
   <g id="patch_8">
    <path d="M 24.814286 319.703441 
L 144.591429 319.703441 
Q 153.046286 319.703441 153.046286 312.04895 
L 153.046286 222.74655 
Q 153.046286 215.092059 144.591429 215.092059 
L 24.814286 215.092059 
Q 16.359429 215.092059 16.359429 222.74655 
L 16.359429 312.04895 
Q 16.359429 319.703441 24.814286 319.703441 
z
" clip-path="url(#p7d497440fa)" style="fill: #66c2a5; stroke: #ffffff; stroke-width: 2; stroke-linejoin: miter"/>
   </g>
   <g id="patch_9">
    <path d="M 172.774286 319.703441 
L 292.551429 319.703441 
Q 301.006286 319.703441 301.006286 312.04895 
L 301.006286 222.74655 
Q 301.006286 215.092059 292.551429 215.092059 
L 172.774286 215.092059 
Q 164.319429 215.092059 164.319429 222.74655 
L 164.319429 312.04895 
Q 164.319429 319.703441 172.774286 319.703441 
z
" clip-path="url(#p7d497440fa)" style="fill: #66c2a5; stroke: #ffffff; stroke-width: 2; stroke-linejoin: miter"/>
   </g>
   <g id="patch_10">
    <path d="M 320.734286 319.703441 
L 440.511429 319.703441 
Q 448.966286 319.703441 448.966286 312.04895 
L 448.966286 222.74655 
Q 448.966286 215.092059 440.511429 215.092059 
L 320.734286 215.092059 
Q 312.279429 215.092059 312.279429 222.74655 
L 312.279429 312.04895 
Q 312.279429 319.703441 320.734286 319.703441 
z
" clip-path="url(#p7d497440fa)" style="fill: #66c2a5; stroke: #ffffff; stroke-width: 2; stroke-linejoin: miter"/>
   </g>
   <g id="patch_11">
    <path d="M 468.694286 319.703441 
L 588.471429 319.703441 
Q 596.926286 319.703441 596.926286 312.04895 
L 596.926286 222.74655 
Q 596.926286 215.092059 588.471429 215.092059 
L 468.694286 215.092059 
Q 460.239429 215.092059 460.239429 222.74655 
L 460.239429 312.04895 
Q 460.239429 319.703441 468.694286 319.703441 
z
" clip-path="url(#p7d497440fa)" style="fill: #66c2a5; stroke: #ffffff; stroke-width: 2; stroke-linejoin: miter"/>
   </g>
   <g id="patch_12">
    <path d="M 616.654286 319.703441 
L 736.431429 319.703441 
Q 744.886286 319.703441 744.886286 312.04895 
L 744.886286 222.74655 
Q 744.886286 215.092059 736.431429 215.092059 
L 616.654286 215.092059 
Q 608.199429 215.092059 608.199429 222.74655 
L 608.199429 312.04895 
Q 608.199429 319.703441 616.654286 319.703441 
z
" clip-path="url(#p7d497440fa)" style="fill: #66c2a5; stroke: #ffffff; stroke-width: 2; stroke-linejoin: miter"/>
   </g>
   <g id="patch_13">
    <path d="M 764.614286 319.703441 
L 884.391429 319.703441 
Q 892.846286 319.703441 892.846286 312.04895 
L 892.846286 222.74655 
Q 892.846286 215.092059 884.391429 215.092059 
L 764.614286 215.092059 
Q 756.159429 215.092059 756.159429 222.74655 
L 756.159429 312.04895 
Q 756.159429 319.703441 764.614286 319.703441 
z
" clip-path="url(#p7d497440fa)" style="fill: #66c2a5; stroke: #ffffff; stroke-width: 2; stroke-linejoin: miter"/>
   </g>
   <g id="patch_14">
    <path d="M 158.682857 314.048926 
Q 158.682857 329.59096 158.682857 343.455944 
" style="fill: none; stroke: #e41a1c; stroke-width: 1.5; stroke-linecap: round"/>
    <path d="M 160.682857 339.455944 
L 158.682857 343.455944 
L 156.682857 339.455944 
" style="fill: none; stroke: #e41a1c; stroke-width: 1.5; stroke-linecap: round"/>
   </g>
   <g id="text_1">
    <!-- −13 -->
    <g style="fill: #e41a1c" transform="translate(150.240982 372.347014) scale(0.08 -0.08)">
     <defs>
      <path id="DejaVuSans-Oblique-2212" d="M 678 2272 
L 4684 2272 
L 4684 1741 
L 678 1741 
L 678 2272 
z
" transform="scale(0.015625)"/>
      <path id="DejaVuSans-Oblique-31" d="M 416 531 
L 1447 531 
L 2144 4122 
L 978 3897 
L 1088 4441 
L 2247 4666 
L 2881 4666 
L 2075 531 
L 3103 531 
L 3003 0 
L 313 0 
L 416 531 
z
" transform="scale(0.015625)"/>
      <path id="DejaVuSans-Oblique-33" d="M 1013 4550 
Q 1356 4650 1679 4700 
Q 2003 4750 2316 4750 
Q 2934 4750 3296 4475 
Q 3659 4200 3659 3738 
Q 3659 3284 3373 2959 
Q 3088 2634 2584 2516 
Q 2978 2403 3162 2165 
Q 3347 1928 3347 1538 
Q 3347 1163 3167 834 
Q 2988 506 2650 269 
Q 2394 88 2037 -1 
Q 1681 -91 1216 -91 
Q 922 -91 622 -33 
Q 322 25 13 141 
L 128 738 
Q 422 575 720 495 
Q 1019 416 1331 416 
Q 1947 416 2330 733 
Q 2713 1050 2713 1556 
Q 2713 1881 2469 2057 
Q 2225 2234 1772 2234 
L 1228 2234 
L 1325 2747 
L 1900 2747 
Q 2419 2747 2717 2984 
Q 3016 3222 3016 3628 
Q 3016 3922 2797 4083 
Q 2578 4244 2181 4244 
Q 1881 4244 1567 4180 
Q 1253 4116 916 3988 
L 1013 4550 
z
" transform="scale(0.015625)"/>
     </defs>
     <use xlink:href="#DejaVuSans-Oblique-2212"/>
     <use xlink:href="#DejaVuSans-Oblique-31" transform="translate(83.789062 0)"/>
     <use xlink:href="#DejaVuSans-Oblique-33" transform="translate(147.412109 0)"/>
    </g>
    <!-- not parsed -->
    <g style="fill: #e41a1c" transform="translate(137.141607 381.305264) scale(0.08 -0.08)">
     <defs>
      <path id="DejaVuSans-Oblique-6e" d="M 3566 2113 
L 3156 0 
L 2578 0 
L 2988 2091 
Q 3016 2238 3031 2350 
Q 3047 2463 3047 2528 
Q 3047 2791 2881 2937 
Q 2716 3084 2419 3084 
Q 1956 3084 1622 2776 
Q 1288 2469 1184 1941 
L 800 0 
L 225 0 
L 903 3500 
L 1478 3500 
L 1363 2950 
Q 1603 3253 1940 3418 
Q 2278 3584 2650 3584 
Q 3113 3584 3367 3334 
Q 3622 3084 3622 2631 
Q 3622 2519 3608 2391 
Q 3594 2263 3566 2113 
z
" transform="scale(0.015625)"/>
      <path id="DejaVuSans-Oblique-6f" d="M 1625 -91 
Q 1009 -91 651 289 
Q 294 669 294 1325 
Q 294 1706 417 2101 
Q 541 2497 738 2766 
Q 1047 3184 1428 3384 
Q 1809 3584 2291 3584 
Q 2888 3584 3255 3212 
Q 3622 2841 3622 2241 
Q 3622 1825 3500 1412 
Q 3378 1000 3181 728 
Q 2875 309 2494 109 
Q 2113 -91 1625 -91 
z
M 891 1344 
Q 891 869 1089 633 
Q 1288 397 1691 397 
Q 2269 397 2648 901 
Q 3028 1406 3028 2181 
Q 3028 2634 2825 2865 
Q 2622 3097 2228 3097 
Q 1903 3097 1650 2945 
Q 1397 2794 1197 2484 
Q 1050 2253 970 1956 
Q 891 1659 891 1344 
z
" transform="scale(0.015625)"/>
      <path id="DejaVuSans-Oblique-74" d="M 2706 3500 
L 2619 3053 
L 1472 3053 
L 1100 1153 
Q 1081 1047 1072 975 
Q 1063 903 1063 863 
Q 1063 663 1183 572 
Q 1303 481 1569 481 
L 2150 481 
L 2053 0 
L 1503 0 
Q 991 0 739 200 
Q 488 400 488 806 
Q 488 878 497 964 
Q 506 1050 525 1153 
L 897 3053 
L 409 3053 
L 500 3500 
L 978 3500 
L 1172 4494 
L 1747 4494 
L 1556 3500 
L 2706 3500 
z
" transform="scale(0.015625)"/>
      <path id="DejaVuSans-Oblique-20" transform="scale(0.015625)"/>
      <path id="DejaVuSans-Oblique-70" d="M 3175 2156 
Q 3175 2616 2975 2859 
Q 2775 3103 2400 3103 
Q 2144 3103 1911 2972 
Q 1678 2841 1497 2591 
Q 1319 2344 1212 1994 
Q 1106 1644 1106 1300 
Q 1106 863 1306 627 
Q 1506 391 1875 391 
Q 2147 391 2380 519 
Q 2613 647 2778 891 
Q 2956 1147 3065 1494 
Q 3175 1841 3175 2156 
z
M 1394 2969 
Q 1625 3272 1939 3428 
Q 2253 3584 2638 3584 
Q 3175 3584 3472 3232 
Q 3769 2881 3769 2247 
Q 3769 1728 3584 1258 
Q 3400 788 3053 416 
Q 2822 169 2531 39 
Q 2241 -91 1919 -91 
Q 1547 -91 1294 64 
Q 1041 219 916 525 
L 556 -1331 
L -19 -1331 
L 922 3500 
L 1497 3500 
L 1394 2969 
z
" transform="scale(0.015625)"/>
      <path id="DejaVuSans-Oblique-61" d="M 3438 1997 
L 3047 0 
L 2472 0 
L 2578 531 
Q 2325 219 2001 64 
Q 1678 -91 1281 -91 
Q 834 -91 548 182 
Q 263 456 263 884 
Q 263 1497 752 1853 
Q 1241 2209 2100 2209 
L 2900 2209 
L 2931 2363 
Q 2938 2388 2941 2417 
Q 2944 2447 2944 2509 
Q 2944 2788 2717 2942 
Q 2491 3097 2081 3097 
Q 1800 3097 1504 3025 
Q 1209 2953 897 2809 
L 997 3341 
Q 1322 3463 1633 3523 
Q 1944 3584 2234 3584 
Q 2853 3584 3176 3315 
Q 3500 3047 3500 2534 
Q 3500 2431 3484 2292 
Q 3469 2153 3438 1997 
z
M 2816 1759 
L 2241 1759 
Q 1534 1759 1195 1570 
Q 856 1381 856 984 
Q 856 709 1029 553 
Q 1203 397 1509 397 
Q 1978 397 2328 733 
Q 2678 1069 2791 1631 
L 2816 1759 
z
" transform="scale(0.015625)"/>
      <path id="DejaVuSans-Oblique-72" d="M 2853 2969 
Q 2766 3016 2653 3041 
Q 2541 3066 2413 3066 
Q 1953 3066 1609 2717 
Q 1266 2369 1153 1784 
L 800 0 
L 225 0 
L 909 3500 
L 1484 3500 
L 1375 2956 
Q 1603 3259 1920 3421 
Q 2238 3584 2597 3584 
Q 2691 3584 2781 3573 
Q 2872 3563 2963 3538 
L 2853 2969 
z
" transform="scale(0.015625)"/>
      <path id="DejaVuSans-Oblique-73" d="M 3200 3397 
L 3091 2853 
Q 2863 2978 2609 3040 
Q 2356 3103 2088 3103 
Q 1634 3103 1373 2948 
Q 1113 2794 1113 2528 
Q 1113 2219 1719 2053 
Q 1766 2041 1788 2034 
L 1972 1978 
Q 2547 1819 2739 1644 
Q 2931 1469 2931 1166 
Q 2931 609 2489 259 
Q 2047 -91 1331 -91 
Q 1053 -91 747 -37 
Q 441 16 72 128 
L 184 722 
Q 500 559 806 475 
Q 1113 391 1394 391 
Q 1816 391 2080 572 
Q 2344 753 2344 1031 
Q 2344 1331 1650 1516 
L 1591 1531 
L 1394 1581 
Q 956 1697 753 1886 
Q 550 2075 550 2369 
Q 550 2928 970 3256 
Q 1391 3584 2113 3584 
Q 2397 3584 2667 3537 
Q 2938 3491 3200 3397 
z
" transform="scale(0.015625)"/>
      <path id="DejaVuSans-Oblique-65" d="M 3078 2063 
Q 3088 2113 3092 2166 
Q 3097 2219 3097 2272 
Q 3097 2653 2873 2875 
Q 2650 3097 2266 3097 
Q 1838 3097 1509 2826 
Q 1181 2556 1013 2059 
L 3078 2063 
z
M 3578 1613 
L 903 1613 
Q 884 1494 878 1425 
Q 872 1356 872 1306 
Q 872 872 1139 634 
Q 1406 397 1894 397 
Q 2269 397 2603 481 
Q 2938 566 3225 728 
L 3116 159 
Q 2806 34 2476 -28 
Q 2147 -91 1806 -91 
Q 1078 -91 686 257 
Q 294 606 294 1247 
Q 294 1794 489 2264 
Q 684 2734 1063 3103 
Q 1306 3334 1642 3459 
Q 1978 3584 2356 3584 
Q 2950 3584 3301 3228 
Q 3653 2872 3653 2272 
Q 3653 2128 3634 1964 
Q 3616 1800 3578 1613 
z
" transform="scale(0.015625)"/>
      <path id="DejaVuSans-Oblique-64" d="M 2675 525 
Q 2444 222 2128 65 
Q 1813 -91 1428 -91 
Q 903 -91 598 267 
Q 294 625 294 1247 
Q 294 1766 478 2236 
Q 663 2706 1013 3078 
Q 1244 3325 1534 3454 
Q 1825 3584 2144 3584 
Q 2481 3584 2739 3421 
Q 2997 3259 3138 2956 
L 3513 4863 
L 4091 4863 
L 3144 0 
L 2566 0 
L 2675 525 
z
M 891 1350 
Q 891 897 1095 644 
Q 1300 391 1663 391 
Q 1931 391 2161 520 
Q 2391 650 2566 903 
Q 2750 1166 2856 1509 
Q 2963 1853 2963 2188 
Q 2963 2622 2758 2865 
Q 2553 3109 2194 3109 
Q 1922 3109 1687 2981 
Q 1453 2853 1288 2613 
Q 1106 2353 998 2009 
Q 891 1666 891 1350 
z
" transform="scale(0.015625)"/>
     </defs>
     <use xlink:href="#DejaVuSans-Oblique-6e"/>
     <use xlink:href="#DejaVuSans-Oblique-6f" transform="translate(63.378906 0)"/>
     <use xlink:href="#DejaVuSans-Oblique-74" transform="translate(124.560547 0)"/>
     <use xlink:href="#DejaVuSans-Oblique-20" transform="translate(163.769531 0)"/>
     <use xlink:href="#DejaVuSans-Oblique-70" transform="translate(195.556641 0)"/>
     <use xlink:href="#DejaVuSans-Oblique-61" transform="translate(259.033203 0)"/>
     <use xlink:href="#DejaVuSans-Oblique-72" transform="translate(320.3125 0)"/>
     <use xlink:href="#DejaVuSans-Oblique-73" transform="translate(361.425781 0)"/>
     <use xlink:href="#DejaVuSans-Oblique-65" transform="translate(413.525391 0)"/>
     <use xlink:href="#DejaVuSans-Oblique-64" transform="translate(475.048828 0)"/>
    </g>
   </g>
   <g id="patch_15">
    <path d="M 306.642857 314.048926 
Q 306.642857 329.59096 306.642857 343.455944 
" style="fill: none; stroke: #e41a1c; stroke-width: 1.5; stroke-linecap: round"/>
    <path d="M 308.642857 339.455944 
L 306.642857 343.455944 
L 304.642857 339.455944 
" style="fill: none; stroke: #e41a1c; stroke-width: 1.5; stroke-linecap: round"/>
   </g>
   <g id="text_2">
    <!-- −44 -->
    <g style="fill: #e41a1c" transform="translate(298.200982 372.347014) scale(0.08 -0.08)">
     <defs>
      <path id="DejaVuSans-Oblique-34" d="M 2753 4666 
L 3547 4666 
L 2950 1625 
L 3616 1625 
L 3513 1100 
L 2847 1100 
L 2638 0 
L 2009 0 
L 2222 1100 
L 116 1100 
L 238 1709 
L 2753 4666 
z
M 2809 4116 
L 728 1625 
L 2322 1625 
L 2809 4116 
z
" transform="scale(0.015625)"/>
     </defs>
     <use xlink:href="#DejaVuSans-Oblique-2212"/>
     <use xlink:href="#DejaVuSans-Oblique-34" transform="translate(83.789062 0)"/>
     <use xlink:href="#DejaVuSans-Oblique-34" transform="translate(147.412109 0)"/>
    </g>
    <!-- no corona -->
    <g style="fill: #e41a1c" transform="translate(286.664107 381.305264) scale(0.08 -0.08)">
     <defs>
      <path id="DejaVuSans-Oblique-63" d="M 3431 3366 
L 3316 2797 
Q 3109 2947 2876 3022 
Q 2644 3097 2394 3097 
Q 2119 3097 1870 3000 
Q 1622 2903 1453 2725 
Q 1184 2453 1037 2087 
Q 891 1722 891 1331 
Q 891 859 1127 628 
Q 1363 397 1844 397 
Q 2081 397 2348 469 
Q 2616 541 2906 684 
L 2797 116 
Q 2547 13 2283 -39 
Q 2019 -91 1741 -91 
Q 1044 -91 669 257 
Q 294 606 294 1253 
Q 294 1797 489 2255 
Q 684 2713 1069 3078 
Q 1331 3328 1684 3456 
Q 2038 3584 2456 3584 
Q 2700 3584 2940 3529 
Q 3181 3475 3431 3366 
z
" transform="scale(0.015625)"/>
     </defs>
     <use xlink:href="#DejaVuSans-Oblique-6e"/>
     <use xlink:href="#DejaVuSans-Oblique-6f" transform="translate(63.378906 0)"/>
     <use xlink:href="#DejaVuSans-Oblique-20" transform="translate(124.560547 0)"/>
     <use xlink:href="#DejaVuSans-Oblique-63" transform="translate(156.347656 0)"/>
     <use xlink:href="#DejaVuSans-Oblique-6f" transform="translate(211.328125 0)"/>
     <use xlink:href="#DejaVuSans-Oblique-72" transform="translate(272.509766 0)"/>
     <use xlink:href="#DejaVuSans-Oblique-6f" transform="translate(313.623047 0)"/>
     <use xlink:href="#DejaVuSans-Oblique-6e" transform="translate(374.804688 0)"/>
     <use xlink:href="#DejaVuSans-Oblique-61" transform="translate(438.183594 0)"/>
    </g>
    <!-- data -->
    <g style="fill: #e41a1c" transform="translate(297.632857 390.263514) scale(0.08 -0.08)">
     <use xlink:href="#DejaVuSans-Oblique-64"/>
     <use xlink:href="#DejaVuSans-Oblique-61" transform="translate(63.476562 0)"/>
     <use xlink:href="#DejaVuSans-Oblique-74" transform="translate(124.755859 0)"/>
     <use xlink:href="#DejaVuSans-Oblique-61" transform="translate(163.964844 0)"/>
    </g>
   </g>
   <g id="patch_16">
    <path d="M 454.602857 314.048926 
Q 454.602857 329.59096 454.602857 343.455944 
" style="fill: none; stroke: #e41a1c; stroke-width: 1.5; stroke-linecap: round"/>
    <path d="M 456.602857 339.455944 
L 454.602857 343.455944 
L 452.602857 339.455944 
" style="fill: none; stroke: #e41a1c; stroke-width: 1.5; stroke-linecap: round"/>
   </g>
   <g id="text_3">
    <!-- −7 -->
    <g style="fill: #e41a1c" transform="translate(448.705982 372.347014) scale(0.08 -0.08)">
     <defs>
      <path id="DejaVuSans-Oblique-37" d="M 819 4666 
L 4013 4666 
L 3956 4397 
L 1288 0 
L 594 0 
L 3116 4134 
L 716 4134 
L 819 4666 
z
" transform="scale(0.015625)"/>
     </defs>
     <use xlink:href="#DejaVuSans-Oblique-2212"/>
     <use xlink:href="#DejaVuSans-Oblique-37" transform="translate(83.789062 0)"/>
    </g>
    <!-- fail schema -->
    <g style="fill: #e41a1c" transform="translate(431.622857 381.305264) scale(0.08 -0.08)">
     <defs>
      <path id="DejaVuSans-Oblique-66" d="M 3059 4863 
L 2969 4384 
L 2419 4384 
Q 2106 4384 1964 4261 
Q 1822 4138 1753 3809 
L 1691 3500 
L 2638 3500 
L 2553 3053 
L 1606 3053 
L 1013 0 
L 434 0 
L 1031 3053 
L 481 3053 
L 563 3500 
L 1113 3500 
L 1159 3744 
Q 1278 4363 1576 4613 
Q 1875 4863 2516 4863 
L 3059 4863 
z
" transform="scale(0.015625)"/>
      <path id="DejaVuSans-Oblique-69" d="M 1172 4863 
L 1747 4863 
L 1606 4134 
L 1031 4134 
L 1172 4863 
z
M 909 3500 
L 1484 3500 
L 800 0 
L 225 0 
L 909 3500 
z
" transform="scale(0.015625)"/>
      <path id="DejaVuSans-Oblique-6c" d="M 1172 4863 
L 1747 4863 
L 800 0 
L 225 0 
L 1172 4863 
z
" transform="scale(0.015625)"/>
      <path id="DejaVuSans-Oblique-68" d="M 3566 2113 
L 3156 0 
L 2578 0 
L 2988 2091 
Q 3016 2238 3031 2350 
Q 3047 2463 3047 2528 
Q 3047 2791 2881 2937 
Q 2716 3084 2419 3084 
Q 1956 3084 1617 2771 
Q 1278 2459 1178 1941 
L 800 0 
L 225 0 
L 1172 4863 
L 1747 4863 
L 1375 2950 
Q 1594 3244 1934 3414 
Q 2275 3584 2650 3584 
Q 3113 3584 3367 3334 
Q 3622 3084 3622 2631 
Q 3622 2519 3608 2391 
Q 3594 2263 3566 2113 
z
" transform="scale(0.015625)"/>
      <path id="DejaVuSans-Oblique-6d" d="M 5747 2113 
L 5338 0 
L 4763 0 
L 5166 2094 
Q 5191 2228 5203 2325 
Q 5216 2422 5216 2491 
Q 5216 2772 5059 2928 
Q 4903 3084 4622 3084 
Q 4203 3084 3875 2770 
Q 3547 2456 3450 1953 
L 3066 0 
L 2491 0 
L 2900 2094 
Q 2925 2209 2937 2307 
Q 2950 2406 2950 2484 
Q 2950 2769 2794 2926 
Q 2638 3084 2363 3084 
Q 1938 3084 1609 2770 
Q 1281 2456 1184 1953 
L 800 0 
L 225 0 
L 909 3500 
L 1484 3500 
L 1375 2956 
Q 1609 3263 1923 3423 
Q 2238 3584 2597 3584 
Q 2978 3584 3223 3384 
Q 3469 3184 3519 2828 
Q 3781 3197 4126 3390 
Q 4472 3584 4856 3584 
Q 5306 3584 5551 3325 
Q 5797 3066 5797 2591 
Q 5797 2488 5784 2364 
Q 5772 2241 5747 2113 
z
" transform="scale(0.015625)"/>
     </defs>
     <use xlink:href="#DejaVuSans-Oblique-66"/>
     <use xlink:href="#DejaVuSans-Oblique-61" transform="translate(35.205078 0)"/>
     <use xlink:href="#DejaVuSans-Oblique-69" transform="translate(96.484375 0)"/>
     <use xlink:href="#DejaVuSans-Oblique-6c" transform="translate(124.267578 0)"/>
     <use xlink:href="#DejaVuSans-Oblique-20" transform="translate(152.050781 0)"/>
     <use xlink:href="#DejaVuSans-Oblique-73" transform="translate(183.837891 0)"/>
     <use xlink:href="#DejaVuSans-Oblique-63" transform="translate(235.9375 0)"/>
     <use xlink:href="#DejaVuSans-Oblique-68" transform="translate(290.917969 0)"/>
     <use xlink:href="#DejaVuSans-Oblique-65" transform="translate(354.296875 0)"/>
     <use xlink:href="#DejaVuSans-Oblique-6d" transform="translate(415.820312 0)"/>
     <use xlink:href="#DejaVuSans-Oblique-61" transform="translate(513.232422 0)"/>
    </g>
   </g>
   <g id="patch_17">
    <path d="M 602.562857 314.048926 
Q 602.562857 329.59096 602.562857 343.455944 
" style="fill: none; stroke: #e41a1c; stroke-width: 1.5; stroke-linecap: round"/>
    <path d="M 604.562857 339.455944 
L 602.562857 343.455944 
L 600.562857 339.455944 
" style="fill: none; stroke: #e41a1c; stroke-width: 1.5; stroke-linecap: round"/>
   </g>
   <g id="text_4">
    <!-- −15 -->
    <g style="fill: #e41a1c" transform="translate(594.120982 372.347014) scale(0.08 -0.08)">
     <defs>
      <path id="DejaVuSans-Oblique-35" d="M 3719 4666 
L 3622 4141 
L 1691 4141 
L 1466 2988 
Q 1609 3034 1757 3056 
Q 1906 3078 2059 3078 
Q 2706 3078 3081 2731 
Q 3456 2384 3456 1791 
Q 3456 1375 3264 994 
Q 3072 613 2719 325 
Q 2469 125 2108 17 
Q 1747 -91 1319 -91 
Q 1038 -91 744 -41 
Q 450 9 128 109 
L 244 697 
Q 531 556 820 486 
Q 1109 416 1403 416 
Q 2013 416 2411 781 
Q 2809 1147 2809 1697 
Q 2809 2103 2548 2328 
Q 2288 2553 1819 2553 
Q 1572 2553 1305 2495 
Q 1038 2438 756 2322 
L 1209 4666 
L 3719 4666 
z
" transform="scale(0.015625)"/>
     </defs>
     <use xlink:href="#DejaVuSans-Oblique-2212"/>
     <use xlink:href="#DejaVuSans-Oblique-31" transform="translate(83.789062 0)"/>
     <use xlink:href="#DejaVuSans-Oblique-35" transform="translate(147.412109 0)"/>
    </g>
    <!-- low conf. -->
    <g style="fill: #e41a1c" transform="translate(584.670357 381.305264) scale(0.08 -0.08)">
     <defs>
      <path id="DejaVuSans-Oblique-77" d="M 544 3500 
L 1113 3500 
L 1259 684 
L 2566 3500 
L 3231 3500 
L 3425 684 
L 4666 3500 
L 5241 3500 
L 3641 0 
L 2969 0 
L 2797 2900 
L 1459 0 
L 781 0 
L 544 3500 
z
" transform="scale(0.015625)"/>
      <path id="DejaVuSans-Oblique-2e" d="M 525 794 
L 1184 794 
L 1031 0 
L 372 0 
L 525 794 
z
" transform="scale(0.015625)"/>
     </defs>
     <use xlink:href="#DejaVuSans-Oblique-6c"/>
     <use xlink:href="#DejaVuSans-Oblique-6f" transform="translate(27.783203 0)"/>
     <use xlink:href="#DejaVuSans-Oblique-77" transform="translate(88.964844 0)"/>
     <use xlink:href="#DejaVuSans-Oblique-20" transform="translate(170.751953 0)"/>
     <use xlink:href="#DejaVuSans-Oblique-63" transform="translate(202.539062 0)"/>
     <use xlink:href="#DejaVuSans-Oblique-6f" transform="translate(257.519531 0)"/>
     <use xlink:href="#DejaVuSans-Oblique-6e" transform="translate(318.701172 0)"/>
     <use xlink:href="#DejaVuSans-Oblique-66" transform="translate(382.080078 0)"/>
     <use xlink:href="#DejaVuSans-Oblique-2e" transform="translate(415.535156 0)"/>
    </g>
   </g>
   <g id="patch_18">
    <path d="M 870.3 332.460927 
L 990.077143 332.460927 
Q 998.532 332.460927 998.532 324.806436 
L 998.532 209.989064 
Q 998.532 202.334573 990.077143 202.334573 
L 870.3 202.334573 
Q 861.845143 202.334573 861.845143 209.989064 
L 861.845143 324.806436 
Q 861.845143 332.460927 870.3 332.460927 
z
" clip-path="url(#p7d497440fa)" style="fill: #8da0cb; stroke: #ffffff; stroke-width: 2; stroke-linejoin: miter"/>
   </g>
   <g id="text_5">
    <g id="patch_19">
     <path d="M 693.890279 192.706995 
L 807.155435 192.706995 
Q 809.705435 192.706995 809.705435 190.156995 
L 809.705435 172.412448 
Q 809.705435 169.862448 807.155435 169.862448 
L 693.890279 169.862448 
Q 691.340279 169.862448 691.340279 172.412448 
L 691.340279 190.156995 
Q 691.340279 192.706995 693.890279 192.706995 
z
" style="fill: #fff7ec; opacity: 0.9; stroke: #fc8d62; stroke-linejoin: miter"/>
    </g>
    <!-- 7 flagged → human review -->
    <g style="fill: #fc8d62" transform="translate(693.890279 178.87112) scale(0.085 -0.085)">
     <defs>
      <path id="DejaVuSans-Oblique-67" d="M 3816 3500 
L 3219 434 
Q 3047 -456 2561 -893 
Q 2075 -1331 1253 -1331 
Q 950 -1331 690 -1286 
Q 431 -1241 206 -1147 
L 313 -588 
Q 525 -725 762 -790 
Q 1000 -856 1269 -856 
Q 1816 -856 2167 -557 
Q 2519 -259 2631 300 
L 2681 563 
Q 2441 288 2122 144 
Q 1803 0 1434 0 
Q 903 0 598 351 
Q 294 703 294 1319 
Q 294 1803 478 2267 
Q 663 2731 997 3091 
Q 1219 3328 1514 3456 
Q 1809 3584 2131 3584 
Q 2484 3584 2746 3420 
Q 3009 3256 3138 2956 
L 3238 3500 
L 3816 3500 
z
M 2950 2216 
Q 2950 2641 2750 2872 
Q 2550 3103 2181 3103 
Q 1953 3103 1747 3012 
Q 1541 2922 1394 2759 
Q 1156 2491 1023 2127 
Q 891 1763 891 1375 
Q 891 944 1092 712 
Q 1294 481 1672 481 
Q 2219 481 2584 976 
Q 2950 1472 2950 2216 
z
" transform="scale(0.015625)"/>
      <path id="DejaVuSans-Oblique-2192" d="M 5050 2147 
L 5050 1866 
L 3822 638 
L 3447 1013 
L 4175 1741 
L 366 1741 
L 366 2272 
L 4175 2272 
L 3447 3000 
L 3822 3375 
L 5050 2147 
z
" transform="scale(0.015625)"/>
      <path id="DejaVuSans-Oblique-75" d="M 428 1388 
L 838 3500 
L 1416 3500 
L 1006 1409 
Q 975 1256 961 1147 
Q 947 1038 947 966 
Q 947 700 1109 554 
Q 1272 409 1569 409 
Q 2031 409 2368 721 
Q 2706 1034 2809 1563 
L 3194 3500 
L 3769 3500 
L 3091 0 
L 2516 0 
L 2631 550 
Q 2388 244 2052 76 
Q 1716 -91 1338 -91 
Q 878 -91 622 161 
Q 366 413 366 863 
Q 366 956 381 1097 
Q 397 1238 428 1388 
z
" transform="scale(0.015625)"/>
      <path id="DejaVuSans-Oblique-76" d="M 459 3500 
L 1069 3500 
L 1581 525 
L 3256 3500 
L 3866 3500 
L 1875 0 
L 1100 0 
L 459 3500 
z
" transform="scale(0.015625)"/>
     </defs>
     <use xlink:href="#DejaVuSans-Oblique-37"/>
     <use xlink:href="#DejaVuSans-Oblique-20" transform="translate(63.623047 0)"/>
     <use xlink:href="#DejaVuSans-Oblique-66" transform="translate(95.410156 0)"/>
     <use xlink:href="#DejaVuSans-Oblique-6c" transform="translate(130.615234 0)"/>
     <use xlink:href="#DejaVuSans-Oblique-61" transform="translate(158.398438 0)"/>
     <use xlink:href="#DejaVuSans-Oblique-67" transform="translate(219.677734 0)"/>
     <use xlink:href="#DejaVuSans-Oblique-67" transform="translate(283.154297 0)"/>
     <use xlink:href="#DejaVuSans-Oblique-65" transform="translate(346.630859 0)"/>
     <use xlink:href="#DejaVuSans-Oblique-64" transform="translate(408.154297 0)"/>
     <use xlink:href="#DejaVuSans-Oblique-20" transform="translate(471.630859 0)"/>
     <use xlink:href="#DejaVuSans-Oblique-2192" transform="translate(503.417969 0)"/>
     <use xlink:href="#DejaVuSans-Oblique-20" transform="translate(587.207031 0)"/>
     <use xlink:href="#DejaVuSans-Oblique-68" transform="translate(618.994141 0)"/>
     <use xlink:href="#DejaVuSans-Oblique-75" transform="translate(682.373047 0)"/>
     <use xlink:href="#DejaVuSans-Oblique-6d" transform="translate(745.751953 0)"/>
     <use xlink:href="#DejaVuSans-Oblique-61" transform="translate(843.164062 0)"/>
     <use xlink:href="#DejaVuSans-Oblique-6e" transform="translate(904.443359 0)"/>
     <use xlink:href="#DejaVuSans-Oblique-20" transform="translate(967.822266 0)"/>
     <use xlink:href="#DejaVuSans-Oblique-72" transform="translate(999.609375 0)"/>
     <use xlink:href="#DejaVuSans-Oblique-65" transform="translate(1040.722656 0)"/>
     <use xlink:href="#DejaVuSans-Oblique-76" transform="translate(1102.246094 0)"/>
     <use xlink:href="#DejaVuSans-Oblique-69" transform="translate(1161.425781 0)"/>
     <use xlink:href="#DejaVuSans-Oblique-65" transform="translate(1189.208984 0)"/>
     <use xlink:href="#DejaVuSans-Oblique-77" transform="translate(1250.732422 0)"/>
    </g>
    <!-- 14 auto-accepted -->
    <g style="fill: #fc8d62" transform="translate(713.095631 188.38926) scale(0.085 -0.085)">
     <defs>
      <path id="DejaVuSans-Oblique-2d" d="M 391 2009 
L 2075 2009 
L 1978 1497 
L 288 1497 
L 391 2009 
z
" transform="scale(0.015625)"/>
     </defs>
     <use xlink:href="#DejaVuSans-Oblique-31"/>
     <use xlink:href="#DejaVuSans-Oblique-34" transform="translate(63.623047 0)"/>
     <use xlink:href="#DejaVuSans-Oblique-20" transform="translate(127.246094 0)"/>
     <use xlink:href="#DejaVuSans-Oblique-61" transform="translate(159.033203 0)"/>
     <use xlink:href="#DejaVuSans-Oblique-75" transform="translate(220.3125 0)"/>
     <use xlink:href="#DejaVuSans-Oblique-74" transform="translate(283.691406 0)"/>
     <use xlink:href="#DejaVuSans-Oblique-6f" transform="translate(322.900391 0)"/>
     <use xlink:href="#DejaVuSans-Oblique-2d" transform="translate(384.082031 0)"/>
     <use xlink:href="#DejaVuSans-Oblique-61" transform="translate(420.166016 0)"/>
     <use xlink:href="#DejaVuSans-Oblique-63" transform="translate(481.445312 0)"/>
     <use xlink:href="#DejaVuSans-Oblique-63" transform="translate(536.425781 0)"/>
     <use xlink:href="#DejaVuSans-Oblique-65" transform="translate(591.40625 0)"/>
     <use xlink:href="#DejaVuSans-Oblique-70" transform="translate(652.929688 0)"/>
     <use xlink:href="#DejaVuSans-Oblique-74" transform="translate(716.40625 0)"/>
     <use xlink:href="#DejaVuSans-Oblique-65" transform="translate(755.615234 0)"/>
     <use xlink:href="#DejaVuSans-Oblique-64" transform="translate(817.138672 0)"/>
    </g>
   </g>
   <g id="text_6">
    <!-- Figure 1 | AutoCorona NLP Pipeline Architecture -->
    <g transform="translate(337.254375 16.370625) scale(0.12 -0.12)">
     <defs>
      <path id="DejaVuSans-Bold-46" d="M 588 4666 
L 3834 4666 
L 3834 3756 
L 1791 3756 
L 1791 2888 
L 3713 2888 
L 3713 1978 
L 1791 1978 
L 1791 0 
L 588 0 
L 588 4666 
z
" transform="scale(0.015625)"/>
      <path id="DejaVuSans-Bold-69" d="M 538 3500 
L 1656 3500 
L 1656 0 
L 538 0 
L 538 3500 
z
M 538 4863 
L 1656 4863 
L 1656 3950 
L 538 3950 
L 538 4863 
z
" transform="scale(0.015625)"/>
      <path id="DejaVuSans-Bold-67" d="M 2919 594 
Q 2688 288 2409 144 
Q 2131 0 1766 0 
Q 1125 0 706 504 
Q 288 1009 288 1791 
Q 288 2575 706 3076 
Q 1125 3578 1766 3578 
Q 2131 3578 2409 3434 
Q 2688 3291 2919 2981 
L 2919 3500 
L 4044 3500 
L 4044 353 
Q 4044 -491 3511 -936 
Q 2978 -1381 1966 -1381 
Q 1638 -1381 1331 -1331 
Q 1025 -1281 716 -1178 
L 716 -306 
Q 1009 -475 1290 -558 
Q 1572 -641 1856 -641 
Q 2406 -641 2662 -400 
Q 2919 -159 2919 353 
L 2919 594 
z
M 2181 2772 
Q 1834 2772 1640 2515 
Q 1447 2259 1447 1791 
Q 1447 1309 1634 1061 
Q 1822 813 2181 813 
Q 2531 813 2725 1069 
Q 2919 1325 2919 1791 
Q 2919 2259 2725 2515 
Q 2531 2772 2181 2772 
z
" transform="scale(0.015625)"/>
      <path id="DejaVuSans-Bold-75" d="M 500 1363 
L 500 3500 
L 1625 3500 
L 1625 3150 
Q 1625 2866 1622 2436 
Q 1619 2006 1619 1863 
Q 1619 1441 1641 1255 
Q 1663 1069 1716 984 
Q 1784 875 1895 815 
Q 2006 756 2150 756 
Q 2500 756 2700 1025 
Q 2900 1294 2900 1772 
L 2900 3500 
L 4019 3500 
L 4019 0 
L 2900 0 
L 2900 506 
Q 2647 200 2364 54 
Q 2081 -91 1741 -91 
Q 1134 -91 817 281 
Q 500 653 500 1363 
z
" transform="scale(0.015625)"/>
      <path id="DejaVuSans-Bold-72" d="M 3138 2547 
Q 2991 2616 2845 2648 
Q 2700 2681 2553 2681 
Q 2122 2681 1889 2404 
Q 1656 2128 1656 1613 
L 1656 0 
L 538 0 
L 538 3500 
L 1656 3500 
L 1656 2925 
Q 1872 3269 2151 3426 
Q 2431 3584 2822 3584 
Q 2878 3584 2943 3579 
Q 3009 3575 3134 3559 
L 3138 2547 
z
" transform="scale(0.015625)"/>
      <path id="DejaVuSans-Bold-65" d="M 4031 1759 
L 4031 1441 
L 1416 1441 
Q 1456 1047 1700 850 
Q 1944 653 2381 653 
Q 2734 653 3104 758 
Q 3475 863 3866 1075 
L 3866 213 
Q 3469 63 3072 -14 
Q 2675 -91 2278 -91 
Q 1328 -91 801 392 
Q 275 875 275 1747 
Q 275 2603 792 3093 
Q 1309 3584 2216 3584 
Q 3041 3584 3536 3087 
Q 4031 2591 4031 1759 
z
M 2881 2131 
Q 2881 2450 2695 2645 
Q 2509 2841 2209 2841 
Q 1884 2841 1681 2658 
Q 1478 2475 1428 2131 
L 2881 2131 
z
" transform="scale(0.015625)"/>
      <path id="DejaVuSans-Bold-20" transform="scale(0.015625)"/>
      <path id="DejaVuSans-Bold-31" d="M 750 831 
L 1813 831 
L 1813 3847 
L 722 3622 
L 722 4441 
L 1806 4666 
L 2950 4666 
L 2950 831 
L 4013 831 
L 4013 0 
L 750 0 
L 750 831 
z
" transform="scale(0.015625)"/>
      <path id="DejaVuSans-Bold-7c" d="M 1522 4891 
L 1522 -1509 
L 813 -1509 
L 813 4891 
L 1522 4891 
z
" transform="scale(0.015625)"/>
      <path id="DejaVuSans-Bold-41" d="M 3419 850 
L 1538 850 
L 1241 0 
L 31 0 
L 1759 4666 
L 3194 4666 
L 4922 0 
L 3713 0 
L 3419 850 
z
M 1838 1716 
L 3116 1716 
L 2478 3572 
L 1838 1716 
z
" transform="scale(0.015625)"/>
      <path id="DejaVuSans-Bold-74" d="M 1759 4494 
L 1759 3500 
L 2913 3500 
L 2913 2700 
L 1759 2700 
L 1759 1216 
Q 1759 972 1856 886 
Q 1953 800 2241 800 
L 2816 800 
L 2816 0 
L 1856 0 
Q 1194 0 917 276 
Q 641 553 641 1216 
L 641 2700 
L 84 2700 
L 84 3500 
L 641 3500 
L 641 4494 
L 1759 4494 
z
" transform="scale(0.015625)"/>
      <path id="DejaVuSans-Bold-6f" d="M 2203 2784 
Q 1831 2784 1636 2517 
Q 1441 2250 1441 1747 
Q 1441 1244 1636 976 
Q 1831 709 2203 709 
Q 2569 709 2762 976 
Q 2956 1244 2956 1747 
Q 2956 2250 2762 2517 
Q 2569 2784 2203 2784 
z
M 2203 3584 
Q 3106 3584 3614 3096 
Q 4122 2609 4122 1747 
Q 4122 884 3614 396 
Q 3106 -91 2203 -91 
Q 1297 -91 786 396 
Q 275 884 275 1747 
Q 275 2609 786 3096 
Q 1297 3584 2203 3584 
z
" transform="scale(0.015625)"/>
      <path id="DejaVuSans-Bold-43" d="M 4288 256 
Q 3956 84 3597 -3 
Q 3238 -91 2847 -91 
Q 1681 -91 1000 561 
Q 319 1213 319 2328 
Q 319 3447 1000 4098 
Q 1681 4750 2847 4750 
Q 3238 4750 3597 4662 
Q 3956 4575 4288 4403 
L 4288 3438 
Q 3953 3666 3628 3772 
Q 3303 3878 2944 3878 
Q 2300 3878 1931 3465 
Q 1563 3053 1563 2328 
Q 1563 1606 1931 1193 
Q 2300 781 2944 781 
Q 3303 781 3628 887 
Q 3953 994 4288 1222 
L 4288 256 
z
" transform="scale(0.015625)"/>
      <path id="DejaVuSans-Bold-6e" d="M 4056 2131 
L 4056 0 
L 2931 0 
L 2931 347 
L 2931 1631 
Q 2931 2084 2911 2256 
Q 2891 2428 2841 2509 
Q 2775 2619 2662 2680 
Q 2550 2741 2406 2741 
Q 2056 2741 1856 2470 
Q 1656 2200 1656 1722 
L 1656 0 
L 538 0 
L 538 3500 
L 1656 3500 
L 1656 2988 
Q 1909 3294 2193 3439 
Q 2478 3584 2822 3584 
Q 3428 3584 3742 3212 
Q 4056 2841 4056 2131 
z
" transform="scale(0.015625)"/>
      <path id="DejaVuSans-Bold-61" d="M 2106 1575 
Q 1756 1575 1579 1456 
Q 1403 1338 1403 1106 
Q 1403 894 1545 773 
Q 1688 653 1941 653 
Q 2256 653 2472 879 
Q 2688 1106 2688 1447 
L 2688 1575 
L 2106 1575 
z
M 3816 1997 
L 3816 0 
L 2688 0 
L 2688 519 
Q 2463 200 2181 54 
Q 1900 -91 1497 -91 
Q 953 -91 614 226 
Q 275 544 275 1050 
Q 275 1666 698 1953 
Q 1122 2241 2028 2241 
L 2688 2241 
L 2688 2328 
Q 2688 2594 2478 2717 
Q 2269 2841 1825 2841 
Q 1466 2841 1156 2769 
Q 847 2697 581 2553 
L 581 3406 
Q 941 3494 1303 3539 
Q 1666 3584 2028 3584 
Q 2975 3584 3395 3211 
Q 3816 2838 3816 1997 
z
" transform="scale(0.015625)"/>
      <path id="DejaVuSans-Bold-4e" d="M 588 4666 
L 1931 4666 
L 3628 1466 
L 3628 4666 
L 4769 4666 
L 4769 0 
L 3425 0 
L 1728 3200 
L 1728 0 
L 588 0 
L 588 4666 
z
" transform="scale(0.015625)"/>
      <path id="DejaVuSans-Bold-4c" d="M 588 4666 
L 1791 4666 
L 1791 909 
L 3903 909 
L 3903 0 
L 588 0 
L 588 4666 
z
" transform="scale(0.015625)"/>
      <path id="DejaVuSans-Bold-50" d="M 588 4666 
L 2584 4666 
Q 3475 4666 3951 4270 
Q 4428 3875 4428 3144 
Q 4428 2409 3951 2014 
Q 3475 1619 2584 1619 
L 1791 1619 
L 1791 0 
L 588 0 
L 588 4666 
z
M 1791 3794 
L 1791 2491 
L 2456 2491 
Q 2806 2491 2997 2661 
Q 3188 2831 3188 3144 
Q 3188 3456 2997 3625 
Q 2806 3794 2456 3794 
L 1791 3794 
z
" transform="scale(0.015625)"/>
      <path id="DejaVuSans-Bold-70" d="M 1656 506 
L 1656 -1331 
L 538 -1331 
L 538 3500 
L 1656 3500 
L 1656 2988 
Q 1888 3294 2169 3439 
Q 2450 3584 2816 3584 
Q 3463 3584 3878 3070 
Q 4294 2556 4294 1747 
Q 4294 938 3878 423 
Q 3463 -91 2816 -91 
Q 2450 -91 2169 54 
Q 1888 200 1656 506 
z
M 2400 2772 
Q 2041 2772 1848 2508 
Q 1656 2244 1656 1747 
Q 1656 1250 1848 986 
Q 2041 722 2400 722 
Q 2759 722 2948 984 
Q 3138 1247 3138 1747 
Q 3138 2247 2948 2509 
Q 2759 2772 2400 2772 
z
" transform="scale(0.015625)"/>
      <path id="DejaVuSans-Bold-6c" d="M 538 4863 
L 1656 4863 
L 1656 0 
L 538 0 
L 538 4863 
z
" transform="scale(0.015625)"/>
      <path id="DejaVuSans-Bold-63" d="M 3366 3391 
L 3366 2478 
Q 3138 2634 2908 2709 
Q 2678 2784 2431 2784 
Q 1963 2784 1702 2511 
Q 1441 2238 1441 1747 
Q 1441 1256 1702 982 
Q 1963 709 2431 709 
Q 2694 709 2930 787 
Q 3166 866 3366 1019 
L 3366 103 
Q 3103 6 2833 -42 
Q 2563 -91 2291 -91 
Q 1344 -91 809 395 
Q 275 881 275 1747 
Q 275 2613 809 3098 
Q 1344 3584 2291 3584 
Q 2566 3584 2833 3536 
Q 3100 3488 3366 3391 
z
" transform="scale(0.015625)"/>
      <path id="DejaVuSans-Bold-68" d="M 4056 2131 
L 4056 0 
L 2931 0 
L 2931 347 
L 2931 1625 
Q 2931 2084 2911 2256 
Q 2891 2428 2841 2509 
Q 2775 2619 2662 2680 
Q 2550 2741 2406 2741 
Q 2056 2741 1856 2470 
Q 1656 2200 1656 1722 
L 1656 0 
L 538 0 
L 538 4863 
L 1656 4863 
L 1656 2988 
Q 1909 3294 2193 3439 
Q 2478 3584 2822 3584 
Q 3428 3584 3742 3212 
Q 4056 2841 4056 2131 
z
" transform="scale(0.015625)"/>
     </defs>
     <use xlink:href="#DejaVuSans-Bold-46"/>
     <use xlink:href="#DejaVuSans-Bold-69" transform="translate(68.310547 0)"/>
     <use xlink:href="#DejaVuSans-Bold-67" transform="translate(102.587891 0)"/>
     <use xlink:href="#DejaVuSans-Bold-75" transform="translate(174.169922 0)"/>
     <use xlink:href="#DejaVuSans-Bold-72" transform="translate(245.361328 0)"/>
     <use xlink:href="#DejaVuSans-Bold-65" transform="translate(294.677734 0)"/>
     <use xlink:href="#DejaVuSans-Bold-20" transform="translate(362.5 0)"/>
     <use xlink:href="#DejaVuSans-Bold-31" transform="translate(397.314453 0)"/>
     <use xlink:href="#DejaVuSans-Bold-20" transform="translate(466.894531 0)"/>
     <use xlink:href="#DejaVuSans-Bold-7c" transform="translate(501.708984 0)"/>
     <use xlink:href="#DejaVuSans-Bold-20" transform="translate(538.232422 0)"/>
     <use xlink:href="#DejaVuSans-Bold-41" transform="translate(573.046875 0)"/>
     <use xlink:href="#DejaVuSans-Bold-75" transform="translate(650.439453 0)"/>
     <use xlink:href="#DejaVuSans-Bold-74" transform="translate(721.630859 0)"/>
     <use xlink:href="#DejaVuSans-Bold-6f" transform="translate(769.433594 0)"/>
     <use xlink:href="#DejaVuSans-Bold-43" transform="translate(838.134766 0)"/>
     <use xlink:href="#DejaVuSans-Bold-6f" transform="translate(911.523438 0)"/>
     <use xlink:href="#DejaVuSans-Bold-72" transform="translate(980.224609 0)"/>
     <use xlink:href="#DejaVuSans-Bold-6f" transform="translate(1029.541016 0)"/>
     <use xlink:href="#DejaVuSans-Bold-6e" transform="translate(1098.242188 0)"/>
     <use xlink:href="#DejaVuSans-Bold-61" transform="translate(1169.433594 0)"/>
     <use xlink:href="#DejaVuSans-Bold-20" transform="translate(1236.914062 0)"/>
     <use xlink:href="#DejaVuSans-Bold-4e" transform="translate(1271.728516 0)"/>
     <use xlink:href="#DejaVuSans-Bold-4c" transform="translate(1355.419922 0)"/>
     <use xlink:href="#DejaVuSans-Bold-50" transform="translate(1419.140625 0)"/>
     <use xlink:href="#DejaVuSans-Bold-20" transform="translate(1492.431641 0)"/>
     <use xlink:href="#DejaVuSans-Bold-50" transform="translate(1527.246094 0)"/>
     <use xlink:href="#DejaVuSans-Bold-69" transform="translate(1600.537109 0)"/>
     <use xlink:href="#DejaVuSans-Bold-70" transform="translate(1634.814453 0)"/>
     <use xlink:href="#DejaVuSans-Bold-65" transform="translate(1706.396484 0)"/>
     <use xlink:href="#DejaVuSans-Bold-6c" transform="translate(1774.21875 0)"/>
     <use xlink:href="#DejaVuSans-Bold-69" transform="translate(1808.496094 0)"/>
     <use xlink:href="#DejaVuSans-Bold-6e" transform="translate(1842.773438 0)"/>
     <use xlink:href="#DejaVuSans-Bold-65" transform="translate(1913.964844 0)"/>
     <use xlink:href="#DejaVuSans-Bold-20" transform="translate(1981.787109 0)"/>
     <use xlink:href="#DejaVuSans-Bold-41" transform="translate(2016.601562 0)"/>
     <use xlink:href="#DejaVuSans-Bold-72" transform="translate(2093.994141 0)"/>
     <use xlink:href="#DejaVuSans-Bold-63" transform="translate(2143.310547 0)"/>
     <use xlink:href="#DejaVuSans-Bold-68" transform="translate(2202.587891 0)"/>
     <use xlink:href="#DejaVuSans-Bold-69" transform="translate(2273.779297 0)"/>
     <use xlink:href="#DejaVuSans-Bold-74" transform="translate(2308.056641 0)"/>
     <use xlink:href="#DejaVuSans-Bold-65" transform="translate(2355.859375 0)"/>
     <use xlink:href="#DejaVuSans-Bold-63" transform="translate(2423.681641 0)"/>
     <use xlink:href="#DejaVuSans-Bold-74" transform="translate(2482.958984 0)"/>
     <use xlink:href="#DejaVuSans-Bold-75" transform="translate(2530.761719 0)"/>
     <use xlink:href="#DejaVuSans-Bold-72" transform="translate(2601.953125 0)"/>
     <use xlink:href="#DejaVuSans-Bold-65" transform="translate(2651.269531 0)"/>
    </g>
    <!-- Automated Extraction of LNP Protein Corona Data from PMC Literature -->
    <g transform="translate(260.143125 30.14175) scale(0.12 -0.12)">
     <defs>
      <path id="DejaVuSans-Bold-6d" d="M 3781 2919 
Q 3994 3244 4286 3414 
Q 4578 3584 4928 3584 
Q 5531 3584 5847 3212 
Q 6163 2841 6163 2131 
L 6163 0 
L 5038 0 
L 5038 1825 
Q 5041 1866 5042 1909 
Q 5044 1953 5044 2034 
Q 5044 2406 4934 2573 
Q 4825 2741 4581 2741 
Q 4263 2741 4089 2478 
Q 3916 2216 3909 1719 
L 3909 0 
L 2784 0 
L 2784 1825 
Q 2784 2406 2684 2573 
Q 2584 2741 2328 2741 
Q 2006 2741 1831 2477 
Q 1656 2213 1656 1722 
L 1656 0 
L 531 0 
L 531 3500 
L 1656 3500 
L 1656 2988 
Q 1863 3284 2130 3434 
Q 2397 3584 2719 3584 
Q 3081 3584 3359 3409 
Q 3638 3234 3781 2919 
z
" transform="scale(0.015625)"/>
      <path id="DejaVuSans-Bold-64" d="M 2919 2988 
L 2919 4863 
L 4044 4863 
L 4044 0 
L 2919 0 
L 2919 506 
Q 2688 197 2409 53 
Q 2131 -91 1766 -91 
Q 1119 -91 703 423 
Q 288 938 288 1747 
Q 288 2556 703 3070 
Q 1119 3584 1766 3584 
Q 2128 3584 2408 3439 
Q 2688 3294 2919 2988 
z
M 2181 722 
Q 2541 722 2730 984 
Q 2919 1247 2919 1747 
Q 2919 2247 2730 2509 
Q 2541 2772 2181 2772 
Q 1825 2772 1636 2509 
Q 1447 2247 1447 1747 
Q 1447 1247 1636 984 
Q 1825 722 2181 722 
z
" transform="scale(0.015625)"/>
      <path id="DejaVuSans-Bold-45" d="M 588 4666 
L 3834 4666 
L 3834 3756 
L 1791 3756 
L 1791 2888 
L 3713 2888 
L 3713 1978 
L 1791 1978 
L 1791 909 
L 3903 909 
L 3903 0 
L 588 0 
L 588 4666 
z
" transform="scale(0.015625)"/>
      <path id="DejaVuSans-Bold-78" d="M 1422 1791 
L 159 3500 
L 1344 3500 
L 2059 2463 
L 2784 3500 
L 3969 3500 
L 2706 1797 
L 4031 0 
L 2847 0 
L 2059 1106 
L 1281 0 
L 97 0 
L 1422 1791 
z
" transform="scale(0.015625)"/>
      <path id="DejaVuSans-Bold-66" d="M 2841 4863 
L 2841 4128 
L 2222 4128 
Q 1984 4128 1890 4042 
Q 1797 3956 1797 3744 
L 1797 3500 
L 2753 3500 
L 2753 2700 
L 1797 2700 
L 1797 0 
L 678 0 
L 678 2700 
L 122 2700 
L 122 3500 
L 678 3500 
L 678 3744 
Q 678 4316 997 4589 
Q 1316 4863 1984 4863 
L 2841 4863 
z
" transform="scale(0.015625)"/>
      <path id="DejaVuSans-Bold-44" d="M 1791 3756 
L 1791 909 
L 2222 909 
Q 2959 909 3348 1275 
Q 3738 1641 3738 2338 
Q 3738 3031 3350 3393 
Q 2963 3756 2222 3756 
L 1791 3756 
z
M 588 4666 
L 1856 4666 
Q 2919 4666 3439 4514 
Q 3959 4363 4331 4000 
Q 4659 3684 4818 3271 
Q 4978 2859 4978 2338 
Q 4978 1809 4818 1395 
Q 4659 981 4331 666 
Q 3956 303 3431 151 
Q 2906 0 1856 0 
L 588 0 
L 588 4666 
z
" transform="scale(0.015625)"/>
      <path id="DejaVuSans-Bold-4d" d="M 588 4666 
L 2119 4666 
L 3181 2169 
L 4250 4666 
L 5778 4666 
L 5778 0 
L 4641 0 
L 4641 3413 
L 3566 897 
L 2803 897 
L 1728 3413 
L 1728 0 
L 588 0 
L 588 4666 
z
" transform="scale(0.015625)"/>
     </defs>
     <use xlink:href="#DejaVuSans-Bold-41"/>
     <use xlink:href="#DejaVuSans-Bold-75" transform="translate(77.392578 0)"/>
     <use xlink:href="#DejaVuSans-Bold-74" transform="translate(148.583984 0)"/>
     <use xlink:href="#DejaVuSans-Bold-6f" transform="translate(196.386719 0)"/>
     <use xlink:href="#DejaVuSans-Bold-6d" transform="translate(265.087891 0)"/>
     <use xlink:href="#DejaVuSans-Bold-61" transform="translate(369.287109 0)"/>
     <use xlink:href="#DejaVuSans-Bold-74" transform="translate(436.767578 0)"/>
     <use xlink:href="#DejaVuSans-Bold-65" transform="translate(484.570312 0)"/>
     <use xlink:href="#DejaVuSans-Bold-64" transform="translate(552.392578 0)"/>
     <use xlink:href="#DejaVuSans-Bold-20" transform="translate(623.974609 0)"/>
     <use xlink:href="#DejaVuSans-Bold-45" transform="translate(658.789062 0)"/>
     <use xlink:href="#DejaVuSans-Bold-78" transform="translate(727.099609 0)"/>
     <use xlink:href="#DejaVuSans-Bold-74" transform="translate(791.601562 0)"/>
     <use xlink:href="#DejaVuSans-Bold-72" transform="translate(839.404297 0)"/>
     <use xlink:href="#DejaVuSans-Bold-61" transform="translate(888.720703 0)"/>
     <use xlink:href="#DejaVuSans-Bold-63" transform="translate(956.201172 0)"/>
     <use xlink:href="#DejaVuSans-Bold-74" transform="translate(1015.478516 0)"/>
     <use xlink:href="#DejaVuSans-Bold-69" transform="translate(1063.28125 0)"/>
     <use xlink:href="#DejaVuSans-Bold-6f" transform="translate(1097.558594 0)"/>
     <use xlink:href="#DejaVuSans-Bold-6e" transform="translate(1166.259766 0)"/>
     <use xlink:href="#DejaVuSans-Bold-20" transform="translate(1237.451172 0)"/>
     <use xlink:href="#DejaVuSans-Bold-6f" transform="translate(1272.265625 0)"/>
     <use xlink:href="#DejaVuSans-Bold-66" transform="translate(1340.966797 0)"/>
     <use xlink:href="#DejaVuSans-Bold-20" transform="translate(1384.472656 0)"/>
     <use xlink:href="#DejaVuSans-Bold-4c" transform="translate(1419.287109 0)"/>
     <use xlink:href="#DejaVuSans-Bold-4e" transform="translate(1483.007812 0)"/>
     <use xlink:href="#DejaVuSans-Bold-50" transform="translate(1566.699219 0)"/>
     <use xlink:href="#DejaVuSans-Bold-20" transform="translate(1639.990234 0)"/>
     <use xlink:href="#DejaVuSans-Bold-50" transform="translate(1674.804688 0)"/>
     <use xlink:href="#DejaVuSans-Bold-72" transform="translate(1748.095703 0)"/>
     <use xlink:href="#DejaVuSans-Bold-6f" transform="translate(1797.412109 0)"/>
     <use xlink:href="#DejaVuSans-Bold-74" transform="translate(1866.113281 0)"/>
     <use xlink:href="#DejaVuSans-Bold-65" transform="translate(1913.916016 0)"/>
     <use xlink:href="#DejaVuSans-Bold-69" transform="translate(1981.738281 0)"/>
     <use xlink:href="#DejaVuSans-Bold-6e" transform="translate(2016.015625 0)"/>
     <use xlink:href="#DejaVuSans-Bold-20" transform="translate(2087.207031 0)"/>
     <use xlink:href="#DejaVuSans-Bold-43" transform="translate(2122.021484 0)"/>
     <use xlink:href="#DejaVuSans-Bold-6f" transform="translate(2195.410156 0)"/>
     <use xlink:href="#DejaVuSans-Bold-72" transform="translate(2264.111328 0)"/>
     <use xlink:href="#DejaVuSans-Bold-6f" transform="translate(2313.427734 0)"/>
     <use xlink:href="#DejaVuSans-Bold-6e" transform="translate(2382.128906 0)"/>
     <use xlink:href="#DejaVuSans-Bold-61" transform="translate(2453.320312 0)"/>
     <use xlink:href="#DejaVuSans-Bold-20" transform="translate(2520.800781 0)"/>
     <use xlink:href="#DejaVuSans-Bold-44" transform="translate(2555.615234 0)"/>
     <use xlink:href="#DejaVuSans-Bold-61" transform="translate(2638.623047 0)"/>
     <use xlink:href="#DejaVuSans-Bold-74" transform="translate(2706.103516 0)"/>
     <use xlink:href="#DejaVuSans-Bold-61" transform="translate(2753.90625 0)"/>
     <use xlink:href="#DejaVuSans-Bold-20" transform="translate(2821.386719 0)"/>
     <use xlink:href="#DejaVuSans-Bold-66" transform="translate(2856.201172 0)"/>
     <use xlink:href="#DejaVuSans-Bold-72" transform="translate(2899.707031 0)"/>
     <use xlink:href="#DejaVuSans-Bold-6f" transform="translate(2949.023438 0)"/>
     <use xlink:href="#DejaVuSans-Bold-6d" transform="translate(3017.724609 0)"/>
     <use xlink:href="#DejaVuSans-Bold-20" transform="translate(3121.923828 0)"/>
     <use xlink:href="#DejaVuSans-Bold-50" transform="translate(3156.738281 0)"/>
     <use xlink:href="#DejaVuSans-Bold-4d" transform="translate(3230.029297 0)"/>
     <use xlink:href="#DejaVuSans-Bold-43" transform="translate(3329.541016 0)"/>
     <use xlink:href="#DejaVuSans-Bold-20" transform="translate(3402.929688 0)"/>
     <use xlink:href="#DejaVuSans-Bold-4c" transform="translate(3437.744141 0)"/>
     <use xlink:href="#DejaVuSans-Bold-69" transform="translate(3501.464844 0)"/>
     <use xlink:href="#DejaVuSans-Bold-74" transform="translate(3535.742188 0)"/>
     <use xlink:href="#DejaVuSans-Bold-65" transform="translate(3583.544922 0)"/>
     <use xlink:href="#DejaVuSans-Bold-72" transform="translate(3651.367188 0)"/>
     <use xlink:href="#DejaVuSans-Bold-61" transform="translate(3700.683594 0)"/>
     <use xlink:href="#DejaVuSans-Bold-74" transform="translate(3768.164062 0)"/>
     <use xlink:href="#DejaVuSans-Bold-75" transform="translate(3815.966797 0)"/>
     <use xlink:href="#DejaVuSans-Bold-72" transform="translate(3887.158203 0)"/>
     <use xlink:href="#DejaVuSans-Bold-65" transform="translate(3936.474609 0)"/>
    </g>
   </g>
   <g id="text_7">
    <!-- PMC -->
    <g style="fill: #ffffff" transform="translate(72.392701 253.076482) scale(0.1 -0.1)">
     <use xlink:href="#DejaVuSans-Bold-50"/>
     <use xlink:href="#DejaVuSans-Bold-4d" transform="translate(73.291016 0)"/>
     <use xlink:href="#DejaVuSans-Bold-43" transform="translate(172.802734 0)"/>
    </g>
    <!-- Retrieval -->
    <g style="fill: #ffffff" transform="translate(59.152857 264.274294) scale(0.1 -0.1)">
     <defs>
      <path id="DejaVuSans-Bold-52" d="M 2297 2597 
Q 2675 2597 2839 2737 
Q 3003 2878 3003 3200 
Q 3003 3519 2839 3656 
Q 2675 3794 2297 3794 
L 1791 3794 
L 1791 2597 
L 2297 2597 
z
M 1791 1766 
L 1791 0 
L 588 0 
L 588 4666 
L 2425 4666 
Q 3347 4666 3776 4356 
Q 4206 4047 4206 3378 
Q 4206 2916 3982 2619 
Q 3759 2322 3309 2181 
Q 3556 2125 3751 1926 
Q 3947 1728 4147 1325 
L 4800 0 
L 3519 0 
L 2950 1159 
Q 2778 1509 2601 1637 
Q 2425 1766 2131 1766 
L 1791 1766 
z
" transform="scale(0.015625)"/>
      <path id="DejaVuSans-Bold-76" d="M 97 3500 
L 1216 3500 
L 2088 1081 
L 2956 3500 
L 4078 3500 
L 2700 0 
L 1472 0 
L 97 3500 
z
" transform="scale(0.015625)"/>
     </defs>
     <use xlink:href="#DejaVuSans-Bold-52"/>
     <use xlink:href="#DejaVuSans-Bold-65" transform="translate(77.001953 0)"/>
     <use xlink:href="#DejaVuSans-Bold-74" transform="translate(144.824219 0)"/>
     <use xlink:href="#DejaVuSans-Bold-72" transform="translate(192.626953 0)"/>
     <use xlink:href="#DejaVuSans-Bold-69" transform="translate(241.943359 0)"/>
     <use xlink:href="#DejaVuSans-Bold-65" transform="translate(276.220703 0)"/>
     <use xlink:href="#DejaVuSans-Bold-76" transform="translate(344.042969 0)"/>
     <use xlink:href="#DejaVuSans-Bold-61" transform="translate(409.228516 0)"/>
     <use xlink:href="#DejaVuSans-Bold-6c" transform="translate(476.708984 0)"/>
    </g>
   </g>
   <g id="text_8">
    <!-- n = 100 -->
    <g style="fill: #e41a1c" transform="translate(60.868951 297.223782) scale(0.11 -0.11)">
     <defs>
      <path id="DejaVuSans-Bold-3d" d="M 678 3084 
L 4684 3084 
L 4684 2350 
L 678 2350 
L 678 3084 
z
M 678 1663 
L 4684 1663 
L 4684 922 
L 678 922 
L 678 1663 
z
" transform="scale(0.015625)"/>
      <path id="DejaVuSans-Bold-30" d="M 2944 2338 
Q 2944 3213 2780 3570 
Q 2616 3928 2228 3928 
Q 1841 3928 1675 3570 
Q 1509 3213 1509 2338 
Q 1509 1453 1675 1090 
Q 1841 728 2228 728 
Q 2613 728 2778 1090 
Q 2944 1453 2944 2338 
z
M 4147 2328 
Q 4147 1169 3647 539 
Q 3147 -91 2228 -91 
Q 1306 -91 806 539 
Q 306 1169 306 2328 
Q 306 3491 806 4120 
Q 1306 4750 2228 4750 
Q 3147 4750 3647 4120 
Q 4147 3491 4147 2328 
z
" transform="scale(0.015625)"/>
     </defs>
     <use xlink:href="#DejaVuSans-Bold-6e"/>
     <use xlink:href="#DejaVuSans-Bold-20" transform="translate(71.191406 0)"/>
     <use xlink:href="#DejaVuSans-Bold-3d" transform="translate(106.005859 0)"/>
     <use xlink:href="#DejaVuSans-Bold-20" transform="translate(189.794922 0)"/>
     <use xlink:href="#DejaVuSans-Bold-31" transform="translate(224.609375 0)"/>
     <use xlink:href="#DejaVuSans-Bold-30" transform="translate(294.189453 0)"/>
     <use xlink:href="#DejaVuSans-Bold-30" transform="translate(363.769531 0)"/>
    </g>
   </g>
   <g id="text_9">
    <!-- papers -->
    <g style="fill: #ffffff" transform="translate(70.126021 315.670167) scale(0.085 -0.085)">
     <use xlink:href="#DejaVuSans-Oblique-70"/>
     <use xlink:href="#DejaVuSans-Oblique-61" transform="translate(63.476562 0)"/>
     <use xlink:href="#DejaVuSans-Oblique-70" transform="translate(124.755859 0)"/>
     <use xlink:href="#DejaVuSans-Oblique-65" transform="translate(188.232422 0)"/>
     <use xlink:href="#DejaVuSans-Oblique-72" transform="translate(249.755859 0)"/>
     <use xlink:href="#DejaVuSans-Oblique-73" transform="translate(290.869141 0)"/>
    </g>
   </g>
   <g id="text_10">
    <!-- XML -->
    <g style="fill: #ffffff" transform="translate(220.646451 253.076482) scale(0.1 -0.1)">
     <defs>
      <path id="DejaVuSans-Bold-58" d="M 3188 2381 
L 4806 0 
L 3553 0 
L 2463 1594 
L 1381 0 
L 122 0 
L 1741 2381 
L 184 4666 
L 1441 4666 
L 2463 3163 
L 3481 4666 
L 4744 4666 
L 3188 2381 
z
" transform="scale(0.015625)"/>
     </defs>
     <use xlink:href="#DejaVuSans-Bold-58"/>
     <use xlink:href="#DejaVuSans-Bold-4d" transform="translate(77.099609 0)"/>
     <use xlink:href="#DejaVuSans-Bold-4c" transform="translate(176.611328 0)"/>
    </g>
    <!-- Parse -->
    <g style="fill: #ffffff" transform="translate(216.922232 264.274294) scale(0.1 -0.1)">
     <defs>
      <path id="DejaVuSans-Bold-73" d="M 3272 3391 
L 3272 2541 
Q 2913 2691 2578 2766 
Q 2244 2841 1947 2841 
Q 1628 2841 1473 2761 
Q 1319 2681 1319 2516 
Q 1319 2381 1436 2309 
Q 1553 2238 1856 2203 
L 2053 2175 
Q 2913 2066 3209 1816 
Q 3506 1566 3506 1031 
Q 3506 472 3093 190 
Q 2681 -91 1863 -91 
Q 1516 -91 1145 -36 
Q 775 19 384 128 
L 384 978 
Q 719 816 1070 734 
Q 1422 653 1784 653 
Q 2113 653 2278 743 
Q 2444 834 2444 1013 
Q 2444 1163 2330 1236 
Q 2216 1309 1875 1350 
L 1678 1375 
Q 931 1469 631 1722 
Q 331 1975 331 2491 
Q 331 3047 712 3315 
Q 1094 3584 1881 3584 
Q 2191 3584 2531 3537 
Q 2872 3491 3272 3391 
z
" transform="scale(0.015625)"/>
     </defs>
     <use xlink:href="#DejaVuSans-Bold-50"/>
     <use xlink:href="#DejaVuSans-Bold-61" transform="translate(70.666016 0)"/>
     <use xlink:href="#DejaVuSans-Bold-72" transform="translate(138.146484 0)"/>
     <use xlink:href="#DejaVuSans-Bold-73" transform="translate(187.462891 0)"/>
     <use xlink:href="#DejaVuSans-Bold-65" transform="translate(246.984375 0)"/>
    </g>
   </g>
   <g id="text_11">
    <!-- n = 87 -->
    <g style="fill: #e41a1c" transform="translate(212.655748 297.223782) scale(0.11 -0.11)">
     <defs>
      <path id="DejaVuSans-Bold-38" d="M 2228 2088 
Q 1891 2088 1709 1903 
Q 1528 1719 1528 1375 
Q 1528 1031 1709 848 
Q 1891 666 2228 666 
Q 2563 666 2741 848 
Q 2919 1031 2919 1375 
Q 2919 1722 2741 1905 
Q 2563 2088 2228 2088 
z
M 1350 2484 
Q 925 2613 709 2878 
Q 494 3144 494 3541 
Q 494 4131 934 4440 
Q 1375 4750 2228 4750 
Q 3075 4750 3515 4442 
Q 3956 4134 3956 3541 
Q 3956 3144 3739 2878 
Q 3522 2613 3097 2484 
Q 3572 2353 3814 2058 
Q 4056 1763 4056 1313 
Q 4056 619 3595 264 
Q 3134 -91 2228 -91 
Q 1319 -91 855 264 
Q 391 619 391 1313 
Q 391 1763 633 2058 
Q 875 2353 1350 2484 
z
M 1631 3419 
Q 1631 3141 1786 2991 
Q 1941 2841 2228 2841 
Q 2509 2841 2662 2991 
Q 2816 3141 2816 3419 
Q 2816 3697 2662 3845 
Q 2509 3994 2228 3994 
Q 1941 3994 1786 3844 
Q 1631 3694 1631 3419 
z
" transform="scale(0.015625)"/>
      <path id="DejaVuSans-Bold-37" d="M 428 4666 
L 3944 4666 
L 3944 3988 
L 2125 0 
L 953 0 
L 2675 3781 
L 428 3781 
L 428 4666 
z
" transform="scale(0.015625)"/>
     </defs>
     <use xlink:href="#DejaVuSans-Bold-6e"/>
     <use xlink:href="#DejaVuSans-Bold-20" transform="translate(71.191406 0)"/>
     <use xlink:href="#DejaVuSans-Bold-3d" transform="translate(106.005859 0)"/>
     <use xlink:href="#DejaVuSans-Bold-20" transform="translate(189.794922 0)"/>
     <use xlink:href="#DejaVuSans-Bold-38" transform="translate(224.609375 0)"/>
     <use xlink:href="#DejaVuSans-Bold-37" transform="translate(294.189453 0)"/>
    </g>
   </g>
   <g id="text_12">
    <!-- parsed -->
    <g style="fill: #ffffff" transform="translate(218.086021 315.670167) scale(0.085 -0.085)">
     <use xlink:href="#DejaVuSans-Oblique-70"/>
     <use xlink:href="#DejaVuSans-Oblique-61" transform="translate(63.476562 0)"/>
     <use xlink:href="#DejaVuSans-Oblique-72" transform="translate(124.755859 0)"/>
     <use xlink:href="#DejaVuSans-Oblique-73" transform="translate(165.869141 0)"/>
     <use xlink:href="#DejaVuSans-Oblique-65" transform="translate(217.96875 0)"/>
     <use xlink:href="#DejaVuSans-Oblique-64" transform="translate(279.492188 0)"/>
    </g>
   </g>
   <g id="text_13">
    <!-- Regex + Dict -->
    <g style="fill: #ffffff" transform="translate(344.296295 253.037419) scale(0.1 -0.1)">
     <defs>
      <path id="DejaVuSans-Bold-2b" d="M 3053 4013 
L 3053 2375 
L 4684 2375 
L 4684 1638 
L 3053 1638 
L 3053 0 
L 2309 0 
L 2309 1638 
L 678 1638 
L 678 2375 
L 2309 2375 
L 2309 4013 
L 3053 4013 
z
" transform="scale(0.015625)"/>
     </defs>
     <use xlink:href="#DejaVuSans-Bold-52"/>
     <use xlink:href="#DejaVuSans-Bold-65" transform="translate(77.001953 0)"/>
     <use xlink:href="#DejaVuSans-Bold-67" transform="translate(144.824219 0)"/>
     <use xlink:href="#DejaVuSans-Bold-65" transform="translate(216.40625 0)"/>
     <use xlink:href="#DejaVuSans-Bold-78" transform="translate(284.228516 0)"/>
     <use xlink:href="#DejaVuSans-Bold-20" transform="translate(348.730469 0)"/>
     <use xlink:href="#DejaVuSans-Bold-2b" transform="translate(383.544922 0)"/>
     <use xlink:href="#DejaVuSans-Bold-20" transform="translate(467.333984 0)"/>
     <use xlink:href="#DejaVuSans-Bold-44" transform="translate(502.148438 0)"/>
     <use xlink:href="#DejaVuSans-Bold-69" transform="translate(585.15625 0)"/>
     <use xlink:href="#DejaVuSans-Bold-63" transform="translate(619.433594 0)"/>
     <use xlink:href="#DejaVuSans-Bold-74" transform="translate(678.710938 0)"/>
    </g>
    <!-- Extract -->
    <g style="fill: #ffffff" transform="translate(360.398638 264.313357) scale(0.1 -0.1)">
     <use xlink:href="#DejaVuSans-Bold-45"/>
     <use xlink:href="#DejaVuSans-Bold-78" transform="translate(68.310547 0)"/>
     <use xlink:href="#DejaVuSans-Bold-74" transform="translate(132.8125 0)"/>
     <use xlink:href="#DejaVuSans-Bold-72" transform="translate(180.615234 0)"/>
     <use xlink:href="#DejaVuSans-Bold-61" transform="translate(229.931641 0)"/>
     <use xlink:href="#DejaVuSans-Bold-63" transform="translate(297.412109 0)"/>
     <use xlink:href="#DejaVuSans-Bold-74" transform="translate(356.689453 0)"/>
    </g>
   </g>
   <g id="text_14">
    <!-- n = 43 -->
    <g style="fill: #e41a1c" transform="translate(360.615748 297.223782) scale(0.11 -0.11)">
     <defs>
      <path id="DejaVuSans-Bold-34" d="M 2356 3675 
L 1038 1722 
L 2356 1722 
L 2356 3675 
z
M 2156 4666 
L 3494 4666 
L 3494 1722 
L 4159 1722 
L 4159 850 
L 3494 850 
L 3494 0 
L 2356 0 
L 2356 850 
L 288 850 
L 288 1881 
L 2156 4666 
z
" transform="scale(0.015625)"/>
      <path id="DejaVuSans-Bold-33" d="M 2981 2516 
Q 3453 2394 3698 2092 
Q 3944 1791 3944 1325 
Q 3944 631 3412 270 
Q 2881 -91 1863 -91 
Q 1503 -91 1142 -33 
Q 781 25 428 141 
L 428 1069 
Q 766 900 1098 814 
Q 1431 728 1753 728 
Q 2231 728 2486 893 
Q 2741 1059 2741 1369 
Q 2741 1688 2480 1852 
Q 2219 2016 1709 2016 
L 1228 2016 
L 1228 2791 
L 1734 2791 
Q 2188 2791 2409 2933 
Q 2631 3075 2631 3366 
Q 2631 3634 2415 3781 
Q 2200 3928 1806 3928 
Q 1516 3928 1219 3862 
Q 922 3797 628 3669 
L 628 4550 
Q 984 4650 1334 4700 
Q 1684 4750 2022 4750 
Q 2931 4750 3382 4451 
Q 3834 4153 3834 3553 
Q 3834 3144 3618 2883 
Q 3403 2622 2981 2516 
z
" transform="scale(0.015625)"/>
     </defs>
     <use xlink:href="#DejaVuSans-Bold-6e"/>
     <use xlink:href="#DejaVuSans-Bold-20" transform="translate(71.191406 0)"/>
     <use xlink:href="#DejaVuSans-Bold-3d" transform="translate(106.005859 0)"/>
     <use xlink:href="#DejaVuSans-Bold-20" transform="translate(189.794922 0)"/>
     <use xlink:href="#DejaVuSans-Bold-34" transform="translate(224.609375 0)"/>
     <use xlink:href="#DejaVuSans-Bold-33" transform="translate(294.189453 0)"/>
    </g>
   </g>
   <g id="text_15">
    <!-- entries -->
    <g style="fill: #ffffff" transform="translate(365.891295 315.670167) scale(0.085 -0.085)">
     <use xlink:href="#DejaVuSans-Oblique-65"/>
     <use xlink:href="#DejaVuSans-Oblique-6e" transform="translate(61.523438 0)"/>
     <use xlink:href="#DejaVuSans-Oblique-74" transform="translate(124.902344 0)"/>
     <use xlink:href="#DejaVuSans-Oblique-72" transform="translate(164.111328 0)"/>
     <use xlink:href="#DejaVuSans-Oblique-69" transform="translate(205.224609 0)"/>
     <use xlink:href="#DejaVuSans-Oblique-65" transform="translate(233.007812 0)"/>
     <use xlink:href="#DejaVuSans-Oblique-73" transform="translate(294.53125 0)"/>
    </g>
   </g>
   <g id="text_16">
    <!-- Schema -->
    <g style="fill: #ffffff" transform="translate(506.482857 253.076482) scale(0.1 -0.1)">
     <defs>
      <path id="DejaVuSans-Bold-53" d="M 3834 4519 
L 3834 3531 
Q 3450 3703 3084 3790 
Q 2719 3878 2394 3878 
Q 1963 3878 1756 3759 
Q 1550 3641 1550 3391 
Q 1550 3203 1689 3098 
Q 1828 2994 2194 2919 
L 2706 2816 
Q 3484 2659 3812 2340 
Q 4141 2022 4141 1434 
Q 4141 663 3683 286 
Q 3225 -91 2284 -91 
Q 1841 -91 1394 -6 
Q 947 78 500 244 
L 500 1259 
Q 947 1022 1364 901 
Q 1781 781 2169 781 
Q 2563 781 2772 912 
Q 2981 1044 2981 1288 
Q 2981 1506 2839 1625 
Q 2697 1744 2272 1838 
L 1806 1941 
Q 1106 2091 782 2419 
Q 459 2747 459 3303 
Q 459 4000 909 4375 
Q 1359 4750 2203 4750 
Q 2588 4750 2994 4692 
Q 3400 4634 3834 4519 
z
" transform="scale(0.015625)"/>
     </defs>
     <use xlink:href="#DejaVuSans-Bold-53"/>
     <use xlink:href="#DejaVuSans-Bold-63" transform="translate(72.021484 0)"/>
     <use xlink:href="#DejaVuSans-Bold-68" transform="translate(131.298828 0)"/>
     <use xlink:href="#DejaVuSans-Bold-65" transform="translate(202.490234 0)"/>
     <use xlink:href="#DejaVuSans-Bold-6d" transform="translate(270.3125 0)"/>
     <use xlink:href="#DejaVuSans-Bold-61" transform="translate(374.511719 0)"/>
    </g>
    <!-- Validation -->
    <g style="fill: #ffffff" transform="translate(500.13442 264.274294) scale(0.1 -0.1)">
     <defs>
      <path id="DejaVuSans-Bold-56" d="M 31 4666 
L 1241 4666 
L 2478 1222 
L 3713 4666 
L 4922 4666 
L 3194 0 
L 1759 0 
L 31 4666 
z
" transform="scale(0.015625)"/>
     </defs>
     <use xlink:href="#DejaVuSans-Bold-56"/>
     <use xlink:href="#DejaVuSans-Bold-61" transform="translate(71.892578 0)"/>
     <use xlink:href="#DejaVuSans-Bold-6c" transform="translate(139.373047 0)"/>
     <use xlink:href="#DejaVuSans-Bold-69" transform="translate(173.650391 0)"/>
     <use xlink:href="#DejaVuSans-Bold-64" transform="translate(207.927734 0)"/>
     <use xlink:href="#DejaVuSans-Bold-61" transform="translate(279.509766 0)"/>
     <use xlink:href="#DejaVuSans-Bold-74" transform="translate(346.990234 0)"/>
     <use xlink:href="#DejaVuSans-Bold-69" transform="translate(394.792969 0)"/>
     <use xlink:href="#DejaVuSans-Bold-6f" transform="translate(429.070312 0)"/>
     <use xlink:href="#DejaVuSans-Bold-6e" transform="translate(497.771484 0)"/>
    </g>
   </g>
   <g id="text_17">
    <!-- n = 36 -->
    <g style="fill: #e41a1c" transform="translate(508.575748 297.223782) scale(0.11 -0.11)">
     <defs>
      <path id="DejaVuSans-Bold-36" d="M 2316 2303 
Q 2000 2303 1842 2098 
Q 1684 1894 1684 1484 
Q 1684 1075 1842 870 
Q 2000 666 2316 666 
Q 2634 666 2792 870 
Q 2950 1075 2950 1484 
Q 2950 1894 2792 2098 
Q 2634 2303 2316 2303 
z
M 3803 4544 
L 3803 3681 
Q 3506 3822 3243 3889 
Q 2981 3956 2731 3956 
Q 2194 3956 1894 3657 
Q 1594 3359 1544 2772 
Q 1750 2925 1990 3001 
Q 2231 3078 2516 3078 
Q 3231 3078 3670 2659 
Q 4109 2241 4109 1563 
Q 4109 813 3618 361 
Q 3128 -91 2303 -91 
Q 1394 -91 895 523 
Q 397 1138 397 2266 
Q 397 3422 980 4083 
Q 1563 4744 2578 4744 
Q 2900 4744 3203 4694 
Q 3506 4644 3803 4544 
z
" transform="scale(0.015625)"/>
     </defs>
     <use xlink:href="#DejaVuSans-Bold-6e"/>
     <use xlink:href="#DejaVuSans-Bold-20" transform="translate(71.191406 0)"/>
     <use xlink:href="#DejaVuSans-Bold-3d" transform="translate(106.005859 0)"/>
     <use xlink:href="#DejaVuSans-Bold-20" transform="translate(189.794922 0)"/>
     <use xlink:href="#DejaVuSans-Bold-33" transform="translate(224.609375 0)"/>
     <use xlink:href="#DejaVuSans-Bold-36" transform="translate(294.189453 0)"/>
    </g>
   </g>
   <g id="text_18">
    <!-- valid -->
    <g style="fill: #ffffff" transform="translate(518.403443 315.670167) scale(0.085 -0.085)">
     <use xlink:href="#DejaVuSans-Oblique-76"/>
     <use xlink:href="#DejaVuSans-Oblique-61" transform="translate(59.179688 0)"/>
     <use xlink:href="#DejaVuSans-Oblique-6c" transform="translate(120.458984 0)"/>
     <use xlink:href="#DejaVuSans-Oblique-69" transform="translate(148.242188 0)"/>
     <use xlink:href="#DejaVuSans-Oblique-64" transform="translate(176.025391 0)"/>
    </g>
   </g>
   <g id="text_19">
    <!-- Confidence -->
    <g style="fill: #ffffff" transform="translate(645.104576 253.037419) scale(0.1 -0.1)">
     <use xlink:href="#DejaVuSans-Bold-43"/>
     <use xlink:href="#DejaVuSans-Bold-6f" transform="translate(73.388672 0)"/>
     <use xlink:href="#DejaVuSans-Bold-6e" transform="translate(142.089844 0)"/>
     <use xlink:href="#DejaVuSans-Bold-66" transform="translate(213.28125 0)"/>
     <use xlink:href="#DejaVuSans-Bold-69" transform="translate(256.787109 0)"/>
     <use xlink:href="#DejaVuSans-Bold-64" transform="translate(291.064453 0)"/>
     <use xlink:href="#DejaVuSans-Bold-65" transform="translate(362.646484 0)"/>
     <use xlink:href="#DejaVuSans-Bold-6e" transform="translate(430.46875 0)"/>
     <use xlink:href="#DejaVuSans-Bold-63" transform="translate(501.660156 0)"/>
     <use xlink:href="#DejaVuSans-Bold-65" transform="translate(560.9375 0)"/>
    </g>
    <!-- Scoring -->
    <g style="fill: #ffffff" transform="translate(655.224888 264.235232) scale(0.1 -0.1)">
     <use xlink:href="#DejaVuSans-Bold-53"/>
     <use xlink:href="#DejaVuSans-Bold-63" transform="translate(72.021484 0)"/>
     <use xlink:href="#DejaVuSans-Bold-6f" transform="translate(131.298828 0)"/>
     <use xlink:href="#DejaVuSans-Bold-72" transform="translate(200 0)"/>
     <use xlink:href="#DejaVuSans-Bold-69" transform="translate(249.316406 0)"/>
     <use xlink:href="#DejaVuSans-Bold-6e" transform="translate(283.59375 0)"/>
     <use xlink:href="#DejaVuSans-Bold-67" transform="translate(354.785156 0)"/>
    </g>
   </g>
   <g id="text_20">
    <!-- n = 21 -->
    <g style="fill: #e41a1c" transform="translate(656.535748 297.223782) scale(0.11 -0.11)">
     <defs>
      <path id="DejaVuSans-Bold-32" d="M 1844 884 
L 3897 884 
L 3897 0 
L 506 0 
L 506 884 
L 2209 2388 
Q 2438 2594 2547 2791 
Q 2656 2988 2656 3200 
Q 2656 3528 2436 3728 
Q 2216 3928 1850 3928 
Q 1569 3928 1234 3808 
Q 900 3688 519 3450 
L 519 4475 
Q 925 4609 1322 4679 
Q 1719 4750 2100 4750 
Q 2938 4750 3402 4381 
Q 3866 4013 3866 3353 
Q 3866 2972 3669 2642 
Q 3472 2313 2841 1759 
L 1844 884 
z
" transform="scale(0.015625)"/>
     </defs>
     <use xlink:href="#DejaVuSans-Bold-6e"/>
     <use xlink:href="#DejaVuSans-Bold-20" transform="translate(71.191406 0)"/>
     <use xlink:href="#DejaVuSans-Bold-3d" transform="translate(106.005859 0)"/>
     <use xlink:href="#DejaVuSans-Bold-20" transform="translate(189.794922 0)"/>
     <use xlink:href="#DejaVuSans-Bold-32" transform="translate(224.609375 0)"/>
     <use xlink:href="#DejaVuSans-Bold-31" transform="translate(294.189453 0)"/>
    </g>
   </g>
   <g id="text_21">
    <!-- new entries -->
    <g style="fill: #ffffff" transform="translate(651.676373 315.670167) scale(0.085 -0.085)">
     <use xlink:href="#DejaVuSans-Oblique-6e"/>
     <use xlink:href="#DejaVuSans-Oblique-65" transform="translate(63.378906 0)"/>
     <use xlink:href="#DejaVuSans-Oblique-77" transform="translate(124.902344 0)"/>
     <use xlink:href="#DejaVuSans-Oblique-20" transform="translate(206.689453 0)"/>
     <use xlink:href="#DejaVuSans-Oblique-65" transform="translate(238.476562 0)"/>
     <use xlink:href="#DejaVuSans-Oblique-6e" transform="translate(300 0)"/>
     <use xlink:href="#DejaVuSans-Oblique-74" transform="translate(363.378906 0)"/>
     <use xlink:href="#DejaVuSans-Oblique-72" transform="translate(402.587891 0)"/>
     <use xlink:href="#DejaVuSans-Oblique-69" transform="translate(443.701172 0)"/>
     <use xlink:href="#DejaVuSans-Oblique-65" transform="translate(471.484375 0)"/>
     <use xlink:href="#DejaVuSans-Oblique-73" transform="translate(533.007812 0)"/>
    </g>
   </g>
   <g id="text_22">
    <!-- DB -->
    <g style="fill: #ffffff" transform="translate(816.541138 253.076482) scale(0.1 -0.1)">
     <defs>
      <path id="DejaVuSans-Bold-42" d="M 2456 2859 
Q 2741 2859 2887 2984 
Q 3034 3109 3034 3353 
Q 3034 3594 2887 3720 
Q 2741 3847 2456 3847 
L 1791 3847 
L 1791 2859 
L 2456 2859 
z
M 2497 819 
Q 2859 819 3042 972 
Q 3225 1125 3225 1434 
Q 3225 1738 3044 1889 
Q 2863 2041 2497 2041 
L 1791 2041 
L 1791 819 
L 2497 819 
z
M 3616 2497 
Q 4003 2384 4215 2081 
Q 4428 1778 4428 1338 
Q 4428 663 3972 331 
Q 3516 0 2584 0 
L 588 0 
L 588 4666 
L 2394 4666 
Q 3366 4666 3802 4372 
Q 4238 4078 4238 3431 
Q 4238 3091 4078 2852 
Q 3919 2613 3616 2497 
z
" transform="scale(0.015625)"/>
     </defs>
     <use xlink:href="#DejaVuSans-Bold-44"/>
     <use xlink:href="#DejaVuSans-Bold-42" transform="translate(83.007812 0)"/>
    </g>
    <!-- Export -->
    <g style="fill: #ffffff" transform="translate(805.992701 264.274294) scale(0.1 -0.1)">
     <use xlink:href="#DejaVuSans-Bold-45"/>
     <use xlink:href="#DejaVuSans-Bold-78" transform="translate(68.310547 0)"/>
     <use xlink:href="#DejaVuSans-Bold-70" transform="translate(132.8125 0)"/>
     <use xlink:href="#DejaVuSans-Bold-6f" transform="translate(204.394531 0)"/>
     <use xlink:href="#DejaVuSans-Bold-72" transform="translate(273.095703 0)"/>
     <use xlink:href="#DejaVuSans-Bold-74" transform="translate(322.412109 0)"/>
    </g>
   </g>
   <g id="text_23">
    <!-- n = 21 -->
    <g style="fill: #e41a1c" transform="translate(804.495748 297.223782) scale(0.11 -0.11)">
     <use xlink:href="#DejaVuSans-Bold-6e"/>
     <use xlink:href="#DejaVuSans-Bold-20" transform="translate(71.191406 0)"/>
     <use xlink:href="#DejaVuSans-Bold-3d" transform="translate(106.005859 0)"/>
     <use xlink:href="#DejaVuSans-Bold-20" transform="translate(189.794922 0)"/>
     <use xlink:href="#DejaVuSans-Bold-32" transform="translate(224.609375 0)"/>
     <use xlink:href="#DejaVuSans-Bold-31" transform="translate(294.189453 0)"/>
    </g>
   </g>
   <g id="text_24">
    <!-- exported -->
    <g style="fill: #ffffff" transform="translate(805.34731 315.670167) scale(0.085 -0.085)">
     <defs>
      <path id="DejaVuSans-Oblique-78" d="M 3841 3500 
L 2234 1784 
L 3219 0 
L 2559 0 
L 1819 1388 
L 531 0 
L -166 0 
L 1556 1844 
L 641 3500 
L 1300 3500 
L 1972 2234 
L 3144 3500 
L 3841 3500 
z
" transform="scale(0.015625)"/>
     </defs>
     <use xlink:href="#DejaVuSans-Oblique-65"/>
     <use xlink:href="#DejaVuSans-Oblique-78" transform="translate(61.523438 0)"/>
     <use xlink:href="#DejaVuSans-Oblique-70" transform="translate(120.703125 0)"/>
     <use xlink:href="#DejaVuSans-Oblique-6f" transform="translate(184.179688 0)"/>
     <use xlink:href="#DejaVuSans-Oblique-72" transform="translate(245.361328 0)"/>
     <use xlink:href="#DejaVuSans-Oblique-74" transform="translate(286.474609 0)"/>
     <use xlink:href="#DejaVuSans-Oblique-65" transform="translate(325.683594 0)"/>
     <use xlink:href="#DejaVuSans-Oblique-64" transform="translate(387.207031 0)"/>
    </g>
   </g>
   <g id="text_25">
    <!-- LNP Corona -->
    <g style="fill: #ffffff" transform="translate(899.10947 242.374595) scale(0.095 -0.095)">
     <use xlink:href="#DejaVuSans-Bold-4c"/>
     <use xlink:href="#DejaVuSans-Bold-4e" transform="translate(63.720703 0)"/>
     <use xlink:href="#DejaVuSans-Bold-50" transform="translate(147.412109 0)"/>
     <use xlink:href="#DejaVuSans-Bold-20" transform="translate(220.703125 0)"/>
     <use xlink:href="#DejaVuSans-Bold-43" transform="translate(255.517578 0)"/>
     <use xlink:href="#DejaVuSans-Bold-6f" transform="translate(328.90625 0)"/>
     <use xlink:href="#DejaVuSans-Bold-72" transform="translate(397.607422 0)"/>
     <use xlink:href="#DejaVuSans-Bold-6f" transform="translate(446.923828 0)"/>
     <use xlink:href="#DejaVuSans-Bold-6e" transform="translate(515.625 0)"/>
     <use xlink:href="#DejaVuSans-Bold-61" transform="translate(586.816406 0)"/>
    </g>
    <!-- Database -->
    <g style="fill: #ffffff" transform="translate(904.909665 253.012517) scale(0.095 -0.095)">
     <defs>
      <path id="DejaVuSans-Bold-62" d="M 2400 722 
Q 2759 722 2948 984 
Q 3138 1247 3138 1747 
Q 3138 2247 2948 2509 
Q 2759 2772 2400 2772 
Q 2041 2772 1848 2508 
Q 1656 2244 1656 1747 
Q 1656 1250 1848 986 
Q 2041 722 2400 722 
z
M 1656 2988 
Q 1888 3294 2169 3439 
Q 2450 3584 2816 3584 
Q 3463 3584 3878 3070 
Q 4294 2556 4294 1747 
Q 4294 938 3878 423 
Q 3463 -91 2816 -91 
Q 2450 -91 2169 54 
Q 1888 200 1656 506 
L 1656 0 
L 538 0 
L 538 4863 
L 1656 4863 
L 1656 2988 
z
" transform="scale(0.015625)"/>
     </defs>
     <use xlink:href="#DejaVuSans-Bold-44"/>
     <use xlink:href="#DejaVuSans-Bold-61" transform="translate(83.007812 0)"/>
     <use xlink:href="#DejaVuSans-Bold-74" transform="translate(150.488281 0)"/>
     <use xlink:href="#DejaVuSans-Bold-61" transform="translate(198.291016 0)"/>
     <use xlink:href="#DejaVuSans-Bold-62" transform="translate(265.771484 0)"/>
     <use xlink:href="#DejaVuSans-Bold-61" transform="translate(337.353516 0)"/>
     <use xlink:href="#DejaVuSans-Bold-73" transform="translate(404.833984 0)"/>
     <use xlink:href="#DejaVuSans-Bold-65" transform="translate(464.355469 0)"/>
    </g>
   </g>
   <g id="text_26">
    <!-- 43 entries -->
    <g style="fill: #ffffff" transform="translate(908.698181 287.309748) scale(0.085 -0.085)">
     <use xlink:href="#DejaVuSans-Oblique-34"/>
     <use xlink:href="#DejaVuSans-Oblique-33" transform="translate(63.623047 0)"/>
     <use xlink:href="#DejaVuSans-Oblique-20" transform="translate(127.246094 0)"/>
     <use xlink:href="#DejaVuSans-Oblique-65" transform="translate(159.033203 0)"/>
     <use xlink:href="#DejaVuSans-Oblique-6e" transform="translate(220.556641 0)"/>
     <use xlink:href="#DejaVuSans-Oblique-74" transform="translate(283.935547 0)"/>
     <use xlink:href="#DejaVuSans-Oblique-72" transform="translate(323.144531 0)"/>
     <use xlink:href="#DejaVuSans-Oblique-69" transform="translate(364.257812 0)"/>
     <use xlink:href="#DejaVuSans-Oblique-65" transform="translate(392.041016 0)"/>
     <use xlink:href="#DejaVuSans-Oblique-73" transform="translate(453.564453 0)"/>
    </g>
    <!-- (22 GS + 21 new) -->
    <g style="fill: #ffffff" transform="translate(892.316423 296.827889) scale(0.085 -0.085)">
     <defs>
      <path id="DejaVuSans-Oblique-28" d="M 2731 4856 
Q 1903 3822 1495 2892 
Q 1088 1963 1088 1100 
Q 1088 606 1206 120 
Q 1325 -366 1563 -844 
L 1063 -844 
Q 775 -306 634 201 
Q 494 709 494 1197 
Q 494 2125 923 3036 
Q 1353 3947 2222 4856 
L 2731 4856 
z
" transform="scale(0.015625)"/>
      <path id="DejaVuSans-Oblique-32" d="M 2950 2253 
L 934 525 
L 3163 525 
L 3053 0 
L 25 0 
L 128 531 
L 2234 2338 
Q 2656 2703 2832 2979 
Q 3009 3256 3009 3547 
Q 3009 3850 2796 4040 
Q 2584 4231 2241 4231 
Q 1944 4231 1581 4125 
Q 1219 4019 806 3816 
L 922 4441 
Q 1309 4594 1662 4672 
Q 2016 4750 2316 4750 
Q 2928 4750 3301 4425 
Q 3675 4100 3675 3572 
Q 3675 3216 3497 2892 
Q 3319 2569 2950 2253 
z
" transform="scale(0.015625)"/>
      <path id="DejaVuSans-Oblique-47" d="M 3494 697 
L 3738 1919 
L 2700 1919 
L 2797 2438 
L 4453 2438 
L 4050 384 
Q 3634 156 3143 32 
Q 2653 -91 2156 -91 
Q 1278 -91 783 396 
Q 288 884 288 1753 
Q 288 2475 589 3126 
Q 891 3778 1422 4213 
Q 1756 4484 2153 4617 
Q 2550 4750 3034 4750 
Q 3472 4750 3873 4639 
Q 4275 4528 4641 4306 
L 4513 3634 
Q 4231 3928 3853 4083 
Q 3475 4238 3047 4238 
Q 2550 4238 2172 4048 
Q 1794 3859 1497 3463 
Q 1244 3125 1098 2667 
Q 953 2209 953 1734 
Q 953 1081 1287 751 
Q 1622 422 2284 422 
Q 2616 422 2925 492 
Q 3234 563 3494 697 
z
" transform="scale(0.015625)"/>
      <path id="DejaVuSans-Oblique-53" d="M 3859 4513 
L 3738 3897 
Q 3422 4066 3111 4152 
Q 2800 4238 2509 4238 
Q 1944 4238 1609 3991 
Q 1275 3744 1275 3334 
Q 1275 3109 1398 2989 
Q 1522 2869 2034 2731 
L 2413 2638 
Q 3053 2472 3303 2217 
Q 3553 1963 3553 1503 
Q 3553 797 2998 353 
Q 2444 -91 1538 -91 
Q 1166 -91 791 -17 
Q 416 56 38 206 
L 166 856 
Q 513 641 861 531 
Q 1209 422 1556 422 
Q 2147 422 2503 684 
Q 2859 947 2859 1369 
Q 2859 1650 2717 1795 
Q 2575 1941 2106 2059 
L 1728 2156 
Q 1081 2325 845 2545 
Q 609 2766 609 3163 
Q 609 3859 1145 4304 
Q 1681 4750 2541 4750 
Q 2875 4750 3203 4690 
Q 3531 4631 3859 4513 
z
" transform="scale(0.015625)"/>
      <path id="DejaVuSans-Oblique-2b" d="M 2944 4013 
L 2944 2272 
L 4684 2272 
L 4684 1741 
L 2944 1741 
L 2944 0 
L 2419 0 
L 2419 1741 
L 678 1741 
L 678 2272 
L 2419 2272 
L 2419 4013 
L 2944 4013 
z
" transform="scale(0.015625)"/>
      <path id="DejaVuSans-Oblique-29" d="M -397 -844 
Q 434 191 840 1120 
Q 1247 2050 1247 2913 
Q 1247 3406 1130 3892 
Q 1013 4378 775 4856 
L 1275 4856 
Q 1563 4316 1703 3812 
Q 1844 3309 1844 2822 
Q 1844 1891 1411 973 
Q 978 56 116 -844 
L -397 -844 
z
" transform="scale(0.015625)"/>
     </defs>
     <use xlink:href="#DejaVuSans-Oblique-28"/>
     <use xlink:href="#DejaVuSans-Oblique-32" transform="translate(39.013672 0)"/>
     <use xlink:href="#DejaVuSans-Oblique-32" transform="translate(102.636719 0)"/>
     <use xlink:href="#DejaVuSans-Oblique-20" transform="translate(166.259766 0)"/>
     <use xlink:href="#DejaVuSans-Oblique-47" transform="translate(198.046875 0)"/>
     <use xlink:href="#DejaVuSans-Oblique-53" transform="translate(275.537109 0)"/>
     <use xlink:href="#DejaVuSans-Oblique-20" transform="translate(339.013672 0)"/>
     <use xlink:href="#DejaVuSans-Oblique-2b" transform="translate(370.800781 0)"/>
     <use xlink:href="#DejaVuSans-Oblique-20" transform="translate(454.589844 0)"/>
     <use xlink:href="#DejaVuSans-Oblique-32" transform="translate(486.376953 0)"/>
     <use xlink:href="#DejaVuSans-Oblique-31" transform="translate(550 0)"/>
     <use xlink:href="#DejaVuSans-Oblique-20" transform="translate(613.623047 0)"/>
     <use xlink:href="#DejaVuSans-Oblique-6e" transform="translate(645.410156 0)"/>
     <use xlink:href="#DejaVuSans-Oblique-65" transform="translate(708.789062 0)"/>
     <use xlink:href="#DejaVuSans-Oblique-77" transform="translate(770.3125 0)"/>
     <use xlink:href="#DejaVuSans-Oblique-29" transform="translate(852.099609 0)"/>
    </g>
   </g>
  </g>
  <g id="text_27">
   <!-- ⚠ SIMULATED DATA — pipeline counts are illustrative, not from a real PMC run -->
   <g style="fill: #cc0000" transform="translate(301.685625 496.41375) scale(0.09 -0.09)">
    <defs>
     <path id="DejaVuSans-BoldOblique-26a0" d="M 2897 4663 
L 2919 4663 
L 5425 28 
L 5425 0 
L 366 0 
L 341 28 
L 313 28 
Q 2797 4559 2897 4663 
z
M 2869 4075 
L 794 322 
L 794 269 
L 4972 269 
L 4972 297 
Q 2959 3988 2869 4075 
z
M 2897 3381 
Q 3138 3381 3138 3169 
Q 2975 1253 2897 1253 
Q 2825 1253 2656 3197 
Q 2734 3381 2897 3381 
z
M 2894 1022 
Q 2953 1022 3011 990 
Q 3069 959 3101 903 
Q 3134 847 3134 781 
Q 3134 719 3103 662 
Q 3072 606 3012 575 
Q 2953 544 2894 544 
Q 2831 544 2775 575 
Q 2719 606 2686 662 
Q 2653 719 2653 781 
Q 2653 847 2686 903 
Q 2719 959 2775 990 
Q 2831 1022 2894 1022 
z
" transform="scale(0.015625)"/>
     <path id="DejaVuSans-BoldOblique-20" transform="scale(0.015625)"/>
     <path id="DejaVuSans-BoldOblique-53" d="M 4256 4519 
L 4063 3531 
Q 3709 3706 3365 3792 
Q 3022 3878 2694 3878 
Q 2244 3878 1992 3737 
Q 1741 3597 1741 3347 
Q 1741 3188 1852 3098 
Q 1963 3009 2309 2925 
L 2803 2803 
Q 3422 2647 3711 2351 
Q 4000 2056 4000 1588 
Q 4000 828 3423 368 
Q 2847 -91 1875 -91 
Q 1422 -91 973 -6 
Q 525 78 97 244 
L 288 1259 
Q 703 1019 1095 900 
Q 1488 781 1869 781 
Q 2281 781 2539 950 
Q 2797 1119 2797 1381 
Q 2797 1553 2681 1648 
Q 2566 1744 2175 1844 
L 1684 1966 
Q 1141 2100 875 2390 
Q 609 2681 609 3144 
Q 609 3872 1167 4311 
Q 1725 4750 2669 4750 
Q 3047 4750 3445 4692 
Q 3844 4634 4256 4519 
z
" transform="scale(0.015625)"/>
     <path id="DejaVuSans-BoldOblique-49" d="M 1044 4666 
L 2247 4666 
L 1338 0 
L 134 0 
L 1044 4666 
z
" transform="scale(0.015625)"/>
     <path id="DejaVuSans-BoldOblique-4d" d="M 1044 4666 
L 2522 4666 
L 3122 2188 
L 4697 4666 
L 6234 4666 
L 5325 0 
L 4184 0 
L 4850 3444 
L 3231 897 
L 2584 897 
L 1941 3444 
L 1275 0 
L 134 0 
L 1044 4666 
z
" transform="scale(0.015625)"/>
     <path id="DejaVuSans-BoldOblique-55" d="M 1044 4666 
L 2247 4666 
L 1703 1872 
Q 1672 1722 1658 1606 
Q 1644 1491 1644 1403 
Q 1644 1097 1808 945 
Q 1972 794 2297 794 
Q 2734 794 2968 1039 
Q 3203 1284 3316 1869 
L 3859 4666 
L 5063 4666 
L 4519 1869 
Q 4316 838 3748 373 
Q 3181 -91 2125 -91 
Q 1297 -91 865 264 
Q 434 619 434 1294 
Q 434 1406 450 1545 
Q 466 1684 500 1869 
L 1044 4666 
z
" transform="scale(0.015625)"/>
     <path id="DejaVuSans-BoldOblique-4c" d="M 1044 4666 
L 2247 4666 
L 1516 909 
L 3622 909 
L 3450 0 
L 134 0 
L 1044 4666 
z
" transform="scale(0.015625)"/>
     <path id="DejaVuSans-BoldOblique-41" d="M 3144 850 
L 1281 850 
L 819 0 
L -416 0 
L 2222 4666 
L 3597 4666 
L 4422 0 
L 3278 0 
L 3144 850 
z
M 1734 1697 
L 2988 1697 
L 2706 3494 
L 1734 1697 
z
" transform="scale(0.015625)"/>
     <path id="DejaVuSans-BoldOblique-54" d="M 488 4666 
L 4788 4666 
L 4609 3756 
L 3059 3756 
L 2328 0 
L 1125 0 
L 1856 3756 
L 306 3756 
L 488 4666 
z
" transform="scale(0.015625)"/>
     <path id="DejaVuSans-BoldOblique-45" d="M 1044 4666 
L 4288 4666 
L 4109 3756 
L 2069 3756 
L 1900 2888 
L 3822 2888 
L 3641 1978 
L 1722 1978 
L 1516 909 
L 3622 909 
L 3450 0 
L 134 0 
L 1044 4666 
z
" transform="scale(0.015625)"/>
     <path id="DejaVuSans-BoldOblique-44" d="M 2075 3756 
L 1516 909 
L 1947 909 
Q 2788 909 3278 1381 
Q 3769 1853 3769 2656 
Q 3769 3200 3448 3478 
Q 3128 3756 2497 3756 
L 2075 3756 
z
M 1044 4666 
L 2309 4666 
Q 3216 4666 3669 4558 
Q 4122 4450 4422 4197 
Q 4725 3944 4878 3583 
Q 5031 3222 5031 2766 
Q 5031 2131 4770 1570 
Q 4509 1009 4038 628 
Q 3625 288 3079 144 
Q 2534 0 1403 0 
L 134 0 
L 1044 4666 
z
" transform="scale(0.015625)"/>
     <path id="DejaVuSans-BoldOblique-2014" d="M 313 2156 
L 6025 2156 
L 5866 1350 
L 153 1350 
L 313 2156 
z
" transform="scale(0.015625)"/>
     <path id="DejaVuSans-BoldOblique-70" d="M 1422 506 
L 1063 -1331 
L -63 -1331 
L 878 3500 
L 2003 3500 
L 1900 2988 
Q 2156 3294 2437 3439 
Q 2719 3584 3053 3584 
Q 3644 3584 3987 3209 
Q 4331 2834 4331 2188 
Q 4331 1784 4211 1403 
Q 4091 1022 3866 709 
Q 3581 316 3223 112 
Q 2866 -91 2456 -91 
Q 2097 -91 1845 54 
Q 1594 200 1422 506 
z
M 2597 2772 
Q 2166 2772 1892 2373 
Q 1619 1975 1619 1338 
Q 1619 1050 1773 886 
Q 1928 722 2203 722 
Q 2625 722 2900 1114 
Q 3175 1506 3175 2119 
Q 3175 2438 3026 2605 
Q 2878 2772 2597 2772 
z
" transform="scale(0.015625)"/>
     <path id="DejaVuSans-BoldOblique-69" d="M 878 3500 
L 2003 3500 
L 1319 0 
L 197 0 
L 878 3500 
z
M 1141 4863 
L 2266 4863 
L 2088 3950 
L 959 3950 
L 1141 4863 
z
" transform="scale(0.015625)"/>
     <path id="DejaVuSans-BoldOblique-65" d="M 4025 1619 
L 3988 1441 
L 1369 1441 
Q 1369 1422 1366 1386 
Q 1363 1350 1363 1331 
Q 1363 991 1567 822 
Q 1772 653 2181 653 
Q 2534 653 2926 759 
Q 3319 866 3750 1075 
L 3578 206 
Q 3169 56 2764 -17 
Q 2359 -91 1941 -91 
Q 1122 -91 676 287 
Q 231 666 231 1356 
Q 231 1756 373 2132 
Q 516 2509 788 2822 
Q 1109 3197 1557 3390 
Q 2006 3584 2553 3584 
Q 3263 3584 3680 3206 
Q 4097 2828 4097 2188 
Q 4097 2063 4080 1923 
Q 4063 1784 4025 1619 
z
M 2969 2131 
Q 2978 2172 2983 2214 
Q 2988 2256 2988 2297 
Q 2988 2547 2838 2694 
Q 2688 2841 2431 2841 
Q 2103 2841 1873 2661 
Q 1644 2481 1522 2131 
L 2969 2131 
z
" transform="scale(0.015625)"/>
     <path id="DejaVuSans-BoldOblique-6c" d="M 1141 4863 
L 2266 4863 
L 1319 0 
L 197 0 
L 1141 4863 
z
" transform="scale(0.015625)"/>
     <path id="DejaVuSans-BoldOblique-6e" d="M 4128 2131 
L 3713 0 
L 2591 0 
L 2944 1825 
Q 2981 2003 3001 2126 
Q 3022 2250 3022 2322 
Q 3022 2522 2911 2631 
Q 2800 2741 2597 2741 
Q 2250 2741 2001 2470 
Q 1753 2200 1656 1722 
L 1319 0 
L 197 0 
L 878 3500 
L 2003 3500 
L 1900 2988 
Q 2209 3291 2521 3437 
Q 2834 3584 3175 3584 
Q 3659 3584 3921 3331 
Q 4184 3078 4184 2619 
Q 4184 2519 4170 2397 
Q 4156 2275 4128 2131 
z
" transform="scale(0.015625)"/>
     <path id="DejaVuSans-BoldOblique-63" d="M 3719 3391 
L 3541 2478 
Q 3316 2628 3097 2706 
Q 2878 2784 2669 2784 
Q 2122 2784 1775 2417 
Q 1428 2050 1428 1478 
Q 1428 1113 1643 911 
Q 1859 709 2253 709 
Q 2516 709 2769 787 
Q 3022 866 3250 1019 
L 3078 103 
Q 2800 6 2519 -42 
Q 2238 -91 1953 -91 
Q 1128 -91 683 279 
Q 238 650 238 1331 
Q 238 1759 402 2162 
Q 566 2566 872 2888 
Q 1213 3241 1653 3412 
Q 2094 3584 2669 3584 
Q 2934 3584 3196 3536 
Q 3459 3488 3719 3391 
z
" transform="scale(0.015625)"/>
     <path id="DejaVuSans-BoldOblique-6f" d="M 2400 2784 
Q 1966 2784 1684 2390 
Q 1403 1997 1403 1388 
Q 1403 1056 1554 882 
Q 1706 709 1997 709 
Q 2431 709 2712 1104 
Q 2994 1500 2994 2113 
Q 2994 2441 2842 2612 
Q 2691 2784 2400 2784 
z
M 2491 3584 
Q 3272 3584 3719 3187 
Q 4166 2791 4166 2106 
Q 4166 1709 4025 1336 
Q 3884 963 3616 653 
Q 3297 284 2862 96 
Q 2428 -91 1894 -91 
Q 1122 -91 676 306 
Q 231 703 231 1388 
Q 231 1781 375 2157 
Q 519 2534 788 2847 
Q 1100 3209 1533 3396 
Q 1966 3584 2491 3584 
z
" transform="scale(0.015625)"/>
     <path id="DejaVuSans-BoldOblique-75" d="M 434 1363 
L 844 3500 
L 1966 3500 
L 1613 1678 
Q 1575 1500 1556 1375 
Q 1538 1250 1538 1178 
Q 1538 981 1647 872 
Q 1756 763 1959 763 
Q 2306 763 2556 1031 
Q 2806 1300 2900 1778 
L 3238 3500 
L 4359 3500 
L 3681 0 
L 2553 0 
L 2656 513 
Q 2369 209 2053 59 
Q 1738 -91 1388 -91 
Q 909 -91 646 162 
Q 384 416 384 878 
Q 384 988 396 1109 
Q 409 1231 434 1363 
z
" transform="scale(0.015625)"/>
     <path id="DejaVuSans-BoldOblique-74" d="M 2303 4494 
L 2113 3500 
L 3256 3500 
L 3097 2700 
L 1953 2700 
L 1666 1219 
Q 1653 1169 1648 1134 
Q 1644 1100 1644 1069 
Q 1644 925 1739 862 
Q 1834 800 2059 800 
L 2638 800 
L 2478 0 
L 1538 0 
Q 1031 0 765 212 
Q 500 425 500 825 
Q 500 913 509 1013 
Q 519 1113 538 1216 
L 825 2700 
L 275 2700 
L 428 3500 
L 984 3500 
L 1178 4494 
L 2303 4494 
z
" transform="scale(0.015625)"/>
     <path id="DejaVuSans-BoldOblique-73" d="M 3584 3391 
L 3419 2522 
Q 3091 2678 2766 2759 
Q 2441 2841 2150 2841 
Q 1819 2841 1639 2755 
Q 1459 2669 1459 2509 
Q 1459 2416 1559 2359 
Q 1659 2303 1953 2241 
L 2156 2203 
Q 2834 2059 3106 1832 
Q 3378 1606 3378 1203 
Q 3378 594 2900 251 
Q 2422 -91 1563 -91 
Q 1203 -91 828 -34 
Q 453 22 63 134 
L 231 1013 
Q 534 834 879 743 
Q 1225 653 1588 653 
Q 1941 653 2119 737 
Q 2297 822 2297 984 
Q 2297 1097 2197 1159 
Q 2097 1222 1784 1288 
L 1581 1325 
Q 981 1450 725 1694 
Q 469 1938 469 2369 
Q 469 2953 911 3268 
Q 1353 3584 2175 3584 
Q 2534 3584 2882 3536 
Q 3231 3488 3584 3391 
z
" transform="scale(0.015625)"/>
     <path id="DejaVuSans-BoldOblique-61" d="M 2106 1575 
Q 1688 1575 1473 1445 
Q 1259 1316 1259 1063 
Q 1259 872 1386 762 
Q 1513 653 1734 653 
Q 2078 653 2309 861 
Q 2541 1069 2619 1447 
L 2644 1575 
L 2106 1575 
z
M 3853 1997 
L 3463 0 
L 2344 0 
L 2438 519 
Q 2163 206 1856 57 
Q 1550 -91 1191 -91 
Q 694 -91 401 167 
Q 109 425 109 863 
Q 109 1531 626 1886 
Q 1144 2241 2119 2241 
L 2778 2241 
L 2791 2328 
Q 2800 2372 2801 2390 
Q 2803 2409 2803 2425 
Q 2803 2631 2608 2736 
Q 2413 2841 2028 2841 
Q 1681 2841 1356 2769 
Q 1031 2697 728 2553 
L 897 3406 
Q 1247 3494 1614 3539 
Q 1981 3584 2375 3584 
Q 3153 3584 3531 3317 
Q 3909 3050 3909 2503 
Q 3909 2397 3895 2270 
Q 3881 2144 3853 1997 
z
" transform="scale(0.015625)"/>
     <path id="DejaVuSans-BoldOblique-72" d="M 3291 2547 
Q 3175 2613 3034 2647 
Q 2894 2681 2731 2681 
Q 2303 2681 2020 2406 
Q 1738 2131 1638 1613 
L 1319 0 
L 197 0 
L 878 3500 
L 2003 3500 
L 1881 2900 
Q 2103 3231 2436 3407 
Q 2769 3584 3175 3584 
Q 3234 3584 3309 3578 
Q 3384 3572 3488 3559 
L 3291 2547 
z
" transform="scale(0.015625)"/>
     <path id="DejaVuSans-BoldOblique-76" d="M 403 3500 
L 1434 3500 
L 1888 1056 
L 3206 3500 
L 4341 3500 
L 2284 0 
L 1100 0 
L 403 3500 
z
" transform="scale(0.015625)"/>
     <path id="DejaVuSans-BoldOblique-2c" d="M 513 1209 
L 1638 1209 
L 1453 256 
L 447 -909 
L -219 -909 
L 325 256 
L 513 1209 
z
" transform="scale(0.015625)"/>
     <path id="DejaVuSans-BoldOblique-66" d="M 3456 4863 
L 3309 4128 
L 2694 4128 
Q 2459 4128 2351 4042 
Q 2244 3956 2203 3747 
L 2150 3500 
L 3097 3500 
L 2944 2700 
L 1997 2700 
L 1472 0 
L 347 0 
L 872 2700 
L 319 2700 
L 475 3500 
L 1025 3500 
L 1075 3744 
Q 1191 4325 1556 4594 
Q 1922 4863 2597 4863 
L 3456 4863 
z
" transform="scale(0.015625)"/>
     <path id="DejaVuSans-BoldOblique-6d" d="M 4013 2919 
Q 4272 3241 4601 3412 
Q 4931 3584 5288 3584 
Q 5756 3584 6026 3326 
Q 6297 3069 6297 2619 
Q 6297 2525 6283 2404 
Q 6269 2284 6241 2131 
L 5825 0 
L 4697 0 
L 5050 1825 
L 5059 1872 
Q 5141 2259 5141 2369 
Q 5141 2541 5042 2641 
Q 4944 2741 4775 2741 
Q 4453 2741 4229 2477 
Q 4006 2213 3909 1722 
L 3572 0 
L 2444 0 
L 2803 1825 
Q 2850 2059 2869 2179 
Q 2888 2300 2888 2369 
Q 2888 2544 2791 2642 
Q 2694 2741 2522 2741 
Q 2213 2741 1980 2467 
Q 1747 2194 1656 1722 
L 1319 0 
L 197 0 
L 878 3500 
L 2003 3500 
L 1900 2988 
Q 2163 3284 2459 3434 
Q 2756 3584 3078 3584 
Q 3441 3584 3700 3398 
Q 3959 3213 4013 2919 
z
" transform="scale(0.015625)"/>
     <path id="DejaVuSans-BoldOblique-50" d="M 1044 4666 
L 3041 4666 
Q 3775 4666 4189 4330 
Q 4603 3994 4603 3397 
Q 4603 3031 4465 2701 
Q 4328 2372 4072 2125 
Q 3794 1859 3409 1739 
Q 3025 1619 2444 1619 
L 1650 1619 
L 1338 0 
L 134 0 
L 1044 4666 
z
M 2081 3794 
L 1825 2491 
L 2491 2491 
Q 2916 2491 3141 2691 
Q 3366 2891 3366 3272 
Q 3366 3525 3205 3659 
Q 3044 3794 2741 3794 
L 2081 3794 
z
" transform="scale(0.015625)"/>
     <path id="DejaVuSans-BoldOblique-43" d="M 3878 219 
Q 3447 66 3050 -12 
Q 2653 -91 2297 -91 
Q 1356 -91 793 425 
Q 231 941 231 1791 
Q 231 2350 409 2845 
Q 588 3341 934 3750 
Q 1344 4231 1920 4490 
Q 2497 4750 3163 4750 
Q 3525 4750 3890 4664 
Q 4256 4578 4634 4403 
L 4441 3438 
Q 4141 3666 3837 3772 
Q 3534 3878 3188 3878 
Q 2466 3878 1978 3322 
Q 1491 2766 1491 1931 
Q 1491 1394 1791 1087 
Q 2091 781 2619 781 
Q 2934 781 3289 895 
Q 3644 1009 4084 1253 
L 3878 219 
z
" transform="scale(0.015625)"/>
    </defs>
    <use xlink:href="#DejaVuSans-BoldOblique-26a0"/>
    <use xlink:href="#DejaVuSans-BoldOblique-20" transform="translate(89.648438 0)"/>
    <use xlink:href="#DejaVuSans-BoldOblique-53" transform="translate(124.462891 0)"/>
    <use xlink:href="#DejaVuSans-BoldOblique-49" transform="translate(196.484375 0)"/>
    <use xlink:href="#DejaVuSans-BoldOblique-4d" transform="translate(233.691406 0)"/>
    <use xlink:href="#DejaVuSans-BoldOblique-55" transform="translate(333.203125 0)"/>
    <use xlink:href="#DejaVuSans-BoldOblique-4c" transform="translate(414.404297 0)"/>
    <use xlink:href="#DejaVuSans-BoldOblique-41" transform="translate(478.125 0)"/>
    <use xlink:href="#DejaVuSans-BoldOblique-54" transform="translate(545.892578 0)"/>
    <use xlink:href="#DejaVuSans-BoldOblique-45" transform="translate(614.105469 0)"/>
    <use xlink:href="#DejaVuSans-BoldOblique-44" transform="translate(682.416016 0)"/>
    <use xlink:href="#DejaVuSans-BoldOblique-20" transform="translate(765.423828 0)"/>
    <use xlink:href="#DejaVuSans-BoldOblique-44" transform="translate(800.238281 0)"/>
    <use xlink:href="#DejaVuSans-BoldOblique-41" transform="translate(883.246094 0)"/>
    <use xlink:href="#DejaVuSans-BoldOblique-54" transform="translate(951.013672 0)"/>
    <use xlink:href="#DejaVuSans-BoldOblique-41" transform="translate(1011.476562 0)"/>
    <use xlink:href="#DejaVuSans-BoldOblique-20" transform="translate(1088.869141 0)"/>
    <use xlink:href="#DejaVuSans-BoldOblique-2014" transform="translate(1123.683594 0)"/>
    <use xlink:href="#DejaVuSans-BoldOblique-20" transform="translate(1223.683594 0)"/>
    <use xlink:href="#DejaVuSans-BoldOblique-70" transform="translate(1258.498047 0)"/>
    <use xlink:href="#DejaVuSans-BoldOblique-69" transform="translate(1330.080078 0)"/>
    <use xlink:href="#DejaVuSans-BoldOblique-70" transform="translate(1364.357422 0)"/>
    <use xlink:href="#DejaVuSans-BoldOblique-65" transform="translate(1435.939453 0)"/>
    <use xlink:href="#DejaVuSans-BoldOblique-6c" transform="translate(1503.761719 0)"/>
    <use xlink:href="#DejaVuSans-BoldOblique-69" transform="translate(1538.039062 0)"/>
    <use xlink:href="#DejaVuSans-BoldOblique-6e" transform="translate(1572.316406 0)"/>
    <use xlink:href="#DejaVuSans-BoldOblique-65" transform="translate(1643.507812 0)"/>
    <use xlink:href="#DejaVuSans-BoldOblique-20" transform="translate(1711.330078 0)"/>
    <use xlink:href="#DejaVuSans-BoldOblique-63" transform="translate(1746.144531 0)"/>
    <use xlink:href="#DejaVuSans-BoldOblique-6f" transform="translate(1805.421875 0)"/>
    <use xlink:href="#DejaVuSans-BoldOblique-75" transform="translate(1874.123047 0)"/>
    <use xlink:href="#DejaVuSans-BoldOblique-6e" transform="translate(1945.314453 0)"/>
    <use xlink:href="#DejaVuSans-BoldOblique-74" transform="translate(2016.505859 0)"/>
    <use xlink:href="#DejaVuSans-BoldOblique-73" transform="translate(2064.308594 0)"/>
    <use xlink:href="#DejaVuSans-BoldOblique-20" transform="translate(2123.830078 0)"/>
    <use xlink:href="#DejaVuSans-BoldOblique-61" transform="translate(2158.644531 0)"/>
    <use xlink:href="#DejaVuSans-BoldOblique-72" transform="translate(2226.125 0)"/>
    <use xlink:href="#DejaVuSans-BoldOblique-65" transform="translate(2275.441406 0)"/>
    <use xlink:href="#DejaVuSans-BoldOblique-20" transform="translate(2343.263672 0)"/>
    <use xlink:href="#DejaVuSans-BoldOblique-69" transform="translate(2378.078125 0)"/>
    <use xlink:href="#DejaVuSans-BoldOblique-6c" transform="translate(2412.355469 0)"/>
    <use xlink:href="#DejaVuSans-BoldOblique-6c" transform="translate(2446.632812 0)"/>
    <use xlink:href="#DejaVuSans-BoldOblique-75" transform="translate(2480.910156 0)"/>
    <use xlink:href="#DejaVuSans-BoldOblique-73" transform="translate(2552.101562 0)"/>
    <use xlink:href="#DejaVuSans-BoldOblique-74" transform="translate(2611.623047 0)"/>
    <use xlink:href="#DejaVuSans-BoldOblique-72" transform="translate(2659.425781 0)"/>
    <use xlink:href="#DejaVuSans-BoldOblique-61" transform="translate(2708.742188 0)"/>
    <use xlink:href="#DejaVuSans-BoldOblique-74" transform="translate(2776.222656 0)"/>
    <use xlink:href="#DejaVuSans-BoldOblique-69" transform="translate(2824.025391 0)"/>
    <use xlink:href="#DejaVuSans-BoldOblique-76" transform="translate(2858.302734 0)"/>
    <use xlink:href="#DejaVuSans-BoldOblique-65" transform="translate(2923.488281 0)"/>
    <use xlink:href="#DejaVuSans-BoldOblique-2c" transform="translate(2991.310547 0)"/>
    <use xlink:href="#DejaVuSans-BoldOblique-20" transform="translate(3029.298828 0)"/>
    <use xlink:href="#DejaVuSans-BoldOblique-6e" transform="translate(3064.113281 0)"/>
    <use xlink:href="#DejaVuSans-BoldOblique-6f" transform="translate(3135.304688 0)"/>
    <use xlink:href="#DejaVuSans-BoldOblique-74" transform="translate(3204.005859 0)"/>
    <use xlink:href="#DejaVuSans-BoldOblique-20" transform="translate(3251.808594 0)"/>
    <use xlink:href="#DejaVuSans-BoldOblique-66" transform="translate(3286.623047 0)"/>
    <use xlink:href="#DejaVuSans-BoldOblique-72" transform="translate(3330.128906 0)"/>
    <use xlink:href="#DejaVuSans-BoldOblique-6f" transform="translate(3379.445312 0)"/>
    <use xlink:href="#DejaVuSans-BoldOblique-6d" transform="translate(3448.146484 0)"/>
    <use xlink:href="#DejaVuSans-BoldOblique-20" transform="translate(3552.345703 0)"/>
    <use xlink:href="#DejaVuSans-BoldOblique-61" transform="translate(3587.160156 0)"/>
    <use xlink:href="#DejaVuSans-BoldOblique-20" transform="translate(3654.640625 0)"/>
    <use xlink:href="#DejaVuSans-BoldOblique-72" transform="translate(3689.455078 0)"/>
    <use xlink:href="#DejaVuSans-BoldOblique-65" transform="translate(3738.771484 0)"/>
    <use xlink:href="#DejaVuSans-BoldOblique-61" transform="translate(3806.59375 0)"/>
    <use xlink:href="#DejaVuSans-BoldOblique-6c" transform="translate(3874.074219 0)"/>
    <use xlink:href="#DejaVuSans-BoldOblique-20" transform="translate(3908.351562 0)"/>
    <use xlink:href="#DejaVuSans-BoldOblique-50" transform="translate(3943.166016 0)"/>
    <use xlink:href="#DejaVuSans-BoldOblique-4d" transform="translate(4016.457031 0)"/>
    <use xlink:href="#DejaVuSans-BoldOblique-43" transform="translate(4115.96875 0)"/>
    <use xlink:href="#DejaVuSans-BoldOblique-20" transform="translate(4189.357422 0)"/>
    <use xlink:href="#DejaVuSans-BoldOblique-72" transform="translate(4224.171875 0)"/>
    <use xlink:href="#DejaVuSans-BoldOblique-75" transform="translate(4273.488281 0)"/>
    <use xlink:href="#DejaVuSans-BoldOblique-6e" transform="translate(4344.679688 0)"/>
   </g>
  </g>
 </g>
 <defs>
  <clipPath id="p7d497440fa">
   <rect x="7.2" y="44.14175" width="986.4" height="446.512"/>
  </clipPath>
 </defs>
</svg>
