<?xml version="1.0" encoding="utf-8" standalone="no"?>
<!DOCTYPE svg PUBLIC "-//W3C//DTD SVG 1.1//EN"
  "http://www.w3.org/Graphics/SVG/1.1/DTD/svg11.dtd">
<svg xmlns:xlink="http://www.w3.org/1999/xlink" width="390.189375pt" height="494.104416pt" viewBox="0 0 390.189375 494.104416" xmlns="http://www.w3.org/2000/svg" version="1.1">
 <metadata>
  <rdf:RDF xmlns:dc="http://purl.org/dc/elements/1.1/" xmlns:cc="http://creativecommons.org/ns#" xmlns:rdf="http://www.w3.org/1999/02/22-rdf-syntax-ns#">
   <cc:Work>
    <dc:type rdf:resource="http://purl.org/dc/dcmitype/StillImage"/>
    <dc:date>2026-03-06T22:43:32.804020</dc:date>
    <dc:format>image/svg+xml</dc:format>
    <dc:creator>
     <cc:Agent>
      <dc:title>Matplotlib v3.10.5, https://matplotlib.org/</dc:title>
     </cc:Agent>
    </dc:creator>
   </cc:Work>
  </rdf:RDF>
 </metadata>
 <defs>
  <style type="text/css">*{stroke-linejoin: round; stroke-linecap: butt}</style>
 </defs>
 <g id="figure_1">
  <g id="patch_1">
   <path d="M 0 494.104416 
L 390.189375 494.104416 
L 390.189375 0 
L 0 0 
z
" style="fill: #ffffff"/>
  </g>
  <g id="axes_1">
   <g id="patch_2">
    <path d="M 186.127723 85.226392 
C 160.315156 77.490595 132.592651 79.019884 107.787596 89.547962 
C 82.982541 100.076041 62.623446 118.954157 50.255491 142.895019 
C 37.887537 166.835881 34.272847 194.364231 40.040856 220.686489 
C 45.808865 247.008746 60.604144 270.502911 81.850354 287.077884 
C 78.837834 268.07339 80.125009 248.633022 85.616875 230.191615 
C 91.108741 211.750209 100.666778 194.77291 113.585535 180.512764 
C 116.285264 159.673899 124.406501 139.903726 137.134972 123.184491 
C 149.863444 106.465256 166.759037 93.375062 186.127723 85.226392 
" clip-path="url(#p5b647bd2f6)" style="fill: #4393c3; opacity: 0.55"/>
   </g>
   <g id="patch_3">
    <path d="M 186.127723 85.226392 
C 201.900336 89.953305 216.482319 97.996462 228.894482 108.815761 
C 241.306645 119.635061 251.264801 132.982784 258.100254 147.962625 
C 279.814774 156.929918 298.665227 171.673676 312.599235 190.588647 
C 326.533244 209.503619 335.026068 231.877485 337.153037 255.274253 
C 349.540088 233.467687 354.792141 208.31977 352.168265 183.378226 
C 349.544389 158.436682 339.174061 134.932255 322.520267 116.180815 
C 305.866473 97.429375 283.750997 84.356216 259.293764 78.805622 
C 234.83653 73.255029 209.244386 75.500897 186.127723 85.226392 
" clip-path="url(#p5b647bd2f6)" style="fill: #d6604d; opacity: 0.55"/>
   </g>
   <g id="patch_4">
    <path d="M 186.127723 85.226392 
C 166.759037 93.375062 149.863444 106.465256 137.134972 123.184491 
C 124.406501 139.903726 116.285264 159.673899 113.585535 180.512764 
C 131.384941 160.865199 154.827438 147.188777 180.690743 141.36339 
C 206.554047 135.538003 233.596245 137.843376 258.100254 147.962625 
C 251.264801 132.982784 241.306645 119.635061 228.894482 108.815761 
C 216.482319 97.996462 201.900336 89.953305 186.127723 85.226392 
" clip-path="url(#p5b647bd2f6)" style="fill: #c5aabe; opacity: 0.55"/>
   </g>
   <g id="patch_5">
    <path d="M 81.850354 287.077884 
C 87.076789 320.04887 104.930823 349.72689 131.610361 369.791878 
C 158.289899 389.856867 191.756392 398.775684 224.883001 394.649027 
C 258.009609 390.522371 288.265173 373.665554 309.206635 347.66831 
C 330.148097 321.671066 340.175347 288.519811 337.153037 255.274253 
C 322.635257 280.831823 299.229721 300.192439 271.403462 309.661054 
C 243.577204 319.129669 213.220743 318.062984 186.127723 306.664581 
C 168.446253 311.963561 149.750004 312.950743 131.608822 309.543236 
C 113.467641 306.135729 96.403894 298.431652 81.850354 287.077884 
" clip-path="url(#p5b647bd2f6)" style="fill: #74c476; opacity: 0.55"/>
   </g>
   <g id="patch_6">
    <path d="M 81.850354 287.077884 
C 96.403894 298.431652 113.467641 306.135729 131.608822 309.543236 
C 149.750004 312.950743 168.446253 311.963561 186.127723 306.664581 
C 161.903042 296.472928 141.679929 278.607256 128.578812 255.824243 
C 115.477696 233.041229 110.208947 206.576218 113.585535 180.512764 
C 100.666778 194.77291 91.108741 211.750209 85.616875 230.191615 
C 80.125009 248.633022 78.837834 268.07339 81.850354 287.077884 
" clip-path="url(#p5b647bd2f6)" style="fill: #80f0db; opacity: 0.55"/>
   </g>
   <g id="patch_7">
    <path d="M 258.100254 147.962625 
C 264.954486 162.98362 268.51125 179.300371 268.53042 195.81129 
C 268.54959 212.322209 265.030723 228.647175 258.211389 243.684046 
C 251.392055 258.720917 241.42925 272.123508 228.995591 282.986975 
C 216.561931 293.850442 201.943669 301.924682 186.127723 306.664581 
C 213.220743 318.062984 243.577204 319.129669 271.403462 309.661054 
C 299.229721 300.192439 322.635257 280.831823 337.153037 255.274253 
C 335.026068 231.877485 326.533244 209.503619 312.599235 190.588647 
C 298.665227 171.673676 279.814774 156.929918 258.100254 147.962625 
" clip-path="url(#p5b647bd2f6)" style="fill: #e7cc88; opacity: 0.55"/>
   </g>
   <g id="patch_8">
    <path d="M 113.585535 180.512764 
C 110.208947 206.576218 115.477696 233.041229 128.578812 255.824243 
C 141.679929 278.607256 161.903042 296.472928 186.127723 306.664581 
C 201.943669 301.924682 216.561931 293.850442 228.995591 282.986975 
C 241.42925 272.123508 251.392055 258.720917 258.211389 243.684046 
C 265.030723 228.647175 268.54959 212.322209 268.53042 195.81129 
C 268.51125 179.300371 264.954486 162.98362 258.100254 147.962625 
C 233.596245 137.843376 206.554047 135.538003 180.690743 141.36339 
C 154.827438 147.188777 131.384941 160.865199 113.585535 180.512764 
" clip-path="url(#p5b647bd2f6)" style="fill: #9fb09c; opacity: 0.55"/>
   </g>
   <g id="patch_9">
    <path d="M 152.946191 311.529793 
C 183.599508 311.529793 213.00147 299.351102 234.676638 277.675934 
C 256.351806 256.000766 268.530498 226.598803 268.530498 195.945487 
C 268.530498 165.29217 256.351806 135.890208 234.676638 114.21504 
C 213.00147 92.539872 183.599508 80.36118 152.946191 80.36118 
C 122.292875 80.36118 92.890912 92.539872 71.215744 114.21504 
C 49.540576 135.890208 37.361885 165.29217 37.361885 195.945487 
C 37.361885 226.598803 49.540576 256.000766 71.215744 277.675934 
C 92.890912 299.351102 122.292875 311.529793 152.946191 311.529793 
L 152.946191 311.529793 
z
" clip-path="url(#p5b647bd2f6)" style="fill: none; stroke: #555555; stroke-width: 1.5; stroke-linejoin: miter"/>
   </g>
   <g id="patch_10">
    <path d="M 232.708755 316.064222 
C 264.564616 316.064222 295.120032 303.407754 317.645527 280.882259 
C 340.171023 258.356764 352.82749 227.801348 352.82749 195.945487 
C 352.82749 164.089626 340.171023 133.53421 317.645527 111.008715 
C 295.120032 88.483219 264.564616 75.826752 232.708755 75.826752 
C 200.852894 75.826752 170.297479 88.483219 147.771983 111.008715 
C 125.246488 133.53421 112.59002 164.089626 112.59002 195.945487 
C 112.59002 227.801348 125.246488 258.356764 147.771983 280.882259 
C 170.297479 303.407754 200.852894 316.064222 232.708755 316.064222 
L 232.708755 316.064222 
z
" clip-path="url(#p5b647bd2f6)" style="fill: none; stroke: #555555; stroke-width: 1.5; stroke-linejoin: miter"/>
   </g>
   <g id="patch_11">
    <path d="M 208.972378 395.636223 
C 243.106466 395.636223 275.847106 382.074606 299.983552 357.938161 
C 324.119997 333.801715 337.681614 301.061075 337.681614 266.926987 
C 337.681614 232.792898 324.119997 200.052258 299.983552 175.915813 
C 275.847106 151.779367 243.106466 138.21775 208.972378 138.21775 
C 174.838289 138.21775 142.097649 151.779367 117.961204 175.915813 
C 93.824758 200.052258 80.263141 232.792898 80.263141 266.926987 
C 80.263141 301.061075 93.824758 333.801715 117.961204 357.938161 
C 142.097649 382.074606 174.838289 395.636223 208.972378 395.636223 
L 208.972378 395.636223 
z
" clip-path="url(#p5b647bd2f6)" style="fill: none; stroke: #555555; stroke-width: 1.5; stroke-linejoin: miter"/>
   </g>
   <g id="text_1">
    <!-- 7 -->
    <g style="fill: #1a1a1a" transform="translate(72.402649 158.126133) scale(0.11 -0.11)">
     <defs>
      <path id="DejaVuSans-Bold-37" d="M 428 4666 
L 3944 4666 
L 3944 3988 
L 2125 0 
L 953 0 
L 2675 3781 
L 428 3781 
L 428 4666 
z
" transform="scale(0.015625)"/>
     </defs>
     <use xlink:href="#DejaVuSans-Bold-37"/>
    </g>
   </g>
   <g id="text_2">
    <!-- 6 -->
    <g style="fill: #1a1a1a" transform="translate(298.238978 136.099882) scale(0.11 -0.11)">
     <defs>
      <path id="DejaVuSans-Bold-36" d="M 2316 2303 
Q 2000 2303 1842 2098 
Q 1684 1894 1684 1484 
Q 1684 1075 1842 870 
Q 2000 666 2316 666 
Q 2634 666 2792 870 
Q 2950 1075 2950 1484 
Q 2950 1894 2792 2098 
Q 2634 2303 2316 2303 
z
M 3803 4544 
L 3803 3681 
Q 3506 3822 3243 3889 
Q 2981 3956 2731 3956 
Q 2194 3956 1894 3657 
Q 1594 3359 1544 2772 
Q 1750 2925 1990 3001 
Q 2231 3078 2516 3078 
Q 3231 3078 3670 2659 
Q 4109 2241 4109 1563 
Q 4109 813 3618 361 
Q 3128 -91 2303 -91 
Q 1394 -91 895 523 
Q 397 1138 397 2266 
Q 397 3422 980 4083 
Q 1563 4744 2578 4744 
Q 2900 4744 3203 4694 
Q 3506 4644 3803 4544 
z
" transform="scale(0.015625)"/>
     </defs>
     <use xlink:href="#DejaVuSans-Bold-36"/>
    </g>
   </g>
   <g id="text_3">
    <!-- 3 -->
    <g style="fill: #1a1a1a" transform="translate(175.450183 129.441901) scale(0.11 -0.11)">
     <defs>
      <path id="DejaVuSans-Bold-33" d="M 2981 2516 
Q 3453 2394 3698 2092 
Q 3944 1791 3944 1325 
Q 3944 631 3412 270 
Q 2881 -91 1863 -91 
Q 1503 -91 1142 -33 
Q 781 25 428 141 
L 428 1069 
Q 766 900 1098 814 
Q 1431 728 1753 728 
Q 2231 728 2486 893 
Q 2741 1059 2741 1369 
Q 2741 1688 2480 1852 
Q 2219 2016 1709 2016 
L 1228 2016 
L 1228 2791 
L 1734 2791 
Q 2188 2791 2409 2933 
Q 2631 3075 2631 3366 
Q 2631 3634 2415 3781 
Q 2200 3928 1806 3928 
Q 1516 3928 1219 3862 
Q 922 3797 628 3669 
L 628 4550 
Q 984 4650 1334 4700 
Q 1684 4750 2022 4750 
Q 2931 4750 3382 4451 
Q 3834 4153 3834 3553 
Q 3834 3144 3618 2883 
Q 3403 2622 2981 2516 
z
" transform="scale(0.015625)"/>
     </defs>
     <use xlink:href="#DejaVuSans-Bold-33"/>
    </g>
   </g>
   <g id="text_4">
    <!-- 10 -->
    <g style="fill: #1a1a1a" transform="translate(213.327687 360.355783) scale(0.11 -0.11)">
     <defs>
      <path id="DejaVuSans-Bold-31" d="M 750 831 
L 1813 831 
L 1813 3847 
L 722 3622 
L 722 4441 
L 1806 4666 
L 2950 4666 
L 2950 831 
L 4013 831 
L 4013 0 
L 750 0 
L 750 831 
z
" transform="scale(0.015625)"/>
      <path id="DejaVuSans-Bold-30" d="M 2944 2338 
Q 2944 3213 2780 3570 
Q 2616 3928 2228 3928 
Q 1841 3928 1675 3570 
Q 1509 3213 1509 2338 
Q 1509 1453 1675 1090 
Q 1841 728 2228 728 
Q 2613 728 2778 1090 
Q 2944 1453 2944 2338 
z
M 4147 2328 
Q 4147 1169 3647 539 
Q 3147 -91 2228 -91 
Q 1306 -91 806 539 
Q 306 1169 306 2328 
Q 306 3491 806 4120 
Q 1306 4750 2228 4750 
Q 3147 4750 3647 4120 
Q 4147 3491 4147 2328 
z
" transform="scale(0.015625)"/>
     </defs>
     <use xlink:href="#DejaVuSans-Bold-31"/>
     <use xlink:href="#DejaVuSans-Bold-30" transform="translate(69.580078 0)"/>
    </g>
   </g>
   <g id="text_5">
    <!-- 3 -->
    <g style="fill: #1a1a1a" transform="translate(113.480202 267.858991) scale(0.11 -0.11)">
     <use xlink:href="#DejaVuSans-Bold-33"/>
    </g>
   </g>
   <g id="text_6">
    <!-- 6 -->
    <g style="fill: #1a1a1a" transform="translate(272.828575 255.671143) scale(0.11 -0.11)">
     <use xlink:href="#DejaVuSans-Bold-36"/>
    </g>
   </g>
   <g id="text_7">
    <!-- 12 -->
    <g style="fill: #1a1a1a" transform="translate(188.281006 220.823412) scale(0.11 -0.11)">
     <defs>
      <path id="DejaVuSans-Bold-32" d="M 1844 884 
L 3897 884 
L 3897 0 
L 506 0 
L 506 884 
L 2209 2388 
Q 2438 2594 2547 2791 
Q 2656 2988 2656 3200 
Q 2656 3528 2436 3728 
Q 2216 3928 1850 3928 
Q 1569 3928 1234 3808 
Q 900 3688 519 3450 
L 519 4475 
Q 925 4609 1322 4679 
Q 1719 4750 2100 4750 
Q 2938 4750 3402 4381 
Q 3866 4013 3866 3353 
Q 3866 2972 3669 2642 
Q 3472 2313 2841 1759 
L 1844 884 
z
" transform="scale(0.015625)"/>
     </defs>
     <use xlink:href="#DejaVuSans-Bold-31"/>
     <use xlink:href="#DejaVuSans-Bold-32" transform="translate(69.580078 0)"/>
    </g>
   </g>
   <g id="text_8">
    <!-- BRCA2-mut -->
    <g style="fill: #1a1a1a" transform="translate(18.562163 66.923805) scale(0.12 -0.12)">
     <defs>
      <path id="DejaVuSans-Bold-42" d="M 2456 2859 
Q 2741 2859 2887 2984 
Q 3034 3109 3034 3353 
Q 3034 3594 2887 3720 
Q 2741 3847 2456 3847 
L 1791 3847 
L 1791 2859 
L 2456 2859 
z
M 2497 819 
Q 2859 819 3042 972 
Q 3225 1125 3225 1434 
Q 3225 1738 3044 1889 
Q 2863 2041 2497 2041 
L 1791 2041 
L 1791 819 
L 2497 819 
z
M 3616 2497 
Q 4003 2384 4215 2081 
Q 4428 1778 4428 1338 
Q 4428 663 3972 331 
Q 3516 0 2584 0 
L 588 0 
L 588 4666 
L 2394 4666 
Q 3366 4666 3802 4372 
Q 4238 4078 4238 3431 
Q 4238 3091 4078 2852 
Q 3919 2613 3616 2497 
z
" transform="scale(0.015625)"/>
      <path id="DejaVuSans-Bold-52" d="M 2297 2597 
Q 2675 2597 2839 2737 
Q 3003 2878 3003 3200 
Q 3003 3519 2839 3656 
Q 2675 3794 2297 3794 
L 1791 3794 
L 1791 2597 
L 2297 2597 
z
M 1791 1766 
L 1791 0 
L 588 0 
L 588 4666 
L 2425 4666 
Q 3347 4666 3776 4356 
Q 4206 4047 4206 3378 
Q 4206 2916 3982 2619 
Q 3759 2322 3309 2181 
Q 3556 2125 3751 1926 
Q 3947 1728 4147 1325 
L 4800 0 
L 3519 0 
L 2950 1159 
Q 2778 1509 2601 1637 
Q 2425 1766 2131 1766 
L 1791 1766 
z
" transform="scale(0.015625)"/>
      <path id="DejaVuSans-Bold-43" d="M 4288 256 
Q 3956 84 3597 -3 
Q 3238 -91 2847 -91 
Q 1681 -91 1000 561 
Q 319 1213 319 2328 
Q 319 3447 1000 4098 
Q 1681 4750 2847 4750 
Q 3238 4750 3597 4662 
Q 3956 4575 4288 4403 
L 4288 3438 
Q 3953 3666 3628 3772 
Q 3303 3878 2944 3878 
Q 2300 3878 1931 3465 
Q 1563 3053 1563 2328 
Q 1563 1606 1931 1193 
Q 2300 781 2944 781 
Q 3303 781 3628 887 
Q 3953 994 4288 1222 
L 4288 256 
z
" transform="scale(0.015625)"/>
      <path id="DejaVuSans-Bold-41" d="M 3419 850 
L 1538 850 
L 1241 0 
L 31 0 
L 1759 4666 
L 3194 4666 
L 4922 0 
L 3713 0 
L 3419 850 
z
M 1838 1716 
L 3116 1716 
L 2478 3572 
L 1838 1716 
z
" transform="scale(0.015625)"/>
      <path id="DejaVuSans-Bold-2d" d="M 347 2297 
L 2309 2297 
L 2309 1388 
L 347 1388 
L 347 2297 
z
" transform="scale(0.015625)"/>
      <path id="DejaVuSans-Bold-6d" d="M 3781 2919 
Q 3994 3244 4286 3414 
Q 4578 3584 4928 3584 
Q 5531 3584 5847 3212 
Q 6163 2841 6163 2131 
L 6163 0 
L 5038 0 
L 5038 1825 
Q 5041 1866 5042 1909 
Q 5044 1953 5044 2034 
Q 5044 2406 4934 2573 
Q 4825 2741 4581 2741 
Q 4263 2741 4089 2478 
Q 3916 2216 3909 1719 
L 3909 0 
L 2784 0 
L 2784 1825 
Q 2784 2406 2684 2573 
Q 2584 2741 2328 2741 
Q 2006 2741 1831 2477 
Q 1656 2213 1656 1722 
L 1656 0 
L 531 0 
L 531 3500 
L 1656 3500 
L 1656 2988 
Q 1863 3284 2130 3434 
Q 2397 3584 2719 3584 
Q 3081 3584 3359 3409 
Q 3638 3234 3781 2919 
z
" transform="scale(0.015625)"/>
      <path id="DejaVuSans-Bold-75" d="M 500 1363 
L 500 3500 
L 1625 3500 
L 1625 3150 
Q 1625 2866 1622 2436 
Q 1619 2006 1619 1863 
Q 1619 1441 1641 1255 
Q 1663 1069 1716 984 
Q 1784 875 1895 815 
Q 2006 756 2150 756 
Q 2500 756 2700 1025 
Q 2900 1294 2900 1772 
L 2900 3500 
L 4019 3500 
L 4019 0 
L 2900 0 
L 2900 506 
Q 2647 200 2364 54 
Q 2081 -91 1741 -91 
Q 1134 -91 817 281 
Q 500 653 500 1363 
z
" transform="scale(0.015625)"/>
      <path id="DejaVuSans-Bold-74" d="M 1759 4494 
L 1759 3500 
L 2913 3500 
L 2913 2700 
L 1759 2700 
L 1759 1216 
Q 1759 972 1856 886 
Q 1953 800 2241 800 
L 2816 800 
L 2816 0 
L 1856 0 
Q 1194 0 917 276 
Q 641 553 641 1216 
L 641 2700 
L 84 2700 
L 84 3500 
L 641 3500 
L 641 4494 
L 1759 4494 
z
" transform="scale(0.015625)"/>
     </defs>
     <use xlink:href="#DejaVuSans-Bold-42"/>
     <use xlink:href="#DejaVuSans-Bold-52" transform="translate(76.220703 0)"/>
     <use xlink:href="#DejaVuSans-Bold-43" transform="translate(153.222656 0)"/>
     <use xlink:href="#DejaVuSans-Bold-41" transform="translate(226.611328 0)"/>
     <use xlink:href="#DejaVuSans-Bold-32" transform="translate(304.003906 0)"/>
     <use xlink:href="#DejaVuSans-Bold-2d" transform="translate(373.583984 0)"/>
     <use xlink:href="#DejaVuSans-Bold-6d" transform="translate(415.087891 0)"/>
     <use xlink:href="#DejaVuSans-Bold-75" transform="translate(519.287109 0)"/>
     <use xlink:href="#DejaVuSans-Bold-74" transform="translate(590.478516 0)"/>
    </g>
    <!-- vs WT -->
    <g style="fill: #1a1a1a" transform="translate(54.590288 80.36118) scale(0.12 -0.12)">
     <defs>
      <path id="DejaVuSans-Bold-76" d="M 97 3500 
L 1216 3500 
L 2088 1081 
L 2956 3500 
L 4078 3500 
L 2700 0 
L 1472 0 
L 97 3500 
z
" transform="scale(0.015625)"/>
      <path id="DejaVuSans-Bold-73" d="M 3272 3391 
L 3272 2541 
Q 2913 2691 2578 2766 
Q 2244 2841 1947 2841 
Q 1628 2841 1473 2761 
Q 1319 2681 1319 2516 
Q 1319 2381 1436 2309 
Q 1553 2238 1856 2203 
L 2053 2175 
Q 2913 2066 3209 1816 
Q 3506 1566 3506 1031 
Q 3506 472 3093 190 
Q 2681 -91 1863 -91 
Q 1516 -91 1145 -36 
Q 775 19 384 128 
L 384 978 
Q 719 816 1070 734 
Q 1422 653 1784 653 
Q 2113 653 2278 743 
Q 2444 834 2444 1013 
Q 2444 1163 2330 1236 
Q 2216 1309 1875 1350 
L 1678 1375 
Q 931 1469 631 1722 
Q 331 1975 331 2491 
Q 331 3047 712 3315 
Q 1094 3584 1881 3584 
Q 2191 3584 2531 3537 
Q 2872 3491 3272 3391 
z
" transform="scale(0.015625)"/>
      <path id="DejaVuSans-Bold-20" transform="scale(0.015625)"/>
      <path id="DejaVuSans-Bold-57" d="M 191 4666 
L 1344 4666 
L 2150 1275 
L 2950 4666 
L 4109 4666 
L 4909 1275 
L 5716 4666 
L 6859 4666 
L 5759 0 
L 4372 0 
L 3525 3547 
L 2688 0 
L 1300 0 
L 191 4666 
z
" transform="scale(0.015625)"/>
      <path id="DejaVuSans-Bold-54" d="M 31 4666 
L 4331 4666 
L 4331 3756 
L 2784 3756 
L 2784 0 
L 1581 0 
L 1581 3756 
L 31 3756 
L 31 4666 
z
" transform="scale(0.015625)"/>
     </defs>
     <use xlink:href="#DejaVuSans-Bold-76"/>
     <use xlink:href="#DejaVuSans-Bold-73" transform="translate(65.185547 0)"/>
     <use xlink:href="#DejaVuSans-Bold-20" transform="translate(124.707031 0)"/>
     <use xlink:href="#DejaVuSans-Bold-57" transform="translate(159.521484 0)"/>
     <use xlink:href="#DejaVuSans-Bold-54" transform="translate(269.824219 0)"/>
    </g>
   </g>
   <g id="text_9">
    <!-- BRCA1-mut -->
    <g style="fill: #1a1a1a" transform="translate(292.768123 62.389377) scale(0.12 -0.12)">
     <use xlink:href="#DejaVuSans-Bold-42"/>
     <use xlink:href="#DejaVuSans-Bold-52" transform="translate(76.220703 0)"/>
     <use xlink:href="#DejaVuSans-Bold-43" transform="translate(153.222656 0)"/>
     <use xlink:href="#DejaVuSans-Bold-41" transform="translate(226.611328 0)"/>
     <use xlink:href="#DejaVuSans-Bold-31" transform="translate(304.003906 0)"/>
     <use xlink:href="#DejaVuSans-Bold-2d" transform="translate(373.583984 0)"/>
     <use xlink:href="#DejaVuSans-Bold-6d" transform="translate(415.087891 0)"/>
     <use xlink:href="#DejaVuSans-Bold-75" transform="translate(519.287109 0)"/>
     <use xlink:href="#DejaVuSans-Bold-74" transform="translate(590.478516 0)"/>
    </g>
    <!-- vs WT -->
    <g style="fill: #1a1a1a" transform="translate(292.768123 75.826752) scale(0.12 -0.12)">
     <use xlink:href="#DejaVuSans-Bold-76"/>
     <use xlink:href="#DejaVuSans-Bold-73" transform="translate(65.185547 0)"/>
     <use xlink:href="#DejaVuSans-Bold-20" transform="translate(124.707031 0)"/>
     <use xlink:href="#DejaVuSans-Bold-57" transform="translate(159.521484 0)"/>
     <use xlink:href="#DejaVuSans-Bold-54" transform="translate(269.824219 0)"/>
    </g>
   </g>
   <g id="text_10">
    <!-- TNBC -->
    <g style="fill: #1a1a1a" transform="translate(190.88144 417.625272) scale(0.12 -0.12)">
     <defs>
      <path id="DejaVuSans-Bold-4e" d="M 588 4666 
L 1931 4666 
L 3628 1466 
L 3628 4666 
L 4769 4666 
L 4769 0 
L 3425 0 
L 1728 3200 
L 1728 0 
L 588 0 
L 588 4666 
z
" transform="scale(0.015625)"/>
     </defs>
     <use xlink:href="#DejaVuSans-Bold-54"/>
     <use xlink:href="#DejaVuSans-Bold-4e" transform="translate(68.212891 0)"/>
     <use xlink:href="#DejaVuSans-Bold-42" transform="translate(151.904297 0)"/>
     <use xlink:href="#DejaVuSans-Bold-43" transform="translate(228.125 0)"/>
    </g>
    <!-- vs WT -->
    <g style="fill: #1a1a1a" transform="translate(188.690503 431.062647) scale(0.12 -0.12)">
     <use xlink:href="#DejaVuSans-Bold-76"/>
     <use xlink:href="#DejaVuSans-Bold-73" transform="translate(65.185547 0)"/>
     <use xlink:href="#DejaVuSans-Bold-20" transform="translate(124.707031 0)"/>
     <use xlink:href="#DejaVuSans-Bold-57" transform="translate(159.521484 0)"/>
     <use xlink:href="#DejaVuSans-Bold-54" transform="translate(269.824219 0)"/>
    </g>
   </g>
   <g id="text_11">
    <!-- Core overlap (all 3 groups): 12 miRNAs -->
    <g style="fill: #333333" transform="translate(97.391562 453.805456) scale(0.1 -0.1)">
     <defs>
      <path id="DejaVuSans-Oblique-43" d="M 4447 4306 
L 4319 3641 
Q 4019 3944 3683 4091 
Q 3347 4238 2956 4238 
Q 2422 4238 2017 3981 
Q 1613 3725 1319 3200 
Q 1131 2863 1032 2486 
Q 934 2109 934 1728 
Q 934 1091 1264 756 
Q 1594 422 2222 422 
Q 2656 422 3056 561 
Q 3456 700 3834 978 
L 3688 231 
Q 3316 72 2936 -9 
Q 2556 -91 2175 -91 
Q 1278 -91 773 396 
Q 269 884 269 1753 
Q 269 2309 461 2846 
Q 653 3384 1013 3828 
Q 1394 4300 1883 4525 
Q 2372 4750 3022 4750 
Q 3422 4750 3780 4639 
Q 4138 4528 4447 4306 
z
" transform="scale(0.015625)"/>
      <path id="DejaVuSans-Oblique-6f" d="M 1625 -91 
Q 1009 -91 651 289 
Q 294 669 294 1325 
Q 294 1706 417 2101 
Q 541 2497 738 2766 
Q 1047 3184 1428 3384 
Q 1809 3584 2291 3584 
Q 2888 3584 3255 3212 
Q 3622 2841 3622 2241 
Q 3622 1825 3500 1412 
Q 3378 1000 3181 728 
Q 2875 309 2494 109 
Q 2113 -91 1625 -91 
z
M 891 1344 
Q 891 869 1089 633 
Q 1288 397 1691 397 
Q 2269 397 2648 901 
Q 3028 1406 3028 2181 
Q 3028 2634 2825 2865 
Q 2622 3097 2228 3097 
Q 1903 3097 1650 2945 
Q 1397 2794 1197 2484 
Q 1050 2253 970 1956 
Q 891 1659 891 1344 
z
" transform="scale(0.015625)"/>
      <path id="DejaVuSans-Oblique-72" d="M 2853 2969 
Q 2766 3016 2653 3041 
Q 2541 3066 2413 3066 
Q 1953 3066 1609 2717 
Q 1266 2369 1153 1784 
L 800 0 
L 225 0 
L 909 3500 
L 1484 3500 
L 1375 2956 
Q 1603 3259 1920 3421 
Q 2238 3584 2597 3584 
Q 2691 3584 2781 3573 
Q 2872 3563 2963 3538 
L 2853 2969 
z
" transform="scale(0.015625)"/>
      <path id="DejaVuSans-Oblique-65" d="M 3078 2063 
Q 3088 2113 3092 2166 
Q 3097 2219 3097 2272 
Q 3097 2653 2873 2875 
Q 2650 3097 2266 3097 
Q 1838 3097 1509 2826 
Q 1181 2556 1013 2059 
L 3078 2063 
z
M 3578 1613 
L 903 1613 
Q 884 1494 878 1425 
Q 872 1356 872 1306 
Q 872 872 1139 634 
Q 1406 397 1894 397 
Q 2269 397 2603 481 
Q 2938 566 3225 728 
L 3116 159 
Q 2806 34 2476 -28 
Q 2147 -91 1806 -91 
Q 1078 -91 686 257 
Q 294 606 294 1247 
Q 294 1794 489 2264 
Q 684 2734 1063 3103 
Q 1306 3334 1642 3459 
Q 1978 3584 2356 3584 
Q 2950 3584 3301 3228 
Q 3653 2872 3653 2272 
Q 3653 2128 3634 1964 
Q 3616 1800 3578 1613 
z
" transform="scale(0.015625)"/>
      <path id="DejaVuSans-Oblique-20" transform="scale(0.015625)"/>
      <path id="DejaVuSans-Oblique-76" d="M 459 3500 
L 1069 3500 
L 1581 525 
L 3256 3500 
L 3866 3500 
L 1875 0 
L 1100 0 
L 459 3500 
z
" transform="scale(0.015625)"/>
      <path id="DejaVuSans-Oblique-6c" d="M 1172 4863 
L 1747 4863 
L 800 0 
L 225 0 
L 1172 4863 
z
" transform="scale(0.015625)"/>
      <path id="DejaVuSans-Oblique-61" d="M 3438 1997 
L 3047 0 
L 2472 0 
L 2578 531 
Q 2325 219 2001 64 
Q 1678 -91 1281 -91 
Q 834 -91 548 182 
Q 263 456 263 884 
Q 263 1497 752 1853 
Q 1241 2209 2100 2209 
L 2900 2209 
L 2931 2363 
Q 2938 2388 2941 2417 
Q 2944 2447 2944 2509 
Q 2944 2788 2717 2942 
Q 2491 3097 2081 3097 
Q 1800 3097 1504 3025 
Q 1209 2953 897 2809 
L 997 3341 
Q 1322 3463 1633 3523 
Q 1944 3584 2234 3584 
Q 2853 3584 3176 3315 
Q 3500 3047 3500 2534 
Q 3500 2431 3484 2292 
Q 3469 2153 3438 1997 
z
M 2816 1759 
L 2241 1759 
Q 1534 1759 1195 1570 
Q 856 1381 856 984 
Q 856 709 1029 553 
Q 1203 397 1509 397 
Q 1978 397 2328 733 
Q 2678 1069 2791 1631 
L 2816 1759 
z
" transform="scale(0.015625)"/>
      <path id="DejaVuSans-Oblique-70" d="M 3175 2156 
Q 3175 2616 2975 2859 
Q 2775 3103 2400 3103 
Q 2144 3103 1911 2972 
Q 1678 2841 1497 2591 
Q 1319 2344 1212 1994 
Q 1106 1644 1106 1300 
Q 1106 863 1306 627 
Q 1506 391 1875 391 
Q 2147 391 2380 519 
Q 2613 647 2778 891 
Q 2956 1147 3065 1494 
Q 3175 1841 3175 2156 
z
M 1394 2969 
Q 1625 3272 1939 3428 
Q 2253 3584 2638 3584 
Q 3175 3584 3472 3232 
Q 3769 2881 3769 2247 
Q 3769 1728 3584 1258 
Q 3400 788 3053 416 
Q 2822 169 2531 39 
Q 2241 -91 1919 -91 
Q 1547 -91 1294 64 
Q 1041 219 916 525 
L 556 -1331 
L -19 -1331 
L 922 3500 
L 1497 3500 
L 1394 2969 
z
" transform="scale(0.015625)"/>
      <path id="DejaVuSans-Oblique-28" d="M 2731 4856 
Q 1903 3822 1495 2892 
Q 1088 1963 1088 1100 
Q 1088 606 1206 120 
Q 1325 -366 1563 -844 
L 1063 -844 
Q 775 -306 634 201 
Q 494 709 494 1197 
Q 494 2125 923 3036 
Q 1353 3947 2222 4856 
L 2731 4856 
z
" transform="scale(0.015625)"/>
      <path id="DejaVuSans-Oblique-33" d="M 1013 4550 
Q 1356 4650 1679 4700 
Q 2003 4750 2316 4750 
Q 2934 4750 3296 4475 
Q 3659 4200 3659 3738 
Q 3659 3284 3373 2959 
Q 3088 2634 2584 2516 
Q 2978 2403 3162 2165 
Q 3347 1928 3347 1538 
Q 3347 1163 3167 834 
Q 2988 506 2650 269 
Q 2394 88 2037 -1 
Q 1681 -91 1216 -91 
Q 922 -91 622 -33 
Q 322 25 13 141 
L 128 738 
Q 422 575 720 495 
Q 1019 416 1331 416 
Q 1947 416 2330 733 
Q 2713 1050 2713 1556 
Q 2713 1881 2469 2057 
Q 2225 2234 1772 2234 
L 1228 2234 
L 1325 2747 
L 1900 2747 
Q 2419 2747 2717 2984 
Q 3016 3222 3016 3628 
Q 3016 3922 2797 4083 
Q 2578 4244 2181 4244 
Q 1881 4244 1567 4180 
Q 1253 4116 916 3988 
L 1013 4550 
z
" transform="scale(0.015625)"/>
      <path id="DejaVuSans-Oblique-67" d="M 3816 3500 
L 3219 434 
Q 3047 -456 2561 -893 
Q 2075 -1331 1253 -1331 
Q 950 -1331 690 -1286 
Q 431 -1241 206 -1147 
L 313 -588 
Q 525 -725 762 -790 
Q 1000 -856 1269 -856 
Q 1816 -856 2167 -557 
Q 2519 -259 2631 300 
L 2681 563 
Q 2441 288 2122 144 
Q 1803 0 1434 0 
Q 903 0 598 351 
Q 294 703 294 1319 
Q 294 1803 478 2267 
Q 663 2731 997 3091 
Q 1219 3328 1514 3456 
Q 1809 3584 2131 3584 
Q 2484 3584 2746 3420 
Q 3009 3256 3138 2956 
L 3238 3500 
L 3816 3500 
z
M 2950 2216 
Q 2950 2641 2750 2872 
Q 2550 3103 2181 3103 
Q 1953 3103 1747 3012 
Q 1541 2922 1394 2759 
Q 1156 2491 1023 2127 
Q 891 1763 891 1375 
Q 891 944 1092 712 
Q 1294 481 1672 481 
Q 2219 481 2584 976 
Q 2950 1472 2950 2216 
z
" transform="scale(0.015625)"/>
      <path id="DejaVuSans-Oblique-75" d="M 428 1388 
L 838 3500 
L 1416 3500 
L 1006 1409 
Q 975 1256 961 1147 
Q 947 1038 947 966 
Q 947 700 1109 554 
Q 1272 409 1569 409 
Q 2031 409 2368 721 
Q 2706 1034 2809 1563 
L 3194 3500 
L 3769 3500 
L 3091 0 
L 2516 0 
L 2631 550 
Q 2388 244 2052 76 
Q 1716 -91 1338 -91 
Q 878 -91 622 161 
Q 366 413 366 863 
Q 366 956 381 1097 
Q 397 1238 428 1388 
z
" transform="scale(0.015625)"/>
      <path id="DejaVuSans-Oblique-73" d="M 3200 3397 
L 3091 2853 
Q 2863 2978 2609 3040 
Q 2356 3103 2088 3103 
Q 1634 3103 1373 2948 
Q 1113 2794 1113 2528 
Q 1113 2219 1719 2053 
Q 1766 2041 1788 2034 
L 1972 1978 
Q 2547 1819 2739 1644 
Q 2931 1469 2931 1166 
Q 2931 609 2489 259 
Q 2047 -91 1331 -91 
Q 1053 -91 747 -37 
Q 441 16 72 128 
L 184 722 
Q 500 559 806 475 
Q 1113 391 1394 391 
Q 1816 391 2080 572 
Q 2344 753 2344 1031 
Q 2344 1331 1650 1516 
L 1591 1531 
L 1394 1581 
Q 956 1697 753 1886 
Q 550 2075 550 2369 
Q 550 2928 970 3256 
Q 1391 3584 2113 3584 
Q 2397 3584 2667 3537 
Q 2938 3491 3200 3397 
z
" transform="scale(0.015625)"/>
      <path id="DejaVuSans-Oblique-29" d="M -397 -844 
Q 434 191 840 1120 
Q 1247 2050 1247 2913 
Q 1247 3406 1130 3892 
Q 1013 4378 775 4856 
L 1275 4856 
Q 1563 4316 1703 3812 
Q 1844 3309 1844 2822 
Q 1844 1891 1411 973 
Q 978 56 116 -844 
L -397 -844 
z
" transform="scale(0.015625)"/>
      <path id="DejaVuSans-Oblique-3a" d="M 978 3309 
L 1638 3309 
L 1484 2516 
L 825 2516 
L 978 3309 
z
M 488 794 
L 1147 794 
L 991 0 
L 331 0 
L 488 794 
z
" transform="scale(0.015625)"/>
      <path id="DejaVuSans-Oblique-31" d="M 416 531 
L 1447 531 
L 2144 4122 
L 978 3897 
L 1088 4441 
L 2247 4666 
L 2881 4666 
L 2075 531 
L 3103 531 
L 3003 0 
L 313 0 
L 416 531 
z
" transform="scale(0.015625)"/>
      <path id="DejaVuSans-Oblique-32" d="M 2950 2253 
L 934 525 
L 3163 525 
L 3053 0 
L 25 0 
L 128 531 
L 2234 2338 
Q 2656 2703 2832 2979 
Q 3009 3256 3009 3547 
Q 3009 3850 2796 4040 
Q 2584 4231 2241 4231 
Q 1944 4231 1581 4125 
Q 1219 4019 806 3816 
L 922 4441 
Q 1309 4594 1662 4672 
Q 2016 4750 2316 4750 
Q 2928 4750 3301 4425 
Q 3675 4100 3675 3572 
Q 3675 3216 3497 2892 
Q 3319 2569 2950 2253 
z
" transform="scale(0.015625)"/>
      <path id="DejaVuSans-Oblique-6d" d="M 5747 2113 
L 5338 0 
L 4763 0 
L 5166 2094 
Q 5191 2228 5203 2325 
Q 5216 2422 5216 2491 
Q 5216 2772 5059 2928 
Q 4903 3084 4622 3084 
Q 4203 3084 3875 2770 
Q 3547 2456 3450 1953 
L 3066 0 
L 2491 0 
L 2900 2094 
Q 2925 2209 2937 2307 
Q 2950 2406 2950 2484 
Q 2950 2769 2794 2926 
Q 2638 3084 2363 3084 
Q 1938 3084 1609 2770 
Q 1281 2456 1184 1953 
L 800 0 
L 225 0 
L 909 3500 
L 1484 3500 
L 1375 2956 
Q 1609 3263 1923 3423 
Q 2238 3584 2597 3584 
Q 2978 3584 3223 3384 
Q 3469 3184 3519 2828 
Q 3781 3197 4126 3390 
Q 4472 3584 4856 3584 
Q 5306 3584 5551 3325 
Q 5797 3066 5797 2591 
Q 5797 2488 5784 2364 
Q 5772 2241 5747 2113 
z
" transform="scale(0.015625)"/>
      <path id="DejaVuSans-Oblique-69" d="M 1172 4863 
L 1747 4863 
L 1606 4134 
L 1031 4134 
L 1172 4863 
z
M 909 3500 
L 1484 3500 
L 800 0 
L 225 0 
L 909 3500 
z
" transform="scale(0.015625)"/>
      <path id="DejaVuSans-Oblique-52" d="M 1613 4147 
L 1294 2491 
L 2106 2491 
Q 2584 2491 2879 2755 
Q 3175 3019 3175 3444 
Q 3175 3784 2976 3965 
Q 2778 4147 2406 4147 
L 1613 4147 
z
M 2772 2241 
Q 2972 2194 3105 2009 
Q 3238 1825 3413 1275 
L 3809 0 
L 3144 0 
L 2778 1197 
Q 2638 1659 2453 1815 
Q 2269 1972 1888 1972 
L 1191 1972 
L 806 0 
L 172 0 
L 1081 4666 
L 2503 4666 
Q 3150 4666 3495 4373 
Q 3841 4081 3841 3531 
Q 3841 3044 3547 2687 
Q 3253 2331 2772 2241 
z
" transform="scale(0.015625)"/>
      <path id="DejaVuSans-Oblique-4e" d="M 1081 4666 
L 1931 4666 
L 3219 666 
L 4000 4666 
L 4616 4666 
L 3706 0 
L 2853 0 
L 1569 4025 
L 788 0 
L 172 0 
L 1081 4666 
z
" transform="scale(0.015625)"/>
      <path id="DejaVuSans-Oblique-41" d="M 2356 4666 
L 3072 4666 
L 3938 0 
L 3278 0 
L 3084 1197 
L 984 1197 
L 325 0 
L -341 0 
L 2356 4666 
z
M 2584 4044 
L 1275 1722 
L 2988 1722 
L 2584 4044 
z
" transform="scale(0.015625)"/>
     </defs>
     <use xlink:href="#DejaVuSans-Oblique-43"/>
     <use xlink:href="#DejaVuSans-Oblique-6f" transform="translate(69.824219 0)"/>
     <use xlink:href="#DejaVuSans-Oblique-72" transform="translate(131.005859 0)"/>
     <use xlink:href="#DejaVuSans-Oblique-65" transform="translate(172.119141 0)"/>
     <use xlink:href="#DejaVuSans-Oblique-20" transform="translate(233.642578 0)"/>
     <use xlink:href="#DejaVuSans-Oblique-6f" transform="translate(265.429688 0)"/>
     <use xlink:href="#DejaVuSans-Oblique-76" transform="translate(326.611328 0)"/>
     <use xlink:href="#DejaVuSans-Oblique-65" transform="translate(385.791016 0)"/>
     <use xlink:href="#DejaVuSans-Oblique-72" transform="translate(447.314453 0)"/>
     <use xlink:href="#DejaVuSans-Oblique-6c" transform="translate(488.427734 0)"/>
     <use xlink:href="#DejaVuSans-Oblique-61" transform="translate(516.210938 0)"/>
     <use xlink:href="#DejaVuSans-Oblique-70" transform="translate(577.490234 0)"/>
     <use xlink:href="#DejaVuSans-Oblique-20" transform="translate(640.966797 0)"/>
     <use xlink:href="#DejaVuSans-Oblique-28" transform="translate(672.753906 0)"/>
     <use xlink:href="#DejaVuSans-Oblique-61" transform="translate(711.767578 0)"/>
     <use xlink:href="#DejaVuSans-Oblique-6c" transform="translate(773.046875 0)"/>
     <use xlink:href="#DejaVuSans-Oblique-6c" transform="translate(800.830078 0)"/>
     <use xlink:href="#DejaVuSans-Oblique-20" transform="translate(828.613281 0)"/>
     <use xlink:href="#DejaVuSans-Oblique-33" transform="translate(860.400391 0)"/>
     <use xlink:href="#DejaVuSans-Oblique-20" transform="translate(924.023438 0)"/>
     <use xlink:href="#DejaVuSans-Oblique-67" transform="translate(955.810547 0)"/>
     <use xlink:href="#DejaVuSans-Oblique-72" transform="translate(1019.287109 0)"/>
     <use xlink:href="#DejaVuSans-Oblique-6f" transform="translate(1060.400391 0)"/>
     <use xlink:href="#DejaVuSans-Oblique-75" transform="translate(1121.582031 0)"/>
     <use xlink:href="#DejaVuSans-Oblique-70" transform="translate(1184.960938 0)"/>
     <use xlink:href="#DejaVuSans-Oblique-73" transform="translate(1248.4375 0)"/>
     <use xlink:href="#DejaVuSans-Oblique-29" transform="translate(1300.537109 0)"/>
     <use xlink:href="#DejaVuSans-Oblique-3a" transform="translate(1339.550781 0)"/>
     <use xlink:href="#DejaVuSans-Oblique-20" transform="translate(1373.242188 0)"/>
     <use xlink:href="#DejaVuSans-Oblique-31" transform="translate(1405.029297 0)"/>
     <use xlink:href="#DejaVuSans-Oblique-32" transform="translate(1468.652344 0)"/>
     <use xlink:href="#DejaVuSans-Oblique-20" transform="translate(1532.275391 0)"/>
     <use xlink:href="#DejaVuSans-Oblique-6d" transform="translate(1564.0625 0)"/>
     <use xlink:href="#DejaVuSans-Oblique-69" transform="translate(1661.474609 0)"/>
     <use xlink:href="#DejaVuSans-Oblique-52" transform="translate(1689.257812 0)"/>
     <use xlink:href="#DejaVuSans-Oblique-4e" transform="translate(1758.740234 0)"/>
     <use xlink:href="#DejaVuSans-Oblique-41" transform="translate(1833.544922 0)"/>
     <use xlink:href="#DejaVuSans-Oblique-73" transform="translate(1901.953125 0)"/>
    </g>
   </g>
   <g id="text_12">
    <!-- Venn Diagram: Overlap of Significant DE miRNAs -->
    <g transform="translate(15.988203 17.077969) scale(0.13 -0.13)">
     <defs>
      <path id="DejaVuSans-Bold-56" d="M 31 4666 
L 1241 4666 
L 2478 1222 
L 3713 4666 
L 4922 4666 
L 3194 0 
L 1759 0 
L 31 4666 
z
" transform="scale(0.015625)"/>
      <path id="DejaVuSans-Bold-65" d="M 4031 1759 
L 4031 1441 
L 1416 1441 
Q 1456 1047 1700 850 
Q 1944 653 2381 653 
Q 2734 653 3104 758 
Q 3475 863 3866 1075 
L 3866 213 
Q 3469 63 3072 -14 
Q 2675 -91 2278 -91 
Q 1328 -91 801 392 
Q 275 875 275 1747 
Q 275 2603 792 3093 
Q 1309 3584 2216 3584 
Q 3041 3584 3536 3087 
Q 4031 2591 4031 1759 
z
M 2881 2131 
Q 2881 2450 2695 2645 
Q 2509 2841 2209 2841 
Q 1884 2841 1681 2658 
Q 1478 2475 1428 2131 
L 2881 2131 
z
" transform="scale(0.015625)"/>
      <path id="DejaVuSans-Bold-6e" d="M 4056 2131 
L 4056 0 
L 2931 0 
L 2931 347 
L 2931 1631 
Q 2931 2084 2911 2256 
Q 2891 2428 2841 2509 
Q 2775 2619 2662 2680 
Q 2550 2741 2406 2741 
Q 2056 2741 1856 2470 
Q 1656 2200 1656 1722 
L 1656 0 
L 538 0 
L 538 3500 
L 1656 3500 
L 1656 2988 
Q 1909 3294 2193 3439 
Q 2478 3584 2822 3584 
Q 3428 3584 3742 3212 
Q 4056 2841 4056 2131 
z
" transform="scale(0.015625)"/>
      <path id="DejaVuSans-Bold-44" d="M 1791 3756 
L 1791 909 
L 2222 909 
Q 2959 909 3348 1275 
Q 3738 1641 3738 2338 
Q 3738 3031 3350 3393 
Q 2963 3756 2222 3756 
L 1791 3756 
z
M 588 4666 
L 1856 4666 
Q 2919 4666 3439 4514 
Q 3959 4363 4331 4000 
Q 4659 3684 4818 3271 
Q 4978 2859 4978 2338 
Q 4978 1809 4818 1395 
Q 4659 981 4331 666 
Q 3956 303 3431 151 
Q 2906 0 1856 0 
L 588 0 
L 588 4666 
z
" transform="scale(0.015625)"/>
      <path id="DejaVuSans-Bold-69" d="M 538 3500 
L 1656 3500 
L 1656 0 
L 538 0 
L 538 3500 
z
M 538 4863 
L 1656 4863 
L 1656 3950 
L 538 3950 
L 538 4863 
z
" transform="scale(0.015625)"/>
      <path id="DejaVuSans-Bold-61" d="M 2106 1575 
Q 1756 1575 1579 1456 
Q 1403 1338 1403 1106 
Q 1403 894 1545 773 
Q 1688 653 1941 653 
Q 2256 653 2472 879 
Q 2688 1106 2688 1447 
L 2688 1575 
L 2106 1575 
z
M 3816 1997 
L 3816 0 
L 2688 0 
L 2688 519 
Q 2463 200 2181 54 
Q 1900 -91 1497 -91 
Q 953 -91 614 226 
Q 275 544 275 1050 
Q 275 1666 698 1953 
Q 1122 2241 2028 2241 
L 2688 2241 
L 2688 2328 
Q 2688 2594 2478 2717 
Q 2269 2841 1825 2841 
Q 1466 2841 1156 2769 
Q 847 2697 581 2553 
L 581 3406 
Q 941 3494 1303 3539 
Q 1666 3584 2028 3584 
Q 2975 3584 3395 3211 
Q 3816 2838 3816 1997 
z
" transform="scale(0.015625)"/>
      <path id="DejaVuSans-Bold-67" d="M 2919 594 
Q 2688 288 2409 144 
Q 2131 0 1766 0 
Q 1125 0 706 504 
Q 288 1009 288 1791 
Q 288 2575 706 3076 
Q 1125 3578 1766 3578 
Q 2131 3578 2409 3434 
Q 2688 3291 2919 2981 
L 2919 3500 
L 4044 3500 
L 4044 353 
Q 4044 -491 3511 -936 
Q 2978 -1381 1966 -1381 
Q 1638 -1381 1331 -1331 
Q 1025 -1281 716 -1178 
L 716 -306 
Q 1009 -475 1290 -558 
Q 1572 -641 1856 -641 
Q 2406 -641 2662 -400 
Q 2919 -159 2919 353 
L 2919 594 
z
M 2181 2772 
Q 1834 2772 1640 2515 
Q 1447 2259 1447 1791 
Q 1447 1309 1634 1061 
Q 1822 813 2181 813 
Q 2531 813 2725 1069 
Q 2919 1325 2919 1791 
Q 2919 2259 2725 2515 
Q 2531 2772 2181 2772 
z
" transform="scale(0.015625)"/>
      <path id="DejaVuSans-Bold-72" d="M 3138 2547 
Q 2991 2616 2845 2648 
Q 2700 2681 2553 2681 
Q 2122 2681 1889 2404 
Q 1656 2128 1656 1613 
L 1656 0 
L 538 0 
L 538 3500 
L 1656 3500 
L 1656 2925 
Q 1872 3269 2151 3426 
Q 2431 3584 2822 3584 
Q 2878 3584 2943 3579 
Q 3009 3575 3134 3559 
L 3138 2547 
z
" transform="scale(0.015625)"/>
      <path id="DejaVuSans-Bold-3a" d="M 716 3500 
L 1844 3500 
L 1844 2291 
L 716 2291 
L 716 3500 
z
M 716 1209 
L 1844 1209 
L 1844 0 
L 716 0 
L 716 1209 
z
" transform="scale(0.015625)"/>
      <path id="DejaVuSans-Bold-4f" d="M 2719 3878 
Q 2169 3878 1866 3472 
Q 1563 3066 1563 2328 
Q 1563 1594 1866 1187 
Q 2169 781 2719 781 
Q 3272 781 3575 1187 
Q 3878 1594 3878 2328 
Q 3878 3066 3575 3472 
Q 3272 3878 2719 3878 
z
M 2719 4750 
Q 3844 4750 4481 4106 
Q 5119 3463 5119 2328 
Q 5119 1197 4481 553 
Q 3844 -91 2719 -91 
Q 1597 -91 958 553 
Q 319 1197 319 2328 
Q 319 3463 958 4106 
Q 1597 4750 2719 4750 
z
" transform="scale(0.015625)"/>
      <path id="DejaVuSans-Bold-6c" d="M 538 4863 
L 1656 4863 
L 1656 0 
L 538 0 
L 538 4863 
z
" transform="scale(0.015625)"/>
      <path id="DejaVuSans-Bold-70" d="M 1656 506 
L 1656 -1331 
L 538 -1331 
L 538 3500 
L 1656 3500 
L 1656 2988 
Q 1888 3294 2169 3439 
Q 2450 3584 2816 3584 
Q 3463 3584 3878 3070 
Q 4294 2556 4294 1747 
Q 4294 938 3878 423 
Q 3463 -91 2816 -91 
Q 2450 -91 2169 54 
Q 1888 200 1656 506 
z
M 2400 2772 
Q 2041 2772 1848 2508 
Q 1656 2244 1656 1747 
Q 1656 1250 1848 986 
Q 2041 722 2400 722 
Q 2759 722 2948 984 
Q 3138 1247 3138 1747 
Q 3138 2247 2948 2509 
Q 2759 2772 2400 2772 
z
" transform="scale(0.015625)"/>
      <path id="DejaVuSans-Bold-6f" d="M 2203 2784 
Q 1831 2784 1636 2517 
Q 1441 2250 1441 1747 
Q 1441 1244 1636 976 
Q 1831 709 2203 709 
Q 2569 709 2762 976 
Q 2956 1244 2956 1747 
Q 2956 2250 2762 2517 
Q 2569 2784 2203 2784 
z
M 2203 3584 
Q 3106 3584 3614 3096 
Q 4122 2609 4122 1747 
Q 4122 884 3614 396 
Q 3106 -91 2203 -91 
Q 1297 -91 786 396 
Q 275 884 275 1747 
Q 275 2609 786 3096 
Q 1297 3584 2203 3584 
z
" transform="scale(0.015625)"/>
      <path id="DejaVuSans-Bold-66" d="M 2841 4863 
L 2841 4128 
L 2222 4128 
Q 1984 4128 1890 4042 
Q 1797 3956 1797 3744 
L 1797 3500 
L 2753 3500 
L 2753 2700 
L 1797 2700 
L 1797 0 
L 678 0 
L 678 2700 
L 122 2700 
L 122 3500 
L 678 3500 
L 678 3744 
Q 678 4316 997 4589 
Q 1316 4863 1984 4863 
L 2841 4863 
z
" transform="scale(0.015625)"/>
      <path id="DejaVuSans-Bold-53" d="M 3834 4519 
L 3834 3531 
Q 3450 3703 3084 3790 
Q 2719 3878 2394 3878 
Q 1963 3878 1756 3759 
Q 1550 3641 1550 3391 
Q 1550 3203 1689 3098 
Q 1828 2994 2194 2919 
L 2706 2816 
Q 3484 2659 3812 2340 
Q 4141 2022 4141 1434 
Q 4141 663 3683 286 
Q 3225 -91 2284 -91 
Q 1841 -91 1394 -6 
Q 947 78 500 244 
L 500 1259 
Q 947 1022 1364 901 
Q 1781 781 2169 781 
Q 2563 781 2772 912 
Q 2981 1044 2981 1288 
Q 2981 1506 2839 1625 
Q 2697 1744 2272 1838 
L 1806 1941 
Q 1106 2091 782 2419 
Q 459 2747 459 3303 
Q 459 4000 909 4375 
Q 1359 4750 2203 4750 
Q 2588 4750 2994 4692 
Q 3400 4634 3834 4519 
z
" transform="scale(0.015625)"/>
      <path id="DejaVuSans-Bold-63" d="M 3366 3391 
L 3366 2478 
Q 3138 2634 2908 2709 
Q 2678 2784 2431 2784 
Q 1963 2784 1702 2511 
Q 1441 2238 1441 1747 
Q 1441 1256 1702 982 
Q 1963 709 2431 709 
Q 2694 709 2930 787 
Q 3166 866 3366 1019 
L 3366 103 
Q 3103 6 2833 -42 
Q 2563 -91 2291 -91 
Q 1344 -91 809 395 
Q 275 881 275 1747 
Q 275 2613 809 3098 
Q 1344 3584 2291 3584 
Q 2566 3584 2833 3536 
Q 3100 3488 3366 3391 
z
" transform="scale(0.015625)"/>
      <path id="DejaVuSans-Bold-45" d="M 588 4666 
L 3834 4666 
L 3834 3756 
L 1791 3756 
L 1791 2888 
L 3713 2888 
L 3713 1978 
L 1791 1978 
L 1791 909 
L 3903 909 
L 3903 0 
L 588 0 
L 588 4666 
z
" transform="scale(0.015625)"/>
     </defs>
     <use xlink:href="#DejaVuSans-Bold-56"/>
     <use xlink:href="#DejaVuSans-Bold-65" transform="translate(71.892578 0)"/>
     <use xlink:href="#DejaVuSans-Bold-6e" transform="translate(139.714844 0)"/>
     <use xlink:href="#DejaVuSans-Bold-6e" transform="translate(210.90625 0)"/>
     <use xlink:href="#DejaVuSans-Bold-20" transform="translate(282.097656 0)"/>
     <use xlink:href="#DejaVuSans-Bold-44" transform="translate(316.912109 0)"/>
     <use xlink:href="#DejaVuSans-Bold-69" transform="translate(399.919922 0)"/>
     <use xlink:href="#DejaVuSans-Bold-61" transform="translate(434.197266 0)"/>
     <use xlink:href="#DejaVuSans-Bold-67" transform="translate(501.677734 0)"/>
     <use xlink:href="#DejaVuSans-Bold-72" transform="translate(573.259766 0)"/>
     <use xlink:href="#DejaVuSans-Bold-61" transform="translate(622.576172 0)"/>
     <use xlink:href="#DejaVuSans-Bold-6d" transform="translate(690.056641 0)"/>
     <use xlink:href="#DejaVuSans-Bold-3a" transform="translate(794.255859 0)"/>
     <use xlink:href="#DejaVuSans-Bold-20" transform="translate(834.246094 0)"/>
     <use xlink:href="#DejaVuSans-Bold-4f" transform="translate(869.060547 0)"/>
     <use xlink:href="#DejaVuSans-Bold-76" transform="translate(954.070312 0)"/>
     <use xlink:href="#DejaVuSans-Bold-65" transform="translate(1019.255859 0)"/>
     <use xlink:href="#DejaVuSans-Bold-72" transform="translate(1087.078125 0)"/>
     <use xlink:href="#DejaVuSans-Bold-6c" transform="translate(1136.394531 0)"/>
     <use xlink:href="#DejaVuSans-Bold-61" transform="translate(1170.671875 0)"/>
     <use xlink:href="#DejaVuSans-Bold-70" transform="translate(1238.152344 0)"/>
     <use xlink:href="#DejaVuSans-Bold-20" transform="translate(1309.734375 0)"/>
     <use xlink:href="#DejaVuSans-Bold-6f" transform="translate(1344.548828 0)"/>
     <use xlink:href="#DejaVuSans-Bold-66" transform="translate(1413.25 0)"/>
     <use xlink:href="#DejaVuSans-Bold-20" transform="translate(1456.755859 0)"/>
     <use xlink:href="#DejaVuSans-Bold-53" transform="translate(1491.570312 0)"/>
     <use xlink:href="#DejaVuSans-Bold-69" transform="translate(1563.591797 0)"/>
     <use xlink:href="#DejaVuSans-Bold-67" transform="translate(1597.869141 0)"/>
     <use xlink:href="#DejaVuSans-Bold-6e" transform="translate(1669.451172 0)"/>
     <use xlink:href="#DejaVuSans-Bold-69" transform="translate(1740.642578 0)"/>
     <use xlink:href="#DejaVuSans-Bold-66" transform="translate(1774.919922 0)"/>
     <use xlink:href="#DejaVuSans-Bold-69" transform="translate(1818.425781 0)"/>
     <use xlink:href="#DejaVuSans-Bold-63" transform="translate(1852.703125 0)"/>
     <use xlink:href="#DejaVuSans-Bold-61" transform="translate(1911.980469 0)"/>
     <use xlink:href="#DejaVuSans-Bold-6e" transform="translate(1979.460938 0)"/>
     <use xlink:href="#DejaVuSans-Bold-74" transform="translate(2050.652344 0)"/>
     <use xlink:href="#DejaVuSans-Bold-20" transform="translate(2098.455078 0)"/>
     <use xlink:href="#DejaVuSans-Bold-44" transform="translate(2133.269531 0)"/>
     <use xlink:href="#DejaVuSans-Bold-45" transform="translate(2216.277344 0)"/>
     <use xlink:href="#DejaVuSans-Bold-20" transform="translate(2284.587891 0)"/>
     <use xlink:href="#DejaVuSans-Bold-6d" transform="translate(2319.402344 0)"/>
     <use xlink:href="#DejaVuSans-Bold-69" transform="translate(2423.601562 0)"/>
     <use xlink:href="#DejaVuSans-Bold-52" transform="translate(2457.878906 0)"/>
     <use xlink:href="#DejaVuSans-Bold-4e" transform="translate(2534.880859 0)"/>
     <use xlink:href="#DejaVuSans-Bold-41" transform="translate(2618.572266 0)"/>
     <use xlink:href="#DejaVuSans-Bold-73" transform="translate(2695.964844 0)"/>
    </g>
    <!-- Across Breast Cancer Subtypes  [SIMULATED DATA] -->
    <g transform="translate(7.2 31.736688) scale(0.13 -0.13)">
     <defs>
      <path id="DejaVuSans-Bold-62" d="M 2400 722 
Q 2759 722 2948 984 
Q 3138 1247 3138 1747 
Q 3138 2247 2948 2509 
Q 2759 2772 2400 2772 
Q 2041 2772 1848 2508 
Q 1656 2244 1656 1747 
Q 1656 1250 1848 986 
Q 2041 722 2400 722 
z
M 1656 2988 
Q 1888 3294 2169 3439 
Q 2450 3584 2816 3584 
Q 3463 3584 3878 3070 
Q 4294 2556 4294 1747 
Q 4294 938 3878 423 
Q 3463 -91 2816 -91 
Q 2450 -91 2169 54 
Q 1888 200 1656 506 
L 1656 0 
L 538 0 
L 538 4863 
L 1656 4863 
L 1656 2988 
z
" transform="scale(0.015625)"/>
      <path id="DejaVuSans-Bold-79" d="M 78 3500 
L 1197 3500 
L 2138 1125 
L 2938 3500 
L 4056 3500 
L 2584 -331 
Q 2363 -916 2067 -1148 
Q 1772 -1381 1288 -1381 
L 641 -1381 
L 641 -647 
L 991 -647 
Q 1275 -647 1404 -556 
Q 1534 -466 1606 -231 
L 1638 -134 
L 78 3500 
z
" transform="scale(0.015625)"/>
      <path id="DejaVuSans-Bold-5b" d="M 550 4863 
L 2491 4863 
L 2491 4159 
L 1613 4159 
L 1613 -141 
L 2491 -141 
L 2491 -844 
L 550 -844 
L 550 4863 
z
" transform="scale(0.015625)"/>
      <path id="DejaVuSans-Bold-49" d="M 588 4666 
L 1791 4666 
L 1791 0 
L 588 0 
L 588 4666 
z
" transform="scale(0.015625)"/>
      <path id="DejaVuSans-Bold-4d" d="M 588 4666 
L 2119 4666 
L 3181 2169 
L 4250 4666 
L 5778 4666 
L 5778 0 
L 4641 0 
L 4641 3413 
L 3566 897 
L 2803 897 
L 1728 3413 
L 1728 0 
L 588 0 
L 588 4666 
z
" transform="scale(0.015625)"/>
      <path id="DejaVuSans-Bold-55" d="M 588 4666 
L 1791 4666 
L 1791 1869 
Q 1791 1291 1980 1042 
Q 2169 794 2597 794 
Q 3028 794 3217 1042 
Q 3406 1291 3406 1869 
L 3406 4666 
L 4609 4666 
L 4609 1869 
Q 4609 878 4112 393 
Q 3616 -91 2597 -91 
Q 1581 -91 1084 393 
Q 588 878 588 1869 
L 588 4666 
z
" transform="scale(0.015625)"/>
      <path id="DejaVuSans-Bold-4c" d="M 588 4666 
L 1791 4666 
L 1791 909 
L 3903 909 
L 3903 0 
L 588 0 
L 588 4666 
z
" transform="scale(0.015625)"/>
      <path id="DejaVuSans-Bold-5d" d="M 2375 -844 
L 434 -844 
L 434 -141 
L 1313 -141 
L 1313 4159 
L 434 4159 
L 434 4863 
L 2375 4863 
L 2375 -844 
z
" transform="scale(0.015625)"/>
     </defs>
     <use xlink:href="#DejaVuSans-Bold-41"/>
     <use xlink:href="#DejaVuSans-Bold-63" transform="translate(77.392578 0)"/>
     <use xlink:href="#DejaVuSans-Bold-72" transform="translate(136.669922 0)"/>
     <use xlink:href="#DejaVuSans-Bold-6f" transform="translate(185.986328 0)"/>
     <use xlink:href="#DejaVuSans-Bold-73" transform="translate(254.6875 0)"/>
     <use xlink:href="#DejaVuSans-Bold-73" transform="translate(314.208984 0)"/>
     <use xlink:href="#DejaVuSans-Bold-20" transform="translate(373.730469 0)"/>
     <use xlink:href="#DejaVuSans-Bold-42" transform="translate(408.544922 0)"/>
     <use xlink:href="#DejaVuSans-Bold-72" transform="translate(484.765625 0)"/>
     <use xlink:href="#DejaVuSans-Bold-65" transform="translate(534.082031 0)"/>
     <use xlink:href="#DejaVuSans-Bold-61" transform="translate(601.904297 0)"/>
     <use xlink:href="#DejaVuSans-Bold-73" transform="translate(669.384766 0)"/>
     <use xlink:href="#DejaVuSans-Bold-74" transform="translate(728.90625 0)"/>
     <use xlink:href="#DejaVuSans-Bold-20" transform="translate(776.708984 0)"/>
     <use xlink:href="#DejaVuSans-Bold-43" transform="translate(811.523438 0)"/>
     <use xlink:href="#DejaVuSans-Bold-61" transform="translate(884.912109 0)"/>
     <use xlink:href="#DejaVuSans-Bold-6e" transform="translate(952.392578 0)"/>
     <use xlink:href="#DejaVuSans-Bold-63" transform="translate(1023.583984 0)"/>
     <use xlink:href="#DejaVuSans-Bold-65" transform="translate(1082.861328 0)"/>
     <use xlink:href="#DejaVuSans-Bold-72" transform="translate(1150.683594 0)"/>
     <use xlink:href="#DejaVuSans-Bold-20" transform="translate(1200 0)"/>
     <use xlink:href="#DejaVuSans-Bold-53" transform="translate(1234.814453 0)"/>
     <use xlink:href="#DejaVuSans-Bold-75" transform="translate(1306.835938 0)"/>
     <use xlink:href="#DejaVuSans-Bold-62" transform="translate(1378.027344 0)"/>
     <use xlink:href="#DejaVuSans-Bold-74" transform="translate(1449.609375 0)"/>
     <use xlink:href="#DejaVuSans-Bold-79" transform="translate(1497.412109 0)"/>
     <use xlink:href="#DejaVuSans-Bold-70" transform="translate(1562.597656 0)"/>
     <use xlink:href="#DejaVuSans-Bold-65" transform="translate(1634.179688 0)"/>
     <use xlink:href="#DejaVuSans-Bold-73" transform="translate(1702.001953 0)"/>
     <use xlink:href="#DejaVuSans-Bold-20" transform="translate(1761.523438 0)"/>
     <use xlink:href="#DejaVuSans-Bold-20" transform="translate(1796.337891 0)"/>
     <use xlink:href="#DejaVuSans-Bold-5b" transform="translate(1831.152344 0)"/>
     <use xlink:href="#DejaVuSans-Bold-53" transform="translate(1876.855469 0)"/>
     <use xlink:href="#DejaVuSans-Bold-49" transform="translate(1948.876953 0)"/>
     <use xlink:href="#DejaVuSans-Bold-4d" transform="translate(1986.083984 0)"/>
     <use xlink:href="#DejaVuSans-Bold-55" transform="translate(2085.595703 0)"/>
     <use xlink:href="#DejaVuSans-Bold-4c" transform="translate(2166.796875 0)"/>
     <use xlink:href="#DejaVuSans-Bold-41" transform="translate(2230.517578 0)"/>
     <use xlink:href="#DejaVuSans-Bold-54" transform="translate(2300.160156 0)"/>
     <use xlink:href="#DejaVuSans-Bold-45" transform="translate(2368.373047 0)"/>
     <use xlink:href="#DejaVuSans-Bold-44" transform="translate(2436.683594 0)"/>
     <use xlink:href="#DejaVuSans-Bold-20" transform="translate(2519.691406 0)"/>
     <use xlink:href="#DejaVuSans-Bold-44" transform="translate(2554.505859 0)"/>
     <use xlink:href="#DejaVuSans-Bold-41" transform="translate(2637.513672 0)"/>
     <use xlink:href="#DejaVuSans-Bold-54" transform="translate(2707.15625 0)"/>
     <use xlink:href="#DejaVuSans-Bold-41" transform="translate(2767.619141 0)"/>
     <use xlink:href="#DejaVuSans-Bold-5d" transform="translate(2845.011719 0)"/>
    </g>
   </g>
   <g id="legend_1">
    <g id="patch_12">
     <path d="M 165.458961 486.904416 
L 374.617555 486.904416 
Q 376.417555 486.904416 376.417555 485.104416 
L 376.417555 446.373478 
Q 376.417555 444.573478 374.617555 444.573478 
L 165.458961 444.573478 
Q 163.658961 444.573478 163.658961 446.373478 
L 163.658961 485.104416 
Q 163.658961 486.904416 165.458961 486.904416 
z
" style="fill: #ffffff; opacity: 0.9; stroke: #cccccc; stroke-linejoin: miter"/>
    </g>
    <g id="patch_13">
     <path d="M 167.258961 455.012072 
L 185.258961 455.012072 
L 185.258961 448.712072 
L 167.258961 448.712072 
z
" style="fill: #4393c3; opacity: 0.7; stroke: #4393c3; stroke-linejoin: miter"/>
    </g>
    <g id="text_13">
     <!-- BRCA2-mut vs WT  (n=25) [SIMULATED] -->
     <g transform="translate(192.458961 455.012072) scale(0.09 -0.09)">
      <defs>
       <path id="DejaVuSans-42" d="M 1259 2228 
L 1259 519 
L 2272 519 
Q 2781 519 3026 730 
Q 3272 941 3272 1375 
Q 3272 1813 3026 2020 
Q 2781 2228 2272 2228 
L 1259 2228 
z
M 1259 4147 
L 1259 2741 
L 2194 2741 
Q 2656 2741 2882 2914 
Q 3109 3088 3109 3444 
Q 3109 3797 2882 3972 
Q 2656 4147 2194 4147 
L 1259 4147 
z
M 628 4666 
L 2241 4666 
Q 2963 4666 3353 4366 
Q 3744 4066 3744 3513 
Q 3744 3084 3544 2831 
Q 3344 2578 2956 2516 
Q 3422 2416 3680 2098 
Q 3938 1781 3938 1306 
Q 3938 681 3513 340 
Q 3088 0 2303 0 
L 628 0 
L 628 4666 
z
" transform="scale(0.015625)"/>
       <path id="DejaVuSans-52" d="M 2841 2188 
Q 3044 2119 3236 1894 
Q 3428 1669 3622 1275 
L 4263 0 
L 3584 0 
L 2988 1197 
Q 2756 1666 2539 1819 
Q 2322 1972 1947 1972 
L 1259 1972 
L 1259 0 
L 628 0 
L 628 4666 
L 2053 4666 
Q 2853 4666 3247 4331 
Q 3641 3997 3641 3322 
Q 3641 2881 3436 2590 
Q 3231 2300 2841 2188 
z
M 1259 4147 
L 1259 2491 
L 2053 2491 
Q 2509 2491 2742 2702 
Q 2975 2913 2975 3322 
Q 2975 3731 2742 3939 
Q 2509 4147 2053 4147 
L 1259 4147 
z
" transform="scale(0.015625)"/>
       <path id="DejaVuSans-43" d="M 4122 4306 
L 4122 3641 
Q 3803 3938 3442 4084 
Q 3081 4231 2675 4231 
Q 1875 4231 1450 3742 
Q 1025 3253 1025 2328 
Q 1025 1406 1450 917 
Q 1875 428 2675 428 
Q 3081 428 3442 575 
Q 3803 722 4122 1019 
L 4122 359 
Q 3791 134 3420 21 
Q 3050 -91 2638 -91 
Q 1578 -91 968 557 
Q 359 1206 359 2328 
Q 359 3453 968 4101 
Q 1578 4750 2638 4750 
Q 3056 4750 3426 4639 
Q 3797 4528 4122 4306 
z
" transform="scale(0.015625)"/>
       <path id="DejaVuSans-41" d="M 2188 4044 
L 1331 1722 
L 3047 1722 
L 2188 4044 
z
M 1831 4666 
L 2547 4666 
L 4325 0 
L 3669 0 
L 3244 1197 
L 1141 1197 
L 716 0 
L 50 0 
L 1831 4666 
z
" transform="scale(0.015625)"/>
       <path id="DejaVuSans-32" d="M 1228 531 
L 3431 531 
L 3431 0 
L 469 0 
L 469 531 
Q 828 903 1448 1529 
Q 2069 2156 2228 2338 
Q 2531 2678 2651 2914 
Q 2772 3150 2772 3378 
Q 2772 3750 2511 3984 
Q 2250 4219 1831 4219 
Q 1534 4219 1204 4116 
Q 875 4013 500 3803 
L 500 4441 
Q 881 4594 1212 4672 
Q 1544 4750 1819 4750 
Q 2544 4750 2975 4387 
Q 3406 4025 3406 3419 
Q 3406 3131 3298 2873 
Q 3191 2616 2906 2266 
Q 2828 2175 2409 1742 
Q 1991 1309 1228 531 
z
" transform="scale(0.015625)"/>
       <path id="DejaVuSans-2d" d="M 313 2009 
L 1997 2009 
L 1997 1497 
L 313 1497 
L 313 2009 
z
" transform="scale(0.015625)"/>
       <path id="DejaVuSans-6d" d="M 3328 2828 
Q 3544 3216 3844 3400 
Q 4144 3584 4550 3584 
Q 5097 3584 5394 3201 
Q 5691 2819 5691 2113 
L 5691 0 
L 5113 0 
L 5113 2094 
Q 5113 2597 4934 2840 
Q 4756 3084 4391 3084 
Q 3944 3084 3684 2787 
Q 3425 2491 3425 1978 
L 3425 0 
L 2847 0 
L 2847 2094 
Q 2847 2600 2669 2842 
Q 2491 3084 2119 3084 
Q 1678 3084 1418 2786 
Q 1159 2488 1159 1978 
L 1159 0 
L 581 0 
L 581 3500 
L 1159 3500 
L 1159 2956 
Q 1356 3278 1631 3431 
Q 1906 3584 2284 3584 
Q 2666 3584 2933 3390 
Q 3200 3197 3328 2828 
z
" transform="scale(0.015625)"/>
       <path id="DejaVuSans-75" d="M 544 1381 
L 544 3500 
L 1119 3500 
L 1119 1403 
Q 1119 906 1312 657 
Q 1506 409 1894 409 
Q 2359 409 2629 706 
Q 2900 1003 2900 1516 
L 2900 3500 
L 3475 3500 
L 3475 0 
L 2900 0 
L 2900 538 
Q 2691 219 2414 64 
Q 2138 -91 1772 -91 
Q 1169 -91 856 284 
Q 544 659 544 1381 
z
M 1991 3584 
L 1991 3584 
z
" transform="scale(0.015625)"/>
       <path id="DejaVuSans-74" d="M 1172 4494 
L 1172 3500 
L 2356 3500 
L 2356 3053 
L 1172 3053 
L 1172 1153 
Q 1172 725 1289 603 
Q 1406 481 1766 481 
L 2356 481 
L 2356 0 
L 1766 0 
Q 1100 0 847 248 
Q 594 497 594 1153 
L 594 3053 
L 172 3053 
L 172 3500 
L 594 3500 
L 594 4494 
L 1172 4494 
z
" transform="scale(0.015625)"/>
       <path id="DejaVuSans-20" transform="scale(0.015625)"/>
       <path id="DejaVuSans-76" d="M 191 3500 
L 800 3500 
L 1894 563 
L 2988 3500 
L 3597 3500 
L 2284 0 
L 1503 0 
L 191 3500 
z
" transform="scale(0.015625)"/>
       <path id="DejaVuSans-73" d="M 2834 3397 
L 2834 2853 
Q 2591 2978 2328 3040 
Q 2066 3103 1784 3103 
Q 1356 3103 1142 2972 
Q 928 2841 928 2578 
Q 928 2378 1081 2264 
Q 1234 2150 1697 2047 
L 1894 2003 
Q 2506 1872 2764 1633 
Q 3022 1394 3022 966 
Q 3022 478 2636 193 
Q 2250 -91 1575 -91 
Q 1294 -91 989 -36 
Q 684 19 347 128 
L 347 722 
Q 666 556 975 473 
Q 1284 391 1588 391 
Q 1994 391 2212 530 
Q 2431 669 2431 922 
Q 2431 1156 2273 1281 
Q 2116 1406 1581 1522 
L 1381 1569 
Q 847 1681 609 1914 
Q 372 2147 372 2553 
Q 372 3047 722 3315 
Q 1072 3584 1716 3584 
Q 2034 3584 2315 3537 
Q 2597 3491 2834 3397 
z
" transform="scale(0.015625)"/>
       <path id="DejaVuSans-57" d="M 213 4666 
L 850 4666 
L 1831 722 
L 2809 4666 
L 3519 4666 
L 4500 722 
L 5478 4666 
L 6119 4666 
L 4947 0 
L 4153 0 
L 3169 4050 
L 2175 0 
L 1381 0 
L 213 4666 
z
" transform="scale(0.015625)"/>
       <path id="DejaVuSans-54" d="M -19 4666 
L 3928 4666 
L 3928 4134 
L 2272 4134 
L 2272 0 
L 1638 0 
L 1638 4134 
L -19 4134 
L -19 4666 
z
" transform="scale(0.015625)"/>
       <path id="DejaVuSans-28" d="M 1984 4856 
Q 1566 4138 1362 3434 
Q 1159 2731 1159 2009 
Q 1159 1288 1364 580 
Q 1569 -128 1984 -844 
L 1484 -844 
Q 1016 -109 783 600 
Q 550 1309 550 2009 
Q 550 2706 781 3412 
Q 1013 4119 1484 4856 
L 1984 4856 
z
" transform="scale(0.015625)"/>
       <path id="DejaVuSans-6e" d="M 3513 2113 
L 3513 0 
L 2938 0 
L 2938 2094 
Q 2938 2591 2744 2837 
Q 2550 3084 2163 3084 
Q 1697 3084 1428 2787 
Q 1159 2491 1159 1978 
L 1159 0 
L 581 0 
L 581 3500 
L 1159 3500 
L 1159 2956 
Q 1366 3272 1645 3428 
Q 1925 3584 2291 3584 
Q 2894 3584 3203 3211 
Q 3513 2838 3513 2113 
z
" transform="scale(0.015625)"/>
       <path id="DejaVuSans-3d" d="M 678 2906 
L 4684 2906 
L 4684 2381 
L 678 2381 
L 678 2906 
z
M 678 1631 
L 4684 1631 
L 4684 1100 
L 678 1100 
L 678 1631 
z
" transform="scale(0.015625)"/>
       <path id="DejaVuSans-35" d="M 691 4666 
L 3169 4666 
L 3169 4134 
L 1269 4134 
L 1269 2991 
Q 1406 3038 1543 3061 
Q 1681 3084 1819 3084 
Q 2600 3084 3056 2656 
Q 3513 2228 3513 1497 
Q 3513 744 3044 326 
Q 2575 -91 1722 -91 
Q 1428 -91 1123 -41 
Q 819 9 494 109 
L 494 744 
Q 775 591 1075 516 
Q 1375 441 1709 441 
Q 2250 441 2565 725 
Q 2881 1009 2881 1497 
Q 2881 1984 2565 2268 
Q 2250 2553 1709 2553 
Q 1456 2553 1204 2497 
Q 953 2441 691 2322 
L 691 4666 
z
" transform="scale(0.015625)"/>
       <path id="DejaVuSans-29" d="M 513 4856 
L 1013 4856 
Q 1481 4119 1714 3412 
Q 1947 2706 1947 2009 
Q 1947 1309 1714 600 
Q 1481 -109 1013 -844 
L 513 -844 
Q 928 -128 1133 580 
Q 1338 1288 1338 2009 
Q 1338 2731 1133 3434 
Q 928 4138 513 4856 
z
" transform="scale(0.015625)"/>
       <path id="DejaVuSans-5b" d="M 550 4863 
L 1875 4863 
L 1875 4416 
L 1125 4416 
L 1125 -397 
L 1875 -397 
L 1875 -844 
L 550 -844 
L 550 4863 
z
" transform="scale(0.015625)"/>
       <path id="DejaVuSans-53" d="M 3425 4513 
L 3425 3897 
Q 3066 4069 2747 4153 
Q 2428 4238 2131 4238 
Q 1616 4238 1336 4038 
Q 1056 3838 1056 3469 
Q 1056 3159 1242 3001 
Q 1428 2844 1947 2747 
L 2328 2669 
Q 3034 2534 3370 2195 
Q 3706 1856 3706 1288 
Q 3706 609 3251 259 
Q 2797 -91 1919 -91 
Q 1588 -91 1214 -16 
Q 841 59 441 206 
L 441 856 
Q 825 641 1194 531 
Q 1563 422 1919 422 
Q 2459 422 2753 634 
Q 3047 847 3047 1241 
Q 3047 1584 2836 1778 
Q 2625 1972 2144 2069 
L 1759 2144 
Q 1053 2284 737 2584 
Q 422 2884 422 3419 
Q 422 4038 858 4394 
Q 1294 4750 2059 4750 
Q 2388 4750 2728 4690 
Q 3069 4631 3425 4513 
z
" transform="scale(0.015625)"/>
       <path id="DejaVuSans-49" d="M 628 4666 
L 1259 4666 
L 1259 0 
L 628 0 
L 628 4666 
z
" transform="scale(0.015625)"/>
       <path id="DejaVuSans-4d" d="M 628 4666 
L 1569 4666 
L 2759 1491 
L 3956 4666 
L 4897 4666 
L 4897 0 
L 4281 0 
L 4281 4097 
L 3078 897 
L 2444 897 
L 1241 4097 
L 1241 0 
L 628 0 
L 628 4666 
z
" transform="scale(0.015625)"/>
       <path id="DejaVuSans-55" d="M 556 4666 
L 1191 4666 
L 1191 1831 
Q 1191 1081 1462 751 
Q 1734 422 2344 422 
Q 2950 422 3222 751 
Q 3494 1081 3494 1831 
L 3494 4666 
L 4128 4666 
L 4128 1753 
Q 4128 841 3676 375 
Q 3225 -91 2344 -91 
Q 1459 -91 1007 375 
Q 556 841 556 1753 
L 556 4666 
z
" transform="scale(0.015625)"/>
       <path id="DejaVuSans-4c" d="M 628 4666 
L 1259 4666 
L 1259 531 
L 3531 531 
L 3531 0 
L 628 0 
L 628 4666 
z
" transform="scale(0.015625)"/>
       <path id="DejaVuSans-45" d="M 628 4666 
L 3578 4666 
L 3578 4134 
L 1259 4134 
L 1259 2753 
L 3481 2753 
L 3481 2222 
L 1259 2222 
L 1259 531 
L 3634 531 
L 3634 0 
L 628 0 
L 628 4666 
z
" transform="scale(0.015625)"/>
       <path id="DejaVuSans-44" d="M 1259 4147 
L 1259 519 
L 2022 519 
Q 2988 519 3436 956 
Q 3884 1394 3884 2338 
Q 3884 3275 3436 3711 
Q 2988 4147 2022 4147 
L 1259 4147 
z
M 628 4666 
L 1925 4666 
Q 3281 4666 3915 4102 
Q 4550 3538 4550 2338 
Q 4550 1131 3912 565 
Q 3275 0 1925 0 
L 628 0 
L 628 4666 
z
" transform="scale(0.015625)"/>
       <path id="DejaVuSans-5d" d="M 1947 4863 
L 1947 -844 
L 622 -844 
L 622 -397 
L 1369 -397 
L 1369 4416 
L 622 4416 
L 622 4863 
L 1947 4863 
z
" transform="scale(0.015625)"/>
      </defs>
      <use xlink:href="#DejaVuSans-42"/>
      <use xlink:href="#DejaVuSans-52" transform="translate(68.603516 0)"/>
      <use xlink:href="#DejaVuSans-43" transform="translate(133.085938 0)"/>
      <use xlink:href="#DejaVuSans-41" transform="translate(202.910156 0)"/>
      <use xlink:href="#DejaVuSans-32" transform="translate(271.318359 0)"/>
      <use xlink:href="#DejaVuSans-2d" transform="translate(334.941406 0)"/>
      <use xlink:href="#DejaVuSans-6d" transform="translate(371.025391 0)"/>
      <use xlink:href="#DejaVuSans-75" transform="translate(468.4375 0)"/>
      <use xlink:href="#DejaVuSans-74" transform="translate(531.816406 0)"/>
      <use xlink:href="#DejaVuSans-20" transform="translate(571.025391 0)"/>
      <use xlink:href="#DejaVuSans-76" transform="translate(602.8125 0)"/>
      <use xlink:href="#DejaVuSans-73" transform="translate(661.992188 0)"/>
      <use xlink:href="#DejaVuSans-20" transform="translate(714.091797 0)"/>
      <use xlink:href="#DejaVuSans-57" transform="translate(745.878906 0)"/>
      <use xlink:href="#DejaVuSans-54" transform="translate(844.755859 0)"/>
      <use xlink:href="#DejaVuSans-20" transform="translate(905.839844 0)"/>
      <use xlink:href="#DejaVuSans-20" transform="translate(937.626953 0)"/>
      <use xlink:href="#DejaVuSans-28" transform="translate(969.414062 0)"/>
      <use xlink:href="#DejaVuSans-6e" transform="translate(1008.427734 0)"/>
      <use xlink:href="#DejaVuSans-3d" transform="translate(1071.806641 0)"/>
      <use xlink:href="#DejaVuSans-32" transform="translate(1155.595703 0)"/>
      <use xlink:href="#DejaVuSans-35" transform="translate(1219.21875 0)"/>
      <use xlink:href="#DejaVuSans-29" transform="translate(1282.841797 0)"/>
      <use xlink:href="#DejaVuSans-20" transform="translate(1321.855469 0)"/>
      <use xlink:href="#DejaVuSans-5b" transform="translate(1353.642578 0)"/>
      <use xlink:href="#DejaVuSans-53" transform="translate(1392.65625 0)"/>
      <use xlink:href="#DejaVuSans-49" transform="translate(1456.132812 0)"/>
      <use xlink:href="#DejaVuSans-4d" transform="translate(1485.625 0)"/>
      <use xlink:href="#DejaVuSans-55" transform="translate(1571.904297 0)"/>
      <use xlink:href="#DejaVuSans-4c" transform="translate(1645.097656 0)"/>
      <use xlink:href="#DejaVuSans-41" transform="translate(1703.060547 0)"/>
      <use xlink:href="#DejaVuSans-54" transform="translate(1763.71875 0)"/>
      <use xlink:href="#DejaVuSans-45" transform="translate(1824.802734 0)"/>
      <use xlink:href="#DejaVuSans-44" transform="translate(1887.986328 0)"/>
      <use xlink:href="#DejaVuSans-5d" transform="translate(1964.988281 0)"/>
     </g>
    </g>
    <g id="patch_14">
     <path d="M 167.258961 468.222384 
L 185.258961 468.222384 
L 185.258961 461.922384 
L 167.258961 461.922384 
z
" style="fill: #d6604d; opacity: 0.7; stroke: #d6604d; stroke-linejoin: miter"/>
    </g>
    <g id="text_14">
     <!-- BRCA1-mut vs WT  (n=27) [SIMULATED] -->
     <g transform="translate(192.458961 468.222384) scale(0.09 -0.09)">
      <defs>
       <path id="DejaVuSans-31" d="M 794 531 
L 1825 531 
L 1825 4091 
L 703 3866 
L 703 4441 
L 1819 4666 
L 2450 4666 
L 2450 531 
L 3481 531 
L 3481 0 
L 794 0 
L 794 531 
z
" transform="scale(0.015625)"/>
       <path id="DejaVuSans-37" d="M 525 4666 
L 3525 4666 
L 3525 4397 
L 1831 0 
L 1172 0 
L 2766 4134 
L 525 4134 
L 525 4666 
z
" transform="scale(0.015625)"/>
      </defs>
      <use xlink:href="#DejaVuSans-42"/>
      <use xlink:href="#DejaVuSans-52" transform="translate(68.603516 0)"/>
      <use xlink:href="#DejaVuSans-43" transform="translate(133.085938 0)"/>
      <use xlink:href="#DejaVuSans-41" transform="translate(202.910156 0)"/>
      <use xlink:href="#DejaVuSans-31" transform="translate(271.318359 0)"/>
      <use xlink:href="#DejaVuSans-2d" transform="translate(334.941406 0)"/>
      <use xlink:href="#DejaVuSans-6d" transform="translate(371.025391 0)"/>
      <use xlink:href="#DejaVuSans-75" transform="translate(468.4375 0)"/>
      <use xlink:href="#DejaVuSans-74" transform="translate(531.816406 0)"/>
      <use xlink:href="#DejaVuSans-20" transform="translate(571.025391 0)"/>
      <use xlink:href="#DejaVuSans-76" transform="translate(602.8125 0)"/>
      <use xlink:href="#DejaVuSans-73" transform="translate(661.992188 0)"/>
      <use xlink:href="#DejaVuSans-20" transform="translate(714.091797 0)"/>
      <use xlink:href="#DejaVuSans-57" transform="translate(745.878906 0)"/>
      <use xlink:href="#DejaVuSans-54" transform="translate(844.755859 0)"/>
      <use xlink:href="#DejaVuSans-20" transform="translate(905.839844 0)"/>
      <use xlink:href="#DejaVuSans-20" transform="translate(937.626953 0)"/>
      <use xlink:href="#DejaVuSans-28" transform="translate(969.414062 0)"/>
      <use xlink:href="#DejaVuSans-6e" transform="translate(1008.427734 0)"/>
      <use xlink:href="#DejaVuSans-3d" transform="translate(1071.806641 0)"/>
      <use xlink:href="#DejaVuSans-32" transform="translate(1155.595703 0)"/>
      <use xlink:href="#DejaVuSans-37" transform="translate(1219.21875 0)"/>
      <use xlink:href="#DejaVuSans-29" transform="translate(1282.841797 0)"/>
      <use xlink:href="#DejaVuSans-20" transform="translate(1321.855469 0)"/>
      <use xlink:href="#DejaVuSans-5b" transform="translate(1353.642578 0)"/>
      <use xlink:href="#DejaVuSans-53" transform="translate(1392.65625 0)"/>
      <use xlink:href="#DejaVuSans-49" transform="translate(1456.132812 0)"/>
      <use xlink:href="#DejaVuSans-4d" transform="translate(1485.625 0)"/>
      <use xlink:href="#DejaVuSans-55" transform="translate(1571.904297 0)"/>
      <use xlink:href="#DejaVuSans-4c" transform="translate(1645.097656 0)"/>
      <use xlink:href="#DejaVuSans-41" transform="translate(1703.060547 0)"/>
      <use xlink:href="#DejaVuSans-54" transform="translate(1763.71875 0)"/>
      <use xlink:href="#DejaVuSans-45" transform="translate(1824.802734 0)"/>
      <use xlink:href="#DejaVuSans-44" transform="translate(1887.986328 0)"/>
      <use xlink:href="#DejaVuSans-5d" transform="translate(1964.988281 0)"/>
     </g>
    </g>
    <g id="patch_15">
     <path d="M 167.258961 481.432697 
L 185.258961 481.432697 
L 185.258961 475.132697 
L 167.258961 475.132697 
z
" style="fill: #74c476; opacity: 0.7; stroke: #74c476; stroke-linejoin: miter"/>
    </g>
    <g id="text_15">
     <!-- TNBC vs WT  (n=31) [SIMULATED] -->
     <g transform="translate(192.458961 481.432697) scale(0.09 -0.09)">
      <defs>
       <path id="DejaVuSans-4e" d="M 628 4666 
L 1478 4666 
L 3547 763 
L 3547 4666 
L 4159 4666 
L 4159 0 
L 3309 0 
L 1241 3903 
L 1241 0 
L 628 0 
L 628 4666 
z
" transform="scale(0.015625)"/>
       <path id="DejaVuSans-33" d="M 2597 2516 
Q 3050 2419 3304 2112 
Q 3559 1806 3559 1356 
Q 3559 666 3084 287 
Q 2609 -91 1734 -91 
Q 1441 -91 1130 -33 
Q 819 25 488 141 
L 488 750 
Q 750 597 1062 519 
Q 1375 441 1716 441 
Q 2309 441 2620 675 
Q 2931 909 2931 1356 
Q 2931 1769 2642 2001 
Q 2353 2234 1838 2234 
L 1294 2234 
L 1294 2753 
L 1863 2753 
Q 2328 2753 2575 2939 
Q 2822 3125 2822 3475 
Q 2822 3834 2567 4026 
Q 2313 4219 1838 4219 
Q 1578 4219 1281 4162 
Q 984 4106 628 3988 
L 628 4550 
Q 988 4650 1302 4700 
Q 1616 4750 1894 4750 
Q 2613 4750 3031 4423 
Q 3450 4097 3450 3541 
Q 3450 3153 3228 2886 
Q 3006 2619 2597 2516 
z
" transform="scale(0.015625)"/>
      </defs>
      <use xlink:href="#DejaVuSans-54"/>
      <use xlink:href="#DejaVuSans-4e" transform="translate(61.083984 0)"/>
      <use xlink:href="#DejaVuSans-42" transform="translate(135.888672 0)"/>
      <use xlink:href="#DejaVuSans-43" transform="translate(202.742188 0)"/>
      <use xlink:href="#DejaVuSans-20" transform="translate(272.566406 0)"/>
      <use xlink:href="#DejaVuSans-76" transform="translate(304.353516 0)"/>
      <use xlink:href="#DejaVuSans-73" transform="translate(363.533203 0)"/>
      <use xlink:href="#DejaVuSans-20" transform="translate(415.632812 0)"/>
      <use xlink:href="#DejaVuSans-57" transform="translate(447.419922 0)"/>
      <use xlink:href="#DejaVuSans-54" transform="translate(546.296875 0)"/>
      <use xlink:href="#DejaVuSans-20" transform="translate(607.380859 0)"/>
      <use xlink:href="#DejaVuSans-20" transform="translate(639.167969 0)"/>
      <use xlink:href="#DejaVuSans-28" transform="translate(670.955078 0)"/>
      <use xlink:href="#DejaVuSans-6e" transform="translate(709.96875 0)"/>
      <use xlink:href="#DejaVuSans-3d" transform="translate(773.347656 0)"/>
      <use xlink:href="#DejaVuSans-33" transform="translate(857.136719 0)"/>
      <use xlink:href="#DejaVuSans-31" transform="translate(920.759766 0)"/>
      <use xlink:href="#DejaVuSans-29" transform="translate(984.382812 0)"/>
      <use xlink:href="#DejaVuSans-20" transform="translate(1023.396484 0)"/>
      <use xlink:href="#DejaVuSans-5b" transform="translate(1055.183594 0)"/>
      <use xlink:href="#DejaVuSans-53" transform="translate(1094.197266 0)"/>
      <use xlink:href="#DejaVuSans-49" transform="translate(1157.673828 0)"/>
      <use xlink:href="#DejaVuSans-4d" transform="translate(1187.166016 0)"/>
      <use xlink:href="#DejaVuSans-55" transform="translate(1273.445312 0)"/>
      <use xlink:href="#DejaVuSans-4c" transform="translate(1346.638672 0)"/>
      <use xlink:href="#DejaVuSans-41" transform="translate(1404.601562 0)"/>
      <use xlink:href="#DejaVuSans-54" transform="translate(1465.259766 0)"/>
      <use xlink:href="#DejaVuSans-45" transform="translate(1526.34375 0)"/>
      <use xlink:href="#DejaVuSans-44" transform="translate(1589.527344 0)"/>
      <use xlink:href="#DejaVuSans-5d" transform="translate(1666.529297 0)"/>
     </g>
    </g>
   </g>
  </g>
 </g>
 <defs>
  <clipPath id="p5b647bd2f6">
   <rect x="9.27182" y="47.736688" width="371.645734" height="375.9896"/>
  </clipPath>
 </defs>
</svg>
