<?xml version="1.0" encoding="utf-8" standalone="no"?>
<!DOCTYPE svg PUBLIC "-//W3C//DTD SVG 1.1//EN"
  "http://www.w3.org/Graphics/SVG/1.1/DTD/svg11.dtd">
<svg xmlns:xlink="http://www.w3.org/1999/xlink" width="713.531875pt" height="432.322875pt" viewBox="0 0 713.531875 432.322875" xmlns="http://www.w3.org/2000/svg" version="1.1">
 <metadata>
  <rdf:RDF xmlns:dc="http://purl.org/dc/elements/1.1/" xmlns:cc="http://creativecommons.org/ns#" xmlns:rdf="http://www.w3.org/1999/02/22-rdf-syntax-ns#">
   <cc:Work>
    <dc:type rdf:resource="http://purl.org/dc/dcmitype/StillImage"/>
    <dc:date>2026-03-07T15:41:37.716814</dc:date>
    <dc:format>image/svg+xml</dc:format>
    <dc:creator>
     <cc:Agent>
      <dc:title>Matplotlib v3.10.5, https://matplotlib.org/</dc:title>
     </cc:Agent>
    </dc:creator>
   </cc:Work>
  </rdf:RDF>
 </metadata>
 <defs>
  <style type="text/css">*{stroke-linejoin: round; stroke-linecap: butt}</style>
 </defs>
 <g id="figure_1">
  <g id="patch_1">
   <path d="M 0 432.322875 
L 713.531875 432.322875 
L 713.531875 0 
L 0 0 
z
" style="fill: #ffffff"/>
  </g>
  <g id="axes_1">
   <g id="patch_2">
    <path d="M 58.441875 385.099125 
L 706.331875 385.099125 
L 706.331875 41.635125 
L 58.441875 41.635125 
z
" style="fill: #ffffff"/>
   </g>
   <g id="matplotlib.axis_1">
    <g id="xtick_1">
     <g id="line2d_1">
      <defs>
       <path id="mf2bc326b0f" d="M 0 0 
L 0 3.5 
" style="stroke: #000000; stroke-width: 0.8"/>
      </defs>
      <g>
       <use xlink:href="#mf2bc326b0f" x="117.075655" y="385.099125" style="stroke: #000000; stroke-width: 0.8"/>
      </g>
     </g>
     <g id="text_1">
      <!-- EGFR -->
      <g transform="translate(103.692061 399.697562) scale(0.1 -0.1)">
       <defs>
        <path id="DejaVuSans-45" d="M 628 4666 
L 3578 4666 
L 3578 4134 
L 1259 4134 
L 1259 2753 
L 3481 2753 
L 3481 2222 
L 1259 2222 
L 1259 531 
L 3634 531 
L 3634 0 
L 628 0 
L 628 4666 
z
" transform="scale(0.015625)"/>
        <path id="DejaVuSans-47" d="M 3809 666 
L 3809 1919 
L 2778 1919 
L 2778 2438 
L 4434 2438 
L 4434 434 
Q 4069 175 3628 42 
Q 3188 -91 2688 -91 
Q 1594 -91 976 548 
Q 359 1188 359 2328 
Q 359 3472 976 4111 
Q 1594 4750 2688 4750 
Q 3144 4750 3555 4637 
Q 3966 4525 4313 4306 
L 4313 3634 
Q 3963 3931 3569 4081 
Q 3175 4231 2741 4231 
Q 1884 4231 1454 3753 
Q 1025 3275 1025 2328 
Q 1025 1384 1454 906 
Q 1884 428 2741 428 
Q 3075 428 3337 486 
Q 3600 544 3809 666 
z
" transform="scale(0.015625)"/>
        <path id="DejaVuSans-46" d="M 628 4666 
L 3309 4666 
L 3309 4134 
L 1259 4134 
L 1259 2759 
L 3109 2759 
L 3109 2228 
L 1259 2228 
L 1259 0 
L 628 0 
L 628 4666 
z
" transform="scale(0.015625)"/>
        <path id="DejaVuSans-52" d="M 2841 2188 
Q 3044 2119 3236 1894 
Q 3428 1669 3622 1275 
L 4263 0 
L 3584 0 
L 2988 1197 
Q 2756 1666 2539 1819 
Q 2322 1972 1947 1972 
L 1259 1972 
L 1259 0 
L 628 0 
L 628 4666 
L 2053 4666 
Q 2853 4666 3247 4331 
Q 3641 3997 3641 3322 
Q 3641 2881 3436 2590 
Q 3231 2300 2841 2188 
z
M 1259 4147 
L 1259 2491 
L 2053 2491 
Q 2509 2491 2742 2702 
Q 2975 2913 2975 3322 
Q 2975 3731 2742 3939 
Q 2509 4147 2053 4147 
L 1259 4147 
z
" transform="scale(0.015625)"/>
       </defs>
       <use xlink:href="#DejaVuSans-45"/>
       <use xlink:href="#DejaVuSans-47" transform="translate(63.183594 0)"/>
       <use xlink:href="#DejaVuSans-46" transform="translate(140.673828 0)"/>
       <use xlink:href="#DejaVuSans-52" transform="translate(198.193359 0)"/>
      </g>
     </g>
    </g>
    <g id="xtick_2">
     <g id="line2d_2">
      <g>
       <use xlink:href="#mf2bc326b0f" x="223.200143" y="385.099125" style="stroke: #000000; stroke-width: 0.8"/>
      </g>
     </g>
     <g id="text_2">
      <!-- TP53 -->
      <g transform="translate(210.768893 399.697562) scale(0.1 -0.1)">
       <defs>
        <path id="DejaVuSans-54" d="M -19 4666 
L 3928 4666 
L 3928 4134 
L 2272 4134 
L 2272 0 
L 1638 0 
L 1638 4134 
L -19 4134 
L -19 4666 
z
" transform="scale(0.015625)"/>
        <path id="DejaVuSans-50" d="M 1259 4147 
L 1259 2394 
L 2053 2394 
Q 2494 2394 2734 2622 
Q 2975 2850 2975 3272 
Q 2975 3691 2734 3919 
Q 2494 4147 2053 4147 
L 1259 4147 
z
M 628 4666 
L 2053 4666 
Q 2838 4666 3239 4311 
Q 3641 3956 3641 3272 
Q 3641 2581 3239 2228 
Q 2838 1875 2053 1875 
L 1259 1875 
L 1259 0 
L 628 0 
L 628 4666 
z
" transform="scale(0.015625)"/>
        <path id="DejaVuSans-35" d="M 691 4666 
L 3169 4666 
L 3169 4134 
L 1269 4134 
L 1269 2991 
Q 1406 3038 1543 3061 
Q 1681 3084 1819 3084 
Q 2600 3084 3056 2656 
Q 3513 2228 3513 1497 
Q 3513 744 3044 326 
Q 2575 -91 1722 -91 
Q 1428 -91 1123 -41 
Q 819 9 494 109 
L 494 744 
Q 775 591 1075 516 
Q 1375 441 1709 441 
Q 2250 441 2565 725 
Q 2881 1009 2881 1497 
Q 2881 1984 2565 2268 
Q 2250 2553 1709 2553 
Q 1456 2553 1204 2497 
Q 953 2441 691 2322 
L 691 4666 
z
" transform="scale(0.015625)"/>
        <path id="DejaVuSans-33" d="M 2597 2516 
Q 3050 2419 3304 2112 
Q 3559 1806 3559 1356 
Q 3559 666 3084 287 
Q 2609 -91 1734 -91 
Q 1441 -91 1130 -33 
Q 819 25 488 141 
L 488 750 
Q 750 597 1062 519 
Q 1375 441 1716 441 
Q 2309 441 2620 675 
Q 2931 909 2931 1356 
Q 2931 1769 2642 2001 
Q 2353 2234 1838 2234 
L 1294 2234 
L 1294 2753 
L 1863 2753 
Q 2328 2753 2575 2939 
Q 2822 3125 2822 3475 
Q 2822 3834 2567 4026 
Q 2313 4219 1838 4219 
Q 1578 4219 1281 4162 
Q 984 4106 628 3988 
L 628 4550 
Q 988 4650 1302 4700 
Q 1616 4750 1894 4750 
Q 2613 4750 3031 4423 
Q 3450 4097 3450 3541 
Q 3450 3153 3228 2886 
Q 3006 2619 2597 2516 
z
" transform="scale(0.015625)"/>
       </defs>
       <use xlink:href="#DejaVuSans-54"/>
       <use xlink:href="#DejaVuSans-50" transform="translate(61.083984 0)"/>
       <use xlink:href="#DejaVuSans-35" transform="translate(121.386719 0)"/>
       <use xlink:href="#DejaVuSans-33" transform="translate(185.009766 0)"/>
      </g>
     </g>
    </g>
    <g id="xtick_3">
     <g id="line2d_3">
      <g>
       <use xlink:href="#mf2bc326b0f" x="329.324631" y="385.099125" style="stroke: #000000; stroke-width: 0.8"/>
      </g>
     </g>
     <g id="text_3">
      <!-- ALK -->
      <g transform="translate(319.839475 399.697562) scale(0.1 -0.1)">
       <defs>
        <path id="DejaVuSans-41" d="M 2188 4044 
L 1331 1722 
L 3047 1722 
L 2188 4044 
z
M 1831 4666 
L 2547 4666 
L 4325 0 
L 3669 0 
L 3244 1197 
L 1141 1197 
L 716 0 
L 50 0 
L 1831 4666 
z
" transform="scale(0.015625)"/>
        <path id="DejaVuSans-4c" d="M 628 4666 
L 1259 4666 
L 1259 531 
L 3531 531 
L 3531 0 
L 628 0 
L 628 4666 
z
" transform="scale(0.015625)"/>
        <path id="DejaVuSans-4b" d="M 628 4666 
L 1259 4666 
L 1259 2694 
L 3353 4666 
L 4166 4666 
L 1850 2491 
L 4331 0 
L 3500 0 
L 1259 2247 
L 1259 0 
L 628 0 
L 628 4666 
z
" transform="scale(0.015625)"/>
       </defs>
       <use xlink:href="#DejaVuSans-41"/>
       <use xlink:href="#DejaVuSans-4c" transform="translate(68.408203 0)"/>
       <use xlink:href="#DejaVuSans-4b" transform="translate(124.121094 0)"/>
      </g>
     </g>
    </g>
    <g id="xtick_4">
     <g id="line2d_4">
      <g>
       <use xlink:href="#mf2bc326b0f" x="435.449119" y="385.099125" style="stroke: #000000; stroke-width: 0.8"/>
      </g>
     </g>
     <g id="text_4">
      <!-- BRCA1 -->
      <g transform="translate(418.701463 399.697562) scale(0.1 -0.1)">
       <defs>
        <path id="DejaVuSans-42" d="M 1259 2228 
L 1259 519 
L 2272 519 
Q 2781 519 3026 730 
Q 3272 941 3272 1375 
Q 3272 1813 3026 2020 
Q 2781 2228 2272 2228 
L 1259 2228 
z
M 1259 4147 
L 1259 2741 
L 2194 2741 
Q 2656 2741 2882 2914 
Q 3109 3088 3109 3444 
Q 3109 3797 2882 3972 
Q 2656 4147 2194 4147 
L 1259 4147 
z
M 628 4666 
L 2241 4666 
Q 2963 4666 3353 4366 
Q 3744 4066 3744 3513 
Q 3744 3084 3544 2831 
Q 3344 2578 2956 2516 
Q 3422 2416 3680 2098 
Q 3938 1781 3938 1306 
Q 3938 681 3513 340 
Q 3088 0 2303 0 
L 628 0 
L 628 4666 
z
" transform="scale(0.015625)"/>
        <path id="DejaVuSans-43" d="M 4122 4306 
L 4122 3641 
Q 3803 3938 3442 4084 
Q 3081 4231 2675 4231 
Q 1875 4231 1450 3742 
Q 1025 3253 1025 2328 
Q 1025 1406 1450 917 
Q 1875 428 2675 428 
Q 3081 428 3442 575 
Q 3803 722 4122 1019 
L 4122 359 
Q 3791 134 3420 21 
Q 3050 -91 2638 -91 
Q 1578 -91 968 557 
Q 359 1206 359 2328 
Q 359 3453 968 4101 
Q 1578 4750 2638 4750 
Q 3056 4750 3426 4639 
Q 3797 4528 4122 4306 
z
" transform="scale(0.015625)"/>
        <path id="DejaVuSans-31" d="M 794 531 
L 1825 531 
L 1825 4091 
L 703 3866 
L 703 4441 
L 1819 4666 
L 2450 4666 
L 2450 531 
L 3481 531 
L 3481 0 
L 794 0 
L 794 531 
z
" transform="scale(0.015625)"/>
       </defs>
       <use xlink:href="#DejaVuSans-42"/>
       <use xlink:href="#DejaVuSans-52" transform="translate(68.603516 0)"/>
       <use xlink:href="#DejaVuSans-43" transform="translate(133.085938 0)"/>
       <use xlink:href="#DejaVuSans-41" transform="translate(202.910156 0)"/>
       <use xlink:href="#DejaVuSans-31" transform="translate(271.318359 0)"/>
      </g>
     </g>
    </g>
    <g id="xtick_5">
     <g id="line2d_5">
      <g>
       <use xlink:href="#mf2bc326b0f" x="541.573607" y="385.099125" style="stroke: #000000; stroke-width: 0.8"/>
      </g>
     </g>
     <g id="text_5">
      <!-- BRCA2 -->
      <g transform="translate(524.825951 399.697562) scale(0.1 -0.1)">
       <defs>
        <path id="DejaVuSans-32" d="M 1228 531 
L 3431 531 
L 3431 0 
L 469 0 
L 469 531 
Q 828 903 1448 1529 
Q 2069 2156 2228 2338 
Q 2531 2678 2651 2914 
Q 2772 3150 2772 3378 
Q 2772 3750 2511 3984 
Q 2250 4219 1831 4219 
Q 1534 4219 1204 4116 
Q 875 4013 500 3803 
L 500 4441 
Q 881 4594 1212 4672 
Q 1544 4750 1819 4750 
Q 2544 4750 2975 4387 
Q 3406 4025 3406 3419 
Q 3406 3131 3298 2873 
Q 3191 2616 2906 2266 
Q 2828 2175 2409 1742 
Q 1991 1309 1228 531 
z
" transform="scale(0.015625)"/>
       </defs>
       <use xlink:href="#DejaVuSans-42"/>
       <use xlink:href="#DejaVuSans-52" transform="translate(68.603516 0)"/>
       <use xlink:href="#DejaVuSans-43" transform="translate(133.085938 0)"/>
       <use xlink:href="#DejaVuSans-41" transform="translate(202.910156 0)"/>
       <use xlink:href="#DejaVuSans-32" transform="translate(271.318359 0)"/>
      </g>
     </g>
    </g>
    <g id="xtick_6">
     <g id="line2d_6">
      <g>
       <use xlink:href="#mf2bc326b0f" x="647.698095" y="385.099125" style="stroke: #000000; stroke-width: 0.8"/>
      </g>
     </g>
     <g id="text_6">
      <!-- TREM2 -->
      <g transform="translate(630.515283 399.697562) scale(0.1 -0.1)">
       <defs>
        <path id="DejaVuSans-4d" d="M 628 4666 
L 1569 4666 
L 2759 1491 
L 3956 4666 
L 4897 4666 
L 4897 0 
L 4281 0 
L 4281 4097 
L 3078 897 
L 2444 897 
L 1241 4097 
L 1241 0 
L 628 0 
L 628 4666 
z
" transform="scale(0.015625)"/>
       </defs>
       <use xlink:href="#DejaVuSans-54"/>
       <use xlink:href="#DejaVuSans-52" transform="translate(61.083984 0)"/>
       <use xlink:href="#DejaVuSans-45" transform="translate(130.566406 0)"/>
       <use xlink:href="#DejaVuSans-4d" transform="translate(193.75 0)"/>
       <use xlink:href="#DejaVuSans-32" transform="translate(280.029297 0)"/>
      </g>
     </g>
    </g>
    <g id="text_7">
     <!-- Gene -->
     <g transform="translate(366.551563 414.895375) scale(0.12 -0.12)">
      <defs>
       <path id="DejaVuSans-65" d="M 3597 1894 
L 3597 1613 
L 953 1613 
Q 991 1019 1311 708 
Q 1631 397 2203 397 
Q 2534 397 2845 478 
Q 3156 559 3463 722 
L 3463 178 
Q 3153 47 2828 -22 
Q 2503 -91 2169 -91 
Q 1331 -91 842 396 
Q 353 884 353 1716 
Q 353 2575 817 3079 
Q 1281 3584 2069 3584 
Q 2775 3584 3186 3129 
Q 3597 2675 3597 1894 
z
M 3022 2063 
Q 3016 2534 2758 2815 
Q 2500 3097 2075 3097 
Q 1594 3097 1305 2825 
Q 1016 2553 972 2059 
L 3022 2063 
z
" transform="scale(0.015625)"/>
       <path id="DejaVuSans-6e" d="M 3513 2113 
L 3513 0 
L 2938 0 
L 2938 2094 
Q 2938 2591 2744 2837 
Q 2550 3084 2163 3084 
Q 1697 3084 1428 2787 
Q 1159 2491 1159 1978 
L 1159 0 
L 581 0 
L 581 3500 
L 1159 3500 
L 1159 2956 
Q 1366 3272 1645 3428 
Q 1925 3584 2291 3584 
Q 2894 3584 3203 3211 
Q 3513 2838 3513 2113 
z
" transform="scale(0.015625)"/>
      </defs>
      <use xlink:href="#DejaVuSans-47"/>
      <use xlink:href="#DejaVuSans-65" transform="translate(77.490234 0)"/>
      <use xlink:href="#DejaVuSans-6e" transform="translate(139.013672 0)"/>
      <use xlink:href="#DejaVuSans-65" transform="translate(202.392578 0)"/>
     </g>
    </g>
   </g>
   <g id="matplotlib.axis_2">
    <g id="ytick_1">
     <g id="line2d_7">
      <path d="M 58.441875 376.512525 
L 706.331875 376.512525 
" clip-path="url(#p2ce34efb0f)" style="fill: none; stroke-dasharray: 2.96,1.28; stroke-dashoffset: 0; stroke: #b0b0b0; stroke-opacity: 0.4; stroke-width: 0.8"/>
     </g>
     <g id="line2d_8">
      <defs>
       <path id="m3a47cd61fc" d="M 0 0 
L -3.5 0 
" style="stroke: #000000; stroke-width: 0.8"/>
      </defs>
      <g>
       <use xlink:href="#m3a47cd61fc" x="58.441875" y="376.512525" style="stroke: #000000; stroke-width: 0.8"/>
      </g>
     </g>
     <g id="text_8">
      <!-- 0.825 -->
      <g transform="translate(22.81375 380.311744) scale(0.1 -0.1)">
       <defs>
        <path id="DejaVuSans-30" d="M 2034 4250 
Q 1547 4250 1301 3770 
Q 1056 3291 1056 2328 
Q 1056 1369 1301 889 
Q 1547 409 2034 409 
Q 2525 409 2770 889 
Q 3016 1369 3016 2328 
Q 3016 3291 2770 3770 
Q 2525 4250 2034 4250 
z
M 2034 4750 
Q 2819 4750 3233 4129 
Q 3647 3509 3647 2328 
Q 3647 1150 3233 529 
Q 2819 -91 2034 -91 
Q 1250 -91 836 529 
Q 422 1150 422 2328 
Q 422 3509 836 4129 
Q 1250 4750 2034 4750 
z
" transform="scale(0.015625)"/>
        <path id="DejaVuSans-2e" d="M 684 794 
L 1344 794 
L 1344 0 
L 684 0 
L 684 794 
z
" transform="scale(0.015625)"/>
        <path id="DejaVuSans-38" d="M 2034 2216 
Q 1584 2216 1326 1975 
Q 1069 1734 1069 1313 
Q 1069 891 1326 650 
Q 1584 409 2034 409 
Q 2484 409 2743 651 
Q 3003 894 3003 1313 
Q 3003 1734 2745 1975 
Q 2488 2216 2034 2216 
z
M 1403 2484 
Q 997 2584 770 2862 
Q 544 3141 544 3541 
Q 544 4100 942 4425 
Q 1341 4750 2034 4750 
Q 2731 4750 3128 4425 
Q 3525 4100 3525 3541 
Q 3525 3141 3298 2862 
Q 3072 2584 2669 2484 
Q 3125 2378 3379 2068 
Q 3634 1759 3634 1313 
Q 3634 634 3220 271 
Q 2806 -91 2034 -91 
Q 1263 -91 848 271 
Q 434 634 434 1313 
Q 434 1759 690 2068 
Q 947 2378 1403 2484 
z
M 1172 3481 
Q 1172 3119 1398 2916 
Q 1625 2713 2034 2713 
Q 2441 2713 2670 2916 
Q 2900 3119 2900 3481 
Q 2900 3844 2670 4047 
Q 2441 4250 2034 4250 
Q 1625 4250 1398 4047 
Q 1172 3844 1172 3481 
z
" transform="scale(0.015625)"/>
       </defs>
       <use xlink:href="#DejaVuSans-30"/>
       <use xlink:href="#DejaVuSans-2e" transform="translate(63.623047 0)"/>
       <use xlink:href="#DejaVuSans-38" transform="translate(95.410156 0)"/>
       <use xlink:href="#DejaVuSans-32" transform="translate(159.033203 0)"/>
       <use xlink:href="#DejaVuSans-35" transform="translate(222.65625 0)"/>
      </g>
     </g>
    </g>
    <g id="ytick_2">
     <g id="line2d_9">
      <path d="M 58.441875 333.579525 
L 706.331875 333.579525 
" clip-path="url(#p2ce34efb0f)" style="fill: none; stroke-dasharray: 2.96,1.28; stroke-dashoffset: 0; stroke: #b0b0b0; stroke-opacity: 0.4; stroke-width: 0.8"/>
     </g>
     <g id="line2d_10">
      <g>
       <use xlink:href="#m3a47cd61fc" x="58.441875" y="333.579525" style="stroke: #000000; stroke-width: 0.8"/>
      </g>
     </g>
     <g id="text_9">
      <!-- 0.850 -->
      <g transform="translate(22.81375 337.378744) scale(0.1 -0.1)">
       <use xlink:href="#DejaVuSans-30"/>
       <use xlink:href="#DejaVuSans-2e" transform="translate(63.623047 0)"/>
       <use xlink:href="#DejaVuSans-38" transform="translate(95.410156 0)"/>
       <use xlink:href="#DejaVuSans-35" transform="translate(159.033203 0)"/>
       <use xlink:href="#DejaVuSans-30" transform="translate(222.65625 0)"/>
      </g>
     </g>
    </g>
    <g id="ytick_3">
     <g id="line2d_11">
      <path d="M 58.441875 290.646525 
L 706.331875 290.646525 
" clip-path="url(#p2ce34efb0f)" style="fill: none; stroke-dasharray: 2.96,1.28; stroke-dashoffset: 0; stroke: #b0b0b0; stroke-opacity: 0.4; stroke-width: 0.8"/>
     </g>
     <g id="line2d_12">
      <g>
       <use xlink:href="#m3a47cd61fc" x="58.441875" y="290.646525" style="stroke: #000000; stroke-width: 0.8"/>
      </g>
     </g>
     <g id="text_10">
      <!-- 0.875 -->
      <g transform="translate(22.81375 294.445744) scale(0.1 -0.1)">
       <defs>
        <path id="DejaVuSans-37" d="M 525 4666 
L 3525 4666 
L 3525 4397 
L 1831 0 
L 1172 0 
L 2766 4134 
L 525 4134 
L 525 4666 
z
" transform="scale(0.015625)"/>
       </defs>
       <use xlink:href="#DejaVuSans-30"/>
       <use xlink:href="#DejaVuSans-2e" transform="translate(63.623047 0)"/>
       <use xlink:href="#DejaVuSans-38" transform="translate(95.410156 0)"/>
       <use xlink:href="#DejaVuSans-37" transform="translate(159.033203 0)"/>
       <use xlink:href="#DejaVuSans-35" transform="translate(222.65625 0)"/>
      </g>
     </g>
    </g>
    <g id="ytick_4">
     <g id="line2d_13">
      <path d="M 58.441875 247.713525 
L 706.331875 247.713525 
" clip-path="url(#p2ce34efb0f)" style="fill: none; stroke-dasharray: 2.96,1.28; stroke-dashoffset: 0; stroke: #b0b0b0; stroke-opacity: 0.4; stroke-width: 0.8"/>
     </g>
     <g id="line2d_14">
      <g>
       <use xlink:href="#m3a47cd61fc" x="58.441875" y="247.713525" style="stroke: #000000; stroke-width: 0.8"/>
      </g>
     </g>
     <g id="text_11">
      <!-- 0.900 -->
      <g transform="translate(22.81375 251.512744) scale(0.1 -0.1)">
       <defs>
        <path id="DejaVuSans-39" d="M 703 97 
L 703 672 
Q 941 559 1184 500 
Q 1428 441 1663 441 
Q 2288 441 2617 861 
Q 2947 1281 2994 2138 
Q 2813 1869 2534 1725 
Q 2256 1581 1919 1581 
Q 1219 1581 811 2004 
Q 403 2428 403 3163 
Q 403 3881 828 4315 
Q 1253 4750 1959 4750 
Q 2769 4750 3195 4129 
Q 3622 3509 3622 2328 
Q 3622 1225 3098 567 
Q 2575 -91 1691 -91 
Q 1453 -91 1209 -44 
Q 966 3 703 97 
z
M 1959 2075 
Q 2384 2075 2632 2365 
Q 2881 2656 2881 3163 
Q 2881 3666 2632 3958 
Q 2384 4250 1959 4250 
Q 1534 4250 1286 3958 
Q 1038 3666 1038 3163 
Q 1038 2656 1286 2365 
Q 1534 2075 1959 2075 
z
" transform="scale(0.015625)"/>
       </defs>
       <use xlink:href="#DejaVuSans-30"/>
       <use xlink:href="#DejaVuSans-2e" transform="translate(63.623047 0)"/>
       <use xlink:href="#DejaVuSans-39" transform="translate(95.410156 0)"/>
       <use xlink:href="#DejaVuSans-30" transform="translate(159.033203 0)"/>
       <use xlink:href="#DejaVuSans-30" transform="translate(222.65625 0)"/>
      </g>
     </g>
    </g>
    <g id="ytick_5">
     <g id="line2d_15">
      <path d="M 58.441875 204.780525 
L 706.331875 204.780525 
" clip-path="url(#p2ce34efb0f)" style="fill: none; stroke-dasharray: 2.96,1.28; stroke-dashoffset: 0; stroke: #b0b0b0; stroke-opacity: 0.4; stroke-width: 0.8"/>
     </g>
     <g id="line2d_16">
      <g>
       <use xlink:href="#m3a47cd61fc" x="58.441875" y="204.780525" style="stroke: #000000; stroke-width: 0.8"/>
      </g>
     </g>
     <g id="text_12">
      <!-- 0.925 -->
      <g transform="translate(22.81375 208.579744) scale(0.1 -0.1)">
       <use xlink:href="#DejaVuSans-30"/>
       <use xlink:href="#DejaVuSans-2e" transform="translate(63.623047 0)"/>
       <use xlink:href="#DejaVuSans-39" transform="translate(95.410156 0)"/>
       <use xlink:href="#DejaVuSans-32" transform="translate(159.033203 0)"/>
       <use xlink:href="#DejaVuSans-35" transform="translate(222.65625 0)"/>
      </g>
     </g>
    </g>
    <g id="ytick_6">
     <g id="line2d_17">
      <path d="M 58.441875 161.847525 
L 706.331875 161.847525 
" clip-path="url(#p2ce34efb0f)" style="fill: none; stroke-dasharray: 2.96,1.28; stroke-dashoffset: 0; stroke: #b0b0b0; stroke-opacity: 0.4; stroke-width: 0.8"/>
     </g>
     <g id="line2d_18">
      <g>
       <use xlink:href="#m3a47cd61fc" x="58.441875" y="161.847525" style="stroke: #000000; stroke-width: 0.8"/>
      </g>
     </g>
     <g id="text_13">
      <!-- 0.950 -->
      <g transform="translate(22.81375 165.646744) scale(0.1 -0.1)">
       <use xlink:href="#DejaVuSans-30"/>
       <use xlink:href="#DejaVuSans-2e" transform="translate(63.623047 0)"/>
       <use xlink:href="#DejaVuSans-39" transform="translate(95.410156 0)"/>
       <use xlink:href="#DejaVuSans-35" transform="translate(159.033203 0)"/>
       <use xlink:href="#DejaVuSans-30" transform="translate(222.65625 0)"/>
      </g>
     </g>
    </g>
    <g id="ytick_7">
     <g id="line2d_19">
      <path d="M 58.441875 118.914525 
L 706.331875 118.914525 
" clip-path="url(#p2ce34efb0f)" style="fill: none; stroke-dasharray: 2.96,1.28; stroke-dashoffset: 0; stroke: #b0b0b0; stroke-opacity: 0.4; stroke-width: 0.8"/>
     </g>
     <g id="line2d_20">
      <g>
       <use xlink:href="#m3a47cd61fc" x="58.441875" y="118.914525" style="stroke: #000000; stroke-width: 0.8"/>
      </g>
     </g>
     <g id="text_14">
      <!-- 0.975 -->
      <g transform="translate(22.81375 122.713744) scale(0.1 -0.1)">
       <use xlink:href="#DejaVuSans-30"/>
       <use xlink:href="#DejaVuSans-2e" transform="translate(63.623047 0)"/>
       <use xlink:href="#DejaVuSans-39" transform="translate(95.410156 0)"/>
       <use xlink:href="#DejaVuSans-37" transform="translate(159.033203 0)"/>
       <use xlink:href="#DejaVuSans-35" transform="translate(222.65625 0)"/>
      </g>
     </g>
    </g>
    <g id="ytick_8">
     <g id="line2d_21">
      <path d="M 58.441875 75.981525 
L 706.331875 75.981525 
" clip-path="url(#p2ce34efb0f)" style="fill: none; stroke-dasharray: 2.96,1.28; stroke-dashoffset: 0; stroke: #b0b0b0; stroke-opacity: 0.4; stroke-width: 0.8"/>
     </g>
     <g id="line2d_22">
      <g>
       <use xlink:href="#m3a47cd61fc" x="58.441875" y="75.981525" style="stroke: #000000; stroke-width: 0.8"/>
      </g>
     </g>
     <g id="text_15">
      <!-- 1.000 -->
      <g transform="translate(22.81375 79.780744) scale(0.1 -0.1)">
       <use xlink:href="#DejaVuSans-31"/>
       <use xlink:href="#DejaVuSans-2e" transform="translate(63.623047 0)"/>
       <use xlink:href="#DejaVuSans-30" transform="translate(95.410156 0)"/>
       <use xlink:href="#DejaVuSans-30" transform="translate(159.033203 0)"/>
       <use xlink:href="#DejaVuSans-30" transform="translate(222.65625 0)"/>
      </g>
     </g>
    </g>
    <g id="text_16">
     <!-- AUC-ROC (5-fold CV) -->
     <g transform="translate(16.318125 275.33025) rotate(-90) scale(0.12 -0.12)">
      <defs>
       <path id="DejaVuSans-55" d="M 556 4666 
L 1191 4666 
L 1191 1831 
Q 1191 1081 1462 751 
Q 1734 422 2344 422 
Q 2950 422 3222 751 
Q 3494 1081 3494 1831 
L 3494 4666 
L 4128 4666 
L 4128 1753 
Q 4128 841 3676 375 
Q 3225 -91 2344 -91 
Q 1459 -91 1007 375 
Q 556 841 556 1753 
L 556 4666 
z
" transform="scale(0.015625)"/>
       <path id="DejaVuSans-2d" d="M 313 2009 
L 1997 2009 
L 1997 1497 
L 313 1497 
L 313 2009 
z
" transform="scale(0.015625)"/>
       <path id="DejaVuSans-4f" d="M 2522 4238 
Q 1834 4238 1429 3725 
Q 1025 3213 1025 2328 
Q 1025 1447 1429 934 
Q 1834 422 2522 422 
Q 3209 422 3611 934 
Q 4013 1447 4013 2328 
Q 4013 3213 3611 3725 
Q 3209 4238 2522 4238 
z
M 2522 4750 
Q 3503 4750 4090 4092 
Q 4678 3434 4678 2328 
Q 4678 1225 4090 567 
Q 3503 -91 2522 -91 
Q 1538 -91 948 565 
Q 359 1222 359 2328 
Q 359 3434 948 4092 
Q 1538 4750 2522 4750 
z
" transform="scale(0.015625)"/>
       <path id="DejaVuSans-20" transform="scale(0.015625)"/>
       <path id="DejaVuSans-28" d="M 1984 4856 
Q 1566 4138 1362 3434 
Q 1159 2731 1159 2009 
Q 1159 1288 1364 580 
Q 1569 -128 1984 -844 
L 1484 -844 
Q 1016 -109 783 600 
Q 550 1309 550 2009 
Q 550 2706 781 3412 
Q 1013 4119 1484 4856 
L 1984 4856 
z
" transform="scale(0.015625)"/>
       <path id="DejaVuSans-66" d="M 2375 4863 
L 2375 4384 
L 1825 4384 
Q 1516 4384 1395 4259 
Q 1275 4134 1275 3809 
L 1275 3500 
L 2222 3500 
L 2222 3053 
L 1275 3053 
L 1275 0 
L 697 0 
L 697 3053 
L 147 3053 
L 147 3500 
L 697 3500 
L 697 3744 
Q 697 4328 969 4595 
Q 1241 4863 1831 4863 
L 2375 4863 
z
" transform="scale(0.015625)"/>
       <path id="DejaVuSans-6f" d="M 1959 3097 
Q 1497 3097 1228 2736 
Q 959 2375 959 1747 
Q 959 1119 1226 758 
Q 1494 397 1959 397 
Q 2419 397 2687 759 
Q 2956 1122 2956 1747 
Q 2956 2369 2687 2733 
Q 2419 3097 1959 3097 
z
M 1959 3584 
Q 2709 3584 3137 3096 
Q 3566 2609 3566 1747 
Q 3566 888 3137 398 
Q 2709 -91 1959 -91 
Q 1206 -91 779 398 
Q 353 888 353 1747 
Q 353 2609 779 3096 
Q 1206 3584 1959 3584 
z
" transform="scale(0.015625)"/>
       <path id="DejaVuSans-6c" d="M 603 4863 
L 1178 4863 
L 1178 0 
L 603 0 
L 603 4863 
z
" transform="scale(0.015625)"/>
       <path id="DejaVuSans-64" d="M 2906 2969 
L 2906 4863 
L 3481 4863 
L 3481 0 
L 2906 0 
L 2906 525 
Q 2725 213 2448 61 
Q 2172 -91 1784 -91 
Q 1150 -91 751 415 
Q 353 922 353 1747 
Q 353 2572 751 3078 
Q 1150 3584 1784 3584 
Q 2172 3584 2448 3432 
Q 2725 3281 2906 2969 
z
M 947 1747 
Q 947 1113 1208 752 
Q 1469 391 1925 391 
Q 2381 391 2643 752 
Q 2906 1113 2906 1747 
Q 2906 2381 2643 2742 
Q 2381 3103 1925 3103 
Q 1469 3103 1208 2742 
Q 947 2381 947 1747 
z
" transform="scale(0.015625)"/>
       <path id="DejaVuSans-56" d="M 1831 0 
L 50 4666 
L 709 4666 
L 2188 738 
L 3669 4666 
L 4325 4666 
L 2547 0 
L 1831 0 
z
" transform="scale(0.015625)"/>
       <path id="DejaVuSans-29" d="M 513 4856 
L 1013 4856 
Q 1481 4119 1714 3412 
Q 1947 2706 1947 2009 
Q 1947 1309 1714 600 
Q 1481 -109 1013 -844 
L 513 -844 
Q 928 -128 1133 580 
Q 1338 1288 1338 2009 
Q 1338 2731 1133 3434 
Q 928 4138 513 4856 
z
" transform="scale(0.015625)"/>
      </defs>
      <use xlink:href="#DejaVuSans-41"/>
      <use xlink:href="#DejaVuSans-55" transform="translate(68.408203 0)"/>
      <use xlink:href="#DejaVuSans-43" transform="translate(141.601562 0)"/>
      <use xlink:href="#DejaVuSans-2d" transform="translate(211.425781 0)"/>
      <use xlink:href="#DejaVuSans-52" transform="translate(247.509766 0)"/>
      <use xlink:href="#DejaVuSans-4f" transform="translate(316.992188 0)"/>
      <use xlink:href="#DejaVuSans-43" transform="translate(395.703125 0)"/>
      <use xlink:href="#DejaVuSans-20" transform="translate(465.527344 0)"/>
      <use xlink:href="#DejaVuSans-28" transform="translate(497.314453 0)"/>
      <use xlink:href="#DejaVuSans-35" transform="translate(536.328125 0)"/>
      <use xlink:href="#DejaVuSans-2d" transform="translate(599.951172 0)"/>
      <use xlink:href="#DejaVuSans-66" transform="translate(636.035156 0)"/>
      <use xlink:href="#DejaVuSans-6f" transform="translate(671.240234 0)"/>
      <use xlink:href="#DejaVuSans-6c" transform="translate(732.421875 0)"/>
      <use xlink:href="#DejaVuSans-64" transform="translate(760.205078 0)"/>
      <use xlink:href="#DejaVuSans-20" transform="translate(823.681641 0)"/>
      <use xlink:href="#DejaVuSans-43" transform="translate(855.46875 0)"/>
      <use xlink:href="#DejaVuSans-56" transform="translate(925.292969 0)"/>
      <use xlink:href="#DejaVuSans-29" transform="translate(993.701172 0)"/>
     </g>
    </g>
   </g>
   <g id="patch_3">
    <path d="M 58.441875 385.099125 
L 58.441875 41.635125 
" style="fill: none; stroke: #000000; stroke-width: 0.8; stroke-linejoin: miter; stroke-linecap: square"/>
   </g>
   <g id="patch_4">
    <path d="M 58.441875 385.099125 
L 706.331875 385.099125 
" style="fill: none; stroke: #000000; stroke-width: 0.8; stroke-linejoin: miter; stroke-linecap: square"/>
   </g>
   <g id="patch_5">
    <path d="M 87.89142 1793.301525 
L 146.259889 1793.301525 
L 146.259889 161.847525 
L 87.89142 161.847525 
z
" clip-path="url(#p2ce34efb0f)" style="fill: #66c2a5; stroke: #ffffff; stroke-width: 0.8; stroke-linejoin: miter"/>
   </g>
   <g id="patch_6">
    <path d="M 194.015909 1793.301525 
L 252.384377 1793.301525 
L 252.384377 165.282165 
L 194.015909 165.282165 
z
" clip-path="url(#p2ce34efb0f)" style="fill: #fc8d62; stroke: #ffffff; stroke-width: 0.8; stroke-linejoin: miter"/>
   </g>
   <g id="patch_7">
    <path d="M 300.140397 1793.301525 
L 358.508865 1793.301525 
L 358.508865 168.716805 
L 300.140397 168.716805 
z
" clip-path="url(#p2ce34efb0f)" style="fill: #8da0cb; stroke: #ffffff; stroke-width: 0.8; stroke-linejoin: miter"/>
   </g>
   <g id="patch_8">
    <path d="M 406.264885 1793.301525 
L 464.633353 1793.301525 
L 464.633353 177.303405 
L 406.264885 177.303405 
z
" clip-path="url(#p2ce34efb0f)" style="fill: #e78ac3; stroke: #ffffff; stroke-width: 0.8; stroke-linejoin: miter"/>
   </g>
   <g id="patch_9">
    <path d="M 512.389373 1793.301525 
L 570.757841 1793.301525 
L 570.757841 182.455365 
L 512.389373 182.455365 
z
" clip-path="url(#p2ce34efb0f)" style="fill: #a6d854; stroke: #ffffff; stroke-width: 0.8; stroke-linejoin: miter"/>
   </g>
   <g id="patch_10">
    <path d="M 618.513861 1793.301525 
L 676.88233 1793.301525 
L 676.88233 192.759285 
L 618.513861 192.759285 
z
" clip-path="url(#p2ce34efb0f)" style="fill: #ffd92f; stroke: #ffffff; stroke-width: 0.8; stroke-linejoin: miter"/>
   </g>
   <g id="text_17">
    <g id="patch_11">
     <path d="M 84.180655 118.472205 
L 149.970655 118.472205 
Q 151.245655 118.472205 151.245655 117.197205 
L 151.245655 99.452658 
Q 151.245655 98.177658 149.970655 98.177658 
L 84.180655 98.177658 
Q 82.905655 98.177658 82.905655 99.452658 
L 82.905655 117.197205 
Q 82.905655 118.472205 84.180655 118.472205 
z
" style="fill: #ffffff; opacity: 0.8"/>
    </g>
    <!-- 0.950 -->
    <g transform="translate(103.633038 105.91133) scale(0.085 -0.085)">
     <defs>
      <path id="DejaVuSans-Bold-30" d="M 2944 2338 
Q 2944 3213 2780 3570 
Q 2616 3928 2228 3928 
Q 1841 3928 1675 3570 
Q 1509 3213 1509 2338 
Q 1509 1453 1675 1090 
Q 1841 728 2228 728 
Q 2613 728 2778 1090 
Q 2944 1453 2944 2338 
z
M 4147 2328 
Q 4147 1169 3647 539 
Q 3147 -91 2228 -91 
Q 1306 -91 806 539 
Q 306 1169 306 2328 
Q 306 3491 806 4120 
Q 1306 4750 2228 4750 
Q 3147 4750 3647 4120 
Q 4147 3491 4147 2328 
z
" transform="scale(0.015625)"/>
      <path id="DejaVuSans-Bold-2e" d="M 653 1209 
L 1778 1209 
L 1778 0 
L 653 0 
L 653 1209 
z
" transform="scale(0.015625)"/>
      <path id="DejaVuSans-Bold-39" d="M 641 103 
L 641 966 
Q 928 831 1190 764 
Q 1453 697 1709 697 
Q 2247 697 2547 995 
Q 2847 1294 2900 1881 
Q 2688 1725 2447 1647 
Q 2206 1569 1925 1569 
Q 1209 1569 770 1986 
Q 331 2403 331 3084 
Q 331 3838 820 4291 
Q 1309 4744 2131 4744 
Q 3044 4744 3544 4128 
Q 4044 3513 4044 2388 
Q 4044 1231 3459 570 
Q 2875 -91 1856 -91 
Q 1528 -91 1228 -42 
Q 928 6 641 103 
z
M 2125 2350 
Q 2441 2350 2600 2554 
Q 2759 2759 2759 3169 
Q 2759 3575 2600 3781 
Q 2441 3988 2125 3988 
Q 1809 3988 1650 3781 
Q 1491 3575 1491 3169 
Q 1491 2759 1650 2554 
Q 1809 2350 2125 2350 
z
" transform="scale(0.015625)"/>
      <path id="DejaVuSans-Bold-35" d="M 678 4666 
L 3669 4666 
L 3669 3781 
L 1638 3781 
L 1638 3059 
Q 1775 3097 1914 3117 
Q 2053 3138 2203 3138 
Q 3056 3138 3531 2711 
Q 4006 2284 4006 1522 
Q 4006 766 3489 337 
Q 2972 -91 2053 -91 
Q 1656 -91 1267 -14 
Q 878 63 494 219 
L 494 1166 
Q 875 947 1217 837 
Q 1559 728 1863 728 
Q 2300 728 2551 942 
Q 2803 1156 2803 1522 
Q 2803 1891 2551 2103 
Q 2300 2316 1863 2316 
Q 1603 2316 1309 2248 
Q 1016 2181 678 2041 
L 678 4666 
z
" transform="scale(0.015625)"/>
     </defs>
     <use xlink:href="#DejaVuSans-Bold-30"/>
     <use xlink:href="#DejaVuSans-Bold-2e" transform="translate(69.580078 0)"/>
     <use xlink:href="#DejaVuSans-Bold-39" transform="translate(107.568359 0)"/>
     <use xlink:href="#DejaVuSans-Bold-35" transform="translate(177.148438 0)"/>
     <use xlink:href="#DejaVuSans-Bold-30" transform="translate(246.728516 0)"/>
    </g>
    <!-- (0.922–0.972) -->
    <g transform="translate(84.180655 115.429471) scale(0.085 -0.085)">
     <defs>
      <path id="DejaVuSans-Bold-28" d="M 2413 -844 
L 1484 -844 
Q 1006 -72 778 623 
Q 550 1319 550 2003 
Q 550 2688 779 3389 
Q 1009 4091 1484 4856 
L 2413 4856 
Q 2013 4116 1813 3408 
Q 1613 2700 1613 2009 
Q 1613 1319 1811 609 
Q 2009 -100 2413 -844 
z
" transform="scale(0.015625)"/>
      <path id="DejaVuSans-Bold-32" d="M 1844 884 
L 3897 884 
L 3897 0 
L 506 0 
L 506 884 
L 2209 2388 
Q 2438 2594 2547 2791 
Q 2656 2988 2656 3200 
Q 2656 3528 2436 3728 
Q 2216 3928 1850 3928 
Q 1569 3928 1234 3808 
Q 900 3688 519 3450 
L 519 4475 
Q 925 4609 1322 4679 
Q 1719 4750 2100 4750 
Q 2938 4750 3402 4381 
Q 3866 4013 3866 3353 
Q 3866 2972 3669 2642 
Q 3472 2313 2841 1759 
L 1844 884 
z
" transform="scale(0.015625)"/>
      <path id="DejaVuSans-Bold-2013" d="M 344 2156 
L 2856 2156 
L 2856 1350 
L 344 1350 
L 344 2156 
z
" transform="scale(0.015625)"/>
      <path id="DejaVuSans-Bold-37" d="M 428 4666 
L 3944 4666 
L 3944 3988 
L 2125 0 
L 953 0 
L 2675 3781 
L 428 3781 
L 428 4666 
z
" transform="scale(0.015625)"/>
      <path id="DejaVuSans-Bold-29" d="M 513 -844 
Q 913 -100 1113 609 
Q 1313 1319 1313 2009 
Q 1313 2700 1113 3408 
Q 913 4116 513 4856 
L 1441 4856 
Q 1916 4091 2145 3389 
Q 2375 2688 2375 2003 
Q 2375 1319 2147 623 
Q 1919 -72 1441 -844 
L 513 -844 
z
" transform="scale(0.015625)"/>
     </defs>
     <use xlink:href="#DejaVuSans-Bold-28"/>
     <use xlink:href="#DejaVuSans-Bold-30" transform="translate(45.703125 0)"/>
     <use xlink:href="#DejaVuSans-Bold-2e" transform="translate(115.283203 0)"/>
     <use xlink:href="#DejaVuSans-Bold-39" transform="translate(153.271484 0)"/>
     <use xlink:href="#DejaVuSans-Bold-32" transform="translate(222.851562 0)"/>
     <use xlink:href="#DejaVuSans-Bold-32" transform="translate(292.431641 0)"/>
     <use xlink:href="#DejaVuSans-Bold-2013" transform="translate(362.011719 0)"/>
     <use xlink:href="#DejaVuSans-Bold-30" transform="translate(412.011719 0)"/>
     <use xlink:href="#DejaVuSans-Bold-2e" transform="translate(481.591797 0)"/>
     <use xlink:href="#DejaVuSans-Bold-39" transform="translate(519.580078 0)"/>
     <use xlink:href="#DejaVuSans-Bold-37" transform="translate(589.160156 0)"/>
     <use xlink:href="#DejaVuSans-Bold-32" transform="translate(658.740234 0)"/>
     <use xlink:href="#DejaVuSans-Bold-29" transform="translate(728.320312 0)"/>
    </g>
   </g>
   <g id="text_18">
    <g id="patch_12">
     <path d="M 190.305143 125.341485 
L 256.095143 125.341485 
Q 257.370143 125.341485 257.370143 124.066485 
L 257.370143 106.321938 
Q 257.370143 105.046938 256.095143 105.046938 
L 190.305143 105.046938 
Q 189.030143 105.046938 189.030143 106.321938 
L 189.030143 124.066485 
Q 189.030143 125.341485 190.305143 125.341485 
z
" style="fill: #ffffff; opacity: 0.8"/>
    </g>
    <!-- 0.948 -->
    <g transform="translate(209.757526 112.78061) scale(0.085 -0.085)">
     <defs>
      <path id="DejaVuSans-Bold-34" d="M 2356 3675 
L 1038 1722 
L 2356 1722 
L 2356 3675 
z
M 2156 4666 
L 3494 4666 
L 3494 1722 
L 4159 1722 
L 4159 850 
L 3494 850 
L 3494 0 
L 2356 0 
L 2356 850 
L 288 850 
L 288 1881 
L 2156 4666 
z
" transform="scale(0.015625)"/>
      <path id="DejaVuSans-Bold-38" d="M 2228 2088 
Q 1891 2088 1709 1903 
Q 1528 1719 1528 1375 
Q 1528 1031 1709 848 
Q 1891 666 2228 666 
Q 2563 666 2741 848 
Q 2919 1031 2919 1375 
Q 2919 1722 2741 1905 
Q 2563 2088 2228 2088 
z
M 1350 2484 
Q 925 2613 709 2878 
Q 494 3144 494 3541 
Q 494 4131 934 4440 
Q 1375 4750 2228 4750 
Q 3075 4750 3515 4442 
Q 3956 4134 3956 3541 
Q 3956 3144 3739 2878 
Q 3522 2613 3097 2484 
Q 3572 2353 3814 2058 
Q 4056 1763 4056 1313 
Q 4056 619 3595 264 
Q 3134 -91 2228 -91 
Q 1319 -91 855 264 
Q 391 619 391 1313 
Q 391 1763 633 2058 
Q 875 2353 1350 2484 
z
M 1631 3419 
Q 1631 3141 1786 2991 
Q 1941 2841 2228 2841 
Q 2509 2841 2662 2991 
Q 2816 3141 2816 3419 
Q 2816 3697 2662 3845 
Q 2509 3994 2228 3994 
Q 1941 3994 1786 3844 
Q 1631 3694 1631 3419 
z
" transform="scale(0.015625)"/>
     </defs>
     <use xlink:href="#DejaVuSans-Bold-30"/>
     <use xlink:href="#DejaVuSans-Bold-2e" transform="translate(69.580078 0)"/>
     <use xlink:href="#DejaVuSans-Bold-39" transform="translate(107.568359 0)"/>
     <use xlink:href="#DejaVuSans-Bold-34" transform="translate(177.148438 0)"/>
     <use xlink:href="#DejaVuSans-Bold-38" transform="translate(246.728516 0)"/>
    </g>
    <!-- (0.922–0.968) -->
    <g transform="translate(190.305143 122.298751) scale(0.085 -0.085)">
     <defs>
      <path id="DejaVuSans-Bold-36" d="M 2316 2303 
Q 2000 2303 1842 2098 
Q 1684 1894 1684 1484 
Q 1684 1075 1842 870 
Q 2000 666 2316 666 
Q 2634 666 2792 870 
Q 2950 1075 2950 1484 
Q 2950 1894 2792 2098 
Q 2634 2303 2316 2303 
z
M 3803 4544 
L 3803 3681 
Q 3506 3822 3243 3889 
Q 2981 3956 2731 3956 
Q 2194 3956 1894 3657 
Q 1594 3359 1544 2772 
Q 1750 2925 1990 3001 
Q 2231 3078 2516 3078 
Q 3231 3078 3670 2659 
Q 4109 2241 4109 1563 
Q 4109 813 3618 361 
Q 3128 -91 2303 -91 
Q 1394 -91 895 523 
Q 397 1138 397 2266 
Q 397 3422 980 4083 
Q 1563 4744 2578 4744 
Q 2900 4744 3203 4694 
Q 3506 4644 3803 4544 
z
" transform="scale(0.015625)"/>
     </defs>
     <use xlink:href="#DejaVuSans-Bold-28"/>
     <use xlink:href="#DejaVuSans-Bold-30" transform="translate(45.703125 0)"/>
     <use xlink:href="#DejaVuSans-Bold-2e" transform="translate(115.283203 0)"/>
     <use xlink:href="#DejaVuSans-Bold-39" transform="translate(153.271484 0)"/>
     <use xlink:href="#DejaVuSans-Bold-32" transform="translate(222.851562 0)"/>
     <use xlink:href="#DejaVuSans-Bold-32" transform="translate(292.431641 0)"/>
     <use xlink:href="#DejaVuSans-Bold-2013" transform="translate(362.011719 0)"/>
     <use xlink:href="#DejaVuSans-Bold-30" transform="translate(412.011719 0)"/>
     <use xlink:href="#DejaVuSans-Bold-2e" transform="translate(481.591797 0)"/>
     <use xlink:href="#DejaVuSans-Bold-39" transform="translate(519.580078 0)"/>
     <use xlink:href="#DejaVuSans-Bold-36" transform="translate(589.160156 0)"/>
     <use xlink:href="#DejaVuSans-Bold-38" transform="translate(658.740234 0)"/>
     <use xlink:href="#DejaVuSans-Bold-29" transform="translate(728.320312 0)"/>
    </g>
   </g>
   <g id="text_19">
    <g id="patch_13">
     <path d="M 296.429631 115.037565 
L 362.219631 115.037565 
Q 363.494631 115.037565 363.494631 113.762565 
L 363.494631 96.018018 
Q 363.494631 94.743018 362.219631 94.743018 
L 296.429631 94.743018 
Q 295.154631 94.743018 295.154631 96.018018 
L 295.154631 113.762565 
Q 295.154631 115.037565 296.429631 115.037565 
z
" style="fill: #ffffff; opacity: 0.8"/>
    </g>
    <!-- 0.946 -->
    <g transform="translate(315.882014 102.47669) scale(0.085 -0.085)">
     <use xlink:href="#DejaVuSans-Bold-30"/>
     <use xlink:href="#DejaVuSans-Bold-2e" transform="translate(69.580078 0)"/>
     <use xlink:href="#DejaVuSans-Bold-39" transform="translate(107.568359 0)"/>
     <use xlink:href="#DejaVuSans-Bold-34" transform="translate(177.148438 0)"/>
     <use xlink:href="#DejaVuSans-Bold-36" transform="translate(246.728516 0)"/>
    </g>
    <!-- (0.907–0.974) -->
    <g transform="translate(296.429631 111.994831) scale(0.085 -0.085)">
     <use xlink:href="#DejaVuSans-Bold-28"/>
     <use xlink:href="#DejaVuSans-Bold-30" transform="translate(45.703125 0)"/>
     <use xlink:href="#DejaVuSans-Bold-2e" transform="translate(115.283203 0)"/>
     <use xlink:href="#DejaVuSans-Bold-39" transform="translate(153.271484 0)"/>
     <use xlink:href="#DejaVuSans-Bold-30" transform="translate(222.851562 0)"/>
     <use xlink:href="#DejaVuSans-Bold-37" transform="translate(292.431641 0)"/>
     <use xlink:href="#DejaVuSans-Bold-2013" transform="translate(362.011719 0)"/>
     <use xlink:href="#DejaVuSans-Bold-30" transform="translate(412.011719 0)"/>
     <use xlink:href="#DejaVuSans-Bold-2e" transform="translate(481.591797 0)"/>
     <use xlink:href="#DejaVuSans-Bold-39" transform="translate(519.580078 0)"/>
     <use xlink:href="#DejaVuSans-Bold-37" transform="translate(589.160156 0)"/>
     <use xlink:href="#DejaVuSans-Bold-34" transform="translate(658.740234 0)"/>
     <use xlink:href="#DejaVuSans-Bold-29" transform="translate(728.320312 0)"/>
    </g>
   </g>
   <g id="text_20">
    <g id="patch_14">
     <path d="M 402.554119 133.928085 
L 468.344119 133.928085 
Q 469.619119 133.928085 469.619119 132.653085 
L 469.619119 114.908538 
Q 469.619119 113.633538 468.344119 113.633538 
L 402.554119 113.633538 
Q 401.279119 113.633538 401.279119 114.908538 
L 401.279119 132.653085 
Q 401.279119 133.928085 402.554119 133.928085 
z
" style="fill: #ffffff; opacity: 0.8"/>
    </g>
    <!-- 0.941 -->
    <g transform="translate(422.006502 121.36721) scale(0.085 -0.085)">
     <defs>
      <path id="DejaVuSans-Bold-31" d="M 750 831 
L 1813 831 
L 1813 3847 
L 722 3622 
L 722 4441 
L 1806 4666 
L 2950 4666 
L 2950 831 
L 4013 831 
L 4013 0 
L 750 0 
L 750 831 
z
" transform="scale(0.015625)"/>
     </defs>
     <use xlink:href="#DejaVuSans-Bold-30"/>
     <use xlink:href="#DejaVuSans-Bold-2e" transform="translate(69.580078 0)"/>
     <use xlink:href="#DejaVuSans-Bold-39" transform="translate(107.568359 0)"/>
     <use xlink:href="#DejaVuSans-Bold-34" transform="translate(177.148438 0)"/>
     <use xlink:href="#DejaVuSans-Bold-31" transform="translate(246.728516 0)"/>
    </g>
    <!-- (0.916–0.963) -->
    <g transform="translate(402.554119 130.885351) scale(0.085 -0.085)">
     <defs>
      <path id="DejaVuSans-Bold-33" d="M 2981 2516 
Q 3453 2394 3698 2092 
Q 3944 1791 3944 1325 
Q 3944 631 3412 270 
Q 2881 -91 1863 -91 
Q 1503 -91 1142 -33 
Q 781 25 428 141 
L 428 1069 
Q 766 900 1098 814 
Q 1431 728 1753 728 
Q 2231 728 2486 893 
Q 2741 1059 2741 1369 
Q 2741 1688 2480 1852 
Q 2219 2016 1709 2016 
L 1228 2016 
L 1228 2791 
L 1734 2791 
Q 2188 2791 2409 2933 
Q 2631 3075 2631 3366 
Q 2631 3634 2415 3781 
Q 2200 3928 1806 3928 
Q 1516 3928 1219 3862 
Q 922 3797 628 3669 
L 628 4550 
Q 984 4650 1334 4700 
Q 1684 4750 2022 4750 
Q 2931 4750 3382 4451 
Q 3834 4153 3834 3553 
Q 3834 3144 3618 2883 
Q 3403 2622 2981 2516 
z
" transform="scale(0.015625)"/>
     </defs>
     <use xlink:href="#DejaVuSans-Bold-28"/>
     <use xlink:href="#DejaVuSans-Bold-30" transform="translate(45.703125 0)"/>
     <use xlink:href="#DejaVuSans-Bold-2e" transform="translate(115.283203 0)"/>
     <use xlink:href="#DejaVuSans-Bold-39" transform="translate(153.271484 0)"/>
     <use xlink:href="#DejaVuSans-Bold-31" transform="translate(222.851562 0)"/>
     <use xlink:href="#DejaVuSans-Bold-36" transform="translate(292.431641 0)"/>
     <use xlink:href="#DejaVuSans-Bold-2013" transform="translate(362.011719 0)"/>
     <use xlink:href="#DejaVuSans-Bold-30" transform="translate(412.011719 0)"/>
     <use xlink:href="#DejaVuSans-Bold-2e" transform="translate(481.591797 0)"/>
     <use xlink:href="#DejaVuSans-Bold-39" transform="translate(519.580078 0)"/>
     <use xlink:href="#DejaVuSans-Bold-36" transform="translate(589.160156 0)"/>
     <use xlink:href="#DejaVuSans-Bold-33" transform="translate(658.740234 0)"/>
     <use xlink:href="#DejaVuSans-Bold-29" transform="translate(728.320312 0)"/>
    </g>
   </g>
   <g id="text_21">
    <g id="patch_15">
     <path d="M 508.678607 137.362725 
L 574.468607 137.362725 
Q 575.743607 137.362725 575.743607 136.087725 
L 575.743607 118.343178 
Q 575.743607 117.068178 574.468607 117.068178 
L 508.678607 117.068178 
Q 507.403607 117.068178 507.403607 118.343178 
L 507.403607 136.087725 
Q 507.403607 137.362725 508.678607 137.362725 
z
" style="fill: #ffffff; opacity: 0.8"/>
    </g>
    <!-- 0.938 -->
    <g transform="translate(528.13099 124.80185) scale(0.085 -0.085)">
     <use xlink:href="#DejaVuSans-Bold-30"/>
     <use xlink:href="#DejaVuSans-Bold-2e" transform="translate(69.580078 0)"/>
     <use xlink:href="#DejaVuSans-Bold-39" transform="translate(107.568359 0)"/>
     <use xlink:href="#DejaVuSans-Bold-33" transform="translate(177.148438 0)"/>
     <use xlink:href="#DejaVuSans-Bold-38" transform="translate(246.728516 0)"/>
    </g>
    <!-- (0.912–0.961) -->
    <g transform="translate(508.678607 134.319991) scale(0.085 -0.085)">
     <use xlink:href="#DejaVuSans-Bold-28"/>
     <use xlink:href="#DejaVuSans-Bold-30" transform="translate(45.703125 0)"/>
     <use xlink:href="#DejaVuSans-Bold-2e" transform="translate(115.283203 0)"/>
     <use xlink:href="#DejaVuSans-Bold-39" transform="translate(153.271484 0)"/>
     <use xlink:href="#DejaVuSans-Bold-31" transform="translate(222.851562 0)"/>
     <use xlink:href="#DejaVuSans-Bold-32" transform="translate(292.431641 0)"/>
     <use xlink:href="#DejaVuSans-Bold-2013" transform="translate(362.011719 0)"/>
     <use xlink:href="#DejaVuSans-Bold-30" transform="translate(412.011719 0)"/>
     <use xlink:href="#DejaVuSans-Bold-2e" transform="translate(481.591797 0)"/>
     <use xlink:href="#DejaVuSans-Bold-39" transform="translate(519.580078 0)"/>
     <use xlink:href="#DejaVuSans-Bold-36" transform="translate(589.160156 0)"/>
     <use xlink:href="#DejaVuSans-Bold-31" transform="translate(658.740234 0)"/>
     <use xlink:href="#DejaVuSans-Bold-29" transform="translate(728.320312 0)"/>
    </g>
   </g>
   <g id="text_22">
    <g id="patch_16">
     <path d="M 614.803095 140.797365 
L 680.593095 140.797365 
Q 681.868095 140.797365 681.868095 139.522365 
L 681.868095 121.777818 
Q 681.868095 120.502818 680.593095 120.502818 
L 614.803095 120.502818 
Q 613.528095 120.502818 613.528095 121.777818 
L 613.528095 139.522365 
Q 613.528095 140.797365 614.803095 140.797365 
z
" style="fill: #ffffff; opacity: 0.8"/>
    </g>
    <!-- 0.932 -->
    <g transform="translate(634.255478 128.23649) scale(0.085 -0.085)">
     <use xlink:href="#DejaVuSans-Bold-30"/>
     <use xlink:href="#DejaVuSans-Bold-2e" transform="translate(69.580078 0)"/>
     <use xlink:href="#DejaVuSans-Bold-39" transform="translate(107.568359 0)"/>
     <use xlink:href="#DejaVuSans-Bold-33" transform="translate(177.148438 0)"/>
     <use xlink:href="#DejaVuSans-Bold-32" transform="translate(246.728516 0)"/>
    </g>
    <!-- (0.900–0.959) -->
    <g transform="translate(614.803095 137.754631) scale(0.085 -0.085)">
     <use xlink:href="#DejaVuSans-Bold-28"/>
     <use xlink:href="#DejaVuSans-Bold-30" transform="translate(45.703125 0)"/>
     <use xlink:href="#DejaVuSans-Bold-2e" transform="translate(115.283203 0)"/>
     <use xlink:href="#DejaVuSans-Bold-39" transform="translate(153.271484 0)"/>
     <use xlink:href="#DejaVuSans-Bold-30" transform="translate(222.851562 0)"/>
     <use xlink:href="#DejaVuSans-Bold-30" transform="translate(292.431641 0)"/>
     <use xlink:href="#DejaVuSans-Bold-2013" transform="translate(362.011719 0)"/>
     <use xlink:href="#DejaVuSans-Bold-30" transform="translate(412.011719 0)"/>
     <use xlink:href="#DejaVuSans-Bold-2e" transform="translate(481.591797 0)"/>
     <use xlink:href="#DejaVuSans-Bold-39" transform="translate(519.580078 0)"/>
     <use xlink:href="#DejaVuSans-Bold-35" transform="translate(589.160156 0)"/>
     <use xlink:href="#DejaVuSans-Bold-39" transform="translate(658.740234 0)"/>
     <use xlink:href="#DejaVuSans-Bold-29" transform="translate(728.320312 0)"/>
    </g>
   </g>
   <g id="text_23">
    <!-- Per-Gene Classification Performance — XGBoost (OpenVariant) -->
    <g transform="translate(151.740469 17.077969) scale(0.13 -0.13)">
     <defs>
      <path id="DejaVuSans-Bold-50" d="M 588 4666 
L 2584 4666 
Q 3475 4666 3951 4270 
Q 4428 3875 4428 3144 
Q 4428 2409 3951 2014 
Q 3475 1619 2584 1619 
L 1791 1619 
L 1791 0 
L 588 0 
L 588 4666 
z
M 1791 3794 
L 1791 2491 
L 2456 2491 
Q 2806 2491 2997 2661 
Q 3188 2831 3188 3144 
Q 3188 3456 2997 3625 
Q 2806 3794 2456 3794 
L 1791 3794 
z
" transform="scale(0.015625)"/>
      <path id="DejaVuSans-Bold-65" d="M 4031 1759 
L 4031 1441 
L 1416 1441 
Q 1456 1047 1700 850 
Q 1944 653 2381 653 
Q 2734 653 3104 758 
Q 3475 863 3866 1075 
L 3866 213 
Q 3469 63 3072 -14 
Q 2675 -91 2278 -91 
Q 1328 -91 801 392 
Q 275 875 275 1747 
Q 275 2603 792 3093 
Q 1309 3584 2216 3584 
Q 3041 3584 3536 3087 
Q 4031 2591 4031 1759 
z
M 2881 2131 
Q 2881 2450 2695 2645 
Q 2509 2841 2209 2841 
Q 1884 2841 1681 2658 
Q 1478 2475 1428 2131 
L 2881 2131 
z
" transform="scale(0.015625)"/>
      <path id="DejaVuSans-Bold-72" d="M 3138 2547 
Q 2991 2616 2845 2648 
Q 2700 2681 2553 2681 
Q 2122 2681 1889 2404 
Q 1656 2128 1656 1613 
L 1656 0 
L 538 0 
L 538 3500 
L 1656 3500 
L 1656 2925 
Q 1872 3269 2151 3426 
Q 2431 3584 2822 3584 
Q 2878 3584 2943 3579 
Q 3009 3575 3134 3559 
L 3138 2547 
z
" transform="scale(0.015625)"/>
      <path id="DejaVuSans-Bold-2d" d="M 347 2297 
L 2309 2297 
L 2309 1388 
L 347 1388 
L 347 2297 
z
" transform="scale(0.015625)"/>
      <path id="DejaVuSans-Bold-47" d="M 4781 347 
Q 4331 128 3847 18 
Q 3363 -91 2847 -91 
Q 1681 -91 1000 561 
Q 319 1213 319 2328 
Q 319 3456 1012 4103 
Q 1706 4750 2913 4750 
Q 3378 4750 3804 4662 
Q 4231 4575 4609 4403 
L 4609 3438 
Q 4219 3659 3833 3768 
Q 3447 3878 3059 3878 
Q 2341 3878 1952 3476 
Q 1563 3075 1563 2328 
Q 1563 1588 1938 1184 
Q 2313 781 3003 781 
Q 3191 781 3352 804 
Q 3513 828 3641 878 
L 3641 1784 
L 2906 1784 
L 2906 2591 
L 4781 2591 
L 4781 347 
z
" transform="scale(0.015625)"/>
      <path id="DejaVuSans-Bold-6e" d="M 4056 2131 
L 4056 0 
L 2931 0 
L 2931 347 
L 2931 1631 
Q 2931 2084 2911 2256 
Q 2891 2428 2841 2509 
Q 2775 2619 2662 2680 
Q 2550 2741 2406 2741 
Q 2056 2741 1856 2470 
Q 1656 2200 1656 1722 
L 1656 0 
L 538 0 
L 538 3500 
L 1656 3500 
L 1656 2988 
Q 1909 3294 2193 3439 
Q 2478 3584 2822 3584 
Q 3428 3584 3742 3212 
Q 4056 2841 4056 2131 
z
" transform="scale(0.015625)"/>
      <path id="DejaVuSans-Bold-20" transform="scale(0.015625)"/>
      <path id="DejaVuSans-Bold-43" d="M 4288 256 
Q 3956 84 3597 -3 
Q 3238 -91 2847 -91 
Q 1681 -91 1000 561 
Q 319 1213 319 2328 
Q 319 3447 1000 4098 
Q 1681 4750 2847 4750 
Q 3238 4750 3597 4662 
Q 3956 4575 4288 4403 
L 4288 3438 
Q 3953 3666 3628 3772 
Q 3303 3878 2944 3878 
Q 2300 3878 1931 3465 
Q 1563 3053 1563 2328 
Q 1563 1606 1931 1193 
Q 2300 781 2944 781 
Q 3303 781 3628 887 
Q 3953 994 4288 1222 
L 4288 256 
z
" transform="scale(0.015625)"/>
      <path id="DejaVuSans-Bold-6c" d="M 538 4863 
L 1656 4863 
L 1656 0 
L 538 0 
L 538 4863 
z
" transform="scale(0.015625)"/>
      <path id="DejaVuSans-Bold-61" d="M 2106 1575 
Q 1756 1575 1579 1456 
Q 1403 1338 1403 1106 
Q 1403 894 1545 773 
Q 1688 653 1941 653 
Q 2256 653 2472 879 
Q 2688 1106 2688 1447 
L 2688 1575 
L 2106 1575 
z
M 3816 1997 
L 3816 0 
L 2688 0 
L 2688 519 
Q 2463 200 2181 54 
Q 1900 -91 1497 -91 
Q 953 -91 614 226 
Q 275 544 275 1050 
Q 275 1666 698 1953 
Q 1122 2241 2028 2241 
L 2688 2241 
L 2688 2328 
Q 2688 2594 2478 2717 
Q 2269 2841 1825 2841 
Q 1466 2841 1156 2769 
Q 847 2697 581 2553 
L 581 3406 
Q 941 3494 1303 3539 
Q 1666 3584 2028 3584 
Q 2975 3584 3395 3211 
Q 3816 2838 3816 1997 
z
" transform="scale(0.015625)"/>
      <path id="DejaVuSans-Bold-73" d="M 3272 3391 
L 3272 2541 
Q 2913 2691 2578 2766 
Q 2244 2841 1947 2841 
Q 1628 2841 1473 2761 
Q 1319 2681 1319 2516 
Q 1319 2381 1436 2309 
Q 1553 2238 1856 2203 
L 2053 2175 
Q 2913 2066 3209 1816 
Q 3506 1566 3506 1031 
Q 3506 472 3093 190 
Q 2681 -91 1863 -91 
Q 1516 -91 1145 -36 
Q 775 19 384 128 
L 384 978 
Q 719 816 1070 734 
Q 1422 653 1784 653 
Q 2113 653 2278 743 
Q 2444 834 2444 1013 
Q 2444 1163 2330 1236 
Q 2216 1309 1875 1350 
L 1678 1375 
Q 931 1469 631 1722 
Q 331 1975 331 2491 
Q 331 3047 712 3315 
Q 1094 3584 1881 3584 
Q 2191 3584 2531 3537 
Q 2872 3491 3272 3391 
z
" transform="scale(0.015625)"/>
      <path id="DejaVuSans-Bold-69" d="M 538 3500 
L 1656 3500 
L 1656 0 
L 538 0 
L 538 3500 
z
M 538 4863 
L 1656 4863 
L 1656 3950 
L 538 3950 
L 538 4863 
z
" transform="scale(0.015625)"/>
      <path id="DejaVuSans-Bold-66" d="M 2841 4863 
L 2841 4128 
L 2222 4128 
Q 1984 4128 1890 4042 
Q 1797 3956 1797 3744 
L 1797 3500 
L 2753 3500 
L 2753 2700 
L 1797 2700 
L 1797 0 
L 678 0 
L 678 2700 
L 122 2700 
L 122 3500 
L 678 3500 
L 678 3744 
Q 678 4316 997 4589 
Q 1316 4863 1984 4863 
L 2841 4863 
z
" transform="scale(0.015625)"/>
      <path id="DejaVuSans-Bold-63" d="M 3366 3391 
L 3366 2478 
Q 3138 2634 2908 2709 
Q 2678 2784 2431 2784 
Q 1963 2784 1702 2511 
Q 1441 2238 1441 1747 
Q 1441 1256 1702 982 
Q 1963 709 2431 709 
Q 2694 709 2930 787 
Q 3166 866 3366 1019 
L 3366 103 
Q 3103 6 2833 -42 
Q 2563 -91 2291 -91 
Q 1344 -91 809 395 
Q 275 881 275 1747 
Q 275 2613 809 3098 
Q 1344 3584 2291 3584 
Q 2566 3584 2833 3536 
Q 3100 3488 3366 3391 
z
" transform="scale(0.015625)"/>
      <path id="DejaVuSans-Bold-74" d="M 1759 4494 
L 1759 3500 
L 2913 3500 
L 2913 2700 
L 1759 2700 
L 1759 1216 
Q 1759 972 1856 886 
Q 1953 800 2241 800 
L 2816 800 
L 2816 0 
L 1856 0 
Q 1194 0 917 276 
Q 641 553 641 1216 
L 641 2700 
L 84 2700 
L 84 3500 
L 641 3500 
L 641 4494 
L 1759 4494 
z
" transform="scale(0.015625)"/>
      <path id="DejaVuSans-Bold-6f" d="M 2203 2784 
Q 1831 2784 1636 2517 
Q 1441 2250 1441 1747 
Q 1441 1244 1636 976 
Q 1831 709 2203 709 
Q 2569 709 2762 976 
Q 2956 1244 2956 1747 
Q 2956 2250 2762 2517 
Q 2569 2784 2203 2784 
z
M 2203 3584 
Q 3106 3584 3614 3096 
Q 4122 2609 4122 1747 
Q 4122 884 3614 396 
Q 3106 -91 2203 -91 
Q 1297 -91 786 396 
Q 275 884 275 1747 
Q 275 2609 786 3096 
Q 1297 3584 2203 3584 
z
" transform="scale(0.015625)"/>
      <path id="DejaVuSans-Bold-6d" d="M 3781 2919 
Q 3994 3244 4286 3414 
Q 4578 3584 4928 3584 
Q 5531 3584 5847 3212 
Q 6163 2841 6163 2131 
L 6163 0 
L 5038 0 
L 5038 1825 
Q 5041 1866 5042 1909 
Q 5044 1953 5044 2034 
Q 5044 2406 4934 2573 
Q 4825 2741 4581 2741 
Q 4263 2741 4089 2478 
Q 3916 2216 3909 1719 
L 3909 0 
L 2784 0 
L 2784 1825 
Q 2784 2406 2684 2573 
Q 2584 2741 2328 2741 
Q 2006 2741 1831 2477 
Q 1656 2213 1656 1722 
L 1656 0 
L 531 0 
L 531 3500 
L 1656 3500 
L 1656 2988 
Q 1863 3284 2130 3434 
Q 2397 3584 2719 3584 
Q 3081 3584 3359 3409 
Q 3638 3234 3781 2919 
z
" transform="scale(0.015625)"/>
      <path id="DejaVuSans-Bold-2014" d="M 344 2156 
L 6056 2156 
L 6056 1350 
L 344 1350 
L 344 2156 
z
" transform="scale(0.015625)"/>
      <path id="DejaVuSans-Bold-58" d="M 3188 2381 
L 4806 0 
L 3553 0 
L 2463 1594 
L 1381 0 
L 122 0 
L 1741 2381 
L 184 4666 
L 1441 4666 
L 2463 3163 
L 3481 4666 
L 4744 4666 
L 3188 2381 
z
" transform="scale(0.015625)"/>
      <path id="DejaVuSans-Bold-42" d="M 2456 2859 
Q 2741 2859 2887 2984 
Q 3034 3109 3034 3353 
Q 3034 3594 2887 3720 
Q 2741 3847 2456 3847 
L 1791 3847 
L 1791 2859 
L 2456 2859 
z
M 2497 819 
Q 2859 819 3042 972 
Q 3225 1125 3225 1434 
Q 3225 1738 3044 1889 
Q 2863 2041 2497 2041 
L 1791 2041 
L 1791 819 
L 2497 819 
z
M 3616 2497 
Q 4003 2384 4215 2081 
Q 4428 1778 4428 1338 
Q 4428 663 3972 331 
Q 3516 0 2584 0 
L 588 0 
L 588 4666 
L 2394 4666 
Q 3366 4666 3802 4372 
Q 4238 4078 4238 3431 
Q 4238 3091 4078 2852 
Q 3919 2613 3616 2497 
z
" transform="scale(0.015625)"/>
      <path id="DejaVuSans-Bold-4f" d="M 2719 3878 
Q 2169 3878 1866 3472 
Q 1563 3066 1563 2328 
Q 1563 1594 1866 1187 
Q 2169 781 2719 781 
Q 3272 781 3575 1187 
Q 3878 1594 3878 2328 
Q 3878 3066 3575 3472 
Q 3272 3878 2719 3878 
z
M 2719 4750 
Q 3844 4750 4481 4106 
Q 5119 3463 5119 2328 
Q 5119 1197 4481 553 
Q 3844 -91 2719 -91 
Q 1597 -91 958 553 
Q 319 1197 319 2328 
Q 319 3463 958 4106 
Q 1597 4750 2719 4750 
z
" transform="scale(0.015625)"/>
      <path id="DejaVuSans-Bold-70" d="M 1656 506 
L 1656 -1331 
L 538 -1331 
L 538 3500 
L 1656 3500 
L 1656 2988 
Q 1888 3294 2169 3439 
Q 2450 3584 2816 3584 
Q 3463 3584 3878 3070 
Q 4294 2556 4294 1747 
Q 4294 938 3878 423 
Q 3463 -91 2816 -91 
Q 2450 -91 2169 54 
Q 1888 200 1656 506 
z
M 2400 2772 
Q 2041 2772 1848 2508 
Q 1656 2244 1656 1747 
Q 1656 1250 1848 986 
Q 2041 722 2400 722 
Q 2759 722 2948 984 
Q 3138 1247 3138 1747 
Q 3138 2247 2948 2509 
Q 2759 2772 2400 2772 
z
" transform="scale(0.015625)"/>
      <path id="DejaVuSans-Bold-56" d="M 31 4666 
L 1241 4666 
L 2478 1222 
L 3713 4666 
L 4922 4666 
L 3194 0 
L 1759 0 
L 31 4666 
z
" transform="scale(0.015625)"/>
     </defs>
     <use xlink:href="#DejaVuSans-Bold-50"/>
     <use xlink:href="#DejaVuSans-Bold-65" transform="translate(73.291016 0)"/>
     <use xlink:href="#DejaVuSans-Bold-72" transform="translate(141.113281 0)"/>
     <use xlink:href="#DejaVuSans-Bold-2d" transform="translate(190.429688 0)"/>
     <use xlink:href="#DejaVuSans-Bold-47" transform="translate(231.933594 0)"/>
     <use xlink:href="#DejaVuSans-Bold-65" transform="translate(314.013672 0)"/>
     <use xlink:href="#DejaVuSans-Bold-6e" transform="translate(381.835938 0)"/>
     <use xlink:href="#DejaVuSans-Bold-65" transform="translate(453.027344 0)"/>
     <use xlink:href="#DejaVuSans-Bold-20" transform="translate(520.849609 0)"/>
     <use xlink:href="#DejaVuSans-Bold-43" transform="translate(555.664062 0)"/>
     <use xlink:href="#DejaVuSans-Bold-6c" transform="translate(629.052734 0)"/>
     <use xlink:href="#DejaVuSans-Bold-61" transform="translate(663.330078 0)"/>
     <use xlink:href="#DejaVuSans-Bold-73" transform="translate(730.810547 0)"/>
     <use xlink:href="#DejaVuSans-Bold-73" transform="translate(790.332031 0)"/>
     <use xlink:href="#DejaVuSans-Bold-69" transform="translate(849.853516 0)"/>
     <use xlink:href="#DejaVuSans-Bold-66" transform="translate(884.130859 0)"/>
     <use xlink:href="#DejaVuSans-Bold-69" transform="translate(927.636719 0)"/>
     <use xlink:href="#DejaVuSans-Bold-63" transform="translate(961.914062 0)"/>
     <use xlink:href="#DejaVuSans-Bold-61" transform="translate(1021.191406 0)"/>
     <use xlink:href="#DejaVuSans-Bold-74" transform="translate(1088.671875 0)"/>
     <use xlink:href="#DejaVuSans-Bold-69" transform="translate(1136.474609 0)"/>
     <use xlink:href="#DejaVuSans-Bold-6f" transform="translate(1170.751953 0)"/>
     <use xlink:href="#DejaVuSans-Bold-6e" transform="translate(1239.453125 0)"/>
     <use xlink:href="#DejaVuSans-Bold-20" transform="translate(1310.644531 0)"/>
     <use xlink:href="#DejaVuSans-Bold-50" transform="translate(1345.458984 0)"/>
     <use xlink:href="#DejaVuSans-Bold-65" transform="translate(1418.75 0)"/>
     <use xlink:href="#DejaVuSans-Bold-72" transform="translate(1486.572266 0)"/>
     <use xlink:href="#DejaVuSans-Bold-66" transform="translate(1535.888672 0)"/>
     <use xlink:href="#DejaVuSans-Bold-6f" transform="translate(1579.394531 0)"/>
     <use xlink:href="#DejaVuSans-Bold-72" transform="translate(1648.095703 0)"/>
     <use xlink:href="#DejaVuSans-Bold-6d" transform="translate(1697.412109 0)"/>
     <use xlink:href="#DejaVuSans-Bold-61" transform="translate(1801.611328 0)"/>
     <use xlink:href="#DejaVuSans-Bold-6e" transform="translate(1869.091797 0)"/>
     <use xlink:href="#DejaVuSans-Bold-63" transform="translate(1940.283203 0)"/>
     <use xlink:href="#DejaVuSans-Bold-65" transform="translate(1999.560547 0)"/>
     <use xlink:href="#DejaVuSans-Bold-20" transform="translate(2067.382812 0)"/>
     <use xlink:href="#DejaVuSans-Bold-2014" transform="translate(2102.197266 0)"/>
     <use xlink:href="#DejaVuSans-Bold-20" transform="translate(2202.197266 0)"/>
     <use xlink:href="#DejaVuSans-Bold-58" transform="translate(2237.011719 0)"/>
     <use xlink:href="#DejaVuSans-Bold-47" transform="translate(2314.111328 0)"/>
     <use xlink:href="#DejaVuSans-Bold-42" transform="translate(2396.191406 0)"/>
     <use xlink:href="#DejaVuSans-Bold-6f" transform="translate(2472.412109 0)"/>
     <use xlink:href="#DejaVuSans-Bold-6f" transform="translate(2541.113281 0)"/>
     <use xlink:href="#DejaVuSans-Bold-73" transform="translate(2609.814453 0)"/>
     <use xlink:href="#DejaVuSans-Bold-74" transform="translate(2669.335938 0)"/>
     <use xlink:href="#DejaVuSans-Bold-20" transform="translate(2717.138672 0)"/>
     <use xlink:href="#DejaVuSans-Bold-28" transform="translate(2751.953125 0)"/>
     <use xlink:href="#DejaVuSans-Bold-4f" transform="translate(2797.65625 0)"/>
     <use xlink:href="#DejaVuSans-Bold-70" transform="translate(2882.666016 0)"/>
     <use xlink:href="#DejaVuSans-Bold-65" transform="translate(2954.248047 0)"/>
     <use xlink:href="#DejaVuSans-Bold-6e" transform="translate(3022.070312 0)"/>
     <use xlink:href="#DejaVuSans-Bold-56" transform="translate(3093.261719 0)"/>
     <use xlink:href="#DejaVuSans-Bold-61" transform="translate(3165.154297 0)"/>
     <use xlink:href="#DejaVuSans-Bold-72" transform="translate(3232.634766 0)"/>
     <use xlink:href="#DejaVuSans-Bold-69" transform="translate(3281.951172 0)"/>
     <use xlink:href="#DejaVuSans-Bold-61" transform="translate(3316.228516 0)"/>
     <use xlink:href="#DejaVuSans-Bold-6e" transform="translate(3383.708984 0)"/>
     <use xlink:href="#DejaVuSans-Bold-74" transform="translate(3454.900391 0)"/>
     <use xlink:href="#DejaVuSans-Bold-29" transform="translate(3502.703125 0)"/>
    </g>
    <!-- Error bars = 95% Bootstrap CI (n=1,000)  [SIMULATED DATA] -->
    <g transform="translate(159.796406 31.635125) scale(0.13 -0.13)">
     <defs>
      <path id="DejaVuSans-Bold-45" d="M 588 4666 
L 3834 4666 
L 3834 3756 
L 1791 3756 
L 1791 2888 
L 3713 2888 
L 3713 1978 
L 1791 1978 
L 1791 909 
L 3903 909 
L 3903 0 
L 588 0 
L 588 4666 
z
" transform="scale(0.015625)"/>
      <path id="DejaVuSans-Bold-62" d="M 2400 722 
Q 2759 722 2948 984 
Q 3138 1247 3138 1747 
Q 3138 2247 2948 2509 
Q 2759 2772 2400 2772 
Q 2041 2772 1848 2508 
Q 1656 2244 1656 1747 
Q 1656 1250 1848 986 
Q 2041 722 2400 722 
z
M 1656 2988 
Q 1888 3294 2169 3439 
Q 2450 3584 2816 3584 
Q 3463 3584 3878 3070 
Q 4294 2556 4294 1747 
Q 4294 938 3878 423 
Q 3463 -91 2816 -91 
Q 2450 -91 2169 54 
Q 1888 200 1656 506 
L 1656 0 
L 538 0 
L 538 4863 
L 1656 4863 
L 1656 2988 
z
" transform="scale(0.015625)"/>
      <path id="DejaVuSans-Bold-3d" d="M 678 3084 
L 4684 3084 
L 4684 2350 
L 678 2350 
L 678 3084 
z
M 678 1663 
L 4684 1663 
L 4684 922 
L 678 922 
L 678 1663 
z
" transform="scale(0.015625)"/>
      <path id="DejaVuSans-Bold-25" d="M 4959 1925 
Q 4738 1925 4616 1733 
Q 4494 1541 4494 1184 
Q 4494 825 4614 633 
Q 4734 441 4959 441 
Q 5184 441 5303 633 
Q 5422 825 5422 1184 
Q 5422 1541 5301 1733 
Q 5181 1925 4959 1925 
z
M 4959 2450 
Q 5541 2450 5875 2112 
Q 6209 1775 6209 1184 
Q 6209 594 5875 251 
Q 5541 -91 4959 -91 
Q 4378 -91 4042 251 
Q 3706 594 3706 1184 
Q 3706 1772 4042 2111 
Q 4378 2450 4959 2450 
z
M 2094 -91 
L 1403 -91 
L 4319 4750 
L 5013 4750 
L 2094 -91 
z
M 1453 4750 
Q 2034 4750 2367 4411 
Q 2700 4072 2700 3481 
Q 2700 2891 2367 2550 
Q 2034 2209 1453 2209 
Q 872 2209 539 2550 
Q 206 2891 206 3481 
Q 206 4072 539 4411 
Q 872 4750 1453 4750 
z
M 1453 4225 
Q 1228 4225 1106 4031 
Q 984 3838 984 3481 
Q 984 3122 1106 2926 
Q 1228 2731 1453 2731 
Q 1678 2731 1798 2926 
Q 1919 3122 1919 3481 
Q 1919 3838 1797 4031 
Q 1675 4225 1453 4225 
z
" transform="scale(0.015625)"/>
      <path id="DejaVuSans-Bold-49" d="M 588 4666 
L 1791 4666 
L 1791 0 
L 588 0 
L 588 4666 
z
" transform="scale(0.015625)"/>
      <path id="DejaVuSans-Bold-2c" d="M 653 1209 
L 1778 1209 
L 1778 256 
L 1006 -909 
L 341 -909 
L 653 256 
L 653 1209 
z
" transform="scale(0.015625)"/>
      <path id="DejaVuSans-Bold-5b" d="M 550 4863 
L 2491 4863 
L 2491 4159 
L 1613 4159 
L 1613 -141 
L 2491 -141 
L 2491 -844 
L 550 -844 
L 550 4863 
z
" transform="scale(0.015625)"/>
      <path id="DejaVuSans-Bold-53" d="M 3834 4519 
L 3834 3531 
Q 3450 3703 3084 3790 
Q 2719 3878 2394 3878 
Q 1963 3878 1756 3759 
Q 1550 3641 1550 3391 
Q 1550 3203 1689 3098 
Q 1828 2994 2194 2919 
L 2706 2816 
Q 3484 2659 3812 2340 
Q 4141 2022 4141 1434 
Q 4141 663 3683 286 
Q 3225 -91 2284 -91 
Q 1841 -91 1394 -6 
Q 947 78 500 244 
L 500 1259 
Q 947 1022 1364 901 
Q 1781 781 2169 781 
Q 2563 781 2772 912 
Q 2981 1044 2981 1288 
Q 2981 1506 2839 1625 
Q 2697 1744 2272 1838 
L 1806 1941 
Q 1106 2091 782 2419 
Q 459 2747 459 3303 
Q 459 4000 909 4375 
Q 1359 4750 2203 4750 
Q 2588 4750 2994 4692 
Q 3400 4634 3834 4519 
z
" transform="scale(0.015625)"/>
      <path id="DejaVuSans-Bold-4d" d="M 588 4666 
L 2119 4666 
L 3181 2169 
L 4250 4666 
L 5778 4666 
L 5778 0 
L 4641 0 
L 4641 3413 
L 3566 897 
L 2803 897 
L 1728 3413 
L 1728 0 
L 588 0 
L 588 4666 
z
" transform="scale(0.015625)"/>
      <path id="DejaVuSans-Bold-55" d="M 588 4666 
L 1791 4666 
L 1791 1869 
Q 1791 1291 1980 1042 
Q 2169 794 2597 794 
Q 3028 794 3217 1042 
Q 3406 1291 3406 1869 
L 3406 4666 
L 4609 4666 
L 4609 1869 
Q 4609 878 4112 393 
Q 3616 -91 2597 -91 
Q 1581 -91 1084 393 
Q 588 878 588 1869 
L 588 4666 
z
" transform="scale(0.015625)"/>
      <path id="DejaVuSans-Bold-4c" d="M 588 4666 
L 1791 4666 
L 1791 909 
L 3903 909 
L 3903 0 
L 588 0 
L 588 4666 
z
" transform="scale(0.015625)"/>
      <path id="DejaVuSans-Bold-41" d="M 3419 850 
L 1538 850 
L 1241 0 
L 31 0 
L 1759 4666 
L 3194 4666 
L 4922 0 
L 3713 0 
L 3419 850 
z
M 1838 1716 
L 3116 1716 
L 2478 3572 
L 1838 1716 
z
" transform="scale(0.015625)"/>
      <path id="DejaVuSans-Bold-54" d="M 31 4666 
L 4331 4666 
L 4331 3756 
L 2784 3756 
L 2784 0 
L 1581 0 
L 1581 3756 
L 31 3756 
L 31 4666 
z
" transform="scale(0.015625)"/>
      <path id="DejaVuSans-Bold-44" d="M 1791 3756 
L 1791 909 
L 2222 909 
Q 2959 909 3348 1275 
Q 3738 1641 3738 2338 
Q 3738 3031 3350 3393 
Q 2963 3756 2222 3756 
L 1791 3756 
z
M 588 4666 
L 1856 4666 
Q 2919 4666 3439 4514 
Q 3959 4363 4331 4000 
Q 4659 3684 4818 3271 
Q 4978 2859 4978 2338 
Q 4978 1809 4818 1395 
Q 4659 981 4331 666 
Q 3956 303 3431 151 
Q 2906 0 1856 0 
L 588 0 
L 588 4666 
z
" transform="scale(0.015625)"/>
      <path id="DejaVuSans-Bold-5d" d="M 2375 -844 
L 434 -844 
L 434 -141 
L 1313 -141 
L 1313 4159 
L 434 4159 
L 434 4863 
L 2375 4863 
L 2375 -844 
z
" transform="scale(0.015625)"/>
     </defs>
     <use xlink:href="#DejaVuSans-Bold-45"/>
     <use xlink:href="#DejaVuSans-Bold-72" transform="translate(68.310547 0)"/>
     <use xlink:href="#DejaVuSans-Bold-72" transform="translate(117.626953 0)"/>
     <use xlink:href="#DejaVuSans-Bold-6f" transform="translate(166.943359 0)"/>
     <use xlink:href="#DejaVuSans-Bold-72" transform="translate(235.644531 0)"/>
     <use xlink:href="#DejaVuSans-Bold-20" transform="translate(284.960938 0)"/>
     <use xlink:href="#DejaVuSans-Bold-62" transform="translate(319.775391 0)"/>
     <use xlink:href="#DejaVuSans-Bold-61" transform="translate(391.357422 0)"/>
     <use xlink:href="#DejaVuSans-Bold-72" transform="translate(458.837891 0)"/>
     <use xlink:href="#DejaVuSans-Bold-73" transform="translate(508.154297 0)"/>
     <use xlink:href="#DejaVuSans-Bold-20" transform="translate(567.675781 0)"/>
     <use xlink:href="#DejaVuSans-Bold-3d" transform="translate(602.490234 0)"/>
     <use xlink:href="#DejaVuSans-Bold-20" transform="translate(686.279297 0)"/>
     <use xlink:href="#DejaVuSans-Bold-39" transform="translate(721.09375 0)"/>
     <use xlink:href="#DejaVuSans-Bold-35" transform="translate(790.673828 0)"/>
     <use xlink:href="#DejaVuSans-Bold-25" transform="translate(860.253906 0)"/>
     <use xlink:href="#DejaVuSans-Bold-20" transform="translate(960.449219 0)"/>
     <use xlink:href="#DejaVuSans-Bold-42" transform="translate(995.263672 0)"/>
     <use xlink:href="#DejaVuSans-Bold-6f" transform="translate(1071.484375 0)"/>
     <use xlink:href="#DejaVuSans-Bold-6f" transform="translate(1140.185547 0)"/>
     <use xlink:href="#DejaVuSans-Bold-74" transform="translate(1208.886719 0)"/>
     <use xlink:href="#DejaVuSans-Bold-73" transform="translate(1256.689453 0)"/>
     <use xlink:href="#DejaVuSans-Bold-74" transform="translate(1316.210938 0)"/>
     <use xlink:href="#DejaVuSans-Bold-72" transform="translate(1364.013672 0)"/>
     <use xlink:href="#DejaVuSans-Bold-61" transform="translate(1413.330078 0)"/>
     <use xlink:href="#DejaVuSans-Bold-70" transform="translate(1480.810547 0)"/>
     <use xlink:href="#DejaVuSans-Bold-20" transform="translate(1552.392578 0)"/>
     <use xlink:href="#DejaVuSans-Bold-43" transform="translate(1587.207031 0)"/>
     <use xlink:href="#DejaVuSans-Bold-49" transform="translate(1660.595703 0)"/>
     <use xlink:href="#DejaVuSans-Bold-20" transform="translate(1697.802734 0)"/>
     <use xlink:href="#DejaVuSans-Bold-28" transform="translate(1732.617188 0)"/>
     <use xlink:href="#DejaVuSans-Bold-6e" transform="translate(1778.320312 0)"/>
     <use xlink:href="#DejaVuSans-Bold-3d" transform="translate(1849.511719 0)"/>
     <use xlink:href="#DejaVuSans-Bold-31" transform="translate(1933.300781 0)"/>
     <use xlink:href="#DejaVuSans-Bold-2c" transform="translate(2002.880859 0)"/>
     <use xlink:href="#DejaVuSans-Bold-30" transform="translate(2040.869141 0)"/>
     <use xlink:href="#DejaVuSans-Bold-30" transform="translate(2110.449219 0)"/>
     <use xlink:href="#DejaVuSans-Bold-30" transform="translate(2180.029297 0)"/>
     <use xlink:href="#DejaVuSans-Bold-29" transform="translate(2249.609375 0)"/>
     <use xlink:href="#DejaVuSans-Bold-20" transform="translate(2295.3125 0)"/>
     <use xlink:href="#DejaVuSans-Bold-20" transform="translate(2330.126953 0)"/>
     <use xlink:href="#DejaVuSans-Bold-5b" transform="translate(2364.941406 0)"/>
     <use xlink:href="#DejaVuSans-Bold-53" transform="translate(2410.644531 0)"/>
     <use xlink:href="#DejaVuSans-Bold-49" transform="translate(2482.666016 0)"/>
     <use xlink:href="#DejaVuSans-Bold-4d" transform="translate(2519.873047 0)"/>
     <use xlink:href="#DejaVuSans-Bold-55" transform="translate(2619.384766 0)"/>
     <use xlink:href="#DejaVuSans-Bold-4c" transform="translate(2700.585938 0)"/>
     <use xlink:href="#DejaVuSans-Bold-41" transform="translate(2764.306641 0)"/>
     <use xlink:href="#DejaVuSans-Bold-54" transform="translate(2833.949219 0)"/>
     <use xlink:href="#DejaVuSans-Bold-45" transform="translate(2902.162109 0)"/>
     <use xlink:href="#DejaVuSans-Bold-44" transform="translate(2970.472656 0)"/>
     <use xlink:href="#DejaVuSans-Bold-20" transform="translate(3053.480469 0)"/>
     <use xlink:href="#DejaVuSans-Bold-44" transform="translate(3088.294922 0)"/>
     <use xlink:href="#DejaVuSans-Bold-41" transform="translate(3171.302734 0)"/>
     <use xlink:href="#DejaVuSans-Bold-54" transform="translate(3240.945312 0)"/>
     <use xlink:href="#DejaVuSans-Bold-41" transform="translate(3301.408203 0)"/>
     <use xlink:href="#DejaVuSans-Bold-5d" transform="translate(3378.800781 0)"/>
    </g>
   </g>
   <g id="line2d_23">
    <path d="M 58.441875 176.114948 
L 706.331875 176.114948 
" clip-path="url(#p2ce34efb0f)" style="fill: none; stroke-dasharray: 5.92,2.56; stroke-dashoffset: 0; stroke: #e41a1c; stroke-width: 1.6"/>
   </g>
   <g id="LineCollection_1">
    <path d="M 117.075655 209.932485 
L 117.075655 124.066485 
" clip-path="url(#p2ce34efb0f)" style="fill: none; stroke: #000000; stroke-width: 1.5"/>
    <path d="M 223.200143 209.932485 
L 223.200143 130.935765 
" clip-path="url(#p2ce34efb0f)" style="fill: none; stroke: #000000; stroke-width: 1.5"/>
    <path d="M 329.324631 235.692285 
L 329.324631 120.631845 
" clip-path="url(#p2ce34efb0f)" style="fill: none; stroke: #000000; stroke-width: 1.5"/>
    <path d="M 435.449119 220.236405 
L 435.449119 139.522365 
" clip-path="url(#p2ce34efb0f)" style="fill: none; stroke: #000000; stroke-width: 1.5"/>
    <path d="M 541.573607 227.105685 
L 541.573607 142.957005 
" clip-path="url(#p2ce34efb0f)" style="fill: none; stroke: #000000; stroke-width: 1.5"/>
    <path d="M 647.698095 247.713525 
L 647.698095 146.391645 
" clip-path="url(#p2ce34efb0f)" style="fill: none; stroke: #000000; stroke-width: 1.5"/>
   </g>
   <g id="line2d_24">
    <defs>
     <path id="maf4e8297f6" d="M 5 0 
L -5 -0 
" style="stroke: #000000; stroke-width: 1.5"/>
    </defs>
    <g clip-path="url(#p2ce34efb0f)">
     <use xlink:href="#maf4e8297f6" x="117.075655" y="209.932485" style="stroke: #000000; stroke-width: 1.5"/>
     <use xlink:href="#maf4e8297f6" x="223.200143" y="209.932485" style="stroke: #000000; stroke-width: 1.5"/>
     <use xlink:href="#maf4e8297f6" x="329.324631" y="235.692285" style="stroke: #000000; stroke-width: 1.5"/>
     <use xlink:href="#maf4e8297f6" x="435.449119" y="220.236405" style="stroke: #000000; stroke-width: 1.5"/>
     <use xlink:href="#maf4e8297f6" x="541.573607" y="227.105685" style="stroke: #000000; stroke-width: 1.5"/>
     <use xlink:href="#maf4e8297f6" x="647.698095" y="247.713525" style="stroke: #000000; stroke-width: 1.5"/>
    </g>
   </g>
   <g id="line2d_25">
    <g clip-path="url(#p2ce34efb0f)">
     <use xlink:href="#maf4e8297f6" x="117.075655" y="124.066485" style="stroke: #000000; stroke-width: 1.5"/>
     <use xlink:href="#maf4e8297f6" x="223.200143" y="130.935765" style="stroke: #000000; stroke-width: 1.5"/>
     <use xlink:href="#maf4e8297f6" x="329.324631" y="120.631845" style="stroke: #000000; stroke-width: 1.5"/>
     <use xlink:href="#maf4e8297f6" x="435.449119" y="139.522365" style="stroke: #000000; stroke-width: 1.5"/>
     <use xlink:href="#maf4e8297f6" x="541.573607" y="142.957005" style="stroke: #000000; stroke-width: 1.5"/>
     <use xlink:href="#maf4e8297f6" x="647.698095" y="146.391645" style="stroke: #000000; stroke-width: 1.5"/>
    </g>
   </g>
   <g id="legend_1">
    <g id="patch_17">
     <path d="M 461.663828 380.349125 
L 699.681875 380.349125 
Q 701.581875 380.349125 701.581875 378.449125 
L 701.581875 365.454906 
Q 701.581875 363.554906 699.681875 363.554906 
L 461.663828 363.554906 
Q 459.763828 363.554906 459.763828 365.454906 
L 459.763828 378.449125 
Q 459.763828 380.349125 461.663828 380.349125 
z
" style="fill: #ffffff; opacity: 0.9; stroke: #d3d3d3; stroke-linejoin: miter"/>
    </g>
    <g id="line2d_26">
     <path d="M 463.563828 371.248422 
L 473.063828 371.248422 
L 482.563828 371.248422 
" style="fill: none; stroke-dasharray: 5.92,2.56; stroke-dashoffset: 0; stroke: #e41a1c; stroke-width: 1.6"/>
    </g>
    <g id="text_24">
     <!-- Overall AUC = 0.942 (95% CI: 0.931–0.953) -->
     <g transform="translate(490.163828 374.573422) scale(0.095 -0.095)">
      <defs>
       <path id="DejaVuSans-76" d="M 191 3500 
L 800 3500 
L 1894 563 
L 2988 3500 
L 3597 3500 
L 2284 0 
L 1503 0 
L 191 3500 
z
" transform="scale(0.015625)"/>
       <path id="DejaVuSans-72" d="M 2631 2963 
Q 2534 3019 2420 3045 
Q 2306 3072 2169 3072 
Q 1681 3072 1420 2755 
Q 1159 2438 1159 1844 
L 1159 0 
L 581 0 
L 581 3500 
L 1159 3500 
L 1159 2956 
Q 1341 3275 1631 3429 
Q 1922 3584 2338 3584 
Q 2397 3584 2469 3576 
Q 2541 3569 2628 3553 
L 2631 2963 
z
" transform="scale(0.015625)"/>
       <path id="DejaVuSans-61" d="M 2194 1759 
Q 1497 1759 1228 1600 
Q 959 1441 959 1056 
Q 959 750 1161 570 
Q 1363 391 1709 391 
Q 2188 391 2477 730 
Q 2766 1069 2766 1631 
L 2766 1759 
L 2194 1759 
z
M 3341 1997 
L 3341 0 
L 2766 0 
L 2766 531 
Q 2569 213 2275 61 
Q 1981 -91 1556 -91 
Q 1019 -91 701 211 
Q 384 513 384 1019 
Q 384 1609 779 1909 
Q 1175 2209 1959 2209 
L 2766 2209 
L 2766 2266 
Q 2766 2663 2505 2880 
Q 2244 3097 1772 3097 
Q 1472 3097 1187 3025 
Q 903 2953 641 2809 
L 641 3341 
Q 956 3463 1253 3523 
Q 1550 3584 1831 3584 
Q 2591 3584 2966 3190 
Q 3341 2797 3341 1997 
z
" transform="scale(0.015625)"/>
       <path id="DejaVuSans-3d" d="M 678 2906 
L 4684 2906 
L 4684 2381 
L 678 2381 
L 678 2906 
z
M 678 1631 
L 4684 1631 
L 4684 1100 
L 678 1100 
L 678 1631 
z
" transform="scale(0.015625)"/>
       <path id="DejaVuSans-34" d="M 2419 4116 
L 825 1625 
L 2419 1625 
L 2419 4116 
z
M 2253 4666 
L 3047 4666 
L 3047 1625 
L 3713 1625 
L 3713 1100 
L 3047 1100 
L 3047 0 
L 2419 0 
L 2419 1100 
L 313 1100 
L 313 1709 
L 2253 4666 
z
" transform="scale(0.015625)"/>
       <path id="DejaVuSans-25" d="M 4653 2053 
Q 4381 2053 4226 1822 
Q 4072 1591 4072 1178 
Q 4072 772 4226 539 
Q 4381 306 4653 306 
Q 4919 306 5073 539 
Q 5228 772 5228 1178 
Q 5228 1588 5073 1820 
Q 4919 2053 4653 2053 
z
M 4653 2450 
Q 5147 2450 5437 2106 
Q 5728 1763 5728 1178 
Q 5728 594 5436 251 
Q 5144 -91 4653 -91 
Q 4153 -91 3862 251 
Q 3572 594 3572 1178 
Q 3572 1766 3864 2108 
Q 4156 2450 4653 2450 
z
M 1428 4353 
Q 1159 4353 1004 4120 
Q 850 3888 850 3481 
Q 850 3069 1003 2837 
Q 1156 2606 1428 2606 
Q 1700 2606 1854 2837 
Q 2009 3069 2009 3481 
Q 2009 3884 1853 4118 
Q 1697 4353 1428 4353 
z
M 4250 4750 
L 4750 4750 
L 1831 -91 
L 1331 -91 
L 4250 4750 
z
M 1428 4750 
Q 1922 4750 2215 4408 
Q 2509 4066 2509 3481 
Q 2509 2891 2217 2550 
Q 1925 2209 1428 2209 
Q 931 2209 642 2551 
Q 353 2894 353 3481 
Q 353 4063 643 4406 
Q 934 4750 1428 4750 
z
" transform="scale(0.015625)"/>
       <path id="DejaVuSans-49" d="M 628 4666 
L 1259 4666 
L 1259 0 
L 628 0 
L 628 4666 
z
" transform="scale(0.015625)"/>
       <path id="DejaVuSans-3a" d="M 750 794 
L 1409 794 
L 1409 0 
L 750 0 
L 750 794 
z
M 750 3309 
L 1409 3309 
L 1409 2516 
L 750 2516 
L 750 3309 
z
" transform="scale(0.015625)"/>
       <path id="DejaVuSans-2013" d="M 313 1978 
L 2888 1978 
L 2888 1528 
L 313 1528 
L 313 1978 
z
" transform="scale(0.015625)"/>
      </defs>
      <use xlink:href="#DejaVuSans-4f"/>
      <use xlink:href="#DejaVuSans-76" transform="translate(78.710938 0)"/>
      <use xlink:href="#DejaVuSans-65" transform="translate(137.890625 0)"/>
      <use xlink:href="#DejaVuSans-72" transform="translate(199.414062 0)"/>
      <use xlink:href="#DejaVuSans-61" transform="translate(240.527344 0)"/>
      <use xlink:href="#DejaVuSans-6c" transform="translate(301.806641 0)"/>
      <use xlink:href="#DejaVuSans-6c" transform="translate(329.589844 0)"/>
      <use xlink:href="#DejaVuSans-20" transform="translate(357.373047 0)"/>
      <use xlink:href="#DejaVuSans-41" transform="translate(389.160156 0)"/>
      <use xlink:href="#DejaVuSans-55" transform="translate(457.568359 0)"/>
      <use xlink:href="#DejaVuSans-43" transform="translate(530.761719 0)"/>
      <use xlink:href="#DejaVuSans-20" transform="translate(600.585938 0)"/>
      <use xlink:href="#DejaVuSans-3d" transform="translate(632.373047 0)"/>
      <use xlink:href="#DejaVuSans-20" transform="translate(716.162109 0)"/>
      <use xlink:href="#DejaVuSans-30" transform="translate(747.949219 0)"/>
      <use xlink:href="#DejaVuSans-2e" transform="translate(811.572266 0)"/>
      <use xlink:href="#DejaVuSans-39" transform="translate(843.359375 0)"/>
      <use xlink:href="#DejaVuSans-34" transform="translate(906.982422 0)"/>
      <use xlink:href="#DejaVuSans-32" transform="translate(970.605469 0)"/>
      <use xlink:href="#DejaVuSans-20" transform="translate(1034.228516 0)"/>
      <use xlink:href="#DejaVuSans-28" transform="translate(1066.015625 0)"/>
      <use xlink:href="#DejaVuSans-39" transform="translate(1105.029297 0)"/>
      <use xlink:href="#DejaVuSans-35" transform="translate(1168.652344 0)"/>
      <use xlink:href="#DejaVuSans-25" transform="translate(1232.275391 0)"/>
      <use xlink:href="#DejaVuSans-20" transform="translate(1327.294922 0)"/>
      <use xlink:href="#DejaVuSans-43" transform="translate(1359.082031 0)"/>
      <use xlink:href="#DejaVuSans-49" transform="translate(1428.90625 0)"/>
      <use xlink:href="#DejaVuSans-3a" transform="translate(1458.398438 0)"/>
      <use xlink:href="#DejaVuSans-20" transform="translate(1492.089844 0)"/>
      <use xlink:href="#DejaVuSans-30" transform="translate(1523.876953 0)"/>
      <use xlink:href="#DejaVuSans-2e" transform="translate(1587.5 0)"/>
      <use xlink:href="#DejaVuSans-39" transform="translate(1619.287109 0)"/>
      <use xlink:href="#DejaVuSans-33" transform="translate(1682.910156 0)"/>
      <use xlink:href="#DejaVuSans-31" transform="translate(1746.533203 0)"/>
      <use xlink:href="#DejaVuSans-2013" transform="translate(1810.15625 0)"/>
      <use xlink:href="#DejaVuSans-30" transform="translate(1860.15625 0)"/>
      <use xlink:href="#DejaVuSans-2e" transform="translate(1923.779297 0)"/>
      <use xlink:href="#DejaVuSans-39" transform="translate(1955.566406 0)"/>
      <use xlink:href="#DejaVuSans-35" transform="translate(2019.189453 0)"/>
      <use xlink:href="#DejaVuSans-33" transform="translate(2082.8125 0)"/>
      <use xlink:href="#DejaVuSans-29" transform="translate(2146.435547 0)"/>
     </g>
    </g>
   </g>
  </g>
  <g id="text_25">
   <!-- ⚠ SIMULATED DATA — not real ClinVar records -->
   <g style="fill: #808080" transform="translate(264.14375 423.459125) scale(0.08 -0.08)">
    <defs>
     <path id="DejaVuSans-Oblique-26a0" d="M 2875 4616 
L 2897 4616 
L 5378 28 
L 5378 0 
L 369 0 
L 344 28 
L 316 28 
Q 2775 4516 2875 4616 
z
M 2847 4034 
L 791 319 
L 791 266 
L 4928 266 
L 4928 294 
Q 2938 3947 2847 4034 
z
M 2875 3347 
Q 3113 3347 3113 3138 
Q 2953 1241 2875 1241 
Q 2803 1241 2638 3166 
Q 2713 3347 2875 3347 
z
M 2872 1013 
Q 2931 1013 2987 981 
Q 3044 950 3076 894 
Q 3109 838 3109 775 
Q 3109 713 3078 656 
Q 3047 600 2989 569 
Q 2931 538 2872 538 
Q 2809 538 2753 569 
Q 2697 600 2665 656 
Q 2634 713 2634 775 
Q 2634 838 2665 894 
Q 2697 950 2753 981 
Q 2809 1013 2872 1013 
z
" transform="scale(0.015625)"/>
     <path id="DejaVuSans-Oblique-20" transform="scale(0.015625)"/>
     <path id="DejaVuSans-Oblique-53" d="M 3859 4513 
L 3738 3897 
Q 3422 4066 3111 4152 
Q 2800 4238 2509 4238 
Q 1944 4238 1609 3991 
Q 1275 3744 1275 3334 
Q 1275 3109 1398 2989 
Q 1522 2869 2034 2731 
L 2413 2638 
Q 3053 2472 3303 2217 
Q 3553 1963 3553 1503 
Q 3553 797 2998 353 
Q 2444 -91 1538 -91 
Q 1166 -91 791 -17 
Q 416 56 38 206 
L 166 856 
Q 513 641 861 531 
Q 1209 422 1556 422 
Q 2147 422 2503 684 
Q 2859 947 2859 1369 
Q 2859 1650 2717 1795 
Q 2575 1941 2106 2059 
L 1728 2156 
Q 1081 2325 845 2545 
Q 609 2766 609 3163 
Q 609 3859 1145 4304 
Q 1681 4750 2541 4750 
Q 2875 4750 3203 4690 
Q 3531 4631 3859 4513 
z
" transform="scale(0.015625)"/>
     <path id="DejaVuSans-Oblique-49" d="M 1081 4666 
L 1716 4666 
L 806 0 
L 172 0 
L 1081 4666 
z
" transform="scale(0.015625)"/>
     <path id="DejaVuSans-Oblique-4d" d="M 1081 4666 
L 2028 4666 
L 2572 1522 
L 4378 4666 
L 5350 4666 
L 4441 0 
L 3828 0 
L 4622 4091 
L 2791 897 
L 2175 897 
L 1581 4103 
L 788 0 
L 172 0 
L 1081 4666 
z
" transform="scale(0.015625)"/>
     <path id="DejaVuSans-Oblique-55" d="M 991 4666 
L 1625 4666 
L 1075 1831 
Q 1041 1641 1027 1517 
Q 1013 1394 1013 1300 
Q 1013 869 1253 645 
Q 1494 422 1959 422 
Q 2563 422 2898 753 
Q 3234 1084 3378 1831 
L 3928 4666 
L 4563 4666 
L 4000 1753 
Q 3816 809 3300 359 
Q 2784 -91 1888 -91 
Q 1188 -91 780 261 
Q 372 613 372 1216 
Q 372 1325 387 1461 
Q 403 1597 434 1753 
L 991 4666 
z
" transform="scale(0.015625)"/>
     <path id="DejaVuSans-Oblique-4c" d="M 1075 4666 
L 1709 4666 
L 909 525 
L 3181 525 
L 3078 0 
L 172 0 
L 1075 4666 
z
" transform="scale(0.015625)"/>
     <path id="DejaVuSans-Oblique-41" d="M 2356 4666 
L 3072 4666 
L 3938 0 
L 3278 0 
L 3084 1197 
L 984 1197 
L 325 0 
L -341 0 
L 2356 4666 
z
M 2584 4044 
L 1275 1722 
L 2988 1722 
L 2584 4044 
z
" transform="scale(0.015625)"/>
     <path id="DejaVuSans-Oblique-54" d="M 378 4666 
L 4325 4666 
L 4225 4134 
L 2559 4134 
L 1759 0 
L 1125 0 
L 1925 4134 
L 275 4134 
L 378 4666 
z
" transform="scale(0.015625)"/>
     <path id="DejaVuSans-Oblique-45" d="M 1081 4666 
L 4031 4666 
L 3928 4134 
L 1606 4134 
L 1338 2753 
L 3566 2753 
L 3463 2222 
L 1234 2222 
L 909 531 
L 3284 531 
L 3181 0 
L 172 0 
L 1081 4666 
z
" transform="scale(0.015625)"/>
     <path id="DejaVuSans-Oblique-44" d="M 1081 4666 
L 2438 4666 
Q 3519 4666 4070 4208 
Q 4622 3750 4622 2847 
Q 4622 2250 4412 1698 
Q 4203 1147 3834 769 
Q 3463 381 2891 190 
Q 2319 0 1538 0 
L 172 0 
L 1081 4666 
z
M 1613 4147 
L 909 519 
L 1734 519 
Q 2794 519 3375 1128 
Q 3956 1738 3956 2847 
Q 3956 3519 3581 3833 
Q 3206 4147 2406 4147 
L 1613 4147 
z
" transform="scale(0.015625)"/>
     <path id="DejaVuSans-Oblique-2014" d="M 356 1978 
L 6131 1978 
L 6044 1528 
L 269 1528 
L 356 1978 
z
" transform="scale(0.015625)"/>
     <path id="DejaVuSans-Oblique-6e" d="M 3566 2113 
L 3156 0 
L 2578 0 
L 2988 2091 
Q 3016 2238 3031 2350 
Q 3047 2463 3047 2528 
Q 3047 2791 2881 2937 
Q 2716 3084 2419 3084 
Q 1956 3084 1622 2776 
Q 1288 2469 1184 1941 
L 800 0 
L 225 0 
L 903 3500 
L 1478 3500 
L 1363 2950 
Q 1603 3253 1940 3418 
Q 2278 3584 2650 3584 
Q 3113 3584 3367 3334 
Q 3622 3084 3622 2631 
Q 3622 2519 3608 2391 
Q 3594 2263 3566 2113 
z
" transform="scale(0.015625)"/>
     <path id="DejaVuSans-Oblique-6f" d="M 1625 -91 
Q 1009 -91 651 289 
Q 294 669 294 1325 
Q 294 1706 417 2101 
Q 541 2497 738 2766 
Q 1047 3184 1428 3384 
Q 1809 3584 2291 3584 
Q 2888 3584 3255 3212 
Q 3622 2841 3622 2241 
Q 3622 1825 3500 1412 
Q 3378 1000 3181 728 
Q 2875 309 2494 109 
Q 2113 -91 1625 -91 
z
M 891 1344 
Q 891 869 1089 633 
Q 1288 397 1691 397 
Q 2269 397 2648 901 
Q 3028 1406 3028 2181 
Q 3028 2634 2825 2865 
Q 2622 3097 2228 3097 
Q 1903 3097 1650 2945 
Q 1397 2794 1197 2484 
Q 1050 2253 970 1956 
Q 891 1659 891 1344 
z
" transform="scale(0.015625)"/>
     <path id="DejaVuSans-Oblique-74" d="M 2706 3500 
L 2619 3053 
L 1472 3053 
L 1100 1153 
Q 1081 1047 1072 975 
Q 1063 903 1063 863 
Q 1063 663 1183 572 
Q 1303 481 1569 481 
L 2150 481 
L 2053 0 
L 1503 0 
Q 991 0 739 200 
Q 488 400 488 806 
Q 488 878 497 964 
Q 506 1050 525 1153 
L 897 3053 
L 409 3053 
L 500 3500 
L 978 3500 
L 1172 4494 
L 1747 4494 
L 1556 3500 
L 2706 3500 
z
" transform="scale(0.015625)"/>
     <path id="DejaVuSans-Oblique-72" d="M 2853 2969 
Q 2766 3016 2653 3041 
Q 2541 3066 2413 3066 
Q 1953 3066 1609 2717 
Q 1266 2369 1153 1784 
L 800 0 
L 225 0 
L 909 3500 
L 1484 3500 
L 1375 2956 
Q 1603 3259 1920 3421 
Q 2238 3584 2597 3584 
Q 2691 3584 2781 3573 
Q 2872 3563 2963 3538 
L 2853 2969 
z
" transform="scale(0.015625)"/>
     <path id="DejaVuSans-Oblique-65" d="M 3078 2063 
Q 3088 2113 3092 2166 
Q 3097 2219 3097 2272 
Q 3097 2653 2873 2875 
Q 2650 3097 2266 3097 
Q 1838 3097 1509 2826 
Q 1181 2556 1013 2059 
L 3078 2063 
z
M 3578 1613 
L 903 1613 
Q 884 1494 878 1425 
Q 872 1356 872 1306 
Q 872 872 1139 634 
Q 1406 397 1894 397 
Q 2269 397 2603 481 
Q 2938 566 3225 728 
L 3116 159 
Q 2806 34 2476 -28 
Q 2147 -91 1806 -91 
Q 1078 -91 686 257 
Q 294 606 294 1247 
Q 294 1794 489 2264 
Q 684 2734 1063 3103 
Q 1306 3334 1642 3459 
Q 1978 3584 2356 3584 
Q 2950 3584 3301 3228 
Q 3653 2872 3653 2272 
Q 3653 2128 3634 1964 
Q 3616 1800 3578 1613 
z
" transform="scale(0.015625)"/>
     <path id="DejaVuSans-Oblique-61" d="M 3438 1997 
L 3047 0 
L 2472 0 
L 2578 531 
Q 2325 219 2001 64 
Q 1678 -91 1281 -91 
Q 834 -91 548 182 
Q 263 456 263 884 
Q 263 1497 752 1853 
Q 1241 2209 2100 2209 
L 2900 2209 
L 2931 2363 
Q 2938 2388 2941 2417 
Q 2944 2447 2944 2509 
Q 2944 2788 2717 2942 
Q 2491 3097 2081 3097 
Q 1800 3097 1504 3025 
Q 1209 2953 897 2809 
L 997 3341 
Q 1322 3463 1633 3523 
Q 1944 3584 2234 3584 
Q 2853 3584 3176 3315 
Q 3500 3047 3500 2534 
Q 3500 2431 3484 2292 
Q 3469 2153 3438 1997 
z
M 2816 1759 
L 2241 1759 
Q 1534 1759 1195 1570 
Q 856 1381 856 984 
Q 856 709 1029 553 
Q 1203 397 1509 397 
Q 1978 397 2328 733 
Q 2678 1069 2791 1631 
L 2816 1759 
z
" transform="scale(0.015625)"/>
     <path id="DejaVuSans-Oblique-6c" d="M 1172 4863 
L 1747 4863 
L 800 0 
L 225 0 
L 1172 4863 
z
" transform="scale(0.015625)"/>
     <path id="DejaVuSans-Oblique-43" d="M 4447 4306 
L 4319 3641 
Q 4019 3944 3683 4091 
Q 3347 4238 2956 4238 
Q 2422 4238 2017 3981 
Q 1613 3725 1319 3200 
Q 1131 2863 1032 2486 
Q 934 2109 934 1728 
Q 934 1091 1264 756 
Q 1594 422 2222 422 
Q 2656 422 3056 561 
Q 3456 700 3834 978 
L 3688 231 
Q 3316 72 2936 -9 
Q 2556 -91 2175 -91 
Q 1278 -91 773 396 
Q 269 884 269 1753 
Q 269 2309 461 2846 
Q 653 3384 1013 3828 
Q 1394 4300 1883 4525 
Q 2372 4750 3022 4750 
Q 3422 4750 3780 4639 
Q 4138 4528 4447 4306 
z
" transform="scale(0.015625)"/>
     <path id="DejaVuSans-Oblique-69" d="M 1172 4863 
L 1747 4863 
L 1606 4134 
L 1031 4134 
L 1172 4863 
z
M 909 3500 
L 1484 3500 
L 800 0 
L 225 0 
L 909 3500 
z
" transform="scale(0.015625)"/>
     <path id="DejaVuSans-Oblique-56" d="M 1319 0 
L 500 4666 
L 1119 4666 
L 1797 653 
L 4063 4666 
L 4750 4666 
L 2053 0 
L 1319 0 
z
" transform="scale(0.015625)"/>
     <path id="DejaVuSans-Oblique-63" d="M 3431 3366 
L 3316 2797 
Q 3109 2947 2876 3022 
Q 2644 3097 2394 3097 
Q 2119 3097 1870 3000 
Q 1622 2903 1453 2725 
Q 1184 2453 1037 2087 
Q 891 1722 891 1331 
Q 891 859 1127 628 
Q 1363 397 1844 397 
Q 2081 397 2348 469 
Q 2616 541 2906 684 
L 2797 116 
Q 2547 13 2283 -39 
Q 2019 -91 1741 -91 
Q 1044 -91 669 257 
Q 294 606 294 1253 
Q 294 1797 489 2255 
Q 684 2713 1069 3078 
Q 1331 3328 1684 3456 
Q 2038 3584 2456 3584 
Q 2700 3584 2940 3529 
Q 3181 3475 3431 3366 
z
" transform="scale(0.015625)"/>
     <path id="DejaVuSans-Oblique-64" d="M 2675 525 
Q 2444 222 2128 65 
Q 1813 -91 1428 -91 
Q 903 -91 598 267 
Q 294 625 294 1247 
Q 294 1766 478 2236 
Q 663 2706 1013 3078 
Q 1244 3325 1534 3454 
Q 1825 3584 2144 3584 
Q 2481 3584 2739 3421 
Q 2997 3259 3138 2956 
L 3513 4863 
L 4091 4863 
L 3144 0 
L 2566 0 
L 2675 525 
z
M 891 1350 
Q 891 897 1095 644 
Q 1300 391 1663 391 
Q 1931 391 2161 520 
Q 2391 650 2566 903 
Q 2750 1166 2856 1509 
Q 2963 1853 2963 2188 
Q 2963 2622 2758 2865 
Q 2553 3109 2194 3109 
Q 1922 3109 1687 2981 
Q 1453 2853 1288 2613 
Q 1106 2353 998 2009 
Q 891 1666 891 1350 
z
" transform="scale(0.015625)"/>
     <path id="DejaVuSans-Oblique-73" d="M 3200 3397 
L 3091 2853 
Q 2863 2978 2609 3040 
Q 2356 3103 2088 3103 
Q 1634 3103 1373 2948 
Q 1113 2794 1113 2528 
Q 1113 2219 1719 2053 
Q 1766 2041 1788 2034 
L 1972 1978 
Q 2547 1819 2739 1644 
Q 2931 1469 2931 1166 
Q 2931 609 2489 259 
Q 2047 -91 1331 -91 
Q 1053 -91 747 -37 
Q 441 16 72 128 
L 184 722 
Q 500 559 806 475 
Q 1113 391 1394 391 
Q 1816 391 2080 572 
Q 2344 753 2344 1031 
Q 2344 1331 1650 1516 
L 1591 1531 
L 1394 1581 
Q 956 1697 753 1886 
Q 550 2075 550 2369 
Q 550 2928 970 3256 
Q 1391 3584 2113 3584 
Q 2397 3584 2667 3537 
Q 2938 3491 3200 3397 
z
" transform="scale(0.015625)"/>
    </defs>
    <use xlink:href="#DejaVuSans-Oblique-26a0"/>
    <use xlink:href="#DejaVuSans-Oblique-20" transform="translate(88.964844 0)"/>
    <use xlink:href="#DejaVuSans-Oblique-53" transform="translate(120.751953 0)"/>
    <use xlink:href="#DejaVuSans-Oblique-49" transform="translate(184.228516 0)"/>
    <use xlink:href="#DejaVuSans-Oblique-4d" transform="translate(213.720703 0)"/>
    <use xlink:href="#DejaVuSans-Oblique-55" transform="translate(300 0)"/>
    <use xlink:href="#DejaVuSans-Oblique-4c" transform="translate(373.193359 0)"/>
    <use xlink:href="#DejaVuSans-Oblique-41" transform="translate(428.90625 0)"/>
    <use xlink:href="#DejaVuSans-Oblique-54" transform="translate(490.064453 0)"/>
    <use xlink:href="#DejaVuSans-Oblique-45" transform="translate(551.148438 0)"/>
    <use xlink:href="#DejaVuSans-Oblique-44" transform="translate(614.332031 0)"/>
    <use xlink:href="#DejaVuSans-Oblique-20" transform="translate(691.333984 0)"/>
    <use xlink:href="#DejaVuSans-Oblique-44" transform="translate(723.121094 0)"/>
    <use xlink:href="#DejaVuSans-Oblique-41" transform="translate(800.123047 0)"/>
    <use xlink:href="#DejaVuSans-Oblique-54" transform="translate(861.28125 0)"/>
    <use xlink:href="#DejaVuSans-Oblique-41" transform="translate(913.240234 0)"/>
    <use xlink:href="#DejaVuSans-Oblique-20" transform="translate(981.648438 0)"/>
    <use xlink:href="#DejaVuSans-Oblique-2014" transform="translate(1013.435547 0)"/>
    <use xlink:href="#DejaVuSans-Oblique-20" transform="translate(1113.435547 0)"/>
    <use xlink:href="#DejaVuSans-Oblique-6e" transform="translate(1145.222656 0)"/>
    <use xlink:href="#DejaVuSans-Oblique-6f" transform="translate(1208.601562 0)"/>
    <use xlink:href="#DejaVuSans-Oblique-74" transform="translate(1269.783203 0)"/>
    <use xlink:href="#DejaVuSans-Oblique-20" transform="translate(1308.992188 0)"/>
    <use xlink:href="#DejaVuSans-Oblique-72" transform="translate(1340.779297 0)"/>
    <use xlink:href="#DejaVuSans-Oblique-65" transform="translate(1381.892578 0)"/>
    <use xlink:href="#DejaVuSans-Oblique-61" transform="translate(1443.416016 0)"/>
    <use xlink:href="#DejaVuSans-Oblique-6c" transform="translate(1504.695312 0)"/>
    <use xlink:href="#DejaVuSans-Oblique-20" transform="translate(1532.478516 0)"/>
    <use xlink:href="#DejaVuSans-Oblique-43" transform="translate(1564.265625 0)"/>
    <use xlink:href="#DejaVuSans-Oblique-6c" transform="translate(1634.089844 0)"/>
    <use xlink:href="#DejaVuSans-Oblique-69" transform="translate(1661.873047 0)"/>
    <use xlink:href="#DejaVuSans-Oblique-6e" transform="translate(1689.65625 0)"/>
    <use xlink:href="#DejaVuSans-Oblique-56" transform="translate(1753.035156 0)"/>
    <use xlink:href="#DejaVuSans-Oblique-61" transform="translate(1815.068359 0)"/>
    <use xlink:href="#DejaVuSans-Oblique-72" transform="translate(1876.347656 0)"/>
    <use xlink:href="#DejaVuSans-Oblique-20" transform="translate(1917.460938 0)"/>
    <use xlink:href="#DejaVuSans-Oblique-72" transform="translate(1949.248047 0)"/>
    <use xlink:href="#DejaVuSans-Oblique-65" transform="translate(1990.361328 0)"/>
    <use xlink:href="#DejaVuSans-Oblique-63" transform="translate(2051.884766 0)"/>
    <use xlink:href="#DejaVuSans-Oblique-6f" transform="translate(2106.865234 0)"/>
    <use xlink:href="#DejaVuSans-Oblique-72" transform="translate(2168.046875 0)"/>
    <use xlink:href="#DejaVuSans-Oblique-64" transform="translate(2209.160156 0)"/>
    <use xlink:href="#DejaVuSans-Oblique-73" transform="translate(2272.636719 0)"/>
   </g>
  </g>
 </g>
 <defs>
  <clipPath id="p2ce34efb0f">
   <rect x="58.441875" y="41.635125" width="647.89" height="343.464"/>
  </clipPath>
 </defs>
</svg>
